ISO-10303-21;
HEADER;
/* Generated by software containing ST-Developer
 * from STEP Tools, Inc. (www.steptools.com) 
 */

FILE_DESCRIPTION(
/* description */ (''),
/* implementation_level */ '2;1');

FILE_NAME(
/* name */ 'button cap v3.step',
/* time_stamp */ '2026-06-15T21:46:50-04:00',
/* author */ (''),
/* organization */ (''),
/* preprocessor_version */ 'ST-DEVELOPER v20.1',
/* originating_system */ 'Autodesk Translation Framework v15.8.0.0',
/* authorisation */ '');

FILE_SCHEMA (('AUTOMOTIVE_DESIGN { 1 0 10303 214 3 1 1 }'));
ENDSEC;

DATA;
#10=MECHANICAL_DESIGN_GEOMETRIC_PRESENTATION_REPRESENTATION('',(#13),#368);
#11=SHAPE_REPRESENTATION_RELATIONSHIP('SRR','None',#375,#12);
#12=ADVANCED_BREP_SHAPE_REPRESENTATION('',(#14),#367);
#13=STYLED_ITEM('',(#385),#14);
#14=MANIFOLD_SOLID_BREP('Body1',#208);
#15=FACE_BOUND('',#41,.T.);
#16=PLANE('',#225);
#17=PLANE('',#229);
#18=PLANE('',#234);
#19=PLANE('',#237);
#20=PLANE('',#241);
#21=PLANE('',#242);
#22=PLANE('',#243);
#23=FACE_OUTER_BOUND('',#35,.T.);
#24=FACE_OUTER_BOUND('',#36,.T.);
#25=FACE_OUTER_BOUND('',#37,.T.);
#26=FACE_OUTER_BOUND('',#38,.T.);
#27=FACE_OUTER_BOUND('',#39,.T.);
#28=FACE_OUTER_BOUND('',#40,.T.);
#29=FACE_OUTER_BOUND('',#42,.T.);
#30=FACE_OUTER_BOUND('',#43,.T.);
#31=FACE_OUTER_BOUND('',#44,.T.);
#32=FACE_OUTER_BOUND('',#45,.T.);
#33=FACE_OUTER_BOUND('',#46,.T.);
#34=FACE_OUTER_BOUND('',#47,.T.);
#35=EDGE_LOOP('',(#137,#138,#139,#140));
#36=EDGE_LOOP('',(#141,#142,#143,#144,#145,#146,#147,#148));
#37=EDGE_LOOP('',(#149,#150,#151,#152));
#38=EDGE_LOOP('',(#153,#154,#155,#156));
#39=EDGE_LOOP('',(#157,#158,#159,#160));
#40=EDGE_LOOP('',(#161,#162,#163,#164,#165,#166,#167,#168));
#41=EDGE_LOOP('',(#169));
#42=EDGE_LOOP('',(#170,#171,#172,#173));
#43=EDGE_LOOP('',(#174,#175,#176,#177));
#44=EDGE_LOOP('',(#178,#179,#180,#181));
#45=EDGE_LOOP('',(#182));
#46=EDGE_LOOP('',(#183,#184,#185,#186));
#47=EDGE_LOOP('',(#187,#188,#189,#190));
#48=LINE('',#313,#65);
#49=LINE('',#316,#66);
#50=LINE('',#319,#67);
#51=LINE('',#323,#68);
#52=LINE('',#327,#69);
#53=LINE('',#330,#70);
#54=LINE('',#333,#71);
#55=LINE('',#334,#72);
#56=LINE('',#338,#73);
#57=LINE('',#343,#74);
#58=LINE('',#344,#75);
#59=LINE('',#346,#76);
#60=LINE('',#348,#77);
#61=LINE('',#351,#78);
#62=LINE('',#355,#79);
#63=LINE('',#357,#80);
#64=LINE('',#360,#81);
#65=VECTOR('',#250,10.);
#66=VECTOR('',#253,10.);
#67=VECTOR('',#256,10.);
#68=VECTOR('',#259,10.);
#69=VECTOR('',#262,10.);
#70=VECTOR('',#265,10.);
#71=VECTOR('',#268,10.);
#72=VECTOR('',#269,10.);
#73=VECTOR('',#274,10.);
#74=VECTOR('',#279,10.);
#75=VECTOR('',#280,10.);
#76=VECTOR('',#283,10.);
#77=VECTOR('',#284,10.);
#78=VECTOR('',#287,10.);
#79=VECTOR('',#292,10.);
#80=VECTOR('',#295,10.);
#81=VECTOR('',#298,2.68700576850888);
#82=CIRCLE('',#223,2.);
#83=CIRCLE('',#224,2.);
#84=CIRCLE('',#226,2.);
#85=CIRCLE('',#227,2.);
#86=CIRCLE('',#228,2.);
#87=CIRCLE('',#231,2.);
#88=CIRCLE('',#233,2.);
#89=CIRCLE('',#235,2.);
#90=CIRCLE('',#236,2.68700576850888);
#91=CIRCLE('',#240,2.68700576850888);
#92=VERTEX_POINT('',#309);
#93=VERTEX_POINT('',#310);
#94=VERTEX_POINT('',#312);
#95=VERTEX_POINT('',#314);
#96=VERTEX_POINT('',#318);
#97=VERTEX_POINT('',#320);
#98=VERTEX_POINT('',#322);
#99=VERTEX_POINT('',#324);
#100=VERTEX_POINT('',#326);
#101=VERTEX_POINT('',#328);
#102=VERTEX_POINT('',#332);
#103=VERTEX_POINT('',#336);
#104=VERTEX_POINT('',#340);
#105=VERTEX_POINT('',#341);
#106=VERTEX_POINT('',#347);
#107=VERTEX_POINT('',#349);
#108=VERTEX_POINT('',#352);
#109=VERTEX_POINT('',#359);
#110=EDGE_CURVE('',#92,#93,#82,.T.);
#111=EDGE_CURVE('',#93,#94,#48,.T.);
#112=EDGE_CURVE('',#94,#95,#83,.T.);
#113=EDGE_CURVE('',#95,#92,#49,.T.);
#114=EDGE_CURVE('',#94,#96,#50,.T.);
#115=EDGE_CURVE('',#97,#96,#84,.T.);
#116=EDGE_CURVE('',#97,#98,#51,.T.);
#117=EDGE_CURVE('',#99,#98,#85,.T.);
#118=EDGE_CURVE('',#99,#100,#52,.T.);
#119=EDGE_CURVE('',#101,#100,#86,.T.);
#120=EDGE_CURVE('',#101,#95,#53,.T.);
#121=EDGE_CURVE('',#102,#93,#54,.T.);
#122=EDGE_CURVE('',#96,#102,#55,.T.);
#123=EDGE_CURVE('',#102,#103,#87,.T.);
#124=EDGE_CURVE('',#103,#97,#56,.T.);
#125=EDGE_CURVE('',#104,#105,#88,.T.);
#126=EDGE_CURVE('',#105,#101,#57,.T.);
#127=EDGE_CURVE('',#100,#104,#58,.T.);
#128=EDGE_CURVE('',#92,#105,#59,.T.);
#129=EDGE_CURVE('',#104,#106,#60,.T.);
#130=EDGE_CURVE('',#107,#106,#89,.T.);
#131=EDGE_CURVE('',#107,#103,#61,.T.);
#132=EDGE_CURVE('',#108,#108,#90,.T.);
#133=EDGE_CURVE('',#106,#99,#62,.T.);
#134=EDGE_CURVE('',#98,#107,#63,.T.);
#135=EDGE_CURVE('',#108,#109,#64,.T.);
#136=EDGE_CURVE('',#109,#109,#91,.T.);
#137=ORIENTED_EDGE('',*,*,#110,.T.);
#138=ORIENTED_EDGE('',*,*,#111,.T.);
#139=ORIENTED_EDGE('',*,*,#112,.T.);
#140=ORIENTED_EDGE('',*,*,#113,.T.);
#141=ORIENTED_EDGE('',*,*,#112,.F.);
#142=ORIENTED_EDGE('',*,*,#114,.T.);
#143=ORIENTED_EDGE('',*,*,#115,.F.);
#144=ORIENTED_EDGE('',*,*,#116,.T.);
#145=ORIENTED_EDGE('',*,*,#117,.F.);
#146=ORIENTED_EDGE('',*,*,#118,.T.);
#147=ORIENTED_EDGE('',*,*,#119,.F.);
#148=ORIENTED_EDGE('',*,*,#120,.T.);
#149=ORIENTED_EDGE('',*,*,#111,.F.);
#150=ORIENTED_EDGE('',*,*,#121,.F.);
#151=ORIENTED_EDGE('',*,*,#122,.F.);
#152=ORIENTED_EDGE('',*,*,#114,.F.);
#153=ORIENTED_EDGE('',*,*,#123,.T.);
#154=ORIENTED_EDGE('',*,*,#124,.T.);
#155=ORIENTED_EDGE('',*,*,#115,.T.);
#156=ORIENTED_EDGE('',*,*,#122,.T.);
#157=ORIENTED_EDGE('',*,*,#125,.T.);
#158=ORIENTED_EDGE('',*,*,#126,.T.);
#159=ORIENTED_EDGE('',*,*,#119,.T.);
#160=ORIENTED_EDGE('',*,*,#127,.T.);
#161=ORIENTED_EDGE('',*,*,#110,.F.);
#162=ORIENTED_EDGE('',*,*,#128,.T.);
#163=ORIENTED_EDGE('',*,*,#125,.F.);
#164=ORIENTED_EDGE('',*,*,#129,.T.);
#165=ORIENTED_EDGE('',*,*,#130,.F.);
#166=ORIENTED_EDGE('',*,*,#131,.T.);
#167=ORIENTED_EDGE('',*,*,#123,.F.);
#168=ORIENTED_EDGE('',*,*,#121,.T.);
#169=ORIENTED_EDGE('',*,*,#132,.T.);
#170=ORIENTED_EDGE('',*,*,#127,.F.);
#171=ORIENTED_EDGE('',*,*,#118,.F.);
#172=ORIENTED_EDGE('',*,*,#133,.F.);
#173=ORIENTED_EDGE('',*,*,#129,.F.);
#174=ORIENTED_EDGE('',*,*,#130,.T.);
#175=ORIENTED_EDGE('',*,*,#133,.T.);
#176=ORIENTED_EDGE('',*,*,#117,.T.);
#177=ORIENTED_EDGE('',*,*,#134,.T.);
#178=ORIENTED_EDGE('',*,*,#132,.F.);
#179=ORIENTED_EDGE('',*,*,#135,.T.);
#180=ORIENTED_EDGE('',*,*,#136,.T.);
#181=ORIENTED_EDGE('',*,*,#135,.F.);
#182=ORIENTED_EDGE('',*,*,#136,.F.);
#183=ORIENTED_EDGE('',*,*,#113,.F.);
#184=ORIENTED_EDGE('',*,*,#120,.F.);
#185=ORIENTED_EDGE('',*,*,#126,.F.);
#186=ORIENTED_EDGE('',*,*,#128,.F.);
#187=ORIENTED_EDGE('',*,*,#124,.F.);
#188=ORIENTED_EDGE('',*,*,#131,.F.);
#189=ORIENTED_EDGE('',*,*,#134,.F.);
#190=ORIENTED_EDGE('',*,*,#116,.F.);
#191=CYLINDRICAL_SURFACE('',#222,2.);
#192=CYLINDRICAL_SURFACE('',#230,2.);
#193=CYLINDRICAL_SURFACE('',#232,2.);
#194=CYLINDRICAL_SURFACE('',#238,2.);
#195=CYLINDRICAL_SURFACE('',#239,2.68700576850888);
#196=ADVANCED_FACE('',(#23),#191,.T.);
#197=ADVANCED_FACE('',(#24),#16,.T.);
#198=ADVANCED_FACE('',(#25),#17,.F.);
#199=ADVANCED_FACE('',(#26),#192,.T.);
#200=ADVANCED_FACE('',(#27),#193,.T.);
#201=ADVANCED_FACE('',(#28,#15),#18,.F.);
#202=ADVANCED_FACE('',(#29),#19,.F.);
#203=ADVANCED_FACE('',(#30),#194,.T.);
#204=ADVANCED_FACE('',(#31),#195,.F.);
#205=ADVANCED_FACE('',(#32),#20,.T.);
#206=ADVANCED_FACE('',(#33),#21,.F.);
#207=ADVANCED_FACE('',(#34),#22,.F.);
#208=CLOSED_SHELL('',(#196,#197,#198,#199,#200,#201,#202,#203,#204,#205,
#206,#207));
#209=DERIVED_UNIT_ELEMENT(#211,1.);
#210=DERIVED_UNIT_ELEMENT(#370,-3.);
#211=(
MASS_UNIT()
NAMED_UNIT(*)
SI_UNIT(.KILO.,.GRAM.)
);
#212=DERIVED_UNIT((#209,#210));
#213=MEASURE_REPRESENTATION_ITEM('density measure',
POSITIVE_RATIO_MEASURE(7850.),#212);
#214=PROPERTY_DEFINITION_REPRESENTATION(#219,#216);
#215=PROPERTY_DEFINITION_REPRESENTATION(#220,#217);
#216=REPRESENTATION('material name',(#218),#367);
#217=REPRESENTATION('density',(#213),#367);
#218=DESCRIPTIVE_REPRESENTATION_ITEM('Steel','Steel');
#219=PROPERTY_DEFINITION('material property','material name',#377);
#220=PROPERTY_DEFINITION('material property','density of part',#377);
#221=AXIS2_PLACEMENT_3D('',#307,#244,#245);
#222=AXIS2_PLACEMENT_3D('',#308,#246,#247);
#223=AXIS2_PLACEMENT_3D('',#311,#248,#249);
#224=AXIS2_PLACEMENT_3D('',#315,#251,#252);
#225=AXIS2_PLACEMENT_3D('',#317,#254,#255);
#226=AXIS2_PLACEMENT_3D('',#321,#257,#258);
#227=AXIS2_PLACEMENT_3D('',#325,#260,#261);
#228=AXIS2_PLACEMENT_3D('',#329,#263,#264);
#229=AXIS2_PLACEMENT_3D('',#331,#266,#267);
#230=AXIS2_PLACEMENT_3D('',#335,#270,#271);
#231=AXIS2_PLACEMENT_3D('',#337,#272,#273);
#232=AXIS2_PLACEMENT_3D('',#339,#275,#276);
#233=AXIS2_PLACEMENT_3D('',#342,#277,#278);
#234=AXIS2_PLACEMENT_3D('',#345,#281,#282);
#235=AXIS2_PLACEMENT_3D('',#350,#285,#286);
#236=AXIS2_PLACEMENT_3D('',#353,#288,#289);
#237=AXIS2_PLACEMENT_3D('',#354,#290,#291);
#238=AXIS2_PLACEMENT_3D('',#356,#293,#294);
#239=AXIS2_PLACEMENT_3D('',#358,#296,#297);
#240=AXIS2_PLACEMENT_3D('',#361,#299,#300);
#241=AXIS2_PLACEMENT_3D('',#362,#301,#302);
#242=AXIS2_PLACEMENT_3D('',#363,#303,#304);
#243=AXIS2_PLACEMENT_3D('',#364,#305,#306);
#244=DIRECTION('axis',(0.,0.,1.));
#245=DIRECTION('refdir',(1.,0.,0.));
#246=DIRECTION('center_axis',(0.,0.,-1.));
#247=DIRECTION('ref_axis',(0.707106781186547,-0.707106781186548,0.));
#248=DIRECTION('center_axis',(0.,0.,1.));
#249=DIRECTION('ref_axis',(0.707106781186547,-0.707106781186548,0.));
#250=DIRECTION('',(0.,0.,1.));
#251=DIRECTION('center_axis',(0.,0.,-1.));
#252=DIRECTION('ref_axis',(0.707106781186547,-0.707106781186548,0.));
#253=DIRECTION('',(0.,0.,-1.));
#254=DIRECTION('center_axis',(0.,0.,1.));
#255=DIRECTION('ref_axis',(0.,1.,0.));
#256=DIRECTION('',(0.,1.,0.));
#257=DIRECTION('center_axis',(0.,0.,-1.));
#258=DIRECTION('ref_axis',(0.707106781186547,0.707106781186548,0.));
#259=DIRECTION('',(-1.,0.,0.));
#260=DIRECTION('center_axis',(0.,0.,-1.));
#261=DIRECTION('ref_axis',(-0.707106781186547,0.707106781186548,0.));
#262=DIRECTION('',(0.,-1.,0.));
#263=DIRECTION('center_axis',(0.,0.,-1.));
#264=DIRECTION('ref_axis',(-0.707106781186547,-0.707106781186548,0.));
#265=DIRECTION('',(1.,0.,0.));
#266=DIRECTION('center_axis',(-1.,0.,0.));
#267=DIRECTION('ref_axis',(0.,0.,1.));
#268=DIRECTION('',(0.,-1.,0.));
#269=DIRECTION('',(0.,0.,-1.));
#270=DIRECTION('center_axis',(0.,0.,-1.));
#271=DIRECTION('ref_axis',(0.707106781186547,0.707106781186548,0.));
#272=DIRECTION('center_axis',(0.,0.,1.));
#273=DIRECTION('ref_axis',(0.707106781186547,0.707106781186548,0.));
#274=DIRECTION('',(0.,0.,1.));
#275=DIRECTION('center_axis',(0.,0.,-1.));
#276=DIRECTION('ref_axis',(-0.707106781186547,-0.707106781186548,0.));
#277=DIRECTION('center_axis',(0.,0.,1.));
#278=DIRECTION('ref_axis',(-0.707106781186547,-0.707106781186548,0.));
#279=DIRECTION('',(0.,0.,1.));
#280=DIRECTION('',(0.,0.,-1.));
#281=DIRECTION('center_axis',(0.,0.,1.));
#282=DIRECTION('ref_axis',(0.,1.,0.));
#283=DIRECTION('',(-1.,0.,0.));
#284=DIRECTION('',(0.,1.,0.));
#285=DIRECTION('center_axis',(0.,0.,1.));
#286=DIRECTION('ref_axis',(-0.707106781186547,0.707106781186548,0.));
#287=DIRECTION('',(1.,0.,0.));
#288=DIRECTION('center_axis',(0.,0.,1.));
#289=DIRECTION('ref_axis',(1.,0.,0.));
#290=DIRECTION('center_axis',(1.,0.,0.));
#291=DIRECTION('ref_axis',(0.,0.,-1.));
#292=DIRECTION('',(0.,0.,1.));
#293=DIRECTION('center_axis',(0.,0.,-1.));
#294=DIRECTION('ref_axis',(-0.707106781186547,0.707106781186548,0.));
#295=DIRECTION('',(0.,0.,-1.));
#296=DIRECTION('center_axis',(0.,0.,1.));
#297=DIRECTION('ref_axis',(1.,0.,0.));
#298=DIRECTION('',(0.,0.,1.));
#299=DIRECTION('center_axis',(0.,0.,1.));
#300=DIRECTION('ref_axis',(1.,0.,0.));
#301=DIRECTION('center_axis',(0.,0.,-1.));
#302=DIRECTION('ref_axis',(1.,0.,0.));
#303=DIRECTION('center_axis',(0.,1.,0.));
#304=DIRECTION('ref_axis',(0.,0.,-1.));
#305=DIRECTION('center_axis',(0.,-1.,0.));
#306=DIRECTION('ref_axis',(0.,0.,1.));
#307=CARTESIAN_POINT('',(0.,0.,0.));
#308=CARTESIAN_POINT('Origin',(17.5058551956994,2.,2.485));
#309=CARTESIAN_POINT('',(17.5058551956994,0.,0.));
#310=CARTESIAN_POINT('',(19.5058551956993,2.,0.));
#311=CARTESIAN_POINT('Origin',(17.5058551956994,2.,0.));
#312=CARTESIAN_POINT('',(19.5058551956993,2.,4.97));
#313=CARTESIAN_POINT('',(19.5058551956993,2.,2.485));
#314=CARTESIAN_POINT('',(17.5058551956994,0.,4.97));
#315=CARTESIAN_POINT('Origin',(17.5058551956994,2.,4.97));
#316=CARTESIAN_POINT('',(17.5058551956994,0.,2.485));
#317=CARTESIAN_POINT('Origin',(9.75585519569935,5.75,4.97));
#318=CARTESIAN_POINT('',(19.5058551956993,9.5,4.97));
#319=CARTESIAN_POINT('',(19.5058551956993,5.75,4.97));
#320=CARTESIAN_POINT('',(17.5058551956994,11.5,4.97));
#321=CARTESIAN_POINT('Origin',(17.5058551956994,9.5,4.97));
#322=CARTESIAN_POINT('',(2.00585519569935,11.5,4.97));
#323=CARTESIAN_POINT('',(9.75585519569935,11.5,4.97));
#324=CARTESIAN_POINT('',(0.00585519569934689,9.5,4.97));
#325=CARTESIAN_POINT('Origin',(2.00585519569935,9.5,4.97));
#326=CARTESIAN_POINT('',(0.00585519569934689,2.,4.97));
#327=CARTESIAN_POINT('',(0.00585519569934689,5.75,4.97));
#328=CARTESIAN_POINT('',(2.00585519569935,0.,4.97));
#329=CARTESIAN_POINT('Origin',(2.00585519569935,2.,4.97));
#330=CARTESIAN_POINT('',(9.75585519569935,0.,4.97));
#331=CARTESIAN_POINT('Origin',(19.5058551956993,5.75,2.485));
#332=CARTESIAN_POINT('',(19.5058551956993,9.5,0.));
#333=CARTESIAN_POINT('',(19.5058551956993,5.75,0.));
#334=CARTESIAN_POINT('',(19.5058551956993,9.5,2.485));
#335=CARTESIAN_POINT('Origin',(17.5058551956994,9.5,2.485));
#336=CARTESIAN_POINT('',(17.5058551956994,11.5,0.));
#337=CARTESIAN_POINT('Origin',(17.5058551956994,9.5,0.));
#338=CARTESIAN_POINT('',(17.5058551956994,11.5,2.485));
#339=CARTESIAN_POINT('Origin',(2.00585519569935,2.,2.485));
#340=CARTESIAN_POINT('',(0.00585519569934689,2.,0.));
#341=CARTESIAN_POINT('',(2.00585519569935,0.,0.));
#342=CARTESIAN_POINT('Origin',(2.00585519569935,2.,0.));
#343=CARTESIAN_POINT('',(2.00585519569935,0.,2.485));
#344=CARTESIAN_POINT('',(0.00585519569934689,2.,2.485));
#345=CARTESIAN_POINT('Origin',(9.75585519569935,5.75,0.));
#346=CARTESIAN_POINT('',(9.75585519569935,0.,0.));
#347=CARTESIAN_POINT('',(0.00585519569934689,9.5,0.));
#348=CARTESIAN_POINT('',(0.00585519569934689,5.75,0.));
#349=CARTESIAN_POINT('',(2.00585519569935,11.5,0.));
#350=CARTESIAN_POINT('Origin',(2.00585519569935,9.5,0.));
#351=CARTESIAN_POINT('',(9.75585519569935,11.5,0.));
#352=CARTESIAN_POINT('',(7.06884942719047,5.75,0.));
#353=CARTESIAN_POINT('Origin',(9.75585519569935,5.75,0.));
#354=CARTESIAN_POINT('Origin',(0.00585519569934689,5.75,2.485));
#355=CARTESIAN_POINT('',(0.00585519569934689,9.5,2.485));
#356=CARTESIAN_POINT('Origin',(2.00585519569935,9.5,2.485));
#357=CARTESIAN_POINT('',(2.00585519569935,11.5,2.485));
#358=CARTESIAN_POINT('Origin',(9.75585519569935,5.75,0.));
#359=CARTESIAN_POINT('',(7.06884942719047,5.75,3.));
#360=CARTESIAN_POINT('',(7.06884942719047,5.75,0.));
#361=CARTESIAN_POINT('Origin',(9.75585519569935,5.75,3.));
#362=CARTESIAN_POINT('Origin',(9.75585519569935,5.75,3.));
#363=CARTESIAN_POINT('Origin',(9.75585519569935,0.,2.485));
#364=CARTESIAN_POINT('Origin',(9.75585519569935,11.5,2.485));
#365=UNCERTAINTY_MEASURE_WITH_UNIT(LENGTH_MEASURE(0.01),#369,
'DISTANCE_ACCURACY_VALUE',
'Maximum model space distance between geometric entities at asserted c
onnectivities');
#366=UNCERTAINTY_MEASURE_WITH_UNIT(LENGTH_MEASURE(0.01),#369,
'DISTANCE_ACCURACY_VALUE',
'Maximum model space distance between geometric entities at asserted c
onnectivities');
#367=(
GEOMETRIC_REPRESENTATION_CONTEXT(3)
GLOBAL_UNCERTAINTY_ASSIGNED_CONTEXT((#365))
GLOBAL_UNIT_ASSIGNED_CONTEXT((#369,#371,#372))
REPRESENTATION_CONTEXT('','3D')
);
#368=(
GEOMETRIC_REPRESENTATION_CONTEXT(3)
GLOBAL_UNCERTAINTY_ASSIGNED_CONTEXT((#366))
GLOBAL_UNIT_ASSIGNED_CONTEXT((#369,#371,#372))
REPRESENTATION_CONTEXT('','3D')
);
#369=(
LENGTH_UNIT()
NAMED_UNIT(*)
SI_UNIT(.MILLI.,.METRE.)
);
#370=(
LENGTH_UNIT()
NAMED_UNIT(*)
SI_UNIT($,.METRE.)
);
#371=(
NAMED_UNIT(*)
PLANE_ANGLE_UNIT()
SI_UNIT($,.RADIAN.)
);
#372=(
NAMED_UNIT(*)
SI_UNIT($,.STERADIAN.)
SOLID_ANGLE_UNIT()
);
#373=SHAPE_DEFINITION_REPRESENTATION(#374,#375);
#374=PRODUCT_DEFINITION_SHAPE('',$,#377);
#375=SHAPE_REPRESENTATION('',(#221),#367);
#376=PRODUCT_DEFINITION_CONTEXT('part definition',#381,'design');
#377=PRODUCT_DEFINITION('button cap','button cap v3',#378,#376);
#378=PRODUCT_DEFINITION_FORMATION('',$,#383);
#379=PRODUCT_RELATED_PRODUCT_CATEGORY('button cap v3','button cap v3',(#383));
#380=APPLICATION_PROTOCOL_DEFINITION('international standard',
'automotive_design',2009,#381);
#381=APPLICATION_CONTEXT(
'Core Data for Automotive Mechanical Design Process');
#382=PRODUCT_CONTEXT('part definition',#381,'mechanical');
#383=PRODUCT('button cap','button cap v3',$,(#382));
#384=PRESENTATION_STYLE_ASSIGNMENT((#386));
#385=PRESENTATION_STYLE_ASSIGNMENT((#387));
#386=SURFACE_STYLE_USAGE(.BOTH.,#388);
#387=SURFACE_STYLE_USAGE(.BOTH.,#389);
#388=SURFACE_SIDE_STYLE('',(#390));
#389=SURFACE_SIDE_STYLE('',(#391));
#390=SURFACE_STYLE_FILL_AREA(#392);
#391=SURFACE_STYLE_FILL_AREA(#393);
#392=FILL_AREA_STYLE('Steel - Satin',(#394));
#393=FILL_AREA_STYLE('Plastic - Matte (White)',(#395));
#394=FILL_AREA_STYLE_COLOUR('Steel - Satin',#396);
#395=FILL_AREA_STYLE_COLOUR('Plastic - Matte (White)',#397);
#396=COLOUR_RGB('Steel - Satin',0.627450980392157,0.627450980392157,0.627450980392157);
#397=COLOUR_RGB('Plastic - Matte (White)',0.964705882352941,0.964705882352941,
0.952941176470588);
ENDSEC;
END-ISO-10303-21;
