ISO-10303-21;
HEADER;
/* Generated by software containing ST-Developer
 * from STEP Tools, Inc. (www.steptools.com) 
 */

FILE_DESCRIPTION(
/* description */ (''),
/* implementation_level */ '2;1');

FILE_NAME(
/* name */ 'case left v12.step',
/* time_stamp */ '2026-06-15T21:43:28-04:00',
/* author */ (''),
/* organization */ (''),
/* preprocessor_version */ 'ST-DEVELOPER v20.1',
/* originating_system */ 'Autodesk Translation Framework v15.8.0.0',
/* authorisation */ '');

FILE_SCHEMA (('AUTOMOTIVE_DESIGN { 1 0 10303 214 3 1 1 }'));
ENDSEC;

DATA;
#10=MECHANICAL_DESIGN_GEOMETRIC_PRESENTATION_REPRESENTATION('',(#13),#1633);
#11=SHAPE_REPRESENTATION_RELATIONSHIP('SRR','None',#1640,#12);
#12=ADVANCED_BREP_SHAPE_REPRESENTATION('',(#14),#1632);
#13=STYLED_ITEM('',(#1650),#14);
#14=MANIFOLD_SOLID_BREP('Body1',#931);
#15=PLANE('',#1012);
#16=PLANE('',#1013);
#17=PLANE('',#1014);
#18=PLANE('',#1015);
#19=PLANE('',#1016);
#20=PLANE('',#1017);
#21=PLANE('',#1018);
#22=PLANE('',#1019);
#23=PLANE('',#1020);
#24=PLANE('',#1050);
#25=PLANE('',#1051);
#26=PLANE('',#1052);
#27=PLANE('',#1053);
#28=PLANE('',#1054);
#29=PLANE('',#1055);
#30=PLANE('',#1056);
#31=PLANE('',#1057);
#32=PLANE('',#1058);
#33=ELLIPSE('',#950,1.41421356237309,1.);
#34=ELLIPSE('',#952,1.0823922002924,1.);
#35=ELLIPSE('',#962,1.08239220029239,1.);
#36=ELLIPSE('',#997,1.0823922002924,1.);
#37=ELLIPSE('',#1004,1.08239220029239,1.);
#38=ELLIPSE('',#1008,1.4142135623731,1.);
#39=ELLIPSE('',#1046,1.4142135623731,1.);
#40=ELLIPSE('',#1048,1.41421356237309,1.);
#41=LINE('',#1377,#119);
#42=LINE('',#1379,#120);
#43=LINE('',#1383,#121);
#44=LINE('',#1386,#122);
#45=LINE('',#1403,#123);
#46=LINE('',#1406,#124);
#47=LINE('',#1415,#125);
#48=LINE('',#1416,#126);
#49=LINE('',#1439,#127);
#50=LINE('',#1440,#128);
#51=LINE('',#1463,#129);
#52=LINE('',#1464,#130);
#53=LINE('',#1466,#131);
#54=LINE('',#1467,#132);
#55=LINE('',#1469,#133);
#56=LINE('',#1470,#134);
#57=LINE('',#1473,#135);
#58=LINE('',#1475,#136);
#59=LINE('',#1478,#137);
#60=LINE('',#1479,#138);
#61=LINE('',#1481,#139);
#62=LINE('',#1482,#140);
#63=LINE('',#1484,#141);
#64=LINE('',#1485,#142);
#65=LINE('',#1487,#143);
#66=LINE('',#1488,#144);
#67=LINE('',#1490,#145);
#68=LINE('',#1491,#146);
#69=LINE('',#1494,#147);
#70=LINE('',#1496,#148);
#71=LINE('',#1499,#149);
#72=LINE('',#1500,#150);
#73=LINE('',#1502,#151);
#74=LINE('',#1503,#152);
#75=LINE('',#1506,#153);
#76=LINE('',#1508,#154);
#77=LINE('',#1511,#155);
#78=LINE('',#1512,#156);
#79=LINE('',#1514,#157);
#80=LINE('',#1515,#158);
#81=LINE('',#1517,#159);
#82=LINE('',#1518,#160);
#83=LINE('',#1521,#161);
#84=LINE('',#1523,#162);
#85=LINE('',#1524,#163);
#86=LINE('',#1527,#164);
#87=LINE('',#1528,#165);
#88=LINE('',#1531,#166);
#89=LINE('',#1533,#167);
#90=LINE('',#1535,#168);
#91=LINE('',#1536,#169);
#92=LINE('',#1558,#170);
#93=LINE('',#1559,#171);
#94=LINE('',#1571,#172);
#95=LINE('',#1572,#173);
#96=LINE('',#1581,#174);
#97=LINE('',#1582,#175);
#98=LINE('',#1587,#176);
#99=LINE('',#1588,#177);
#100=LINE('',#1590,#178);
#101=LINE('',#1591,#179);
#102=LINE('',#1593,#180);
#103=LINE('',#1594,#181);
#104=LINE('',#1597,#182);
#105=LINE('',#1599,#183);
#106=LINE('',#1603,#184);
#107=LINE('',#1605,#185);
#108=LINE('',#1608,#186);
#109=LINE('',#1609,#187);
#110=LINE('',#1611,#188);
#111=LINE('',#1613,#189);
#112=LINE('',#1615,#190);
#113=LINE('',#1616,#191);
#114=LINE('',#1618,#192);
#115=LINE('',#1620,#193);
#116=LINE('',#1624,#194);
#117=LINE('',#1626,#195);
#118=LINE('',#1628,#196);
#119=VECTOR('',#1071,10.);
#120=VECTOR('',#1072,10.);
#121=VECTOR('',#1077,10.);
#122=VECTOR('',#1080,10.);
#123=VECTOR('',#1099,10.);
#124=VECTOR('',#1102,10.);
#125=VECTOR('',#1113,10.);
#126=VECTOR('',#1114,10.);
#127=VECTOR('',#1141,10.);
#128=VECTOR('',#1142,10.);
#129=VECTOR('',#1169,10.);
#130=VECTOR('',#1170,10.);
#131=VECTOR('',#1173,10.);
#132=VECTOR('',#1174,10.);
#133=VECTOR('',#1177,10.);
#134=VECTOR('',#1178,10.);
#135=VECTOR('',#1181,10.);
#136=VECTOR('',#1182,10.);
#137=VECTOR('',#1187,10.);
#138=VECTOR('',#1188,10.);
#139=VECTOR('',#1191,10.);
#140=VECTOR('',#1192,10.);
#141=VECTOR('',#1195,10.);
#142=VECTOR('',#1196,10.);
#143=VECTOR('',#1199,10.);
#144=VECTOR('',#1200,10.);
#145=VECTOR('',#1203,10.);
#146=VECTOR('',#1204,10.);
#147=VECTOR('',#1207,10.);
#148=VECTOR('',#1208,10.);
#149=VECTOR('',#1213,10.);
#150=VECTOR('',#1214,10.);
#151=VECTOR('',#1217,10.);
#152=VECTOR('',#1218,10.);
#153=VECTOR('',#1221,10.);
#154=VECTOR('',#1222,10.);
#155=VECTOR('',#1227,10.);
#156=VECTOR('',#1228,10.);
#157=VECTOR('',#1231,10.);
#158=VECTOR('',#1232,10.);
#159=VECTOR('',#1235,10.);
#160=VECTOR('',#1236,10.);
#161=VECTOR('',#1239,10.);
#162=VECTOR('',#1240,10.);
#163=VECTOR('',#1241,10.);
#164=VECTOR('',#1244,10.);
#165=VECTOR('',#1245,10.);
#166=VECTOR('',#1248,10.);
#167=VECTOR('',#1249,10.);
#168=VECTOR('',#1250,10.);
#169=VECTOR('',#1251,10.);
#170=VECTOR('',#1282,10.);
#171=VECTOR('',#1283,10.);
#172=VECTOR('',#1296,10.);
#173=VECTOR('',#1297,10.);
#174=VECTOR('',#1308,10.);
#175=VECTOR('',#1309,10.);
#176=VECTOR('',#1314,10.);
#177=VECTOR('',#1315,10.);
#178=VECTOR('',#1318,10.);
#179=VECTOR('',#1319,10.);
#180=VECTOR('',#1322,10.);
#181=VECTOR('',#1323,10.);
#182=VECTOR('',#1326,10.);
#183=VECTOR('',#1327,10.);
#184=VECTOR('',#1332,10.);
#185=VECTOR('',#1333,10.);
#186=VECTOR('',#1338,10.);
#187=VECTOR('',#1339,10.);
#188=VECTOR('',#1342,10.);
#189=VECTOR('',#1343,10.);
#190=VECTOR('',#1344,10.);
#191=VECTOR('',#1345,10.);
#192=VECTOR('',#1348,10.);
#193=VECTOR('',#1351,10.);
#194=VECTOR('',#1358,10.);
#195=VECTOR('',#1361,10.);
#196=VECTOR('',#1364,10.);
#197=CYLINDRICAL_SURFACE('',#949,1.);
#198=CYLINDRICAL_SURFACE('',#951,1.);
#199=CYLINDRICAL_SURFACE('',#961,1.);
#200=CYLINDRICAL_SURFACE('',#967,1.);
#201=CYLINDRICAL_SURFACE('',#980,1.);
#202=CYLINDRICAL_SURFACE('',#993,1.);
#203=CYLINDRICAL_SURFACE('',#994,1.);
#204=CYLINDRICAL_SURFACE('',#995,1.);
#205=CYLINDRICAL_SURFACE('',#996,1.);
#206=CYLINDRICAL_SURFACE('',#998,1.);
#207=CYLINDRICAL_SURFACE('',#999,1.);
#208=CYLINDRICAL_SURFACE('',#1000,1.);
#209=CYLINDRICAL_SURFACE('',#1001,1.);
#210=CYLINDRICAL_SURFACE('',#1002,1.);
#211=CYLINDRICAL_SURFACE('',#1003,1.);
#212=CYLINDRICAL_SURFACE('',#1005,1.);
#213=CYLINDRICAL_SURFACE('',#1006,1.);
#214=CYLINDRICAL_SURFACE('',#1007,1.);
#215=CYLINDRICAL_SURFACE('',#1009,1.);
#216=CYLINDRICAL_SURFACE('',#1010,1.);
#217=CYLINDRICAL_SURFACE('',#1011,1.);
#218=CYLINDRICAL_SURFACE('',#1029,1.);
#219=CYLINDRICAL_SURFACE('',#1034,1.);
#220=CYLINDRICAL_SURFACE('',#1040,1.);
#221=CYLINDRICAL_SURFACE('',#1041,1.);
#222=CYLINDRICAL_SURFACE('',#1043,1.);
#223=CYLINDRICAL_SURFACE('',#1044,1.);
#224=CYLINDRICAL_SURFACE('',#1045,1.);
#225=CYLINDRICAL_SURFACE('',#1047,1.);
#226=CYLINDRICAL_SURFACE('',#1049,1.);
#227=FACE_OUTER_BOUND('',#289,.T.);
#228=FACE_OUTER_BOUND('',#290,.T.);
#229=FACE_OUTER_BOUND('',#291,.T.);
#230=FACE_OUTER_BOUND('',#292,.T.);
#231=FACE_OUTER_BOUND('',#293,.T.);
#232=FACE_OUTER_BOUND('',#294,.T.);
#233=FACE_OUTER_BOUND('',#295,.T.);
#234=FACE_OUTER_BOUND('',#296,.T.);
#235=FACE_OUTER_BOUND('',#297,.T.);
#236=FACE_OUTER_BOUND('',#298,.T.);
#237=FACE_OUTER_BOUND('',#299,.T.);
#238=FACE_OUTER_BOUND('',#300,.T.);
#239=FACE_OUTER_BOUND('',#301,.T.);
#240=FACE_OUTER_BOUND('',#302,.T.);
#241=FACE_OUTER_BOUND('',#303,.T.);
#242=FACE_OUTER_BOUND('',#304,.T.);
#243=FACE_OUTER_BOUND('',#305,.T.);
#244=FACE_OUTER_BOUND('',#306,.T.);
#245=FACE_OUTER_BOUND('',#307,.T.);
#246=FACE_OUTER_BOUND('',#308,.T.);
#247=FACE_OUTER_BOUND('',#309,.T.);
#248=FACE_OUTER_BOUND('',#310,.T.);
#249=FACE_OUTER_BOUND('',#311,.T.);
#250=FACE_OUTER_BOUND('',#312,.T.);
#251=FACE_OUTER_BOUND('',#313,.T.);
#252=FACE_OUTER_BOUND('',#314,.T.);
#253=FACE_OUTER_BOUND('',#315,.T.);
#254=FACE_OUTER_BOUND('',#316,.T.);
#255=FACE_OUTER_BOUND('',#317,.T.);
#256=FACE_OUTER_BOUND('',#318,.T.);
#257=FACE_OUTER_BOUND('',#319,.T.);
#258=FACE_OUTER_BOUND('',#320,.T.);
#259=FACE_OUTER_BOUND('',#321,.T.);
#260=FACE_OUTER_BOUND('',#322,.T.);
#261=FACE_OUTER_BOUND('',#323,.T.);
#262=FACE_OUTER_BOUND('',#324,.T.);
#263=FACE_OUTER_BOUND('',#325,.T.);
#264=FACE_OUTER_BOUND('',#326,.T.);
#265=FACE_OUTER_BOUND('',#327,.T.);
#266=FACE_OUTER_BOUND('',#328,.T.);
#267=FACE_OUTER_BOUND('',#329,.T.);
#268=FACE_OUTER_BOUND('',#330,.T.);
#269=FACE_OUTER_BOUND('',#331,.T.);
#270=FACE_OUTER_BOUND('',#332,.T.);
#271=FACE_OUTER_BOUND('',#333,.T.);
#272=FACE_OUTER_BOUND('',#334,.T.);
#273=FACE_OUTER_BOUND('',#335,.T.);
#274=FACE_OUTER_BOUND('',#336,.T.);
#275=FACE_OUTER_BOUND('',#337,.T.);
#276=FACE_OUTER_BOUND('',#338,.T.);
#277=FACE_OUTER_BOUND('',#339,.T.);
#278=FACE_OUTER_BOUND('',#340,.T.);
#279=FACE_OUTER_BOUND('',#341,.T.);
#280=FACE_OUTER_BOUND('',#342,.T.);
#281=FACE_OUTER_BOUND('',#343,.T.);
#282=FACE_OUTER_BOUND('',#344,.T.);
#283=FACE_OUTER_BOUND('',#345,.T.);
#284=FACE_OUTER_BOUND('',#346,.T.);
#285=FACE_OUTER_BOUND('',#347,.T.);
#286=FACE_OUTER_BOUND('',#348,.T.);
#287=FACE_OUTER_BOUND('',#349,.T.);
#288=FACE_OUTER_BOUND('',#350,.T.);
#289=EDGE_LOOP('',(#595,#596,#597));
#290=EDGE_LOOP('',(#598,#599,#600,#601));
#291=EDGE_LOOP('',(#602,#603,#604,#605));
#292=EDGE_LOOP('',(#606,#607,#608));
#293=EDGE_LOOP('',(#609,#610,#611));
#294=EDGE_LOOP('',(#612,#613,#614,#615));
#295=EDGE_LOOP('',(#616,#617,#618));
#296=EDGE_LOOP('',(#619,#620,#621,#622));
#297=EDGE_LOOP('',(#623,#624,#625));
#298=EDGE_LOOP('',(#626,#627,#628));
#299=EDGE_LOOP('',(#629,#630,#631));
#300=EDGE_LOOP('',(#632,#633,#634,#635));
#301=EDGE_LOOP('',(#636,#637,#638));
#302=EDGE_LOOP('',(#639,#640,#641));
#303=EDGE_LOOP('',(#642,#643,#644));
#304=EDGE_LOOP('',(#645,#646,#647,#648));
#305=EDGE_LOOP('',(#649,#650,#651,#652));
#306=EDGE_LOOP('',(#653,#654,#655,#656));
#307=EDGE_LOOP('',(#657,#658,#659,#660));
#308=EDGE_LOOP('',(#661,#662,#663,#664));
#309=EDGE_LOOP('',(#665,#666,#667,#668));
#310=EDGE_LOOP('',(#669,#670,#671,#672));
#311=EDGE_LOOP('',(#673,#674,#675,#676));
#312=EDGE_LOOP('',(#677,#678,#679,#680));
#313=EDGE_LOOP('',(#681,#682,#683,#684));
#314=EDGE_LOOP('',(#685,#686,#687,#688));
#315=EDGE_LOOP('',(#689,#690,#691,#692));
#316=EDGE_LOOP('',(#693,#694,#695,#696));
#317=EDGE_LOOP('',(#697,#698,#699,#700));
#318=EDGE_LOOP('',(#701,#702,#703,#704));
#319=EDGE_LOOP('',(#705,#706,#707,#708));
#320=EDGE_LOOP('',(#709,#710,#711,#712));
#321=EDGE_LOOP('',(#713,#714,#715,#716));
#322=EDGE_LOOP('',(#717,#718,#719,#720,#721,#722,#723,#724));
#323=EDGE_LOOP('',(#725,#726,#727,#728));
#324=EDGE_LOOP('',(#729,#730,#731,#732,#733,#734,#735,#736));
#325=EDGE_LOOP('',(#737,#738,#739,#740));
#326=EDGE_LOOP('',(#741,#742,#743,#744));
#327=EDGE_LOOP('',(#745,#746,#747,#748));
#328=EDGE_LOOP('',(#749,#750,#751,#752,#753,#754,#755,#756));
#329=EDGE_LOOP('',(#757,#758,#759));
#330=EDGE_LOOP('',(#760,#761,#762));
#331=EDGE_LOOP('',(#763,#764,#765,#766));
#332=EDGE_LOOP('',(#767,#768,#769));
#333=EDGE_LOOP('',(#770,#771,#772,#773));
#334=EDGE_LOOP('',(#774,#775,#776));
#335=EDGE_LOOP('',(#777,#778,#779,#780));
#336=EDGE_LOOP('',(#781,#782,#783,#784));
#337=EDGE_LOOP('',(#785,#786,#787,#788));
#338=EDGE_LOOP('',(#789,#790,#791,#792));
#339=EDGE_LOOP('',(#793,#794,#795,#796));
#340=EDGE_LOOP('',(#797,#798,#799,#800));
#341=EDGE_LOOP('',(#801,#802,#803,#804));
#342=EDGE_LOOP('',(#805,#806,#807,#808,#809,#810,#811,#812));
#343=EDGE_LOOP('',(#813,#814,#815,#816));
#344=EDGE_LOOP('',(#817,#818,#819,#820,#821,#822,#823,#824));
#345=EDGE_LOOP('',(#825,#826,#827,#828));
#346=EDGE_LOOP('',(#829,#830,#831,#832));
#347=EDGE_LOOP('',(#833,#834,#835,#836));
#348=EDGE_LOOP('',(#837,#838,#839,#840,#841,#842,#843,#844,#845,#846));
#349=EDGE_LOOP('',(#847,#848,#849,#850));
#350=EDGE_LOOP('',(#851,#852,#853,#854));
#351=CIRCLE('',#946,1.);
#352=CIRCLE('',#947,0.999999999999996);
#353=CIRCLE('',#948,1.);
#354=CIRCLE('',#954,0.999999999999996);
#355=CIRCLE('',#955,1.);
#356=CIRCLE('',#956,0.999999999999996);
#357=CIRCLE('',#958,0.999999999999996);
#358=CIRCLE('',#959,1.);
#359=CIRCLE('',#960,1.);
#360=CIRCLE('',#964,0.999999999999979);
#361=CIRCLE('',#965,1.);
#362=CIRCLE('',#966,0.999999999999996);
#363=CIRCLE('',#969,0.999999999999996);
#364=CIRCLE('',#970,0.999999999999998);
#365=CIRCLE('',#971,1.);
#366=CIRCLE('',#973,0.999999999999999);
#367=CIRCLE('',#974,1.);
#368=CIRCLE('',#975,1.);
#369=CIRCLE('',#977,1.);
#370=CIRCLE('',#978,1.);
#371=CIRCLE('',#979,1.);
#372=CIRCLE('',#982,1.);
#373=CIRCLE('',#983,1.);
#374=CIRCLE('',#984,1.);
#375=CIRCLE('',#986,1.);
#376=CIRCLE('',#987,1.);
#377=CIRCLE('',#988,1.);
#378=CIRCLE('',#990,1.);
#379=CIRCLE('',#991,1.);
#380=CIRCLE('',#992,0.999999999999999);
#381=CIRCLE('',#1022,1.);
#382=CIRCLE('',#1023,0.999999999999995);
#383=CIRCLE('',#1024,1.);
#384=CIRCLE('',#1026,0.999999999999999);
#385=CIRCLE('',#1027,0.999999999999999);
#386=CIRCLE('',#1028,1.);
#387=CIRCLE('',#1031,1.);
#388=CIRCLE('',#1032,0.999999999999996);
#389=CIRCLE('',#1033,0.999999999999993);
#390=CIRCLE('',#1035,1.);
#391=CIRCLE('',#1037,0.999999999999998);
#392=CIRCLE('',#1038,0.999999999999996);
#393=CIRCLE('',#1039,1.);
#394=CIRCLE('',#1042,1.);
#395=VERTEX_POINT('',#1369);
#396=VERTEX_POINT('',#1370);
#397=VERTEX_POINT('',#1372);
#398=VERTEX_POINT('',#1376);
#399=VERTEX_POINT('',#1378);
#400=VERTEX_POINT('',#1382);
#401=VERTEX_POINT('',#1384);
#402=VERTEX_POINT('',#1388);
#403=VERTEX_POINT('',#1389);
#404=VERTEX_POINT('',#1391);
#405=VERTEX_POINT('',#1395);
#406=VERTEX_POINT('',#1396);
#407=VERTEX_POINT('',#1398);
#408=VERTEX_POINT('',#1402);
#409=VERTEX_POINT('',#1404);
#410=VERTEX_POINT('',#1408);
#411=VERTEX_POINT('',#1409);
#412=VERTEX_POINT('',#1411);
#413=VERTEX_POINT('',#1418);
#414=VERTEX_POINT('',#1419);
#415=VERTEX_POINT('',#1421);
#416=VERTEX_POINT('',#1425);
#417=VERTEX_POINT('',#1426);
#418=VERTEX_POINT('',#1428);
#419=VERTEX_POINT('',#1432);
#420=VERTEX_POINT('',#1433);
#421=VERTEX_POINT('',#1435);
#422=VERTEX_POINT('',#1442);
#423=VERTEX_POINT('',#1443);
#424=VERTEX_POINT('',#1445);
#425=VERTEX_POINT('',#1449);
#426=VERTEX_POINT('',#1450);
#427=VERTEX_POINT('',#1452);
#428=VERTEX_POINT('',#1456);
#429=VERTEX_POINT('',#1457);
#430=VERTEX_POINT('',#1459);
#431=VERTEX_POINT('',#1472);
#432=VERTEX_POINT('',#1474);
#433=VERTEX_POINT('',#1493);
#434=VERTEX_POINT('',#1495);
#435=VERTEX_POINT('',#1505);
#436=VERTEX_POINT('',#1507);
#437=VERTEX_POINT('',#1520);
#438=VERTEX_POINT('',#1522);
#439=VERTEX_POINT('',#1526);
#440=VERTEX_POINT('',#1530);
#441=VERTEX_POINT('',#1532);
#442=VERTEX_POINT('',#1534);
#443=VERTEX_POINT('',#1544);
#444=VERTEX_POINT('',#1545);
#445=VERTEX_POINT('',#1547);
#446=VERTEX_POINT('',#1551);
#447=VERTEX_POINT('',#1552);
#448=VERTEX_POINT('',#1554);
#449=VERTEX_POINT('',#1561);
#450=VERTEX_POINT('',#1562);
#451=VERTEX_POINT('',#1564);
#452=VERTEX_POINT('',#1568);
#453=VERTEX_POINT('',#1569);
#454=VERTEX_POINT('',#1574);
#455=VERTEX_POINT('',#1575);
#456=VERTEX_POINT('',#1577);
#457=VERTEX_POINT('',#1584);
#458=VERTEX_POINT('',#1585);
#459=VERTEX_POINT('',#1596);
#460=VERTEX_POINT('',#1598);
#461=VERTEX_POINT('',#1602);
#462=VERTEX_POINT('',#1604);
#463=VERTEX_POINT('',#1612);
#464=VERTEX_POINT('',#1614);
#465=EDGE_CURVE('',#395,#396,#351,.F.);
#466=EDGE_CURVE('',#397,#395,#352,.F.);
#467=EDGE_CURVE('',#396,#397,#353,.F.);
#468=EDGE_CURVE('',#398,#395,#41,.T.);
#469=EDGE_CURVE('',#396,#399,#42,.T.);
#470=EDGE_CURVE('',#399,#398,#33,.T.);
#471=EDGE_CURVE('',#399,#400,#43,.T.);
#472=EDGE_CURVE('',#400,#401,#34,.T.);
#473=EDGE_CURVE('',#401,#398,#44,.T.);
#474=EDGE_CURVE('',#402,#403,#354,.F.);
#475=EDGE_CURVE('',#404,#402,#355,.F.);
#476=EDGE_CURVE('',#403,#404,#356,.F.);
#477=EDGE_CURVE('',#405,#406,#357,.F.);
#478=EDGE_CURVE('',#407,#405,#358,.F.);
#479=EDGE_CURVE('',#406,#407,#359,.F.);
#480=EDGE_CURVE('',#400,#408,#45,.T.);
#481=EDGE_CURVE('',#408,#409,#35,.T.);
#482=EDGE_CURVE('',#409,#401,#46,.T.);
#483=EDGE_CURVE('',#410,#411,#360,.F.);
#484=EDGE_CURVE('',#412,#410,#361,.F.);
#485=EDGE_CURVE('',#411,#412,#362,.F.);
#486=EDGE_CURVE('',#404,#412,#47,.T.);
#487=EDGE_CURVE('',#410,#403,#48,.T.);
#488=EDGE_CURVE('',#413,#414,#363,.F.);
#489=EDGE_CURVE('',#415,#413,#364,.F.);
#490=EDGE_CURVE('',#414,#415,#365,.F.);
#491=EDGE_CURVE('',#416,#417,#366,.F.);
#492=EDGE_CURVE('',#418,#416,#367,.F.);
#493=EDGE_CURVE('',#417,#418,#368,.F.);
#494=EDGE_CURVE('',#419,#420,#369,.F.);
#495=EDGE_CURVE('',#421,#419,#370,.F.);
#496=EDGE_CURVE('',#420,#421,#371,.F.);
#497=EDGE_CURVE('',#412,#421,#49,.T.);
#498=EDGE_CURVE('',#419,#411,#50,.T.);
#499=EDGE_CURVE('',#422,#423,#372,.F.);
#500=EDGE_CURVE('',#424,#422,#373,.F.);
#501=EDGE_CURVE('',#423,#424,#374,.F.);
#502=EDGE_CURVE('',#425,#426,#375,.F.);
#503=EDGE_CURVE('',#427,#425,#376,.F.);
#504=EDGE_CURVE('',#426,#427,#377,.F.);
#505=EDGE_CURVE('',#428,#429,#378,.F.);
#506=EDGE_CURVE('',#430,#428,#379,.F.);
#507=EDGE_CURVE('',#429,#430,#380,.F.);
#508=EDGE_CURVE('',#421,#430,#51,.T.);
#509=EDGE_CURVE('',#428,#420,#52,.T.);
#510=EDGE_CURVE('',#425,#429,#53,.T.);
#511=EDGE_CURVE('',#430,#427,#54,.T.);
#512=EDGE_CURVE('',#422,#428,#55,.T.);
#513=EDGE_CURVE('',#429,#424,#56,.T.);
#514=EDGE_CURVE('',#431,#426,#57,.T.);
#515=EDGE_CURVE('',#427,#432,#58,.T.);
#516=EDGE_CURVE('',#432,#431,#36,.T.);
#517=EDGE_CURVE('',#416,#425,#59,.T.);
#518=EDGE_CURVE('',#426,#418,#60,.T.);
#519=EDGE_CURVE('',#417,#423,#61,.T.);
#520=EDGE_CURVE('',#424,#416,#62,.T.);
#521=EDGE_CURVE('',#423,#414,#63,.T.);
#522=EDGE_CURVE('',#415,#422,#64,.T.);
#523=EDGE_CURVE('',#413,#419,#65,.T.);
#524=EDGE_CURVE('',#420,#415,#66,.T.);
#525=EDGE_CURVE('',#408,#417,#67,.T.);
#526=EDGE_CURVE('',#418,#409,#68,.T.);
#527=EDGE_CURVE('',#433,#431,#69,.T.);
#528=EDGE_CURVE('',#432,#434,#70,.T.);
#529=EDGE_CURVE('',#434,#433,#37,.T.);
#530=EDGE_CURVE('',#414,#406,#71,.T.);
#531=EDGE_CURVE('',#407,#413,#72,.T.);
#532=EDGE_CURVE('',#405,#410,#73,.T.);
#533=EDGE_CURVE('',#411,#407,#74,.T.);
#534=EDGE_CURVE('',#435,#433,#75,.T.);
#535=EDGE_CURVE('',#434,#436,#76,.T.);
#536=EDGE_CURVE('',#436,#435,#38,.T.);
#537=EDGE_CURVE('',#406,#396,#77,.T.);
#538=EDGE_CURVE('',#397,#405,#78,.T.);
#539=EDGE_CURVE('',#436,#404,#79,.T.);
#540=EDGE_CURVE('',#402,#435,#80,.T.);
#541=EDGE_CURVE('',#395,#402,#81,.T.);
#542=EDGE_CURVE('',#403,#397,#82,.T.);
#543=EDGE_CURVE('',#437,#401,#83,.T.);
#544=EDGE_CURVE('',#437,#438,#84,.T.);
#545=EDGE_CURVE('',#438,#398,#85,.T.);
#546=EDGE_CURVE('',#439,#409,#86,.T.);
#547=EDGE_CURVE('',#439,#437,#87,.T.);
#548=EDGE_CURVE('',#431,#440,#88,.T.);
#549=EDGE_CURVE('',#440,#441,#89,.T.);
#550=EDGE_CURVE('',#441,#442,#90,.T.);
#551=EDGE_CURVE('',#442,#439,#91,.T.);
#552=EDGE_CURVE('',#443,#444,#381,.F.);
#553=EDGE_CURVE('',#445,#443,#382,.F.);
#554=EDGE_CURVE('',#444,#445,#383,.F.);
#555=EDGE_CURVE('',#446,#447,#384,.F.);
#556=EDGE_CURVE('',#448,#446,#385,.F.);
#557=EDGE_CURVE('',#447,#448,#386,.F.);
#558=EDGE_CURVE('',#446,#444,#92,.T.);
#559=EDGE_CURVE('',#445,#448,#93,.T.);
#560=EDGE_CURVE('',#449,#450,#387,.F.);
#561=EDGE_CURVE('',#451,#449,#388,.F.);
#562=EDGE_CURVE('',#450,#451,#389,.F.);
#563=EDGE_CURVE('',#452,#453,#390,.T.);
#564=EDGE_CURVE('',#453,#451,#94,.T.);
#565=EDGE_CURVE('',#449,#452,#95,.T.);
#566=EDGE_CURVE('',#454,#455,#391,.F.);
#567=EDGE_CURVE('',#456,#454,#392,.F.);
#568=EDGE_CURVE('',#455,#456,#393,.F.);
#569=EDGE_CURVE('',#454,#450,#96,.T.);
#570=EDGE_CURVE('',#451,#456,#97,.T.);
#571=EDGE_CURVE('',#457,#458,#394,.T.);
#572=EDGE_CURVE('',#458,#455,#98,.T.);
#573=EDGE_CURVE('',#456,#457,#99,.T.);
#574=EDGE_CURVE('',#448,#454,#100,.T.);
#575=EDGE_CURVE('',#455,#447,#101,.T.);
#576=EDGE_CURVE('',#450,#445,#102,.T.);
#577=EDGE_CURVE('',#443,#449,#103,.T.);
#578=EDGE_CURVE('',#459,#446,#104,.T.);
#579=EDGE_CURVE('',#447,#460,#105,.T.);
#580=EDGE_CURVE('',#459,#460,#39,.T.);
#581=EDGE_CURVE('',#461,#443,#106,.T.);
#582=EDGE_CURVE('',#444,#462,#107,.T.);
#583=EDGE_CURVE('',#462,#461,#40,.T.);
#584=EDGE_CURVE('',#460,#461,#108,.T.);
#585=EDGE_CURVE('',#462,#459,#109,.T.);
#586=EDGE_CURVE('',#461,#441,#110,.F.);
#587=EDGE_CURVE('',#463,#440,#111,.T.);
#588=EDGE_CURVE('',#464,#463,#112,.T.);
#589=EDGE_CURVE('',#452,#464,#113,.T.);
#590=EDGE_CURVE('',#460,#442,#114,.F.);
#591=EDGE_CURVE('',#438,#458,#115,.T.);
#592=EDGE_CURVE('',#457,#453,#116,.T.);
#593=EDGE_CURVE('',#435,#464,#117,.T.);
#594=EDGE_CURVE('',#433,#463,#118,.T.);
#595=ORIENTED_EDGE('',*,*,#465,.F.);
#596=ORIENTED_EDGE('',*,*,#466,.F.);
#597=ORIENTED_EDGE('',*,*,#467,.F.);
#598=ORIENTED_EDGE('',*,*,#468,.T.);
#599=ORIENTED_EDGE('',*,*,#465,.T.);
#600=ORIENTED_EDGE('',*,*,#469,.T.);
#601=ORIENTED_EDGE('',*,*,#470,.T.);
#602=ORIENTED_EDGE('',*,*,#471,.T.);
#603=ORIENTED_EDGE('',*,*,#472,.T.);
#604=ORIENTED_EDGE('',*,*,#473,.T.);
#605=ORIENTED_EDGE('',*,*,#470,.F.);
#606=ORIENTED_EDGE('',*,*,#474,.F.);
#607=ORIENTED_EDGE('',*,*,#475,.F.);
#608=ORIENTED_EDGE('',*,*,#476,.F.);
#609=ORIENTED_EDGE('',*,*,#477,.F.);
#610=ORIENTED_EDGE('',*,*,#478,.F.);
#611=ORIENTED_EDGE('',*,*,#479,.F.);
#612=ORIENTED_EDGE('',*,*,#480,.T.);
#613=ORIENTED_EDGE('',*,*,#481,.T.);
#614=ORIENTED_EDGE('',*,*,#482,.T.);
#615=ORIENTED_EDGE('',*,*,#472,.F.);
#616=ORIENTED_EDGE('',*,*,#483,.F.);
#617=ORIENTED_EDGE('',*,*,#484,.F.);
#618=ORIENTED_EDGE('',*,*,#485,.F.);
#619=ORIENTED_EDGE('',*,*,#476,.T.);
#620=ORIENTED_EDGE('',*,*,#486,.T.);
#621=ORIENTED_EDGE('',*,*,#484,.T.);
#622=ORIENTED_EDGE('',*,*,#487,.T.);
#623=ORIENTED_EDGE('',*,*,#488,.F.);
#624=ORIENTED_EDGE('',*,*,#489,.F.);
#625=ORIENTED_EDGE('',*,*,#490,.F.);
#626=ORIENTED_EDGE('',*,*,#491,.F.);
#627=ORIENTED_EDGE('',*,*,#492,.F.);
#628=ORIENTED_EDGE('',*,*,#493,.F.);
#629=ORIENTED_EDGE('',*,*,#494,.F.);
#630=ORIENTED_EDGE('',*,*,#495,.F.);
#631=ORIENTED_EDGE('',*,*,#496,.F.);
#632=ORIENTED_EDGE('',*,*,#485,.T.);
#633=ORIENTED_EDGE('',*,*,#497,.T.);
#634=ORIENTED_EDGE('',*,*,#495,.T.);
#635=ORIENTED_EDGE('',*,*,#498,.T.);
#636=ORIENTED_EDGE('',*,*,#499,.F.);
#637=ORIENTED_EDGE('',*,*,#500,.F.);
#638=ORIENTED_EDGE('',*,*,#501,.F.);
#639=ORIENTED_EDGE('',*,*,#502,.F.);
#640=ORIENTED_EDGE('',*,*,#503,.F.);
#641=ORIENTED_EDGE('',*,*,#504,.F.);
#642=ORIENTED_EDGE('',*,*,#505,.F.);
#643=ORIENTED_EDGE('',*,*,#506,.F.);
#644=ORIENTED_EDGE('',*,*,#507,.F.);
#645=ORIENTED_EDGE('',*,*,#496,.T.);
#646=ORIENTED_EDGE('',*,*,#508,.T.);
#647=ORIENTED_EDGE('',*,*,#506,.T.);
#648=ORIENTED_EDGE('',*,*,#509,.T.);
#649=ORIENTED_EDGE('',*,*,#503,.T.);
#650=ORIENTED_EDGE('',*,*,#510,.T.);
#651=ORIENTED_EDGE('',*,*,#507,.T.);
#652=ORIENTED_EDGE('',*,*,#511,.T.);
#653=ORIENTED_EDGE('',*,*,#500,.T.);
#654=ORIENTED_EDGE('',*,*,#512,.T.);
#655=ORIENTED_EDGE('',*,*,#505,.T.);
#656=ORIENTED_EDGE('',*,*,#513,.T.);
#657=ORIENTED_EDGE('',*,*,#514,.T.);
#658=ORIENTED_EDGE('',*,*,#504,.T.);
#659=ORIENTED_EDGE('',*,*,#515,.T.);
#660=ORIENTED_EDGE('',*,*,#516,.T.);
#661=ORIENTED_EDGE('',*,*,#492,.T.);
#662=ORIENTED_EDGE('',*,*,#517,.T.);
#663=ORIENTED_EDGE('',*,*,#502,.T.);
#664=ORIENTED_EDGE('',*,*,#518,.T.);
#665=ORIENTED_EDGE('',*,*,#491,.T.);
#666=ORIENTED_EDGE('',*,*,#519,.T.);
#667=ORIENTED_EDGE('',*,*,#501,.T.);
#668=ORIENTED_EDGE('',*,*,#520,.T.);
#669=ORIENTED_EDGE('',*,*,#499,.T.);
#670=ORIENTED_EDGE('',*,*,#521,.T.);
#671=ORIENTED_EDGE('',*,*,#490,.T.);
#672=ORIENTED_EDGE('',*,*,#522,.T.);
#673=ORIENTED_EDGE('',*,*,#489,.T.);
#674=ORIENTED_EDGE('',*,*,#523,.T.);
#675=ORIENTED_EDGE('',*,*,#494,.T.);
#676=ORIENTED_EDGE('',*,*,#524,.T.);
#677=ORIENTED_EDGE('',*,*,#525,.T.);
#678=ORIENTED_EDGE('',*,*,#493,.T.);
#679=ORIENTED_EDGE('',*,*,#526,.T.);
#680=ORIENTED_EDGE('',*,*,#481,.F.);
#681=ORIENTED_EDGE('',*,*,#527,.T.);
#682=ORIENTED_EDGE('',*,*,#516,.F.);
#683=ORIENTED_EDGE('',*,*,#528,.T.);
#684=ORIENTED_EDGE('',*,*,#529,.T.);
#685=ORIENTED_EDGE('',*,*,#488,.T.);
#686=ORIENTED_EDGE('',*,*,#530,.T.);
#687=ORIENTED_EDGE('',*,*,#479,.T.);
#688=ORIENTED_EDGE('',*,*,#531,.T.);
#689=ORIENTED_EDGE('',*,*,#478,.T.);
#690=ORIENTED_EDGE('',*,*,#532,.T.);
#691=ORIENTED_EDGE('',*,*,#483,.T.);
#692=ORIENTED_EDGE('',*,*,#533,.T.);
#693=ORIENTED_EDGE('',*,*,#534,.T.);
#694=ORIENTED_EDGE('',*,*,#529,.F.);
#695=ORIENTED_EDGE('',*,*,#535,.T.);
#696=ORIENTED_EDGE('',*,*,#536,.T.);
#697=ORIENTED_EDGE('',*,*,#477,.T.);
#698=ORIENTED_EDGE('',*,*,#537,.T.);
#699=ORIENTED_EDGE('',*,*,#467,.T.);
#700=ORIENTED_EDGE('',*,*,#538,.T.);
#701=ORIENTED_EDGE('',*,*,#539,.T.);
#702=ORIENTED_EDGE('',*,*,#475,.T.);
#703=ORIENTED_EDGE('',*,*,#540,.T.);
#704=ORIENTED_EDGE('',*,*,#536,.F.);
#705=ORIENTED_EDGE('',*,*,#466,.T.);
#706=ORIENTED_EDGE('',*,*,#541,.T.);
#707=ORIENTED_EDGE('',*,*,#474,.T.);
#708=ORIENTED_EDGE('',*,*,#542,.T.);
#709=ORIENTED_EDGE('',*,*,#473,.F.);
#710=ORIENTED_EDGE('',*,*,#543,.F.);
#711=ORIENTED_EDGE('',*,*,#544,.T.);
#712=ORIENTED_EDGE('',*,*,#545,.T.);
#713=ORIENTED_EDGE('',*,*,#482,.F.);
#714=ORIENTED_EDGE('',*,*,#546,.F.);
#715=ORIENTED_EDGE('',*,*,#547,.T.);
#716=ORIENTED_EDGE('',*,*,#543,.T.);
#717=ORIENTED_EDGE('',*,*,#526,.F.);
#718=ORIENTED_EDGE('',*,*,#518,.F.);
#719=ORIENTED_EDGE('',*,*,#514,.F.);
#720=ORIENTED_EDGE('',*,*,#548,.T.);
#721=ORIENTED_EDGE('',*,*,#549,.T.);
#722=ORIENTED_EDGE('',*,*,#550,.T.);
#723=ORIENTED_EDGE('',*,*,#551,.T.);
#724=ORIENTED_EDGE('',*,*,#546,.T.);
#725=ORIENTED_EDGE('',*,*,#487,.F.);
#726=ORIENTED_EDGE('',*,*,#532,.F.);
#727=ORIENTED_EDGE('',*,*,#538,.F.);
#728=ORIENTED_EDGE('',*,*,#542,.F.);
#729=ORIENTED_EDGE('',*,*,#486,.F.);
#730=ORIENTED_EDGE('',*,*,#539,.F.);
#731=ORIENTED_EDGE('',*,*,#535,.F.);
#732=ORIENTED_EDGE('',*,*,#528,.F.);
#733=ORIENTED_EDGE('',*,*,#515,.F.);
#734=ORIENTED_EDGE('',*,*,#511,.F.);
#735=ORIENTED_EDGE('',*,*,#508,.F.);
#736=ORIENTED_EDGE('',*,*,#497,.F.);
#737=ORIENTED_EDGE('',*,*,#498,.F.);
#738=ORIENTED_EDGE('',*,*,#523,.F.);
#739=ORIENTED_EDGE('',*,*,#531,.F.);
#740=ORIENTED_EDGE('',*,*,#533,.F.);
#741=ORIENTED_EDGE('',*,*,#509,.F.);
#742=ORIENTED_EDGE('',*,*,#512,.F.);
#743=ORIENTED_EDGE('',*,*,#522,.F.);
#744=ORIENTED_EDGE('',*,*,#524,.F.);
#745=ORIENTED_EDGE('',*,*,#510,.F.);
#746=ORIENTED_EDGE('',*,*,#517,.F.);
#747=ORIENTED_EDGE('',*,*,#520,.F.);
#748=ORIENTED_EDGE('',*,*,#513,.F.);
#749=ORIENTED_EDGE('',*,*,#519,.F.);
#750=ORIENTED_EDGE('',*,*,#525,.F.);
#751=ORIENTED_EDGE('',*,*,#480,.F.);
#752=ORIENTED_EDGE('',*,*,#471,.F.);
#753=ORIENTED_EDGE('',*,*,#469,.F.);
#754=ORIENTED_EDGE('',*,*,#537,.F.);
#755=ORIENTED_EDGE('',*,*,#530,.F.);
#756=ORIENTED_EDGE('',*,*,#521,.F.);
#757=ORIENTED_EDGE('',*,*,#552,.F.);
#758=ORIENTED_EDGE('',*,*,#553,.F.);
#759=ORIENTED_EDGE('',*,*,#554,.F.);
#760=ORIENTED_EDGE('',*,*,#555,.F.);
#761=ORIENTED_EDGE('',*,*,#556,.F.);
#762=ORIENTED_EDGE('',*,*,#557,.F.);
#763=ORIENTED_EDGE('',*,*,#556,.T.);
#764=ORIENTED_EDGE('',*,*,#558,.T.);
#765=ORIENTED_EDGE('',*,*,#554,.T.);
#766=ORIENTED_EDGE('',*,*,#559,.T.);
#767=ORIENTED_EDGE('',*,*,#560,.F.);
#768=ORIENTED_EDGE('',*,*,#561,.F.);
#769=ORIENTED_EDGE('',*,*,#562,.F.);
#770=ORIENTED_EDGE('',*,*,#563,.T.);
#771=ORIENTED_EDGE('',*,*,#564,.T.);
#772=ORIENTED_EDGE('',*,*,#561,.T.);
#773=ORIENTED_EDGE('',*,*,#565,.T.);
#774=ORIENTED_EDGE('',*,*,#566,.F.);
#775=ORIENTED_EDGE('',*,*,#567,.F.);
#776=ORIENTED_EDGE('',*,*,#568,.F.);
#777=ORIENTED_EDGE('',*,*,#567,.T.);
#778=ORIENTED_EDGE('',*,*,#569,.T.);
#779=ORIENTED_EDGE('',*,*,#562,.T.);
#780=ORIENTED_EDGE('',*,*,#570,.T.);
#781=ORIENTED_EDGE('',*,*,#571,.T.);
#782=ORIENTED_EDGE('',*,*,#572,.T.);
#783=ORIENTED_EDGE('',*,*,#568,.T.);
#784=ORIENTED_EDGE('',*,*,#573,.T.);
#785=ORIENTED_EDGE('',*,*,#557,.T.);
#786=ORIENTED_EDGE('',*,*,#574,.T.);
#787=ORIENTED_EDGE('',*,*,#566,.T.);
#788=ORIENTED_EDGE('',*,*,#575,.T.);
#789=ORIENTED_EDGE('',*,*,#560,.T.);
#790=ORIENTED_EDGE('',*,*,#576,.T.);
#791=ORIENTED_EDGE('',*,*,#553,.T.);
#792=ORIENTED_EDGE('',*,*,#577,.T.);
#793=ORIENTED_EDGE('',*,*,#578,.T.);
#794=ORIENTED_EDGE('',*,*,#555,.T.);
#795=ORIENTED_EDGE('',*,*,#579,.T.);
#796=ORIENTED_EDGE('',*,*,#580,.F.);
#797=ORIENTED_EDGE('',*,*,#581,.T.);
#798=ORIENTED_EDGE('',*,*,#552,.T.);
#799=ORIENTED_EDGE('',*,*,#582,.T.);
#800=ORIENTED_EDGE('',*,*,#583,.T.);
#801=ORIENTED_EDGE('',*,*,#584,.T.);
#802=ORIENTED_EDGE('',*,*,#583,.F.);
#803=ORIENTED_EDGE('',*,*,#585,.T.);
#804=ORIENTED_EDGE('',*,*,#580,.T.);
#805=ORIENTED_EDGE('',*,*,#565,.F.);
#806=ORIENTED_EDGE('',*,*,#577,.F.);
#807=ORIENTED_EDGE('',*,*,#581,.F.);
#808=ORIENTED_EDGE('',*,*,#586,.T.);
#809=ORIENTED_EDGE('',*,*,#549,.F.);
#810=ORIENTED_EDGE('',*,*,#587,.F.);
#811=ORIENTED_EDGE('',*,*,#588,.F.);
#812=ORIENTED_EDGE('',*,*,#589,.F.);
#813=ORIENTED_EDGE('',*,*,#584,.F.);
#814=ORIENTED_EDGE('',*,*,#590,.T.);
#815=ORIENTED_EDGE('',*,*,#550,.F.);
#816=ORIENTED_EDGE('',*,*,#586,.F.);
#817=ORIENTED_EDGE('',*,*,#579,.F.);
#818=ORIENTED_EDGE('',*,*,#575,.F.);
#819=ORIENTED_EDGE('',*,*,#572,.F.);
#820=ORIENTED_EDGE('',*,*,#591,.F.);
#821=ORIENTED_EDGE('',*,*,#544,.F.);
#822=ORIENTED_EDGE('',*,*,#547,.F.);
#823=ORIENTED_EDGE('',*,*,#551,.F.);
#824=ORIENTED_EDGE('',*,*,#590,.F.);
#825=ORIENTED_EDGE('',*,*,#558,.F.);
#826=ORIENTED_EDGE('',*,*,#578,.F.);
#827=ORIENTED_EDGE('',*,*,#585,.F.);
#828=ORIENTED_EDGE('',*,*,#582,.F.);
#829=ORIENTED_EDGE('',*,*,#569,.F.);
#830=ORIENTED_EDGE('',*,*,#574,.F.);
#831=ORIENTED_EDGE('',*,*,#559,.F.);
#832=ORIENTED_EDGE('',*,*,#576,.F.);
#833=ORIENTED_EDGE('',*,*,#564,.F.);
#834=ORIENTED_EDGE('',*,*,#592,.F.);
#835=ORIENTED_EDGE('',*,*,#573,.F.);
#836=ORIENTED_EDGE('',*,*,#570,.F.);
#837=ORIENTED_EDGE('',*,*,#468,.F.);
#838=ORIENTED_EDGE('',*,*,#545,.F.);
#839=ORIENTED_EDGE('',*,*,#591,.T.);
#840=ORIENTED_EDGE('',*,*,#571,.F.);
#841=ORIENTED_EDGE('',*,*,#592,.T.);
#842=ORIENTED_EDGE('',*,*,#563,.F.);
#843=ORIENTED_EDGE('',*,*,#589,.T.);
#844=ORIENTED_EDGE('',*,*,#593,.F.);
#845=ORIENTED_EDGE('',*,*,#540,.F.);
#846=ORIENTED_EDGE('',*,*,#541,.F.);
#847=ORIENTED_EDGE('',*,*,#534,.F.);
#848=ORIENTED_EDGE('',*,*,#593,.T.);
#849=ORIENTED_EDGE('',*,*,#588,.T.);
#850=ORIENTED_EDGE('',*,*,#594,.F.);
#851=ORIENTED_EDGE('',*,*,#527,.F.);
#852=ORIENTED_EDGE('',*,*,#594,.T.);
#853=ORIENTED_EDGE('',*,*,#587,.T.);
#854=ORIENTED_EDGE('',*,*,#548,.F.);
#855=SPHERICAL_SURFACE('',#945,0.999999999999996);
#856=SPHERICAL_SURFACE('',#953,1.);
#857=SPHERICAL_SURFACE('',#957,1.);
#858=SPHERICAL_SURFACE('',#963,1.);
#859=SPHERICAL_SURFACE('',#968,0.999999999999998);
#860=SPHERICAL_SURFACE('',#972,1.);
#861=SPHERICAL_SURFACE('',#976,1.);
#862=SPHERICAL_SURFACE('',#981,1.);
#863=SPHERICAL_SURFACE('',#985,1.);
#864=SPHERICAL_SURFACE('',#989,1.);
#865=SPHERICAL_SURFACE('',#1021,0.999999999999995);
#866=SPHERICAL_SURFACE('',#1025,0.999999999999999);
#867=SPHERICAL_SURFACE('',#1030,0.999999999999996);
#868=SPHERICAL_SURFACE('',#1036,0.999999999999996);
#869=ADVANCED_FACE('',(#227),#855,.T.);
#870=ADVANCED_FACE('',(#228),#197,.T.);
#871=ADVANCED_FACE('',(#229),#198,.T.);
#872=ADVANCED_FACE('',(#230),#856,.T.);
#873=ADVANCED_FACE('',(#231),#857,.T.);
#874=ADVANCED_FACE('',(#232),#199,.T.);
#875=ADVANCED_FACE('',(#233),#858,.T.);
#876=ADVANCED_FACE('',(#234),#200,.T.);
#877=ADVANCED_FACE('',(#235),#859,.T.);
#878=ADVANCED_FACE('',(#236),#860,.T.);
#879=ADVANCED_FACE('',(#237),#861,.T.);
#880=ADVANCED_FACE('',(#238),#201,.T.);
#881=ADVANCED_FACE('',(#239),#862,.T.);
#882=ADVANCED_FACE('',(#240),#863,.T.);
#883=ADVANCED_FACE('',(#241),#864,.T.);
#884=ADVANCED_FACE('',(#242),#202,.T.);
#885=ADVANCED_FACE('',(#243),#203,.T.);
#886=ADVANCED_FACE('',(#244),#204,.T.);
#887=ADVANCED_FACE('',(#245),#205,.T.);
#888=ADVANCED_FACE('',(#246),#206,.T.);
#889=ADVANCED_FACE('',(#247),#207,.T.);
#890=ADVANCED_FACE('',(#248),#208,.T.);
#891=ADVANCED_FACE('',(#249),#209,.T.);
#892=ADVANCED_FACE('',(#250),#210,.T.);
#893=ADVANCED_FACE('',(#251),#211,.T.);
#894=ADVANCED_FACE('',(#252),#212,.T.);
#895=ADVANCED_FACE('',(#253),#213,.T.);
#896=ADVANCED_FACE('',(#254),#214,.T.);
#897=ADVANCED_FACE('',(#255),#215,.T.);
#898=ADVANCED_FACE('',(#256),#216,.T.);
#899=ADVANCED_FACE('',(#257),#217,.T.);
#900=ADVANCED_FACE('',(#258),#15,.T.);
#901=ADVANCED_FACE('',(#259),#16,.T.);
#902=ADVANCED_FACE('',(#260),#17,.T.);
#903=ADVANCED_FACE('',(#261),#18,.T.);
#904=ADVANCED_FACE('',(#262),#19,.F.);
#905=ADVANCED_FACE('',(#263),#20,.T.);
#906=ADVANCED_FACE('',(#264),#21,.T.);
#907=ADVANCED_FACE('',(#265),#22,.T.);
#908=ADVANCED_FACE('',(#266),#23,.T.);
#909=ADVANCED_FACE('',(#267),#865,.F.);
#910=ADVANCED_FACE('',(#268),#866,.F.);
#911=ADVANCED_FACE('',(#269),#218,.F.);
#912=ADVANCED_FACE('',(#270),#867,.F.);
#913=ADVANCED_FACE('',(#271),#219,.F.);
#914=ADVANCED_FACE('',(#272),#868,.F.);
#915=ADVANCED_FACE('',(#273),#220,.F.);
#916=ADVANCED_FACE('',(#274),#221,.F.);
#917=ADVANCED_FACE('',(#275),#222,.F.);
#918=ADVANCED_FACE('',(#276),#223,.F.);
#919=ADVANCED_FACE('',(#277),#224,.F.);
#920=ADVANCED_FACE('',(#278),#225,.F.);
#921=ADVANCED_FACE('',(#279),#226,.F.);
#922=ADVANCED_FACE('',(#280),#24,.T.);
#923=ADVANCED_FACE('',(#281),#25,.F.);
#924=ADVANCED_FACE('',(#282),#26,.F.);
#925=ADVANCED_FACE('',(#283),#27,.F.);
#926=ADVANCED_FACE('',(#284),#28,.F.);
#927=ADVANCED_FACE('',(#285),#29,.F.);
#928=ADVANCED_FACE('',(#286),#30,.T.);
#929=ADVANCED_FACE('',(#287),#31,.T.);
#930=ADVANCED_FACE('',(#288),#32,.T.);
#931=CLOSED_SHELL('',(#869,#870,#871,#872,#873,#874,#875,#876,#877,#878,
#879,#880,#881,#882,#883,#884,#885,#886,#887,#888,#889,#890,#891,#892,#893,
#894,#895,#896,#897,#898,#899,#900,#901,#902,#903,#904,#905,#906,#907,#908,
#909,#910,#911,#912,#913,#914,#915,#916,#917,#918,#919,#920,#921,#922,#923,
#924,#925,#926,#927,#928,#929,#930));
#932=DERIVED_UNIT_ELEMENT(#934,1.);
#933=DERIVED_UNIT_ELEMENT(#1635,-3.);
#934=(
MASS_UNIT()
NAMED_UNIT(*)
SI_UNIT(.KILO.,.GRAM.)
);
#935=DERIVED_UNIT((#932,#933));
#936=MEASURE_REPRESENTATION_ITEM('density measure',
POSITIVE_RATIO_MEASURE(7850.),#935);
#937=PROPERTY_DEFINITION_REPRESENTATION(#942,#939);
#938=PROPERTY_DEFINITION_REPRESENTATION(#943,#940);
#939=REPRESENTATION('material name',(#941),#1632);
#940=REPRESENTATION('density',(#936),#1632);
#941=DESCRIPTIVE_REPRESENTATION_ITEM('Steel','Steel');
#942=PROPERTY_DEFINITION('material property','material name',#1642);
#943=PROPERTY_DEFINITION('material property','density of part',#1642);
#944=AXIS2_PLACEMENT_3D('',#1367,#1059,#1060);
#945=AXIS2_PLACEMENT_3D('',#1368,#1061,#1062);
#946=AXIS2_PLACEMENT_3D('',#1371,#1063,#1064);
#947=AXIS2_PLACEMENT_3D('',#1373,#1065,#1066);
#948=AXIS2_PLACEMENT_3D('',#1374,#1067,#1068);
#949=AXIS2_PLACEMENT_3D('',#1375,#1069,#1070);
#950=AXIS2_PLACEMENT_3D('',#1380,#1073,#1074);
#951=AXIS2_PLACEMENT_3D('',#1381,#1075,#1076);
#952=AXIS2_PLACEMENT_3D('',#1385,#1078,#1079);
#953=AXIS2_PLACEMENT_3D('',#1387,#1081,#1082);
#954=AXIS2_PLACEMENT_3D('',#1390,#1083,#1084);
#955=AXIS2_PLACEMENT_3D('',#1392,#1085,#1086);
#956=AXIS2_PLACEMENT_3D('',#1393,#1087,#1088);
#957=AXIS2_PLACEMENT_3D('',#1394,#1089,#1090);
#958=AXIS2_PLACEMENT_3D('',#1397,#1091,#1092);
#959=AXIS2_PLACEMENT_3D('',#1399,#1093,#1094);
#960=AXIS2_PLACEMENT_3D('',#1400,#1095,#1096);
#961=AXIS2_PLACEMENT_3D('',#1401,#1097,#1098);
#962=AXIS2_PLACEMENT_3D('',#1405,#1100,#1101);
#963=AXIS2_PLACEMENT_3D('',#1407,#1103,#1104);
#964=AXIS2_PLACEMENT_3D('',#1410,#1105,#1106);
#965=AXIS2_PLACEMENT_3D('',#1412,#1107,#1108);
#966=AXIS2_PLACEMENT_3D('',#1413,#1109,#1110);
#967=AXIS2_PLACEMENT_3D('',#1414,#1111,#1112);
#968=AXIS2_PLACEMENT_3D('',#1417,#1115,#1116);
#969=AXIS2_PLACEMENT_3D('',#1420,#1117,#1118);
#970=AXIS2_PLACEMENT_3D('',#1422,#1119,#1120);
#971=AXIS2_PLACEMENT_3D('',#1423,#1121,#1122);
#972=AXIS2_PLACEMENT_3D('',#1424,#1123,#1124);
#973=AXIS2_PLACEMENT_3D('',#1427,#1125,#1126);
#974=AXIS2_PLACEMENT_3D('',#1429,#1127,#1128);
#975=AXIS2_PLACEMENT_3D('',#1430,#1129,#1130);
#976=AXIS2_PLACEMENT_3D('',#1431,#1131,#1132);
#977=AXIS2_PLACEMENT_3D('',#1434,#1133,#1134);
#978=AXIS2_PLACEMENT_3D('',#1436,#1135,#1136);
#979=AXIS2_PLACEMENT_3D('',#1437,#1137,#1138);
#980=AXIS2_PLACEMENT_3D('',#1438,#1139,#1140);
#981=AXIS2_PLACEMENT_3D('',#1441,#1143,#1144);
#982=AXIS2_PLACEMENT_3D('',#1444,#1145,#1146);
#983=AXIS2_PLACEMENT_3D('',#1446,#1147,#1148);
#984=AXIS2_PLACEMENT_3D('',#1447,#1149,#1150);
#985=AXIS2_PLACEMENT_3D('',#1448,#1151,#1152);
#986=AXIS2_PLACEMENT_3D('',#1451,#1153,#1154);
#987=AXIS2_PLACEMENT_3D('',#1453,#1155,#1156);
#988=AXIS2_PLACEMENT_3D('',#1454,#1157,#1158);
#989=AXIS2_PLACEMENT_3D('',#1455,#1159,#1160);
#990=AXIS2_PLACEMENT_3D('',#1458,#1161,#1162);
#991=AXIS2_PLACEMENT_3D('',#1460,#1163,#1164);
#992=AXIS2_PLACEMENT_3D('',#1461,#1165,#1166);
#993=AXIS2_PLACEMENT_3D('',#1462,#1167,#1168);
#994=AXIS2_PLACEMENT_3D('',#1465,#1171,#1172);
#995=AXIS2_PLACEMENT_3D('',#1468,#1175,#1176);
#996=AXIS2_PLACEMENT_3D('',#1471,#1179,#1180);
#997=AXIS2_PLACEMENT_3D('',#1476,#1183,#1184);
#998=AXIS2_PLACEMENT_3D('',#1477,#1185,#1186);
#999=AXIS2_PLACEMENT_3D('',#1480,#1189,#1190);
#1000=AXIS2_PLACEMENT_3D('',#1483,#1193,#1194);
#1001=AXIS2_PLACEMENT_3D('',#1486,#1197,#1198);
#1002=AXIS2_PLACEMENT_3D('',#1489,#1201,#1202);
#1003=AXIS2_PLACEMENT_3D('',#1492,#1205,#1206);
#1004=AXIS2_PLACEMENT_3D('',#1497,#1209,#1210);
#1005=AXIS2_PLACEMENT_3D('',#1498,#1211,#1212);
#1006=AXIS2_PLACEMENT_3D('',#1501,#1215,#1216);
#1007=AXIS2_PLACEMENT_3D('',#1504,#1219,#1220);
#1008=AXIS2_PLACEMENT_3D('',#1509,#1223,#1224);
#1009=AXIS2_PLACEMENT_3D('',#1510,#1225,#1226);
#1010=AXIS2_PLACEMENT_3D('',#1513,#1229,#1230);
#1011=AXIS2_PLACEMENT_3D('',#1516,#1233,#1234);
#1012=AXIS2_PLACEMENT_3D('',#1519,#1237,#1238);
#1013=AXIS2_PLACEMENT_3D('',#1525,#1242,#1243);
#1014=AXIS2_PLACEMENT_3D('',#1529,#1246,#1247);
#1015=AXIS2_PLACEMENT_3D('',#1537,#1252,#1253);
#1016=AXIS2_PLACEMENT_3D('',#1538,#1254,#1255);
#1017=AXIS2_PLACEMENT_3D('',#1539,#1256,#1257);
#1018=AXIS2_PLACEMENT_3D('',#1540,#1258,#1259);
#1019=AXIS2_PLACEMENT_3D('',#1541,#1260,#1261);
#1020=AXIS2_PLACEMENT_3D('',#1542,#1262,#1263);
#1021=AXIS2_PLACEMENT_3D('',#1543,#1264,#1265);
#1022=AXIS2_PLACEMENT_3D('',#1546,#1266,#1267);
#1023=AXIS2_PLACEMENT_3D('',#1548,#1268,#1269);
#1024=AXIS2_PLACEMENT_3D('',#1549,#1270,#1271);
#1025=AXIS2_PLACEMENT_3D('',#1550,#1272,#1273);
#1026=AXIS2_PLACEMENT_3D('',#1553,#1274,#1275);
#1027=AXIS2_PLACEMENT_3D('',#1555,#1276,#1277);
#1028=AXIS2_PLACEMENT_3D('',#1556,#1278,#1279);
#1029=AXIS2_PLACEMENT_3D('',#1557,#1280,#1281);
#1030=AXIS2_PLACEMENT_3D('',#1560,#1284,#1285);
#1031=AXIS2_PLACEMENT_3D('',#1563,#1286,#1287);
#1032=AXIS2_PLACEMENT_3D('',#1565,#1288,#1289);
#1033=AXIS2_PLACEMENT_3D('',#1566,#1290,#1291);
#1034=AXIS2_PLACEMENT_3D('',#1567,#1292,#1293);
#1035=AXIS2_PLACEMENT_3D('',#1570,#1294,#1295);
#1036=AXIS2_PLACEMENT_3D('',#1573,#1298,#1299);
#1037=AXIS2_PLACEMENT_3D('',#1576,#1300,#1301);
#1038=AXIS2_PLACEMENT_3D('',#1578,#1302,#1303);
#1039=AXIS2_PLACEMENT_3D('',#1579,#1304,#1305);
#1040=AXIS2_PLACEMENT_3D('',#1580,#1306,#1307);
#1041=AXIS2_PLACEMENT_3D('',#1583,#1310,#1311);
#1042=AXIS2_PLACEMENT_3D('',#1586,#1312,#1313);
#1043=AXIS2_PLACEMENT_3D('',#1589,#1316,#1317);
#1044=AXIS2_PLACEMENT_3D('',#1592,#1320,#1321);
#1045=AXIS2_PLACEMENT_3D('',#1595,#1324,#1325);
#1046=AXIS2_PLACEMENT_3D('',#1600,#1328,#1329);
#1047=AXIS2_PLACEMENT_3D('',#1601,#1330,#1331);
#1048=AXIS2_PLACEMENT_3D('',#1606,#1334,#1335);
#1049=AXIS2_PLACEMENT_3D('',#1607,#1336,#1337);
#1050=AXIS2_PLACEMENT_3D('',#1610,#1340,#1341);
#1051=AXIS2_PLACEMENT_3D('',#1617,#1346,#1347);
#1052=AXIS2_PLACEMENT_3D('',#1619,#1349,#1350);
#1053=AXIS2_PLACEMENT_3D('',#1621,#1352,#1353);
#1054=AXIS2_PLACEMENT_3D('',#1622,#1354,#1355);
#1055=AXIS2_PLACEMENT_3D('',#1623,#1356,#1357);
#1056=AXIS2_PLACEMENT_3D('',#1625,#1359,#1360);
#1057=AXIS2_PLACEMENT_3D('',#1627,#1362,#1363);
#1058=AXIS2_PLACEMENT_3D('',#1629,#1365,#1366);
#1059=DIRECTION('axis',(0.,0.,1.));
#1060=DIRECTION('refdir',(1.,0.,0.));
#1061=DIRECTION('center_axis',(0.408248290463862,-0.816496580927724,0.408248290463869));
#1062=DIRECTION('ref_axis',(0.577350269189623,0.577350269189623,0.577350269189631));
#1063=DIRECTION('center_axis',(0.,1.,0.));
#1064=DIRECTION('ref_axis',(1.,0.,0.));
#1065=DIRECTION('center_axis',(0.,0.,1.));
#1066=DIRECTION('ref_axis',(0.,1.,0.));
#1067=DIRECTION('center_axis',(1.,-4.44089209850064E-15,0.));
#1068=DIRECTION('ref_axis',(0.,0.,1.));
#1069=DIRECTION('center_axis',(0.,1.,0.));
#1070=DIRECTION('ref_axis',(0.707106781186551,0.,0.707106781186544));
#1071=DIRECTION('',(0.,1.,0.));
#1072=DIRECTION('',(0.,-1.,0.));
#1073=DIRECTION('center_axis',(0.707106781186546,0.707106781186549,0.));
#1074=DIRECTION('ref_axis',(0.707106781186549,-0.707106781186546,0.));
#1075=DIRECTION('center_axis',(1.,0.,0.));
#1076=DIRECTION('ref_axis',(0.,-0.707106781186554,0.707106781186541));
#1077=DIRECTION('',(-1.,0.,0.));
#1078=DIRECTION('center_axis',(0.923879532511285,0.382683432365095,4.10284931589581E-15));
#1079=DIRECTION('ref_axis',(-0.382683432365095,0.923879532511285,9.90515446280869E-15));
#1080=DIRECTION('',(1.,0.,0.));
#1081=DIRECTION('center_axis',(-0.408248290463864,-0.40824829046386,-0.816496580927727));
#1082=DIRECTION('ref_axis',(0.57735026918963,0.577350269189623,-0.577350269189625));
#1083=DIRECTION('center_axis',(0.,0.,-1.));
#1084=DIRECTION('ref_axis',(1.,0.,0.));
#1085=DIRECTION('center_axis',(0.,1.,0.));
#1086=DIRECTION('ref_axis',(0.,0.,-1.));
#1087=DIRECTION('center_axis',(1.,0.,-4.44089209850063E-15));
#1088=DIRECTION('ref_axis',(0.,1.,0.));
#1089=DIRECTION('center_axis',(-0.941663177664654,-0.290400099340416,-0.170112439679123));
#1090=DIRECTION('ref_axis',(-0.336556770590796,0.812519920068737,0.475963149477969));
#1091=DIRECTION('center_axis',(-1.,0.,-2.66453525910037E-14));
#1092=DIRECTION('ref_axis',(0.,1.,0.));
#1093=DIRECTION('center_axis',(0.,0.,1.));
#1094=DIRECTION('ref_axis',(-0.707106781186549,0.707106781186546,0.));
#1095=DIRECTION('center_axis',(0.707106781186566,0.707106781186529,0.));
#1096=DIRECTION('ref_axis',(0.,0.,1.));
#1097=DIRECTION('center_axis',(0.707106781186547,0.707106781186548,0.));
#1098=DIRECTION('ref_axis',(0.500000000000002,-0.5,0.707106781186546));
#1099=DIRECTION('',(-0.707106781186547,-0.707106781186548,0.));
#1100=DIRECTION('center_axis',(0.38268343236509,0.923879532511287,8.20569863179164E-15));
#1101=DIRECTION('ref_axis',(-0.923879532511286,0.38268343236509,1.98103089256178E-14));
#1102=DIRECTION('',(0.707106781186547,0.707106781186548,0.));
#1103=DIRECTION('center_axis',(-0.941663177664671,-0.290400099340375,0.170112439679099));
#1104=DIRECTION('ref_axis',(-0.336556770590754,0.812519920068754,-0.475963149477971));
#1105=DIRECTION('center_axis',(0.,0.,-1.));
#1106=DIRECTION('ref_axis',(0.,1.,0.));
#1107=DIRECTION('center_axis',(-1.,2.66453525910039E-14,0.));
#1108=DIRECTION('ref_axis',(0.,0.,-1.));
#1109=DIRECTION('center_axis',(0.707106781186549,0.707106781186546,-2.51214793389404E-14));
#1110=DIRECTION('ref_axis',(-0.707106781186546,0.707106781186549,0.));
#1111=DIRECTION('center_axis',(1.,0.,0.));
#1112=DIRECTION('ref_axis',(0.,0.70710678118654,-0.707106781186555));
#1113=DIRECTION('',(-1.,0.,0.));
#1114=DIRECTION('',(1.,0.,0.));
#1115=DIRECTION('center_axis',(-0.439732612032302,0.182143211721524,-0.879465224064611));
#1116=DIRECTION('ref_axis',(-0.81251992006874,0.336556770590789,0.475963149477969));
#1117=DIRECTION('center_axis',(-0.707106781186549,-0.707106781186546,2.35513868802566E-14));
#1118=DIRECTION('ref_axis',(-0.707106781186546,0.707106781186549,0.));
#1119=DIRECTION('center_axis',(0.,0.,1.));
#1120=DIRECTION('ref_axis',(-1.,0.,0.));
#1121=DIRECTION('center_axis',(-1.77635683940025E-14,1.,0.));
#1122=DIRECTION('ref_axis',(0.,0.,1.));
#1123=DIRECTION('center_axis',(-0.816496580927727,-0.408248290463863,0.40824829046386));
#1124=DIRECTION('ref_axis',(0.577350269189626,-0.577350269189628,0.577350269189624));
#1125=DIRECTION('center_axis',(1.,0.,0.));
#1126=DIRECTION('ref_axis',(0.,-1.,0.));
#1127=DIRECTION('center_axis',(0.,0.,1.));
#1128=DIRECTION('ref_axis',(1.,0.,0.));
#1129=DIRECTION('center_axis',(0.,-1.,0.));
#1130=DIRECTION('ref_axis',(0.,0.,1.));
#1131=DIRECTION('center_axis',(0.439732612032308,-0.182143211721524,-0.879465224064608));
#1132=DIRECTION('ref_axis',(-0.812519920068752,0.336556770590761,-0.475963149477968));
#1133=DIRECTION('center_axis',(0.,0.,-1.));
#1134=DIRECTION('ref_axis',(-0.70710678118655,0.707106781186545,0.));
#1135=DIRECTION('center_axis',(-0.707106781186533,-0.707106781186562,0.));
#1136=DIRECTION('ref_axis',(0.,0.,-1.));
#1137=DIRECTION('center_axis',(0.,1.,1.77635683940025E-14));
#1138=DIRECTION('ref_axis',(-1.,0.,0.));
#1139=DIRECTION('center_axis',(0.707106781186547,0.707106781186548,0.));
#1140=DIRECTION('ref_axis',(-0.5,0.5,-0.707106781186548));
#1141=DIRECTION('',(-0.707106781186547,-0.707106781186548,0.));
#1142=DIRECTION('',(0.707106781186547,0.707106781186548,0.));
#1143=DIRECTION('center_axis',(-0.816496580927728,0.408248290463864,-0.408248290463859));
#1144=DIRECTION('ref_axis',(-0.577350269189623,-0.577350269189627,0.577350269189627));
#1145=DIRECTION('center_axis',(0.,-1.,0.));
#1146=DIRECTION('ref_axis',(-1.,0.,0.));
#1147=DIRECTION('center_axis',(0.,0.,1.));
#1148=DIRECTION('ref_axis',(0.,-1.,0.));
#1149=DIRECTION('center_axis',(-1.,0.,0.));
#1150=DIRECTION('ref_axis',(0.,0.,1.));
#1151=DIRECTION('center_axis',(-0.408248290463862,-0.816496580927727,0.408248290463863));
#1152=DIRECTION('ref_axis',(0.577350269189626,-0.577350269189625,-0.577350269189626));
#1153=DIRECTION('center_axis',(0.,0.,-1.));
#1154=DIRECTION('ref_axis',(0.,-1.,0.));
#1155=DIRECTION('center_axis',(1.,0.,0.));
#1156=DIRECTION('ref_axis',(0.,0.,-1.));
#1157=DIRECTION('center_axis',(0.,-1.,0.));
#1158=DIRECTION('ref_axis',(1.,0.,0.));
#1159=DIRECTION('center_axis',(0.408248290463863,-0.816496580927726,0.408248290463863));
#1160=DIRECTION('ref_axis',(-0.577350269189626,-0.577350269189625,-0.577350269189626));
#1161=DIRECTION('center_axis',(0.,0.,-1.));
#1162=DIRECTION('ref_axis',(-1.,0.,0.));
#1163=DIRECTION('center_axis',(0.,-1.,0.));
#1164=DIRECTION('ref_axis',(0.,0.,-1.));
#1165=DIRECTION('center_axis',(-1.,0.,0.));
#1166=DIRECTION('ref_axis',(0.,-1.,0.));
#1167=DIRECTION('center_axis',(-2.73310423008241E-17,1.,0.));
#1168=DIRECTION('ref_axis',(-0.707106781186547,0.,-0.707106781186548));
#1169=DIRECTION('',(2.73310423008241E-17,-1.,0.));
#1170=DIRECTION('',(-2.73310423008241E-17,1.,0.));
#1171=DIRECTION('center_axis',(1.,0.,0.));
#1172=DIRECTION('ref_axis',(0.,-0.707106781186547,-0.707106781186548));
#1173=DIRECTION('',(-1.,0.,0.));
#1174=DIRECTION('',(1.,0.,0.));
#1175=DIRECTION('center_axis',(0.,0.,1.));
#1176=DIRECTION('ref_axis',(-0.707106781186546,-0.707106781186549,0.));
#1177=DIRECTION('',(0.,0.,-1.));
#1178=DIRECTION('',(0.,0.,1.));
#1179=DIRECTION('center_axis',(0.,1.,0.));
#1180=DIRECTION('ref_axis',(0.707106781186548,0.,-0.707106781186547));
#1181=DIRECTION('',(0.,-1.,0.));
#1182=DIRECTION('',(0.,1.,0.));
#1183=DIRECTION('center_axis',(-0.382683432365097,-0.923879532511284,-4.24863957754315E-16));
#1184=DIRECTION('ref_axis',(0.923879532511284,-0.382683432365097,1.02571232897395E-15));
#1185=DIRECTION('center_axis',(0.,0.,1.));
#1186=DIRECTION('ref_axis',(0.707106781186548,-0.707106781186547,0.));
#1187=DIRECTION('',(0.,0.,-1.));
#1188=DIRECTION('',(0.,0.,1.));
#1189=DIRECTION('center_axis',(1.,0.,0.));
#1190=DIRECTION('ref_axis',(0.,-0.707106781186548,0.707106781186547));
#1191=DIRECTION('',(-1.,0.,0.));
#1192=DIRECTION('',(1.,0.,0.));
#1193=DIRECTION('center_axis',(2.73310423008241E-17,-1.,0.));
#1194=DIRECTION('ref_axis',(-0.707106781186548,0.,0.707106781186547));
#1195=DIRECTION('',(-2.73310423008241E-17,1.,0.));
#1196=DIRECTION('',(2.73310423008241E-17,-1.,0.));
#1197=DIRECTION('center_axis',(0.,0.,1.));
#1198=DIRECTION('ref_axis',(-0.923879532511287,0.382683432365089,0.));
#1199=DIRECTION('',(0.,0.,-1.));
#1200=DIRECTION('',(0.,0.,1.));
#1201=DIRECTION('center_axis',(0.,1.,0.));
#1202=DIRECTION('ref_axis',(0.707106781186549,0.,0.707106781186546));
#1203=DIRECTION('',(0.,-1.,0.));
#1204=DIRECTION('',(0.,1.,0.));
#1205=DIRECTION('center_axis',(0.707106781186547,0.707106781186548,0.));
#1206=DIRECTION('ref_axis',(0.500000000000004,-0.499999999999998,-0.707106781186546));
#1207=DIRECTION('',(-0.707106781186547,-0.707106781186548,0.));
#1208=DIRECTION('',(0.707106781186547,0.707106781186548,0.));
#1209=DIRECTION('center_axis',(-0.923879532511282,-0.382683432365102,0.));
#1210=DIRECTION('ref_axis',(0.382683432365102,-0.923879532511282,0.));
#1211=DIRECTION('center_axis',(-0.707106781186547,-0.707106781186548,0.));
#1212=DIRECTION('ref_axis',(-0.5,0.5,0.707106781186547));
#1213=DIRECTION('',(0.707106781186547,0.707106781186548,0.));
#1214=DIRECTION('',(-0.707106781186547,-0.707106781186548,0.));
#1215=DIRECTION('center_axis',(0.,0.,1.));
#1216=DIRECTION('ref_axis',(-0.382683432365094,0.923879532511285,0.));
#1217=DIRECTION('',(0.,0.,-1.));
#1218=DIRECTION('',(0.,0.,1.));
#1219=DIRECTION('center_axis',(1.,0.,0.));
#1220=DIRECTION('ref_axis',(0.,-0.707106781186553,-0.707106781186543));
#1221=DIRECTION('',(-1.,0.,0.));
#1222=DIRECTION('',(1.,0.,0.));
#1223=DIRECTION('center_axis',(-0.707106781186546,-0.707106781186549,0.));
#1224=DIRECTION('ref_axis',(-0.707106781186549,0.707106781186546,0.));
#1225=DIRECTION('center_axis',(-1.,0.,0.));
#1226=DIRECTION('ref_axis',(0.,0.707106781186541,0.707106781186554));
#1227=DIRECTION('',(1.,0.,0.));
#1228=DIRECTION('',(-1.,0.,0.));
#1229=DIRECTION('center_axis',(0.,-1.,0.));
#1230=DIRECTION('ref_axis',(0.707106781186549,0.,-0.707106781186546));
#1231=DIRECTION('',(0.,1.,0.));
#1232=DIRECTION('',(0.,-1.,0.));
#1233=DIRECTION('center_axis',(0.,0.,1.));
#1234=DIRECTION('ref_axis',(0.707106781186554,0.707106781186541,0.));
#1235=DIRECTION('',(0.,0.,-1.));
#1236=DIRECTION('',(0.,0.,1.));
#1237=DIRECTION('center_axis',(0.,-1.,0.));
#1238=DIRECTION('ref_axis',(1.,0.,0.));
#1239=DIRECTION('',(0.,0.,1.));
#1240=DIRECTION('',(1.,0.,0.));
#1241=DIRECTION('',(0.,0.,1.));
#1242=DIRECTION('center_axis',(0.707106781186548,-0.707106781186547,0.));
#1243=DIRECTION('ref_axis',(0.707106781186547,0.707106781186548,0.));
#1244=DIRECTION('',(0.,0.,1.));
#1245=DIRECTION('',(0.707106781186547,0.707106781186548,0.));
#1246=DIRECTION('center_axis',(1.,0.,0.));
#1247=DIRECTION('ref_axis',(0.,1.,0.));
#1248=DIRECTION('',(0.,0.,1.));
#1249=DIRECTION('',(0.,-1.,0.));
#1250=DIRECTION('',(0.,0.,1.));
#1251=DIRECTION('',(0.,1.,0.));
#1252=DIRECTION('center_axis',(0.,1.,0.));
#1253=DIRECTION('ref_axis',(-1.,0.,0.));
#1254=DIRECTION('center_axis',(0.,0.,1.));
#1255=DIRECTION('ref_axis',(1.,0.,0.));
#1256=DIRECTION('center_axis',(-0.707106781186548,0.707106781186547,0.));
#1257=DIRECTION('ref_axis',(-0.707106781186547,-0.707106781186548,0.));
#1258=DIRECTION('center_axis',(-1.,-2.73310423008241E-17,0.));
#1259=DIRECTION('ref_axis',(2.73310423008241E-17,-1.,0.));
#1260=DIRECTION('center_axis',(0.,-1.,0.));
#1261=DIRECTION('ref_axis',(1.,0.,0.));
#1262=DIRECTION('center_axis',(0.,0.,1.));
#1263=DIRECTION('ref_axis',(1.,0.,0.));
#1264=DIRECTION('center_axis',(0.439732612032306,-0.182143211721539,-0.879465224064606));
#1265=DIRECTION('ref_axis',(-0.812519920068743,0.336556770590778,-0.475963149477973));
#1266=DIRECTION('center_axis',(8.88178419700126E-15,-1.,0.));
#1267=DIRECTION('ref_axis',(0.,0.,-1.));
#1268=DIRECTION('center_axis',(0.70710678118655,0.707106781186545,1.17756934401283E-14));
#1269=DIRECTION('ref_axis',(-0.707106781186545,0.70710678118655,0.));
#1270=DIRECTION('center_axis',(0.,0.,1.));
#1271=DIRECTION('ref_axis',(-1.,0.,0.));
#1272=DIRECTION('center_axis',(-0.439732612032304,0.182143211721524,-0.87946522406461));
#1273=DIRECTION('ref_axis',(-0.812519920068745,0.336556770590775,0.47596314947797));
#1274=DIRECTION('center_axis',(0.,-1.,0.));
#1275=DIRECTION('ref_axis',(-1.,0.,0.));
#1276=DIRECTION('center_axis',(0.,0.,-1.));
#1277=DIRECTION('ref_axis',(-0.707106781186548,0.707106781186547,0.));
#1278=DIRECTION('center_axis',(0.707106781186549,0.707106781186546,0.));
#1279=DIRECTION('ref_axis',(0.,0.,1.));
#1280=DIRECTION('center_axis',(0.,0.,1.));
#1281=DIRECTION('ref_axis',(-0.923879532511287,0.382683432365089,0.));
#1282=DIRECTION('',(0.,0.,-1.));
#1283=DIRECTION('',(0.,0.,1.));
#1284=DIRECTION('center_axis',(-0.941663177664664,-0.29040009934039,0.17011243967911));
#1285=DIRECTION('ref_axis',(-0.336556770590774,0.812519920068744,-0.475963149477972));
#1286=DIRECTION('center_axis',(-0.70710678118655,-0.707106781186545,0.));
#1287=DIRECTION('ref_axis',(0.,0.,-1.));
#1288=DIRECTION('center_axis',(1.,0.,4.44089209850063E-15));
#1289=DIRECTION('ref_axis',(0.,1.,0.));
#1290=DIRECTION('center_axis',(0.,0.,1.));
#1291=DIRECTION('ref_axis',(-0.707106781186544,0.707106781186551,0.));
#1292=DIRECTION('center_axis',(1.,0.,0.));
#1293=DIRECTION('ref_axis',(0.,0.70710678118654,-0.707106781186555));
#1294=DIRECTION('center_axis',(1.,0.,0.));
#1295=DIRECTION('ref_axis',(0.,0.70710678118654,-0.707106781186555));
#1296=DIRECTION('',(-1.,0.,0.));
#1297=DIRECTION('',(1.,0.,0.));
#1298=DIRECTION('center_axis',(-0.941663177664664,-0.29040009934039,-0.17011243967911));
#1299=DIRECTION('ref_axis',(-0.336556770590771,0.812519920068745,0.475963149477974));
#1300=DIRECTION('center_axis',(-0.707106781186548,-0.707106781186548,0.));
#1301=DIRECTION('ref_axis',(-0.707106781186548,0.707106781186548,0.));
#1302=DIRECTION('center_axis',(0.,0.,-1.));
#1303=DIRECTION('ref_axis',(0.,1.,0.));
#1304=DIRECTION('center_axis',(1.,8.88178419700128E-15,0.));
#1305=DIRECTION('ref_axis',(0.,0.,1.));
#1306=DIRECTION('center_axis',(0.,0.,1.));
#1307=DIRECTION('ref_axis',(-0.382683432365083,0.92387953251129,0.));
#1308=DIRECTION('',(0.,0.,-1.));
#1309=DIRECTION('',(0.,0.,1.));
#1310=DIRECTION('center_axis',(-1.,0.,0.));
#1311=DIRECTION('ref_axis',(0.,0.707106781186538,0.707106781186557));
#1312=DIRECTION('center_axis',(1.,0.,0.));
#1313=DIRECTION('ref_axis',(0.,0.707106781186538,0.707106781186557));
#1314=DIRECTION('',(-1.,0.,0.));
#1315=DIRECTION('',(1.,0.,0.));
#1316=DIRECTION('center_axis',(-0.707106781186547,-0.707106781186548,0.));
#1317=DIRECTION('ref_axis',(-0.499999999999998,0.499999999999998,0.70710678118655));
#1318=DIRECTION('',(0.707106781186547,0.707106781186548,0.));
#1319=DIRECTION('',(-0.707106781186547,-0.707106781186548,0.));
#1320=DIRECTION('center_axis',(0.707106781186547,0.707106781186548,0.));
#1321=DIRECTION('ref_axis',(-0.5,0.5,-0.707106781186548));
#1322=DIRECTION('',(-0.707106781186547,-0.707106781186548,0.));
#1323=DIRECTION('',(0.707106781186547,0.707106781186548,0.));
#1324=DIRECTION('center_axis',(2.73310423008241E-17,-1.,0.));
#1325=DIRECTION('ref_axis',(-0.707106781186545,0.,0.70710678118655));
#1326=DIRECTION('',(-2.73310423008241E-17,1.,0.));
#1327=DIRECTION('',(2.73310423008241E-17,-1.,0.));
#1328=DIRECTION('center_axis',(0.,0.707106781186549,0.707106781186546));
#1329=DIRECTION('ref_axis',(0.,0.707106781186546,-0.707106781186549));
#1330=DIRECTION('center_axis',(-2.73310423008241E-17,1.,0.));
#1331=DIRECTION('ref_axis',(-0.707106781186547,0.,-0.707106781186548));
#1332=DIRECTION('',(-2.73310423008241E-17,1.,0.));
#1333=DIRECTION('',(2.73310423008241E-17,-1.,0.));
#1334=DIRECTION('center_axis',(0.,-0.707106781186549,0.707106781186546));
#1335=DIRECTION('ref_axis',(3.86519306956183E-17,-0.707106781186546,-0.707106781186549));
#1336=DIRECTION('center_axis',(0.,0.,1.));
#1337=DIRECTION('ref_axis',(-0.707106781186549,-0.707106781186546,0.));
#1338=DIRECTION('',(0.,0.,-1.));
#1339=DIRECTION('',(0.,0.,1.));
#1340=DIRECTION('center_axis',(0.,0.,1.));
#1341=DIRECTION('ref_axis',(1.,0.,0.));
#1342=DIRECTION('',(-1.,0.,0.));
#1343=DIRECTION('',(-0.707106781186547,-0.707106781186548,0.));
#1344=DIRECTION('',(-1.,0.,0.));
#1345=DIRECTION('',(0.,-1.,0.));
#1346=DIRECTION('center_axis',(0.,-1.,0.));
#1347=DIRECTION('ref_axis',(1.,0.,0.));
#1348=DIRECTION('',(-1.,0.,0.));
#1349=DIRECTION('center_axis',(0.,0.,1.));
#1350=DIRECTION('ref_axis',(1.,0.,0.));
#1351=DIRECTION('',(0.,1.,0.));
#1352=DIRECTION('center_axis',(-1.,-2.73310423008241E-17,0.));
#1353=DIRECTION('ref_axis',(2.73310423008241E-17,-1.,0.));
#1354=DIRECTION('center_axis',(-0.707106781186548,0.707106781186547,0.));
#1355=DIRECTION('ref_axis',(-0.707106781186547,-0.707106781186548,0.));
#1356=DIRECTION('center_axis',(0.,1.,0.));
#1357=DIRECTION('ref_axis',(-1.,0.,0.));
#1358=DIRECTION('',(0.,0.,-1.));
#1359=DIRECTION('center_axis',(1.,0.,0.));
#1360=DIRECTION('ref_axis',(0.,1.,0.));
#1361=DIRECTION('',(0.,0.,1.));
#1362=DIRECTION('center_axis',(0.,-1.,0.));
#1363=DIRECTION('ref_axis',(1.,0.,0.));
#1364=DIRECTION('',(0.,0.,1.));
#1365=DIRECTION('center_axis',(0.707106781186548,-0.707106781186547,0.));
#1366=DIRECTION('ref_axis',(0.707106781186547,0.707106781186548,0.));
#1367=CARTESIAN_POINT('',(0.,0.,0.));
#1368=CARTESIAN_POINT('Origin',(29.,102.,36.22));
#1369=CARTESIAN_POINT('',(30.,102.,36.22));
#1370=CARTESIAN_POINT('',(29.,102.,37.22));
#1371=CARTESIAN_POINT('Origin',(29.,102.,36.22));
#1372=CARTESIAN_POINT('',(29.,103.,36.22));
#1373=CARTESIAN_POINT('Origin',(29.,102.,36.22));
#1374=CARTESIAN_POINT('Origin',(29.,102.,36.22));
#1375=CARTESIAN_POINT('Origin',(29.,70.5,36.22));
#1376=CARTESIAN_POINT('',(30.,91.,36.22));
#1377=CARTESIAN_POINT('',(30.,70.5,36.22));
#1378=CARTESIAN_POINT('',(29.,92.,37.22));
#1379=CARTESIAN_POINT('',(29.,70.5,37.22));
#1380=CARTESIAN_POINT('Origin',(29.,92.,36.22));
#1381=CARTESIAN_POINT('Origin',(18.6139610306789,92.,36.22));
#1382=CARTESIAN_POINT('',(23.3137084989847,92.,37.22));
#1383=CARTESIAN_POINT('',(18.6139610306789,92.,37.22));
#1384=CARTESIAN_POINT('',(23.7279220613578,91.,36.22));
#1385=CARTESIAN_POINT('Origin',(23.3137084989847,92.,36.22));
#1386=CARTESIAN_POINT('',(18.6139610306789,91.,36.22));
#1387=CARTESIAN_POINT('Origin',(29.,102.,1.));
#1388=CARTESIAN_POINT('',(30.,102.,1.));
#1389=CARTESIAN_POINT('',(29.,103.,1.));
#1390=CARTESIAN_POINT('Origin',(29.,102.,1.));
#1391=CARTESIAN_POINT('',(29.,102.,0.));
#1392=CARTESIAN_POINT('Origin',(29.,102.,1.));
#1393=CARTESIAN_POINT('Origin',(29.,102.,1.));
#1394=CARTESIAN_POINT('Origin',(19.1715728752538,102.,36.22));
#1395=CARTESIAN_POINT('',(19.1715728752538,103.,36.22));
#1396=CARTESIAN_POINT('',(19.1715728752538,102.,37.22));
#1397=CARTESIAN_POINT('Origin',(19.1715728752538,102.,36.22));
#1398=CARTESIAN_POINT('',(18.4644660940673,102.707106781187,36.22));
#1399=CARTESIAN_POINT('Origin',(19.1715728752538,102.,36.22));
#1400=CARTESIAN_POINT('Origin',(19.1715728752538,102.,36.22));
#1401=CARTESIAN_POINT('Origin',(2.84987373415292,71.5361652351681,36.22));
#1402=CARTESIAN_POINT('',(8.,76.6862915010152,37.22));
#1403=CARTESIAN_POINT('',(2.84987373415292,71.5361652351681,37.22));
#1404=CARTESIAN_POINT('',(9.,76.2720779386421,36.22));
#1405=CARTESIAN_POINT('Origin',(8.,76.6862915010152,36.22));
#1406=CARTESIAN_POINT('',(3.55698051533947,70.8290584539816,36.22));
#1407=CARTESIAN_POINT('Origin',(19.1715728752538,102.,1.));
#1408=CARTESIAN_POINT('',(19.1715728752538,103.,1.));
#1409=CARTESIAN_POINT('',(18.4644660940673,102.707106781187,1.));
#1410=CARTESIAN_POINT('Origin',(19.1715728752538,102.,1.));
#1411=CARTESIAN_POINT('',(19.1715728752538,102.,0.));
#1412=CARTESIAN_POINT('Origin',(19.1715728752538,102.,1.));
#1413=CARTESIAN_POINT('Origin',(19.1715728752538,102.,1.));
#1414=CARTESIAN_POINT('Origin',(21.75,102.,1.));
#1415=CARTESIAN_POINT('',(21.75,102.,0.));
#1416=CARTESIAN_POINT('',(21.75,103.,1.));
#1417=CARTESIAN_POINT('Origin',(-2.,80.8284271247462,36.22));
#1418=CARTESIAN_POINT('',(-2.70710678118655,81.5355339059327,36.22));
#1419=CARTESIAN_POINT('',(-2.,80.8284271247462,37.22));
#1420=CARTESIAN_POINT('Origin',(-2.00000000000001,80.8284271247462,36.22));
#1421=CARTESIAN_POINT('',(-3.,80.8284271247462,36.22));
#1422=CARTESIAN_POINT('Origin',(-2.,80.8284271247462,36.22));
#1423=CARTESIAN_POINT('Origin',(-2.,80.8284271247462,36.22));
#1424=CARTESIAN_POINT('Origin',(8.,-2.,36.22));
#1425=CARTESIAN_POINT('',(8.,-3.,36.22));
#1426=CARTESIAN_POINT('',(8.,-2.,37.22));
#1427=CARTESIAN_POINT('Origin',(8.,-2.,36.22));
#1428=CARTESIAN_POINT('',(9.,-2.,36.22));
#1429=CARTESIAN_POINT('Origin',(8.,-2.,36.22));
#1430=CARTESIAN_POINT('Origin',(8.,-2.,36.22));
#1431=CARTESIAN_POINT('Origin',(-2.,80.8284271247462,1.));
#1432=CARTESIAN_POINT('',(-2.70710678118656,81.5355339059327,1.));
#1433=CARTESIAN_POINT('',(-3.,80.8284271247462,1.));
#1434=CARTESIAN_POINT('Origin',(-2.,80.8284271247462,1.));
#1435=CARTESIAN_POINT('',(-2.,80.8284271247462,0.));
#1436=CARTESIAN_POINT('Origin',(-2.,80.8284271247462,1.));
#1437=CARTESIAN_POINT('Origin',(-2.,80.8284271247462,1.));
#1438=CARTESIAN_POINT('Origin',(4.90012626584708,87.7285533905933,1.));
#1439=CARTESIAN_POINT('',(4.90012626584708,87.7285533905933,0.));
#1440=CARTESIAN_POINT('',(4.19301948466054,88.4356601717798,1.));
#1441=CARTESIAN_POINT('Origin',(-2.,-2.,36.22));
#1442=CARTESIAN_POINT('',(-3.,-2.,36.22));
#1443=CARTESIAN_POINT('',(-2.,-2.,37.22));
#1444=CARTESIAN_POINT('Origin',(-2.,-2.,36.22));
#1445=CARTESIAN_POINT('',(-2.,-3.,36.22));
#1446=CARTESIAN_POINT('Origin',(-2.,-2.,36.22));
#1447=CARTESIAN_POINT('Origin',(-2.,-2.,36.22));
#1448=CARTESIAN_POINT('Origin',(8.,-2.,1.));
#1449=CARTESIAN_POINT('',(8.,-3.,1.));
#1450=CARTESIAN_POINT('',(9.,-2.,1.));
#1451=CARTESIAN_POINT('Origin',(8.,-2.,1.));
#1452=CARTESIAN_POINT('',(8.,-2.,0.));
#1453=CARTESIAN_POINT('Origin',(8.,-2.,1.));
#1454=CARTESIAN_POINT('Origin',(8.,-2.,1.));
#1455=CARTESIAN_POINT('Origin',(-2.,-2.,1.));
#1456=CARTESIAN_POINT('',(-3.,-2.,1.));
#1457=CARTESIAN_POINT('',(-2.,-3.,1.));
#1458=CARTESIAN_POINT('Origin',(-2.,-2.,1.));
#1459=CARTESIAN_POINT('',(-2.,-2.,0.));
#1460=CARTESIAN_POINT('Origin',(-2.,-2.,1.));
#1461=CARTESIAN_POINT('Origin',(-2.,-2.,1.));
#1462=CARTESIAN_POINT('Origin',(-2.,65.6213203435596,1.));
#1463=CARTESIAN_POINT('',(-2.,65.6213203435596,0.));
#1464=CARTESIAN_POINT('',(-3.,65.6213203435596,1.));
#1465=CARTESIAN_POINT('Origin',(5.24999999999999,-2.,1.));
#1466=CARTESIAN_POINT('',(5.24999999999999,-3.,1.));
#1467=CARTESIAN_POINT('',(5.24999999999999,-2.,0.));
#1468=CARTESIAN_POINT('Origin',(-2.,-2.,0.));
#1469=CARTESIAN_POINT('',(-3.,-2.,0.));
#1470=CARTESIAN_POINT('',(-2.,-3.,0.));
#1471=CARTESIAN_POINT('Origin',(8.,23.5,1.));
#1472=CARTESIAN_POINT('',(9.,76.2720779386421,1.));
#1473=CARTESIAN_POINT('',(9.,23.5,1.));
#1474=CARTESIAN_POINT('',(8.,76.6862915010152,0.));
#1475=CARTESIAN_POINT('',(8.,23.5,0.));
#1476=CARTESIAN_POINT('Origin',(8.,76.6862915010152,1.));
#1477=CARTESIAN_POINT('Origin',(8.,-2.,0.));
#1478=CARTESIAN_POINT('',(8.,-3.,0.));
#1479=CARTESIAN_POINT('',(9.,-2.,0.));
#1480=CARTESIAN_POINT('Origin',(5.24999999999999,-2.,36.22));
#1481=CARTESIAN_POINT('',(5.24999999999999,-2.,37.22));
#1482=CARTESIAN_POINT('',(5.24999999999999,-3.,36.22));
#1483=CARTESIAN_POINT('Origin',(-2.,65.6213203435596,36.22));
#1484=CARTESIAN_POINT('',(-2.,65.6213203435596,37.22));
#1485=CARTESIAN_POINT('',(-3.,65.6213203435596,36.22));
#1486=CARTESIAN_POINT('Origin',(-2.,80.8284271247462,0.));
#1487=CARTESIAN_POINT('',(-2.70710678118655,81.5355339059327,0.));
#1488=CARTESIAN_POINT('',(-3.,80.8284271247462,0.));
#1489=CARTESIAN_POINT('Origin',(8.,23.5,36.22));
#1490=CARTESIAN_POINT('',(8.,23.5,37.22));
#1491=CARTESIAN_POINT('',(9.,23.5,36.22));
#1492=CARTESIAN_POINT('Origin',(2.84987373415292,71.5361652351681,1.));
#1493=CARTESIAN_POINT('',(23.7279220613578,91.,1.));
#1494=CARTESIAN_POINT('',(3.55698051533947,70.8290584539816,1.));
#1495=CARTESIAN_POINT('',(23.3137084989847,92.,0.));
#1496=CARTESIAN_POINT('',(2.84987373415292,71.5361652351681,0.));
#1497=CARTESIAN_POINT('Origin',(23.3137084989847,92.,1.));
#1498=CARTESIAN_POINT('Origin',(4.90012626584708,87.7285533905933,36.22));
#1499=CARTESIAN_POINT('',(4.90012626584708,87.7285533905933,37.22));
#1500=CARTESIAN_POINT('',(4.19301948466054,88.4356601717798,36.22));
#1501=CARTESIAN_POINT('Origin',(19.1715728752538,102.,0.));
#1502=CARTESIAN_POINT('',(19.1715728752538,103.,0.));
#1503=CARTESIAN_POINT('',(18.4644660940673,102.707106781187,0.));
#1504=CARTESIAN_POINT('Origin',(18.6139610306789,92.,1.));
#1505=CARTESIAN_POINT('',(30.,91.,1.));
#1506=CARTESIAN_POINT('',(18.6139610306789,91.,1.));
#1507=CARTESIAN_POINT('',(29.,92.,0.));
#1508=CARTESIAN_POINT('',(18.6139610306789,92.,0.));
#1509=CARTESIAN_POINT('Origin',(29.,92.,1.));
#1510=CARTESIAN_POINT('Origin',(21.75,102.,36.22));
#1511=CARTESIAN_POINT('',(21.75,102.,37.22));
#1512=CARTESIAN_POINT('',(21.75,103.,36.22));
#1513=CARTESIAN_POINT('Origin',(29.,70.5,1.));
#1514=CARTESIAN_POINT('',(29.,70.5,0.));
#1515=CARTESIAN_POINT('',(30.,70.5,1.));
#1516=CARTESIAN_POINT('Origin',(29.,102.,0.));
#1517=CARTESIAN_POINT('',(30.,102.,0.));
#1518=CARTESIAN_POINT('',(29.,103.,0.));
#1519=CARTESIAN_POINT('Origin',(23.7279220613578,91.,0.));
#1520=CARTESIAN_POINT('',(23.7279220613578,91.,34.22));
#1521=CARTESIAN_POINT('',(23.7279220613578,91.,0.));
#1522=CARTESIAN_POINT('',(30.,91.,34.22));
#1523=CARTESIAN_POINT('',(18.6139610306789,91.,34.22));
#1524=CARTESIAN_POINT('',(30.,91.,0.));
#1525=CARTESIAN_POINT('Origin',(9.,76.2720779386421,0.));
#1526=CARTESIAN_POINT('',(9.,76.2720779386421,34.22));
#1527=CARTESIAN_POINT('',(9.,76.2720779386421,0.));
#1528=CARTESIAN_POINT('',(3.55698051533947,70.8290584539816,34.22));
#1529=CARTESIAN_POINT('Origin',(9.,-3.,0.));
#1530=CARTESIAN_POINT('',(9.,76.2720779386421,3.));
#1531=CARTESIAN_POINT('',(9.,76.2720779386421,0.));
#1532=CARTESIAN_POINT('',(9.,0.,3.));
#1533=CARTESIAN_POINT('',(9.,23.5,3.));
#1534=CARTESIAN_POINT('',(9.,0.,34.22));
#1535=CARTESIAN_POINT('',(9.,0.,0.));
#1536=CARTESIAN_POINT('',(9.,23.5,34.22));
#1537=CARTESIAN_POINT('Origin',(30.,103.,0.));
#1538=CARTESIAN_POINT('Origin',(13.5,50.,0.));
#1539=CARTESIAN_POINT('Origin',(18.7573593128807,103.,0.));
#1540=CARTESIAN_POINT('Origin',(-3.,81.2426406871192,0.));
#1541=CARTESIAN_POINT('Origin',(-3.,-3.,0.));
#1542=CARTESIAN_POINT('Origin',(13.5,50.,37.22));
#1543=CARTESIAN_POINT('Origin',(0.999999999999992,79.5857864376269,4.));
#1544=CARTESIAN_POINT('',(1.,79.5857864376269,3.));
#1545=CARTESIAN_POINT('',(-1.0755528039161E-15,79.5857864376269,4.));
#1546=CARTESIAN_POINT('Origin',(0.999999999999998,79.5857864376269,4.));
#1547=CARTESIAN_POINT('',(0.292893218813454,80.2928932188134,4.));
#1548=CARTESIAN_POINT('Origin',(0.999999999999992,79.5857864376269,4.));
#1549=CARTESIAN_POINT('Origin',(1.,79.5857864376269,4.));
#1550=CARTESIAN_POINT('Origin',(1.,79.5857864376269,33.22));
#1551=CARTESIAN_POINT('',(-1.11022302462516E-15,79.5857864376269,33.22));
#1552=CARTESIAN_POINT('',(0.999999999999998,79.5857864376269,34.22));
#1553=CARTESIAN_POINT('Origin',(0.999999999999998,79.5857864376269,33.22));
#1554=CARTESIAN_POINT('',(0.292893218813453,80.2928932188134,33.22));
#1555=CARTESIAN_POINT('Origin',(1.,79.5857864376269,33.22));
#1556=CARTESIAN_POINT('Origin',(0.999999999999996,79.5857864376269,33.22));
#1557=CARTESIAN_POINT('Origin',(1.,79.5857864376269,0.));
#1558=CARTESIAN_POINT('',(-1.11022302462516E-15,79.5857864376269,0.));
#1559=CARTESIAN_POINT('',(0.292893218813454,80.2928932188134,0.));
#1560=CARTESIAN_POINT('Origin',(20.4142135623731,99.,4.));
#1561=CARTESIAN_POINT('',(20.4142135623731,99.,3.));
#1562=CARTESIAN_POINT('',(19.7071067811865,99.7071067811866,4.));
#1563=CARTESIAN_POINT('Origin',(20.4142135623731,99.,4.));
#1564=CARTESIAN_POINT('',(20.4142135623731,100.,4.));
#1565=CARTESIAN_POINT('Origin',(20.4142135623731,99.,4.));
#1566=CARTESIAN_POINT('Origin',(20.4142135623731,99.,4.));
#1567=CARTESIAN_POINT('Origin',(21.75,99.,4.));
#1568=CARTESIAN_POINT('',(30.,99.,3.));
#1569=CARTESIAN_POINT('',(30.,100.,4.));
#1570=CARTESIAN_POINT('Origin',(30.,99.,4.));
#1571=CARTESIAN_POINT('',(21.75,100.,4.));
#1572=CARTESIAN_POINT('',(21.75,99.,3.));
#1573=CARTESIAN_POINT('Origin',(20.4142135623731,99.,33.22));
#1574=CARTESIAN_POINT('',(19.7071067811865,99.7071067811866,33.22));
#1575=CARTESIAN_POINT('',(20.4142135623731,99.,34.22));
#1576=CARTESIAN_POINT('Origin',(20.4142135623731,99.,33.22));
#1577=CARTESIAN_POINT('',(20.4142135623731,100.,33.22));
#1578=CARTESIAN_POINT('Origin',(20.4142135623731,99.,33.22));
#1579=CARTESIAN_POINT('Origin',(20.4142135623731,99.,33.22));
#1580=CARTESIAN_POINT('Origin',(20.4142135623731,99.,0.));
#1581=CARTESIAN_POINT('',(19.7071067811865,99.7071067811866,0.));
#1582=CARTESIAN_POINT('',(20.4142135623731,100.,0.));
#1583=CARTESIAN_POINT('Origin',(21.75,99.,33.22));
#1584=CARTESIAN_POINT('',(30.,100.,33.22));
#1585=CARTESIAN_POINT('',(30.,99.,34.22));
#1586=CARTESIAN_POINT('Origin',(30.,99.,33.22));
#1587=CARTESIAN_POINT('',(21.75,99.,34.22));
#1588=CARTESIAN_POINT('',(21.75,100.,33.22));
#1589=CARTESIAN_POINT('Origin',(7.02144660940672,85.6072330470336,33.22));
#1590=CARTESIAN_POINT('',(6.31433982822018,86.3143398282202,33.22));
#1591=CARTESIAN_POINT('',(7.02144660940672,85.6072330470336,34.22));
#1592=CARTESIAN_POINT('Origin',(7.02144660940672,85.6072330470336,4.));
#1593=CARTESIAN_POINT('',(6.31433982822018,86.3143398282202,4.));
#1594=CARTESIAN_POINT('',(7.02144660940672,85.6072330470336,3.));
#1595=CARTESIAN_POINT('Origin',(0.999999999999999,65.6213203435596,33.22));
#1596=CARTESIAN_POINT('',(1.07227864945421E-15,0.999999999999996,33.22));
#1597=CARTESIAN_POINT('',(-6.93889390390723E-16,65.6213203435596,33.22));
#1598=CARTESIAN_POINT('',(1.,0.,34.22));
#1599=CARTESIAN_POINT('',(0.999999999999999,65.6213203435596,34.22));
#1600=CARTESIAN_POINT('Origin',(1.,0.999999999999996,33.22));
#1601=CARTESIAN_POINT('Origin',(0.999999999999999,65.6213203435596,4.));
#1602=CARTESIAN_POINT('',(1.,0.,3.));
#1603=CARTESIAN_POINT('',(0.999999999999999,65.6213203435596,3.));
#1604=CARTESIAN_POINT('',(1.11022302462516E-15,0.999999999999996,4.));
#1605=CARTESIAN_POINT('',(-6.93889390390723E-16,65.6213203435596,4.));
#1606=CARTESIAN_POINT('Origin',(1.,0.999999999999996,4.));
#1607=CARTESIAN_POINT('Origin',(1.,0.999999999999996,0.));
#1608=CARTESIAN_POINT('',(1.,0.,0.));
#1609=CARTESIAN_POINT('',(1.11022302462516E-15,0.999999999999996,0.));
#1610=CARTESIAN_POINT('Origin',(13.5,50.,3.));
#1611=CARTESIAN_POINT('',(5.24999999999999,0.,3.));
#1612=CARTESIAN_POINT('',(23.7279220613578,91.,3.));
#1613=CARTESIAN_POINT('',(3.55698051533947,70.8290584539816,3.));
#1614=CARTESIAN_POINT('',(30.,91.,3.));
#1615=CARTESIAN_POINT('',(18.6139610306789,91.,3.));
#1616=CARTESIAN_POINT('',(30.,70.5,3.));
#1617=CARTESIAN_POINT('Origin',(-3.,0.,0.));
#1618=CARTESIAN_POINT('',(5.24999999999999,0.,34.22));
#1619=CARTESIAN_POINT('Origin',(13.5,50.,34.22));
#1620=CARTESIAN_POINT('',(30.,70.5,34.22));
#1621=CARTESIAN_POINT('Origin',(-1.11022302462516E-15,81.2426406871192,
0.));
#1622=CARTESIAN_POINT('Origin',(20.8786796564404,100.87867965644,0.));
#1623=CARTESIAN_POINT('Origin',(30.,100.,0.));
#1624=CARTESIAN_POINT('',(30.,100.,0.));
#1625=CARTESIAN_POINT('Origin',(30.,91.,0.));
#1626=CARTESIAN_POINT('',(30.,91.,0.));
#1627=CARTESIAN_POINT('Origin',(23.7279220613578,91.,0.));
#1628=CARTESIAN_POINT('',(23.7279220613578,91.,0.));
#1629=CARTESIAN_POINT('Origin',(9.,76.2720779386421,0.));
#1630=UNCERTAINTY_MEASURE_WITH_UNIT(LENGTH_MEASURE(0.01),#1634,
'DISTANCE_ACCURACY_VALUE',
'Maximum model space distance between geometric entities at asserted c
onnectivities');
#1631=UNCERTAINTY_MEASURE_WITH_UNIT(LENGTH_MEASURE(0.01),#1634,
'DISTANCE_ACCURACY_VALUE',
'Maximum model space distance between geometric entities at asserted c
onnectivities');
#1632=(
GEOMETRIC_REPRESENTATION_CONTEXT(3)
GLOBAL_UNCERTAINTY_ASSIGNED_CONTEXT((#1630))
GLOBAL_UNIT_ASSIGNED_CONTEXT((#1634,#1636,#1637))
REPRESENTATION_CONTEXT('','3D')
);
#1633=(
GEOMETRIC_REPRESENTATION_CONTEXT(3)
GLOBAL_UNCERTAINTY_ASSIGNED_CONTEXT((#1631))
GLOBAL_UNIT_ASSIGNED_CONTEXT((#1634,#1636,#1637))
REPRESENTATION_CONTEXT('','3D')
);
#1634=(
LENGTH_UNIT()
NAMED_UNIT(*)
SI_UNIT(.MILLI.,.METRE.)
);
#1635=(
LENGTH_UNIT()
NAMED_UNIT(*)
SI_UNIT($,.METRE.)
);
#1636=(
NAMED_UNIT(*)
PLANE_ANGLE_UNIT()
SI_UNIT($,.RADIAN.)
);
#1637=(
NAMED_UNIT(*)
SI_UNIT($,.STERADIAN.)
SOLID_ANGLE_UNIT()
);
#1638=SHAPE_DEFINITION_REPRESENTATION(#1639,#1640);
#1639=PRODUCT_DEFINITION_SHAPE('',$,#1642);
#1640=SHAPE_REPRESENTATION('',(#944),#1632);
#1641=PRODUCT_DEFINITION_CONTEXT('part definition',#1646,'design');
#1642=PRODUCT_DEFINITION('case left','case left v12',#1643,#1641);
#1643=PRODUCT_DEFINITION_FORMATION('',$,#1648);
#1644=PRODUCT_RELATED_PRODUCT_CATEGORY('case left v12','case left v12',
(#1648));
#1645=APPLICATION_PROTOCOL_DEFINITION('international standard',
'automotive_design',2009,#1646);
#1646=APPLICATION_CONTEXT(
'Core Data for Automotive Mechanical Design Process');
#1647=PRODUCT_CONTEXT('part definition',#1646,'mechanical');
#1648=PRODUCT('case left','case left v12',$,(#1647));
#1649=PRESENTATION_STYLE_ASSIGNMENT((#1651));
#1650=PRESENTATION_STYLE_ASSIGNMENT((#1652));
#1651=SURFACE_STYLE_USAGE(.BOTH.,#1653);
#1652=SURFACE_STYLE_USAGE(.BOTH.,#1654);
#1653=SURFACE_SIDE_STYLE('',(#1655));
#1654=SURFACE_SIDE_STYLE('',(#1656));
#1655=SURFACE_STYLE_FILL_AREA(#1657);
#1656=SURFACE_STYLE_FILL_AREA(#1658);
#1657=FILL_AREA_STYLE('Steel - Satin',(#1659));
#1658=FILL_AREA_STYLE('Plastic - Matte (Gray)',(#1660));
#1659=FILL_AREA_STYLE_COLOUR('Steel - Satin',#1661);
#1660=FILL_AREA_STYLE_COLOUR('Plastic - Matte (Gray)',#1662);
#1661=COLOUR_RGB('Steel - Satin',0.627450980392157,0.627450980392157,0.627450980392157);
#1662=COLOUR_RGB('Plastic - Matte (Gray)',0.701960784313725,0.701960784313725,
0.701960784313725);
ENDSEC;
END-ISO-10303-21;
