ISO-10303-21;
HEADER;
/* Generated by software containing ST-Developer
 * from STEP Tools, Inc. (www.steptools.com) 
 */

FILE_DESCRIPTION(
/* description */ (''),
/* implementation_level */ '2;1');

FILE_NAME(
/* name */ 'case bottom v24.step',
/* time_stamp */ '2026-06-15T21:42:43-04:00',
/* author */ (''),
/* organization */ (''),
/* preprocessor_version */ 'ST-DEVELOPER v20.1',
/* originating_system */ 'Autodesk Translation Framework v15.8.0.0',
/* authorisation */ '');

FILE_SCHEMA (('AUTOMOTIVE_DESIGN { 1 0 10303 214 3 1 1 }'));
ENDSEC;

DATA;
#10=MECHANICAL_DESIGN_GEOMETRIC_PRESENTATION_REPRESENTATION('',(#13),#1745);
#11=SHAPE_REPRESENTATION_RELATIONSHIP('SRR','None',#1752,#12);
#12=ADVANCED_BREP_SHAPE_REPRESENTATION('',(#14),#1744);
#13=STYLED_ITEM('',(#1762),#14);
#14=MANIFOLD_SOLID_BREP('Body2',#1023);
#15=CIRCLE('',#1049,0.999999999999996);
#16=CIRCLE('',#1050,1.);
#17=CIRCLE('',#1051,1.);
#18=CIRCLE('',#1053,0.999999999999979);
#19=CIRCLE('',#1054,1.);
#20=CIRCLE('',#1055,0.999999999999995);
#21=CIRCLE('',#1057,1.);
#22=CIRCLE('',#1058,0.999999999999996);
#23=CIRCLE('',#1059,0.999999999999996);
#24=CIRCLE('',#1061,0.999999999999996);
#25=CIRCLE('',#1062,0.999999999999998);
#26=CIRCLE('',#1063,0.999999999999996);
#27=CIRCLE('',#1067,1.);
#28=CIRCLE('',#1068,1.);
#29=CIRCLE('',#1069,1.);
#30=CIRCLE('',#1072,0.999999999999996);
#31=CIRCLE('',#1073,0.999999999999996);
#32=CIRCLE('',#1074,1.);
#33=CIRCLE('',#1076,0.999999999999996);
#34=CIRCLE('',#1077,1.);
#35=CIRCLE('',#1078,0.999999999999996);
#36=CIRCLE('',#1082,0.999999999999996);
#37=CIRCLE('',#1083,0.999999999999996);
#38=CIRCLE('',#1084,0.999999999999996);
#39=CIRCLE('',#1087,1.);
#40=CIRCLE('',#1088,1.);
#41=CIRCLE('',#1089,0.999999999999996);
#42=CIRCLE('',#1093,0.999999999999996);
#43=CIRCLE('',#1094,1.);
#44=CIRCLE('',#1095,0.999999999999996);
#45=CIRCLE('',#1112,0.8115);
#46=CIRCLE('',#1113,0.8115);
#47=CIRCLE('',#1117,0.8115);
#48=CIRCLE('',#1118,0.8115);
#49=CIRCLE('',#1125,0.8115);
#50=CIRCLE('',#1126,0.8115);
#51=CIRCLE('',#1133,0.8115);
#52=CIRCLE('',#1134,0.8115);
#53=SPHERICAL_SURFACE('',#1048,1.);
#54=SPHERICAL_SURFACE('',#1052,1.);
#55=SPHERICAL_SURFACE('',#1056,0.999999999999996);
#56=SPHERICAL_SURFACE('',#1060,0.999999999999998);
#57=SPHERICAL_SURFACE('',#1066,1.);
#58=SPHERICAL_SURFACE('',#1071,0.999999999999996);
#59=SPHERICAL_SURFACE('',#1075,1.);
#60=SPHERICAL_SURFACE('',#1081,0.999999999999996);
#61=SPHERICAL_SURFACE('',#1086,1.);
#62=SPHERICAL_SURFACE('',#1092,1.);
#63=FACE_BOUND('',#171,.T.);
#64=FACE_BOUND('',#200,.T.);
#65=FACE_BOUND('',#209,.T.);
#66=FACE_BOUND('',#214,.T.);
#67=FACE_BOUND('',#221,.T.);
#68=FACE_BOUND('',#228,.T.);
#69=PLANE('',#1045);
#70=PLANE('',#1046);
#71=PLANE('',#1047);
#72=PLANE('',#1103);
#73=PLANE('',#1104);
#74=PLANE('',#1105);
#75=PLANE('',#1106);
#76=PLANE('',#1107);
#77=PLANE('',#1108);
#78=PLANE('',#1109);
#79=PLANE('',#1110);
#80=PLANE('',#1114);
#81=PLANE('',#1115);
#82=PLANE('',#1119);
#83=PLANE('',#1120);
#84=PLANE('',#1121);
#85=PLANE('',#1122);
#86=PLANE('',#1123);
#87=PLANE('',#1127);
#88=PLANE('',#1128);
#89=PLANE('',#1129);
#90=PLANE('',#1130);
#91=PLANE('',#1131);
#92=PLANE('',#1135);
#93=PLANE('',#1136);
#94=PLANE('',#1137);
#95=PLANE('',#1138);
#96=PLANE('',#1139);
#97=PLANE('',#1140);
#98=PLANE('',#1141);
#99=PLANE('',#1142);
#100=FACE_OUTER_BOUND('',#164,.T.);
#101=FACE_OUTER_BOUND('',#165,.T.);
#102=FACE_OUTER_BOUND('',#166,.T.);
#103=FACE_OUTER_BOUND('',#167,.T.);
#104=FACE_OUTER_BOUND('',#168,.T.);
#105=FACE_OUTER_BOUND('',#169,.T.);
#106=FACE_OUTER_BOUND('',#170,.T.);
#107=FACE_OUTER_BOUND('',#172,.T.);
#108=FACE_OUTER_BOUND('',#173,.T.);
#109=FACE_OUTER_BOUND('',#174,.T.);
#110=FACE_OUTER_BOUND('',#175,.T.);
#111=FACE_OUTER_BOUND('',#176,.T.);
#112=FACE_OUTER_BOUND('',#177,.T.);
#113=FACE_OUTER_BOUND('',#178,.T.);
#114=FACE_OUTER_BOUND('',#179,.T.);
#115=FACE_OUTER_BOUND('',#180,.T.);
#116=FACE_OUTER_BOUND('',#181,.T.);
#117=FACE_OUTER_BOUND('',#182,.T.);
#118=FACE_OUTER_BOUND('',#183,.T.);
#119=FACE_OUTER_BOUND('',#184,.T.);
#120=FACE_OUTER_BOUND('',#185,.T.);
#121=FACE_OUTER_BOUND('',#186,.T.);
#122=FACE_OUTER_BOUND('',#187,.T.);
#123=FACE_OUTER_BOUND('',#188,.T.);
#124=FACE_OUTER_BOUND('',#189,.T.);
#125=FACE_OUTER_BOUND('',#190,.T.);
#126=FACE_OUTER_BOUND('',#191,.T.);
#127=FACE_OUTER_BOUND('',#192,.T.);
#128=FACE_OUTER_BOUND('',#193,.T.);
#129=FACE_OUTER_BOUND('',#194,.T.);
#130=FACE_OUTER_BOUND('',#195,.T.);
#131=FACE_OUTER_BOUND('',#196,.T.);
#132=FACE_OUTER_BOUND('',#197,.T.);
#133=FACE_OUTER_BOUND('',#198,.T.);
#134=FACE_OUTER_BOUND('',#199,.T.);
#135=FACE_OUTER_BOUND('',#201,.T.);
#136=FACE_OUTER_BOUND('',#202,.T.);
#137=FACE_OUTER_BOUND('',#203,.T.);
#138=FACE_OUTER_BOUND('',#204,.T.);
#139=FACE_OUTER_BOUND('',#205,.T.);
#140=FACE_OUTER_BOUND('',#206,.T.);
#141=FACE_OUTER_BOUND('',#207,.T.);
#142=FACE_OUTER_BOUND('',#208,.T.);
#143=FACE_OUTER_BOUND('',#210,.T.);
#144=FACE_OUTER_BOUND('',#211,.T.);
#145=FACE_OUTER_BOUND('',#212,.T.);
#146=FACE_OUTER_BOUND('',#213,.T.);
#147=FACE_OUTER_BOUND('',#215,.T.);
#148=FACE_OUTER_BOUND('',#216,.T.);
#149=FACE_OUTER_BOUND('',#217,.T.);
#150=FACE_OUTER_BOUND('',#218,.T.);
#151=FACE_OUTER_BOUND('',#219,.T.);
#152=FACE_OUTER_BOUND('',#220,.T.);
#153=FACE_OUTER_BOUND('',#222,.T.);
#154=FACE_OUTER_BOUND('',#223,.T.);
#155=FACE_OUTER_BOUND('',#224,.T.);
#156=FACE_OUTER_BOUND('',#225,.T.);
#157=FACE_OUTER_BOUND('',#226,.T.);
#158=FACE_OUTER_BOUND('',#227,.T.);
#159=FACE_OUTER_BOUND('',#229,.T.);
#160=FACE_OUTER_BOUND('',#230,.T.);
#161=FACE_OUTER_BOUND('',#231,.T.);
#162=FACE_OUTER_BOUND('',#232,.T.);
#163=FACE_OUTER_BOUND('',#233,.T.);
#164=EDGE_LOOP('',(#656,#657,#658,#659));
#165=EDGE_LOOP('',(#660,#661,#662,#663));
#166=EDGE_LOOP('',(#664,#665,#666,#667));
#167=EDGE_LOOP('',(#668,#669,#670,#671));
#168=EDGE_LOOP('',(#672,#673,#674,#675,#676,#677,#678,#679,#680,#681,#682,
#683,#684,#685,#686));
#169=EDGE_LOOP('',(#687,#688,#689,#690,#691,#692));
#170=EDGE_LOOP('',(#693,#694,#695,#696));
#171=EDGE_LOOP('',(#697,#698,#699,#700));
#172=EDGE_LOOP('',(#701,#702,#703));
#173=EDGE_LOOP('',(#704,#705,#706));
#174=EDGE_LOOP('',(#707,#708,#709));
#175=EDGE_LOOP('',(#710,#711,#712));
#176=EDGE_LOOP('',(#713,#714,#715,#716));
#177=EDGE_LOOP('',(#717,#718,#719,#720));
#178=EDGE_LOOP('',(#721,#722,#723));
#179=EDGE_LOOP('',(#724,#725,#726,#727));
#180=EDGE_LOOP('',(#728,#729,#730));
#181=EDGE_LOOP('',(#731,#732,#733));
#182=EDGE_LOOP('',(#734,#735,#736,#737));
#183=EDGE_LOOP('',(#738,#739,#740,#741));
#184=EDGE_LOOP('',(#742,#743,#744));
#185=EDGE_LOOP('',(#745,#746,#747,#748));
#186=EDGE_LOOP('',(#749,#750,#751));
#187=EDGE_LOOP('',(#752,#753,#754,#755));
#188=EDGE_LOOP('',(#756,#757,#758,#759));
#189=EDGE_LOOP('',(#760,#761,#762));
#190=EDGE_LOOP('',(#763,#764,#765,#766));
#191=EDGE_LOOP('',(#767,#768,#769,#770));
#192=EDGE_LOOP('',(#771,#772,#773,#774));
#193=EDGE_LOOP('',(#775,#776,#777,#778));
#194=EDGE_LOOP('',(#779,#780,#781,#782));
#195=EDGE_LOOP('',(#783,#784,#785,#786));
#196=EDGE_LOOP('',(#787,#788,#789,#790));
#197=EDGE_LOOP('',(#791,#792,#793,#794));
#198=EDGE_LOOP('',(#795,#796,#797,#798));
#199=EDGE_LOOP('',(#799,#800,#801,#802,#803));
#200=EDGE_LOOP('',(#804,#805,#806,#807,#808));
#201=EDGE_LOOP('',(#809,#810,#811,#812,#813));
#202=EDGE_LOOP('',(#814,#815,#816,#817));
#203=EDGE_LOOP('',(#818,#819,#820,#821));
#204=EDGE_LOOP('',(#822,#823,#824,#825));
#205=EDGE_LOOP('',(#826,#827,#828,#829));
#206=EDGE_LOOP('',(#830,#831,#832,#833));
#207=EDGE_LOOP('',(#834,#835,#836,#837));
#208=EDGE_LOOP('',(#838,#839,#840,#841));
#209=EDGE_LOOP('',(#842));
#210=EDGE_LOOP('',(#843,#844,#845,#846));
#211=EDGE_LOOP('',(#847,#848,#849,#850));
#212=EDGE_LOOP('',(#851,#852,#853,#854));
#213=EDGE_LOOP('',(#855,#856,#857,#858));
#214=EDGE_LOOP('',(#859));
#215=EDGE_LOOP('',(#860,#861,#862,#863,#864,#865));
#216=EDGE_LOOP('',(#866));
#217=EDGE_LOOP('',(#867,#868,#869,#870));
#218=EDGE_LOOP('',(#871,#872,#873,#874));
#219=EDGE_LOOP('',(#875,#876,#877,#878));
#220=EDGE_LOOP('',(#879,#880,#881,#882));
#221=EDGE_LOOP('',(#883));
#222=EDGE_LOOP('',(#884,#885,#886,#887,#888,#889,#890,#891));
#223=EDGE_LOOP('',(#892));
#224=EDGE_LOOP('',(#893,#894,#895,#896));
#225=EDGE_LOOP('',(#897,#898,#899,#900));
#226=EDGE_LOOP('',(#901,#902,#903,#904));
#227=EDGE_LOOP('',(#905,#906,#907,#908));
#228=EDGE_LOOP('',(#909));
#229=EDGE_LOOP('',(#910,#911,#912,#913,#914,#915,#916,#917));
#230=EDGE_LOOP('',(#918));
#231=EDGE_LOOP('',(#919,#920,#921,#922,#923,#924,#925,#926,#927,#928));
#232=EDGE_LOOP('',(#929));
#233=EDGE_LOOP('',(#930,#931,#932,#933,#934,#935));
#234=ELLIPSE('',#1038,1.41421356237309,1.);
#235=ELLIPSE('',#1039,1.4142135623731,1.);
#236=ELLIPSE('',#1041,1.41421356237309,1.);
#237=ELLIPSE('',#1042,1.41421356237309,1.);
#238=LINE('',#1459,#336);
#239=LINE('',#1463,#337);
#240=LINE('',#1468,#338);
#241=LINE('',#1472,#339);
#242=LINE('',#1475,#340);
#243=LINE('',#1476,#341);
#244=LINE('',#1478,#342);
#245=LINE('',#1479,#343);
#246=LINE('',#1482,#344);
#247=LINE('',#1484,#345);
#248=LINE('',#1486,#346);
#249=LINE('',#1488,#347);
#250=LINE('',#1490,#348);
#251=LINE('',#1492,#349);
#252=LINE('',#1494,#350);
#253=LINE('',#1496,#351);
#254=LINE('',#1498,#352);
#255=LINE('',#1500,#353);
#256=LINE('',#1502,#354);
#257=LINE('',#1504,#355);
#258=LINE('',#1506,#356);
#259=LINE('',#1507,#357);
#260=LINE('',#1510,#358);
#261=LINE('',#1512,#359);
#262=LINE('',#1514,#360);
#263=LINE('',#1515,#361);
#264=LINE('',#1519,#362);
#265=LINE('',#1521,#363);
#266=LINE('',#1523,#364);
#267=LINE('',#1524,#365);
#268=LINE('',#1552,#366);
#269=LINE('',#1553,#367);
#270=LINE('',#1555,#368);
#271=LINE('',#1556,#369);
#272=LINE('',#1564,#370);
#273=LINE('',#1579,#371);
#274=LINE('',#1581,#372);
#275=LINE('',#1590,#373);
#276=LINE('',#1591,#374);
#277=LINE('',#1600,#375);
#278=LINE('',#1601,#376);
#279=LINE('',#1603,#377);
#280=LINE('',#1604,#378);
#281=LINE('',#1613,#379);
#282=LINE('',#1614,#380);
#283=LINE('',#1616,#381);
#284=LINE('',#1617,#382);
#285=LINE('',#1619,#383);
#286=LINE('',#1620,#384);
#287=LINE('',#1622,#385);
#288=LINE('',#1623,#386);
#289=LINE('',#1625,#387);
#290=LINE('',#1626,#388);
#291=LINE('',#1628,#389);
#292=LINE('',#1630,#390);
#293=LINE('',#1631,#391);
#294=LINE('',#1637,#392);
#295=LINE('',#1639,#393);
#296=LINE('',#1641,#394);
#297=LINE('',#1643,#395);
#298=LINE('',#1644,#396);
#299=LINE('',#1650,#397);
#300=LINE('',#1651,#398);
#301=LINE('',#1653,#399);
#302=LINE('',#1658,#400);
#303=LINE('',#1662,#401);
#304=LINE('',#1663,#402);
#305=LINE('',#1666,#403);
#306=LINE('',#1667,#404);
#307=LINE('',#1672,#405);
#308=LINE('',#1676,#406);
#309=LINE('',#1678,#407);
#310=LINE('',#1679,#408);
#311=LINE('',#1682,#409);
#312=LINE('',#1683,#410);
#313=LINE('',#1686,#411);
#314=LINE('',#1687,#412);
#315=LINE('',#1689,#413);
#316=LINE('',#1690,#414);
#317=LINE('',#1696,#415);
#318=LINE('',#1700,#416);
#319=LINE('',#1702,#417);
#320=LINE('',#1703,#418);
#321=LINE('',#1706,#419);
#322=LINE('',#1707,#420);
#323=LINE('',#1710,#421);
#324=LINE('',#1711,#422);
#325=LINE('',#1713,#423);
#326=LINE('',#1714,#424);
#327=LINE('',#1720,#425);
#328=LINE('',#1724,#426);
#329=LINE('',#1726,#427);
#330=LINE('',#1727,#428);
#331=LINE('',#1730,#429);
#332=LINE('',#1731,#430);
#333=LINE('',#1734,#431);
#334=LINE('',#1735,#432);
#335=LINE('',#1737,#433);
#336=VECTOR('',#1147,10.);
#337=VECTOR('',#1150,10.);
#338=VECTOR('',#1155,10.);
#339=VECTOR('',#1158,10.);
#340=VECTOR('',#1163,10.);
#341=VECTOR('',#1164,10.);
#342=VECTOR('',#1167,10.);
#343=VECTOR('',#1168,10.);
#344=VECTOR('',#1171,10.);
#345=VECTOR('',#1172,10.);
#346=VECTOR('',#1173,10.);
#347=VECTOR('',#1174,10.);
#348=VECTOR('',#1175,10.);
#349=VECTOR('',#1176,10.);
#350=VECTOR('',#1177,10.);
#351=VECTOR('',#1178,10.);
#352=VECTOR('',#1179,10.);
#353=VECTOR('',#1180,10.);
#354=VECTOR('',#1181,10.);
#355=VECTOR('',#1182,10.);
#356=VECTOR('',#1183,10.);
#357=VECTOR('',#1184,10.);
#358=VECTOR('',#1187,10.);
#359=VECTOR('',#1188,10.);
#360=VECTOR('',#1189,10.);
#361=VECTOR('',#1190,10.);
#362=VECTOR('',#1193,10.);
#363=VECTOR('',#1194,10.);
#364=VECTOR('',#1195,10.);
#365=VECTOR('',#1196,10.);
#366=VECTOR('',#1231,10.);
#367=VECTOR('',#1232,10.);
#368=VECTOR('',#1235,10.);
#369=VECTOR('',#1236,10.);
#370=VECTOR('',#1247,10.);
#371=VECTOR('',#1266,10.);
#372=VECTOR('',#1269,10.);
#373=VECTOR('',#1280,10.);
#374=VECTOR('',#1281,10.);
#375=VECTOR('',#1292,10.);
#376=VECTOR('',#1293,10.);
#377=VECTOR('',#1296,10.);
#378=VECTOR('',#1297,10.);
#379=VECTOR('',#1308,10.);
#380=VECTOR('',#1309,10.);
#381=VECTOR('',#1312,10.);
#382=VECTOR('',#1313,10.);
#383=VECTOR('',#1316,10.);
#384=VECTOR('',#1317,10.);
#385=VECTOR('',#1320,10.);
#386=VECTOR('',#1321,10.);
#387=VECTOR('',#1324,10.);
#388=VECTOR('',#1325,10.);
#389=VECTOR('',#1328,10.);
#390=VECTOR('',#1331,10.);
#391=VECTOR('',#1332,10.);
#392=VECTOR('',#1339,10.);
#393=VECTOR('',#1340,10.);
#394=VECTOR('',#1341,10.);
#395=VECTOR('',#1342,10.);
#396=VECTOR('',#1343,10.);
#397=VECTOR('',#1352,10.);
#398=VECTOR('',#1353,10.);
#399=VECTOR('',#1356,10.);
#400=VECTOR('',#1361,0.800000000000001);
#401=VECTOR('',#1366,10.);
#402=VECTOR('',#1367,10.);
#403=VECTOR('',#1370,10.);
#404=VECTOR('',#1371,10.);
#405=VECTOR('',#1376,0.800000000000001);
#406=VECTOR('',#1381,10.);
#407=VECTOR('',#1382,10.);
#408=VECTOR('',#1383,10.);
#409=VECTOR('',#1386,10.);
#410=VECTOR('',#1387,10.);
#411=VECTOR('',#1390,10.);
#412=VECTOR('',#1391,10.);
#413=VECTOR('',#1394,10.);
#414=VECTOR('',#1395,10.);
#415=VECTOR('',#1402,0.800000000000001);
#416=VECTOR('',#1407,10.);
#417=VECTOR('',#1408,10.);
#418=VECTOR('',#1409,10.);
#419=VECTOR('',#1412,10.);
#420=VECTOR('',#1413,10.);
#421=VECTOR('',#1416,10.);
#422=VECTOR('',#1417,10.);
#423=VECTOR('',#1420,10.);
#424=VECTOR('',#1421,10.);
#425=VECTOR('',#1428,0.800000000000001);
#426=VECTOR('',#1433,10.);
#427=VECTOR('',#1434,10.);
#428=VECTOR('',#1435,10.);
#429=VECTOR('',#1438,10.);
#430=VECTOR('',#1439,10.);
#431=VECTOR('',#1442,10.);
#432=VECTOR('',#1443,10.);
#433=VECTOR('',#1446,10.);
#434=VERTEX_POINT('',#1457);
#435=VERTEX_POINT('',#1458);
#436=VERTEX_POINT('',#1460);
#437=VERTEX_POINT('',#1462);
#438=VERTEX_POINT('',#1466);
#439=VERTEX_POINT('',#1467);
#440=VERTEX_POINT('',#1469);
#441=VERTEX_POINT('',#1471);
#442=VERTEX_POINT('',#1481);
#443=VERTEX_POINT('',#1483);
#444=VERTEX_POINT('',#1485);
#445=VERTEX_POINT('',#1487);
#446=VERTEX_POINT('',#1489);
#447=VERTEX_POINT('',#1491);
#448=VERTEX_POINT('',#1493);
#449=VERTEX_POINT('',#1495);
#450=VERTEX_POINT('',#1497);
#451=VERTEX_POINT('',#1499);
#452=VERTEX_POINT('',#1501);
#453=VERTEX_POINT('',#1503);
#454=VERTEX_POINT('',#1505);
#455=VERTEX_POINT('',#1509);
#456=VERTEX_POINT('',#1511);
#457=VERTEX_POINT('',#1513);
#458=VERTEX_POINT('',#1517);
#459=VERTEX_POINT('',#1518);
#460=VERTEX_POINT('',#1520);
#461=VERTEX_POINT('',#1522);
#462=VERTEX_POINT('',#1526);
#463=VERTEX_POINT('',#1528);
#464=VERTEX_POINT('',#1532);
#465=VERTEX_POINT('',#1533);
#466=VERTEX_POINT('',#1535);
#467=VERTEX_POINT('',#1539);
#468=VERTEX_POINT('',#1541);
#469=VERTEX_POINT('',#1545);
#470=VERTEX_POINT('',#1546);
#471=VERTEX_POINT('',#1548);
#472=VERTEX_POINT('',#1558);
#473=VERTEX_POINT('',#1560);
#474=VERTEX_POINT('',#1566);
#475=VERTEX_POINT('',#1567);
#476=VERTEX_POINT('',#1569);
#477=VERTEX_POINT('',#1573);
#478=VERTEX_POINT('',#1574);
#479=VERTEX_POINT('',#1583);
#480=VERTEX_POINT('',#1584);
#481=VERTEX_POINT('',#1586);
#482=VERTEX_POINT('',#1593);
#483=VERTEX_POINT('',#1594);
#484=VERTEX_POINT('',#1596);
#485=VERTEX_POINT('',#1606);
#486=VERTEX_POINT('',#1607);
#487=VERTEX_POINT('',#1609);
#488=VERTEX_POINT('',#1635);
#489=VERTEX_POINT('',#1636);
#490=VERTEX_POINT('',#1638);
#491=VERTEX_POINT('',#1640);
#492=VERTEX_POINT('',#1642);
#493=VERTEX_POINT('',#1649);
#494=VERTEX_POINT('',#1655);
#495=VERTEX_POINT('',#1657);
#496=VERTEX_POINT('',#1661);
#497=VERTEX_POINT('',#1665);
#498=VERTEX_POINT('',#1669);
#499=VERTEX_POINT('',#1671);
#500=VERTEX_POINT('',#1675);
#501=VERTEX_POINT('',#1677);
#502=VERTEX_POINT('',#1681);
#503=VERTEX_POINT('',#1685);
#504=VERTEX_POINT('',#1693);
#505=VERTEX_POINT('',#1695);
#506=VERTEX_POINT('',#1699);
#507=VERTEX_POINT('',#1701);
#508=VERTEX_POINT('',#1705);
#509=VERTEX_POINT('',#1709);
#510=VERTEX_POINT('',#1717);
#511=VERTEX_POINT('',#1719);
#512=VERTEX_POINT('',#1723);
#513=VERTEX_POINT('',#1725);
#514=VERTEX_POINT('',#1729);
#515=VERTEX_POINT('',#1733);
#516=EDGE_CURVE('',#434,#435,#238,.T.);
#517=EDGE_CURVE('',#435,#436,#234,.T.);
#518=EDGE_CURVE('',#436,#437,#239,.T.);
#519=EDGE_CURVE('',#434,#437,#235,.T.);
#520=EDGE_CURVE('',#438,#439,#240,.T.);
#521=EDGE_CURVE('',#439,#440,#236,.T.);
#522=EDGE_CURVE('',#440,#441,#241,.T.);
#523=EDGE_CURVE('',#441,#438,#237,.T.);
#524=EDGE_CURVE('',#437,#440,#242,.T.);
#525=EDGE_CURVE('',#439,#434,#243,.T.);
#526=EDGE_CURVE('',#435,#438,#244,.T.);
#527=EDGE_CURVE('',#441,#436,#245,.T.);
#528=EDGE_CURVE('',#441,#442,#246,.T.);
#529=EDGE_CURVE('',#442,#443,#247,.T.);
#530=EDGE_CURVE('',#444,#443,#248,.T.);
#531=EDGE_CURVE('',#444,#445,#249,.T.);
#532=EDGE_CURVE('',#445,#446,#250,.T.);
#533=EDGE_CURVE('',#447,#446,#251,.T.);
#534=EDGE_CURVE('',#447,#448,#252,.T.);
#535=EDGE_CURVE('',#448,#449,#253,.T.);
#536=EDGE_CURVE('',#450,#449,#254,.T.);
#537=EDGE_CURVE('',#451,#450,#255,.F.);
#538=EDGE_CURVE('',#451,#452,#256,.T.);
#539=EDGE_CURVE('',#452,#453,#257,.T.);
#540=EDGE_CURVE('',#454,#453,#258,.F.);
#541=EDGE_CURVE('',#436,#454,#259,.T.);
#542=EDGE_CURVE('',#440,#455,#260,.T.);
#543=EDGE_CURVE('',#456,#455,#261,.T.);
#544=EDGE_CURVE('',#457,#456,#262,.T.);
#545=EDGE_CURVE('',#442,#457,#263,.T.);
#546=EDGE_CURVE('',#458,#459,#264,.T.);
#547=EDGE_CURVE('',#460,#458,#265,.T.);
#548=EDGE_CURVE('',#461,#460,#266,.T.);
#549=EDGE_CURVE('',#459,#461,#267,.T.);
#550=EDGE_CURVE('',#462,#460,#15,.F.);
#551=EDGE_CURVE('',#463,#462,#16,.F.);
#552=EDGE_CURVE('',#460,#463,#17,.F.);
#553=EDGE_CURVE('',#464,#465,#18,.F.);
#554=EDGE_CURVE('',#466,#464,#19,.F.);
#555=EDGE_CURVE('',#465,#466,#20,.F.);
#556=EDGE_CURVE('',#458,#467,#21,.F.);
#557=EDGE_CURVE('',#468,#458,#22,.F.);
#558=EDGE_CURVE('',#467,#468,#23,.F.);
#559=EDGE_CURVE('',#469,#470,#24,.F.);
#560=EDGE_CURVE('',#471,#469,#25,.F.);
#561=EDGE_CURVE('',#470,#471,#26,.F.);
#562=EDGE_CURVE('',#469,#464,#268,.T.);
#563=EDGE_CURVE('',#465,#471,#269,.T.);
#564=EDGE_CURVE('',#468,#470,#270,.T.);
#565=EDGE_CURVE('',#471,#467,#271,.T.);
#566=EDGE_CURVE('',#461,#472,#27,.F.);
#567=EDGE_CURVE('',#473,#461,#28,.F.);
#568=EDGE_CURVE('',#472,#473,#29,.F.);
#569=EDGE_CURVE('',#463,#473,#272,.T.);
#570=EDGE_CURVE('',#474,#475,#30,.F.);
#571=EDGE_CURVE('',#476,#474,#31,.F.);
#572=EDGE_CURVE('',#475,#476,#32,.F.);
#573=EDGE_CURVE('',#477,#478,#33,.F.);
#574=EDGE_CURVE('',#459,#477,#34,.F.);
#575=EDGE_CURVE('',#478,#459,#35,.F.);
#576=EDGE_CURVE('',#477,#468,#273,.T.);
#577=EDGE_CURVE('',#472,#478,#274,.T.);
#578=EDGE_CURVE('',#479,#480,#36,.F.);
#579=EDGE_CURVE('',#481,#479,#37,.F.);
#580=EDGE_CURVE('',#480,#481,#38,.F.);
#581=EDGE_CURVE('',#470,#481,#275,.T.);
#582=EDGE_CURVE('',#479,#469,#276,.T.);
#583=EDGE_CURVE('',#482,#483,#39,.F.);
#584=EDGE_CURVE('',#484,#482,#40,.F.);
#585=EDGE_CURVE('',#483,#484,#41,.F.);
#586=EDGE_CURVE('',#473,#484,#277,.T.);
#587=EDGE_CURVE('',#482,#472,#278,.T.);
#588=EDGE_CURVE('',#484,#475,#279,.T.);
#589=EDGE_CURVE('',#476,#483,#280,.T.);
#590=EDGE_CURVE('',#485,#486,#42,.F.);
#591=EDGE_CURVE('',#487,#485,#43,.F.);
#592=EDGE_CURVE('',#486,#487,#44,.F.);
#593=EDGE_CURVE('',#485,#477,#281,.T.);
#594=EDGE_CURVE('',#478,#487,#282,.T.);
#595=EDGE_CURVE('',#483,#486,#283,.T.);
#596=EDGE_CURVE('',#487,#482,#284,.T.);
#597=EDGE_CURVE('',#481,#485,#285,.T.);
#598=EDGE_CURVE('',#486,#480,#286,.T.);
#599=EDGE_CURVE('',#474,#479,#287,.T.);
#600=EDGE_CURVE('',#480,#476,#288,.T.);
#601=EDGE_CURVE('',#475,#466,#289,.T.);
#602=EDGE_CURVE('',#464,#474,#290,.T.);
#603=EDGE_CURVE('',#467,#462,#291,.T.);
#604=EDGE_CURVE('',#466,#463,#292,.T.);
#605=EDGE_CURVE('',#462,#465,#293,.T.);
#606=EDGE_CURVE('',#488,#489,#294,.T.);
#607=EDGE_CURVE('',#489,#490,#295,.T.);
#608=EDGE_CURVE('',#490,#491,#296,.T.);
#609=EDGE_CURVE('',#491,#492,#297,.T.);
#610=EDGE_CURVE('',#492,#488,#298,.T.);
#611=EDGE_CURVE('',#437,#493,#299,.T.);
#612=EDGE_CURVE('',#455,#493,#300,.T.);
#613=EDGE_CURVE('',#493,#454,#301,.T.);
#614=EDGE_CURVE('',#494,#494,#45,.F.);
#615=EDGE_CURVE('',#494,#495,#302,.T.);
#616=EDGE_CURVE('',#495,#495,#46,.T.);
#617=EDGE_CURVE('',#496,#457,#303,.T.);
#618=EDGE_CURVE('',#443,#496,#304,.T.);
#619=EDGE_CURVE('',#497,#456,#305,.T.);
#620=EDGE_CURVE('',#496,#497,#306,.T.);
#621=EDGE_CURVE('',#498,#498,#47,.F.);
#622=EDGE_CURVE('',#498,#499,#307,.T.);
#623=EDGE_CURVE('',#499,#499,#48,.T.);
#624=EDGE_CURVE('',#500,#451,#308,.T.);
#625=EDGE_CURVE('',#501,#500,#309,.T.);
#626=EDGE_CURVE('',#452,#501,#310,.T.);
#627=EDGE_CURVE('',#502,#501,#311,.T.);
#628=EDGE_CURVE('',#453,#502,#312,.T.);
#629=EDGE_CURVE('',#502,#503,#313,.T.);
#630=EDGE_CURVE('',#503,#500,#314,.T.);
#631=EDGE_CURVE('',#450,#492,#315,.F.);
#632=EDGE_CURVE('',#491,#503,#316,.F.);
#633=EDGE_CURVE('',#504,#504,#49,.F.);
#634=EDGE_CURVE('',#504,#505,#317,.T.);
#635=EDGE_CURVE('',#505,#505,#50,.T.);
#636=EDGE_CURVE('',#506,#444,#318,.T.);
#637=EDGE_CURVE('',#507,#506,#319,.T.);
#638=EDGE_CURVE('',#445,#507,#320,.T.);
#639=EDGE_CURVE('',#508,#507,#321,.T.);
#640=EDGE_CURVE('',#446,#508,#322,.T.);
#641=EDGE_CURVE('',#509,#506,#323,.T.);
#642=EDGE_CURVE('',#508,#509,#324,.T.);
#643=EDGE_CURVE('',#490,#497,#325,.F.);
#644=EDGE_CURVE('',#489,#509,#326,.T.);
#645=EDGE_CURVE('',#510,#510,#51,.F.);
#646=EDGE_CURVE('',#510,#511,#327,.T.);
#647=EDGE_CURVE('',#511,#511,#52,.T.);
#648=EDGE_CURVE('',#512,#447,#328,.T.);
#649=EDGE_CURVE('',#513,#512,#329,.T.);
#650=EDGE_CURVE('',#448,#513,#330,.T.);
#651=EDGE_CURVE('',#514,#513,#331,.T.);
#652=EDGE_CURVE('',#449,#514,#332,.T.);
#653=EDGE_CURVE('',#515,#512,#333,.T.);
#654=EDGE_CURVE('',#514,#515,#334,.T.);
#655=EDGE_CURVE('',#488,#515,#335,.F.);
#656=ORIENTED_EDGE('',*,*,#516,.T.);
#657=ORIENTED_EDGE('',*,*,#517,.T.);
#658=ORIENTED_EDGE('',*,*,#518,.T.);
#659=ORIENTED_EDGE('',*,*,#519,.F.);
#660=ORIENTED_EDGE('',*,*,#520,.T.);
#661=ORIENTED_EDGE('',*,*,#521,.T.);
#662=ORIENTED_EDGE('',*,*,#522,.T.);
#663=ORIENTED_EDGE('',*,*,#523,.T.);
#664=ORIENTED_EDGE('',*,*,#524,.T.);
#665=ORIENTED_EDGE('',*,*,#521,.F.);
#666=ORIENTED_EDGE('',*,*,#525,.T.);
#667=ORIENTED_EDGE('',*,*,#519,.T.);
#668=ORIENTED_EDGE('',*,*,#526,.T.);
#669=ORIENTED_EDGE('',*,*,#523,.F.);
#670=ORIENTED_EDGE('',*,*,#527,.T.);
#671=ORIENTED_EDGE('',*,*,#517,.F.);
#672=ORIENTED_EDGE('',*,*,#527,.F.);
#673=ORIENTED_EDGE('',*,*,#528,.T.);
#674=ORIENTED_EDGE('',*,*,#529,.T.);
#675=ORIENTED_EDGE('',*,*,#530,.F.);
#676=ORIENTED_EDGE('',*,*,#531,.T.);
#677=ORIENTED_EDGE('',*,*,#532,.T.);
#678=ORIENTED_EDGE('',*,*,#533,.F.);
#679=ORIENTED_EDGE('',*,*,#534,.T.);
#680=ORIENTED_EDGE('',*,*,#535,.T.);
#681=ORIENTED_EDGE('',*,*,#536,.F.);
#682=ORIENTED_EDGE('',*,*,#537,.F.);
#683=ORIENTED_EDGE('',*,*,#538,.T.);
#684=ORIENTED_EDGE('',*,*,#539,.T.);
#685=ORIENTED_EDGE('',*,*,#540,.F.);
#686=ORIENTED_EDGE('',*,*,#541,.F.);
#687=ORIENTED_EDGE('',*,*,#522,.F.);
#688=ORIENTED_EDGE('',*,*,#542,.T.);
#689=ORIENTED_EDGE('',*,*,#543,.F.);
#690=ORIENTED_EDGE('',*,*,#544,.F.);
#691=ORIENTED_EDGE('',*,*,#545,.F.);
#692=ORIENTED_EDGE('',*,*,#528,.F.);
#693=ORIENTED_EDGE('',*,*,#546,.F.);
#694=ORIENTED_EDGE('',*,*,#547,.F.);
#695=ORIENTED_EDGE('',*,*,#548,.F.);
#696=ORIENTED_EDGE('',*,*,#549,.F.);
#697=ORIENTED_EDGE('',*,*,#520,.F.);
#698=ORIENTED_EDGE('',*,*,#526,.F.);
#699=ORIENTED_EDGE('',*,*,#516,.F.);
#700=ORIENTED_EDGE('',*,*,#525,.F.);
#701=ORIENTED_EDGE('',*,*,#550,.F.);
#702=ORIENTED_EDGE('',*,*,#551,.F.);
#703=ORIENTED_EDGE('',*,*,#552,.F.);
#704=ORIENTED_EDGE('',*,*,#553,.F.);
#705=ORIENTED_EDGE('',*,*,#554,.F.);
#706=ORIENTED_EDGE('',*,*,#555,.F.);
#707=ORIENTED_EDGE('',*,*,#556,.F.);
#708=ORIENTED_EDGE('',*,*,#557,.F.);
#709=ORIENTED_EDGE('',*,*,#558,.F.);
#710=ORIENTED_EDGE('',*,*,#559,.F.);
#711=ORIENTED_EDGE('',*,*,#560,.F.);
#712=ORIENTED_EDGE('',*,*,#561,.F.);
#713=ORIENTED_EDGE('',*,*,#560,.T.);
#714=ORIENTED_EDGE('',*,*,#562,.T.);
#715=ORIENTED_EDGE('',*,*,#553,.T.);
#716=ORIENTED_EDGE('',*,*,#563,.T.);
#717=ORIENTED_EDGE('',*,*,#558,.T.);
#718=ORIENTED_EDGE('',*,*,#564,.T.);
#719=ORIENTED_EDGE('',*,*,#561,.T.);
#720=ORIENTED_EDGE('',*,*,#565,.T.);
#721=ORIENTED_EDGE('',*,*,#566,.F.);
#722=ORIENTED_EDGE('',*,*,#567,.F.);
#723=ORIENTED_EDGE('',*,*,#568,.F.);
#724=ORIENTED_EDGE('',*,*,#552,.T.);
#725=ORIENTED_EDGE('',*,*,#569,.T.);
#726=ORIENTED_EDGE('',*,*,#567,.T.);
#727=ORIENTED_EDGE('',*,*,#548,.T.);
#728=ORIENTED_EDGE('',*,*,#570,.F.);
#729=ORIENTED_EDGE('',*,*,#571,.F.);
#730=ORIENTED_EDGE('',*,*,#572,.F.);
#731=ORIENTED_EDGE('',*,*,#573,.F.);
#732=ORIENTED_EDGE('',*,*,#574,.F.);
#733=ORIENTED_EDGE('',*,*,#575,.F.);
#734=ORIENTED_EDGE('',*,*,#574,.T.);
#735=ORIENTED_EDGE('',*,*,#576,.T.);
#736=ORIENTED_EDGE('',*,*,#557,.T.);
#737=ORIENTED_EDGE('',*,*,#546,.T.);
#738=ORIENTED_EDGE('',*,*,#566,.T.);
#739=ORIENTED_EDGE('',*,*,#577,.T.);
#740=ORIENTED_EDGE('',*,*,#575,.T.);
#741=ORIENTED_EDGE('',*,*,#549,.T.);
#742=ORIENTED_EDGE('',*,*,#578,.F.);
#743=ORIENTED_EDGE('',*,*,#579,.F.);
#744=ORIENTED_EDGE('',*,*,#580,.F.);
#745=ORIENTED_EDGE('',*,*,#559,.T.);
#746=ORIENTED_EDGE('',*,*,#581,.T.);
#747=ORIENTED_EDGE('',*,*,#579,.T.);
#748=ORIENTED_EDGE('',*,*,#582,.T.);
#749=ORIENTED_EDGE('',*,*,#583,.F.);
#750=ORIENTED_EDGE('',*,*,#584,.F.);
#751=ORIENTED_EDGE('',*,*,#585,.F.);
#752=ORIENTED_EDGE('',*,*,#568,.T.);
#753=ORIENTED_EDGE('',*,*,#586,.T.);
#754=ORIENTED_EDGE('',*,*,#584,.T.);
#755=ORIENTED_EDGE('',*,*,#587,.T.);
#756=ORIENTED_EDGE('',*,*,#585,.T.);
#757=ORIENTED_EDGE('',*,*,#588,.T.);
#758=ORIENTED_EDGE('',*,*,#572,.T.);
#759=ORIENTED_EDGE('',*,*,#589,.T.);
#760=ORIENTED_EDGE('',*,*,#590,.F.);
#761=ORIENTED_EDGE('',*,*,#591,.F.);
#762=ORIENTED_EDGE('',*,*,#592,.F.);
#763=ORIENTED_EDGE('',*,*,#591,.T.);
#764=ORIENTED_EDGE('',*,*,#593,.T.);
#765=ORIENTED_EDGE('',*,*,#573,.T.);
#766=ORIENTED_EDGE('',*,*,#594,.T.);
#767=ORIENTED_EDGE('',*,*,#583,.T.);
#768=ORIENTED_EDGE('',*,*,#595,.T.);
#769=ORIENTED_EDGE('',*,*,#592,.T.);
#770=ORIENTED_EDGE('',*,*,#596,.T.);
#771=ORIENTED_EDGE('',*,*,#580,.T.);
#772=ORIENTED_EDGE('',*,*,#597,.T.);
#773=ORIENTED_EDGE('',*,*,#590,.T.);
#774=ORIENTED_EDGE('',*,*,#598,.T.);
#775=ORIENTED_EDGE('',*,*,#571,.T.);
#776=ORIENTED_EDGE('',*,*,#599,.T.);
#777=ORIENTED_EDGE('',*,*,#578,.T.);
#778=ORIENTED_EDGE('',*,*,#600,.T.);
#779=ORIENTED_EDGE('',*,*,#570,.T.);
#780=ORIENTED_EDGE('',*,*,#601,.T.);
#781=ORIENTED_EDGE('',*,*,#554,.T.);
#782=ORIENTED_EDGE('',*,*,#602,.T.);
#783=ORIENTED_EDGE('',*,*,#550,.T.);
#784=ORIENTED_EDGE('',*,*,#547,.T.);
#785=ORIENTED_EDGE('',*,*,#556,.T.);
#786=ORIENTED_EDGE('',*,*,#603,.T.);
#787=ORIENTED_EDGE('',*,*,#555,.T.);
#788=ORIENTED_EDGE('',*,*,#604,.T.);
#789=ORIENTED_EDGE('',*,*,#551,.T.);
#790=ORIENTED_EDGE('',*,*,#605,.T.);
#791=ORIENTED_EDGE('',*,*,#563,.F.);
#792=ORIENTED_EDGE('',*,*,#605,.F.);
#793=ORIENTED_EDGE('',*,*,#603,.F.);
#794=ORIENTED_EDGE('',*,*,#565,.F.);
#795=ORIENTED_EDGE('',*,*,#562,.F.);
#796=ORIENTED_EDGE('',*,*,#582,.F.);
#797=ORIENTED_EDGE('',*,*,#599,.F.);
#798=ORIENTED_EDGE('',*,*,#602,.F.);
#799=ORIENTED_EDGE('',*,*,#564,.F.);
#800=ORIENTED_EDGE('',*,*,#576,.F.);
#801=ORIENTED_EDGE('',*,*,#593,.F.);
#802=ORIENTED_EDGE('',*,*,#597,.F.);
#803=ORIENTED_EDGE('',*,*,#581,.F.);
#804=ORIENTED_EDGE('',*,*,#606,.T.);
#805=ORIENTED_EDGE('',*,*,#607,.T.);
#806=ORIENTED_EDGE('',*,*,#608,.T.);
#807=ORIENTED_EDGE('',*,*,#609,.T.);
#808=ORIENTED_EDGE('',*,*,#610,.T.);
#809=ORIENTED_EDGE('',*,*,#569,.F.);
#810=ORIENTED_EDGE('',*,*,#604,.F.);
#811=ORIENTED_EDGE('',*,*,#601,.F.);
#812=ORIENTED_EDGE('',*,*,#588,.F.);
#813=ORIENTED_EDGE('',*,*,#586,.F.);
#814=ORIENTED_EDGE('',*,*,#577,.F.);
#815=ORIENTED_EDGE('',*,*,#587,.F.);
#816=ORIENTED_EDGE('',*,*,#596,.F.);
#817=ORIENTED_EDGE('',*,*,#594,.F.);
#818=ORIENTED_EDGE('',*,*,#589,.F.);
#819=ORIENTED_EDGE('',*,*,#600,.F.);
#820=ORIENTED_EDGE('',*,*,#598,.F.);
#821=ORIENTED_EDGE('',*,*,#595,.F.);
#822=ORIENTED_EDGE('',*,*,#524,.F.);
#823=ORIENTED_EDGE('',*,*,#611,.T.);
#824=ORIENTED_EDGE('',*,*,#612,.F.);
#825=ORIENTED_EDGE('',*,*,#542,.F.);
#826=ORIENTED_EDGE('',*,*,#518,.F.);
#827=ORIENTED_EDGE('',*,*,#541,.T.);
#828=ORIENTED_EDGE('',*,*,#613,.F.);
#829=ORIENTED_EDGE('',*,*,#611,.F.);
#830=ORIENTED_EDGE('',*,*,#614,.F.);
#831=ORIENTED_EDGE('',*,*,#615,.T.);
#832=ORIENTED_EDGE('',*,*,#616,.F.);
#833=ORIENTED_EDGE('',*,*,#615,.F.);
#834=ORIENTED_EDGE('',*,*,#529,.F.);
#835=ORIENTED_EDGE('',*,*,#545,.T.);
#836=ORIENTED_EDGE('',*,*,#617,.F.);
#837=ORIENTED_EDGE('',*,*,#618,.F.);
#838=ORIENTED_EDGE('',*,*,#619,.F.);
#839=ORIENTED_EDGE('',*,*,#620,.F.);
#840=ORIENTED_EDGE('',*,*,#617,.T.);
#841=ORIENTED_EDGE('',*,*,#544,.T.);
#842=ORIENTED_EDGE('',*,*,#614,.T.);
#843=ORIENTED_EDGE('',*,*,#621,.F.);
#844=ORIENTED_EDGE('',*,*,#622,.T.);
#845=ORIENTED_EDGE('',*,*,#623,.F.);
#846=ORIENTED_EDGE('',*,*,#622,.F.);
#847=ORIENTED_EDGE('',*,*,#538,.F.);
#848=ORIENTED_EDGE('',*,*,#624,.F.);
#849=ORIENTED_EDGE('',*,*,#625,.F.);
#850=ORIENTED_EDGE('',*,*,#626,.F.);
#851=ORIENTED_EDGE('',*,*,#539,.F.);
#852=ORIENTED_EDGE('',*,*,#626,.T.);
#853=ORIENTED_EDGE('',*,*,#627,.F.);
#854=ORIENTED_EDGE('',*,*,#628,.F.);
#855=ORIENTED_EDGE('',*,*,#629,.F.);
#856=ORIENTED_EDGE('',*,*,#627,.T.);
#857=ORIENTED_EDGE('',*,*,#625,.T.);
#858=ORIENTED_EDGE('',*,*,#630,.F.);
#859=ORIENTED_EDGE('',*,*,#621,.T.);
#860=ORIENTED_EDGE('',*,*,#630,.T.);
#861=ORIENTED_EDGE('',*,*,#624,.T.);
#862=ORIENTED_EDGE('',*,*,#537,.T.);
#863=ORIENTED_EDGE('',*,*,#631,.T.);
#864=ORIENTED_EDGE('',*,*,#609,.F.);
#865=ORIENTED_EDGE('',*,*,#632,.T.);
#866=ORIENTED_EDGE('',*,*,#623,.T.);
#867=ORIENTED_EDGE('',*,*,#633,.F.);
#868=ORIENTED_EDGE('',*,*,#634,.T.);
#869=ORIENTED_EDGE('',*,*,#635,.F.);
#870=ORIENTED_EDGE('',*,*,#634,.F.);
#871=ORIENTED_EDGE('',*,*,#531,.F.);
#872=ORIENTED_EDGE('',*,*,#636,.F.);
#873=ORIENTED_EDGE('',*,*,#637,.F.);
#874=ORIENTED_EDGE('',*,*,#638,.F.);
#875=ORIENTED_EDGE('',*,*,#532,.F.);
#876=ORIENTED_EDGE('',*,*,#638,.T.);
#877=ORIENTED_EDGE('',*,*,#639,.F.);
#878=ORIENTED_EDGE('',*,*,#640,.F.);
#879=ORIENTED_EDGE('',*,*,#639,.T.);
#880=ORIENTED_EDGE('',*,*,#637,.T.);
#881=ORIENTED_EDGE('',*,*,#641,.F.);
#882=ORIENTED_EDGE('',*,*,#642,.F.);
#883=ORIENTED_EDGE('',*,*,#633,.T.);
#884=ORIENTED_EDGE('',*,*,#620,.T.);
#885=ORIENTED_EDGE('',*,*,#643,.F.);
#886=ORIENTED_EDGE('',*,*,#607,.F.);
#887=ORIENTED_EDGE('',*,*,#644,.T.);
#888=ORIENTED_EDGE('',*,*,#641,.T.);
#889=ORIENTED_EDGE('',*,*,#636,.T.);
#890=ORIENTED_EDGE('',*,*,#530,.T.);
#891=ORIENTED_EDGE('',*,*,#618,.T.);
#892=ORIENTED_EDGE('',*,*,#616,.T.);
#893=ORIENTED_EDGE('',*,*,#645,.F.);
#894=ORIENTED_EDGE('',*,*,#646,.T.);
#895=ORIENTED_EDGE('',*,*,#647,.F.);
#896=ORIENTED_EDGE('',*,*,#646,.F.);
#897=ORIENTED_EDGE('',*,*,#534,.F.);
#898=ORIENTED_EDGE('',*,*,#648,.F.);
#899=ORIENTED_EDGE('',*,*,#649,.F.);
#900=ORIENTED_EDGE('',*,*,#650,.F.);
#901=ORIENTED_EDGE('',*,*,#535,.F.);
#902=ORIENTED_EDGE('',*,*,#650,.T.);
#903=ORIENTED_EDGE('',*,*,#651,.F.);
#904=ORIENTED_EDGE('',*,*,#652,.F.);
#905=ORIENTED_EDGE('',*,*,#653,.F.);
#906=ORIENTED_EDGE('',*,*,#654,.F.);
#907=ORIENTED_EDGE('',*,*,#651,.T.);
#908=ORIENTED_EDGE('',*,*,#649,.T.);
#909=ORIENTED_EDGE('',*,*,#645,.T.);
#910=ORIENTED_EDGE('',*,*,#642,.T.);
#911=ORIENTED_EDGE('',*,*,#644,.F.);
#912=ORIENTED_EDGE('',*,*,#606,.F.);
#913=ORIENTED_EDGE('',*,*,#655,.T.);
#914=ORIENTED_EDGE('',*,*,#653,.T.);
#915=ORIENTED_EDGE('',*,*,#648,.T.);
#916=ORIENTED_EDGE('',*,*,#533,.T.);
#917=ORIENTED_EDGE('',*,*,#640,.T.);
#918=ORIENTED_EDGE('',*,*,#647,.T.);
#919=ORIENTED_EDGE('',*,*,#613,.T.);
#920=ORIENTED_EDGE('',*,*,#540,.T.);
#921=ORIENTED_EDGE('',*,*,#628,.T.);
#922=ORIENTED_EDGE('',*,*,#629,.T.);
#923=ORIENTED_EDGE('',*,*,#632,.F.);
#924=ORIENTED_EDGE('',*,*,#608,.F.);
#925=ORIENTED_EDGE('',*,*,#643,.T.);
#926=ORIENTED_EDGE('',*,*,#619,.T.);
#927=ORIENTED_EDGE('',*,*,#543,.T.);
#928=ORIENTED_EDGE('',*,*,#612,.T.);
#929=ORIENTED_EDGE('',*,*,#635,.T.);
#930=ORIENTED_EDGE('',*,*,#654,.T.);
#931=ORIENTED_EDGE('',*,*,#655,.F.);
#932=ORIENTED_EDGE('',*,*,#610,.F.);
#933=ORIENTED_EDGE('',*,*,#631,.F.);
#934=ORIENTED_EDGE('',*,*,#536,.T.);
#935=ORIENTED_EDGE('',*,*,#652,.T.);
#936=CYLINDRICAL_SURFACE('',#1037,1.);
#937=CYLINDRICAL_SURFACE('',#1040,1.);
#938=CYLINDRICAL_SURFACE('',#1043,1.);
#939=CYLINDRICAL_SURFACE('',#1044,1.);
#940=CYLINDRICAL_SURFACE('',#1064,1.);
#941=CYLINDRICAL_SURFACE('',#1065,1.);
#942=CYLINDRICAL_SURFACE('',#1070,1.);
#943=CYLINDRICAL_SURFACE('',#1079,1.);
#944=CYLINDRICAL_SURFACE('',#1080,1.);
#945=CYLINDRICAL_SURFACE('',#1085,1.);
#946=CYLINDRICAL_SURFACE('',#1090,1.);
#947=CYLINDRICAL_SURFACE('',#1091,1.);
#948=CYLINDRICAL_SURFACE('',#1096,1.);
#949=CYLINDRICAL_SURFACE('',#1097,1.);
#950=CYLINDRICAL_SURFACE('',#1098,1.);
#951=CYLINDRICAL_SURFACE('',#1099,1.);
#952=CYLINDRICAL_SURFACE('',#1100,1.);
#953=CYLINDRICAL_SURFACE('',#1101,1.);
#954=CYLINDRICAL_SURFACE('',#1102,1.);
#955=CYLINDRICAL_SURFACE('',#1111,0.8115);
#956=CYLINDRICAL_SURFACE('',#1116,0.8115);
#957=CYLINDRICAL_SURFACE('',#1124,0.8115);
#958=CYLINDRICAL_SURFACE('',#1132,0.8115);
#959=ADVANCED_FACE('',(#100),#936,.T.);
#960=ADVANCED_FACE('',(#101),#937,.T.);
#961=ADVANCED_FACE('',(#102),#938,.T.);
#962=ADVANCED_FACE('',(#103),#939,.T.);
#963=ADVANCED_FACE('',(#104),#69,.T.);
#964=ADVANCED_FACE('',(#105),#70,.T.);
#965=ADVANCED_FACE('',(#106,#63),#71,.F.);
#966=ADVANCED_FACE('',(#107),#53,.T.);
#967=ADVANCED_FACE('',(#108),#54,.T.);
#968=ADVANCED_FACE('',(#109),#55,.T.);
#969=ADVANCED_FACE('',(#110),#56,.T.);
#970=ADVANCED_FACE('',(#111),#940,.T.);
#971=ADVANCED_FACE('',(#112),#941,.T.);
#972=ADVANCED_FACE('',(#113),#57,.T.);
#973=ADVANCED_FACE('',(#114),#942,.T.);
#974=ADVANCED_FACE('',(#115),#58,.T.);
#975=ADVANCED_FACE('',(#116),#59,.T.);
#976=ADVANCED_FACE('',(#117),#943,.T.);
#977=ADVANCED_FACE('',(#118),#944,.T.);
#978=ADVANCED_FACE('',(#119),#60,.T.);
#979=ADVANCED_FACE('',(#120),#945,.T.);
#980=ADVANCED_FACE('',(#121),#61,.T.);
#981=ADVANCED_FACE('',(#122),#946,.T.);
#982=ADVANCED_FACE('',(#123),#947,.T.);
#983=ADVANCED_FACE('',(#124),#62,.T.);
#984=ADVANCED_FACE('',(#125),#948,.T.);
#985=ADVANCED_FACE('',(#126),#949,.T.);
#986=ADVANCED_FACE('',(#127),#950,.T.);
#987=ADVANCED_FACE('',(#128),#951,.T.);
#988=ADVANCED_FACE('',(#129),#952,.T.);
#989=ADVANCED_FACE('',(#130),#953,.T.);
#990=ADVANCED_FACE('',(#131),#954,.T.);
#991=ADVANCED_FACE('',(#132),#72,.F.);
#992=ADVANCED_FACE('',(#133),#73,.F.);
#993=ADVANCED_FACE('',(#134,#64),#74,.T.);
#994=ADVANCED_FACE('',(#135),#75,.F.);
#995=ADVANCED_FACE('',(#136),#76,.F.);
#996=ADVANCED_FACE('',(#137),#77,.F.);
#997=ADVANCED_FACE('',(#138),#78,.F.);
#998=ADVANCED_FACE('',(#139),#79,.F.);
#999=ADVANCED_FACE('',(#140),#955,.F.);
#1000=ADVANCED_FACE('',(#141),#80,.T.);
#1001=ADVANCED_FACE('',(#142,#65),#81,.T.);
#1002=ADVANCED_FACE('',(#143),#956,.F.);
#1003=ADVANCED_FACE('',(#144),#82,.T.);
#1004=ADVANCED_FACE('',(#145),#83,.T.);
#1005=ADVANCED_FACE('',(#146,#66),#84,.T.);
#1006=ADVANCED_FACE('',(#147),#85,.T.);
#1007=ADVANCED_FACE('',(#148),#86,.T.);
#1008=ADVANCED_FACE('',(#149),#957,.F.);
#1009=ADVANCED_FACE('',(#150),#87,.T.);
#1010=ADVANCED_FACE('',(#151),#88,.T.);
#1011=ADVANCED_FACE('',(#152,#67),#89,.T.);
#1012=ADVANCED_FACE('',(#153),#90,.T.);
#1013=ADVANCED_FACE('',(#154),#91,.T.);
#1014=ADVANCED_FACE('',(#155),#958,.F.);
#1015=ADVANCED_FACE('',(#156),#92,.T.);
#1016=ADVANCED_FACE('',(#157),#93,.T.);
#1017=ADVANCED_FACE('',(#158,#68),#94,.T.);
#1018=ADVANCED_FACE('',(#159),#95,.T.);
#1019=ADVANCED_FACE('',(#160),#96,.T.);
#1020=ADVANCED_FACE('',(#161),#97,.T.);
#1021=ADVANCED_FACE('',(#162),#98,.T.);
#1022=ADVANCED_FACE('',(#163),#99,.T.);
#1023=CLOSED_SHELL('',(#959,#960,#961,#962,#963,#964,#965,#966,#967,#968,
#969,#970,#971,#972,#973,#974,#975,#976,#977,#978,#979,#980,#981,#982,#983,
#984,#985,#986,#987,#988,#989,#990,#991,#992,#993,#994,#995,#996,#997,#998,
#999,#1000,#1001,#1002,#1003,#1004,#1005,#1006,#1007,#1008,#1009,#1010,
#1011,#1012,#1013,#1014,#1015,#1016,#1017,#1018,#1019,#1020,#1021,#1022));
#1024=DERIVED_UNIT_ELEMENT(#1026,1.);
#1025=DERIVED_UNIT_ELEMENT(#1747,-3.);
#1026=(
MASS_UNIT()
NAMED_UNIT(*)
SI_UNIT(.KILO.,.GRAM.)
);
#1027=DERIVED_UNIT((#1024,#1025));
#1028=MEASURE_REPRESENTATION_ITEM('density measure',
POSITIVE_RATIO_MEASURE(7850.),#1027);
#1029=PROPERTY_DEFINITION_REPRESENTATION(#1034,#1031);
#1030=PROPERTY_DEFINITION_REPRESENTATION(#1035,#1032);
#1031=REPRESENTATION('material name',(#1033),#1744);
#1032=REPRESENTATION('density',(#1028),#1744);
#1033=DESCRIPTIVE_REPRESENTATION_ITEM('Steel','Steel');
#1034=PROPERTY_DEFINITION('material property','material name',#1754);
#1035=PROPERTY_DEFINITION('material property','density of part',#1754);
#1036=AXIS2_PLACEMENT_3D('',#1455,#1143,#1144);
#1037=AXIS2_PLACEMENT_3D('',#1456,#1145,#1146);
#1038=AXIS2_PLACEMENT_3D('',#1461,#1148,#1149);
#1039=AXIS2_PLACEMENT_3D('',#1464,#1151,#1152);
#1040=AXIS2_PLACEMENT_3D('',#1465,#1153,#1154);
#1041=AXIS2_PLACEMENT_3D('',#1470,#1156,#1157);
#1042=AXIS2_PLACEMENT_3D('',#1473,#1159,#1160);
#1043=AXIS2_PLACEMENT_3D('',#1474,#1161,#1162);
#1044=AXIS2_PLACEMENT_3D('',#1477,#1165,#1166);
#1045=AXIS2_PLACEMENT_3D('',#1480,#1169,#1170);
#1046=AXIS2_PLACEMENT_3D('',#1508,#1185,#1186);
#1047=AXIS2_PLACEMENT_3D('',#1516,#1191,#1192);
#1048=AXIS2_PLACEMENT_3D('',#1525,#1197,#1198);
#1049=AXIS2_PLACEMENT_3D('',#1527,#1199,#1200);
#1050=AXIS2_PLACEMENT_3D('',#1529,#1201,#1202);
#1051=AXIS2_PLACEMENT_3D('',#1530,#1203,#1204);
#1052=AXIS2_PLACEMENT_3D('',#1531,#1205,#1206);
#1053=AXIS2_PLACEMENT_3D('',#1534,#1207,#1208);
#1054=AXIS2_PLACEMENT_3D('',#1536,#1209,#1210);
#1055=AXIS2_PLACEMENT_3D('',#1537,#1211,#1212);
#1056=AXIS2_PLACEMENT_3D('',#1538,#1213,#1214);
#1057=AXIS2_PLACEMENT_3D('',#1540,#1215,#1216);
#1058=AXIS2_PLACEMENT_3D('',#1542,#1217,#1218);
#1059=AXIS2_PLACEMENT_3D('',#1543,#1219,#1220);
#1060=AXIS2_PLACEMENT_3D('',#1544,#1221,#1222);
#1061=AXIS2_PLACEMENT_3D('',#1547,#1223,#1224);
#1062=AXIS2_PLACEMENT_3D('',#1549,#1225,#1226);
#1063=AXIS2_PLACEMENT_3D('',#1550,#1227,#1228);
#1064=AXIS2_PLACEMENT_3D('',#1551,#1229,#1230);
#1065=AXIS2_PLACEMENT_3D('',#1554,#1233,#1234);
#1066=AXIS2_PLACEMENT_3D('',#1557,#1237,#1238);
#1067=AXIS2_PLACEMENT_3D('',#1559,#1239,#1240);
#1068=AXIS2_PLACEMENT_3D('',#1561,#1241,#1242);
#1069=AXIS2_PLACEMENT_3D('',#1562,#1243,#1244);
#1070=AXIS2_PLACEMENT_3D('',#1563,#1245,#1246);
#1071=AXIS2_PLACEMENT_3D('',#1565,#1248,#1249);
#1072=AXIS2_PLACEMENT_3D('',#1568,#1250,#1251);
#1073=AXIS2_PLACEMENT_3D('',#1570,#1252,#1253);
#1074=AXIS2_PLACEMENT_3D('',#1571,#1254,#1255);
#1075=AXIS2_PLACEMENT_3D('',#1572,#1256,#1257);
#1076=AXIS2_PLACEMENT_3D('',#1575,#1258,#1259);
#1077=AXIS2_PLACEMENT_3D('',#1576,#1260,#1261);
#1078=AXIS2_PLACEMENT_3D('',#1577,#1262,#1263);
#1079=AXIS2_PLACEMENT_3D('',#1578,#1264,#1265);
#1080=AXIS2_PLACEMENT_3D('',#1580,#1267,#1268);
#1081=AXIS2_PLACEMENT_3D('',#1582,#1270,#1271);
#1082=AXIS2_PLACEMENT_3D('',#1585,#1272,#1273);
#1083=AXIS2_PLACEMENT_3D('',#1587,#1274,#1275);
#1084=AXIS2_PLACEMENT_3D('',#1588,#1276,#1277);
#1085=AXIS2_PLACEMENT_3D('',#1589,#1278,#1279);
#1086=AXIS2_PLACEMENT_3D('',#1592,#1282,#1283);
#1087=AXIS2_PLACEMENT_3D('',#1595,#1284,#1285);
#1088=AXIS2_PLACEMENT_3D('',#1597,#1286,#1287);
#1089=AXIS2_PLACEMENT_3D('',#1598,#1288,#1289);
#1090=AXIS2_PLACEMENT_3D('',#1599,#1290,#1291);
#1091=AXIS2_PLACEMENT_3D('',#1602,#1294,#1295);
#1092=AXIS2_PLACEMENT_3D('',#1605,#1298,#1299);
#1093=AXIS2_PLACEMENT_3D('',#1608,#1300,#1301);
#1094=AXIS2_PLACEMENT_3D('',#1610,#1302,#1303);
#1095=AXIS2_PLACEMENT_3D('',#1611,#1304,#1305);
#1096=AXIS2_PLACEMENT_3D('',#1612,#1306,#1307);
#1097=AXIS2_PLACEMENT_3D('',#1615,#1310,#1311);
#1098=AXIS2_PLACEMENT_3D('',#1618,#1314,#1315);
#1099=AXIS2_PLACEMENT_3D('',#1621,#1318,#1319);
#1100=AXIS2_PLACEMENT_3D('',#1624,#1322,#1323);
#1101=AXIS2_PLACEMENT_3D('',#1627,#1326,#1327);
#1102=AXIS2_PLACEMENT_3D('',#1629,#1329,#1330);
#1103=AXIS2_PLACEMENT_3D('',#1632,#1333,#1334);
#1104=AXIS2_PLACEMENT_3D('',#1633,#1335,#1336);
#1105=AXIS2_PLACEMENT_3D('',#1634,#1337,#1338);
#1106=AXIS2_PLACEMENT_3D('',#1645,#1344,#1345);
#1107=AXIS2_PLACEMENT_3D('',#1646,#1346,#1347);
#1108=AXIS2_PLACEMENT_3D('',#1647,#1348,#1349);
#1109=AXIS2_PLACEMENT_3D('',#1648,#1350,#1351);
#1110=AXIS2_PLACEMENT_3D('',#1652,#1354,#1355);
#1111=AXIS2_PLACEMENT_3D('',#1654,#1357,#1358);
#1112=AXIS2_PLACEMENT_3D('',#1656,#1359,#1360);
#1113=AXIS2_PLACEMENT_3D('',#1659,#1362,#1363);
#1114=AXIS2_PLACEMENT_3D('',#1660,#1364,#1365);
#1115=AXIS2_PLACEMENT_3D('',#1664,#1368,#1369);
#1116=AXIS2_PLACEMENT_3D('',#1668,#1372,#1373);
#1117=AXIS2_PLACEMENT_3D('',#1670,#1374,#1375);
#1118=AXIS2_PLACEMENT_3D('',#1673,#1377,#1378);
#1119=AXIS2_PLACEMENT_3D('',#1674,#1379,#1380);
#1120=AXIS2_PLACEMENT_3D('',#1680,#1384,#1385);
#1121=AXIS2_PLACEMENT_3D('',#1684,#1388,#1389);
#1122=AXIS2_PLACEMENT_3D('',#1688,#1392,#1393);
#1123=AXIS2_PLACEMENT_3D('',#1691,#1396,#1397);
#1124=AXIS2_PLACEMENT_3D('',#1692,#1398,#1399);
#1125=AXIS2_PLACEMENT_3D('',#1694,#1400,#1401);
#1126=AXIS2_PLACEMENT_3D('',#1697,#1403,#1404);
#1127=AXIS2_PLACEMENT_3D('',#1698,#1405,#1406);
#1128=AXIS2_PLACEMENT_3D('',#1704,#1410,#1411);
#1129=AXIS2_PLACEMENT_3D('',#1708,#1414,#1415);
#1130=AXIS2_PLACEMENT_3D('',#1712,#1418,#1419);
#1131=AXIS2_PLACEMENT_3D('',#1715,#1422,#1423);
#1132=AXIS2_PLACEMENT_3D('',#1716,#1424,#1425);
#1133=AXIS2_PLACEMENT_3D('',#1718,#1426,#1427);
#1134=AXIS2_PLACEMENT_3D('',#1721,#1429,#1430);
#1135=AXIS2_PLACEMENT_3D('',#1722,#1431,#1432);
#1136=AXIS2_PLACEMENT_3D('',#1728,#1436,#1437);
#1137=AXIS2_PLACEMENT_3D('',#1732,#1440,#1441);
#1138=AXIS2_PLACEMENT_3D('',#1736,#1444,#1445);
#1139=AXIS2_PLACEMENT_3D('',#1738,#1447,#1448);
#1140=AXIS2_PLACEMENT_3D('',#1739,#1449,#1450);
#1141=AXIS2_PLACEMENT_3D('',#1740,#1451,#1452);
#1142=AXIS2_PLACEMENT_3D('',#1741,#1453,#1454);
#1143=DIRECTION('axis',(0.,0.,1.));
#1144=DIRECTION('refdir',(1.,0.,0.));
#1145=DIRECTION('center_axis',(0.,0.,1.));
#1146=DIRECTION('ref_axis',(-0.707106781186549,-0.707106781186546,0.));
#1147=DIRECTION('',(0.,0.,-1.));
#1148=DIRECTION('center_axis',(0.,0.707106781186547,0.707106781186548));
#1149=DIRECTION('ref_axis',(0.,0.707106781186548,-0.707106781186547));
#1150=DIRECTION('',(0.,0.,1.));
#1151=DIRECTION('center_axis',(0.,-0.707106781186548,0.707106781186548));
#1152=DIRECTION('ref_axis',(0.,0.707106781186548,0.707106781186548));
#1153=DIRECTION('center_axis',(0.,0.,-1.));
#1154=DIRECTION('ref_axis',(-0.707106781186547,0.707106781186548,0.));
#1155=DIRECTION('',(0.,0.,1.));
#1156=DIRECTION('center_axis',(0.,-0.707106781186547,-0.707106781186548));
#1157=DIRECTION('ref_axis',(0.,-0.707106781186548,0.707106781186547));
#1158=DIRECTION('',(0.,0.,-1.));
#1159=DIRECTION('center_axis',(3.14018491736755E-15,-0.707106781186547,
0.707106781186548));
#1160=DIRECTION('ref_axis',(-3.14018491736755E-15,0.707106781186548,0.707106781186547));
#1161=DIRECTION('center_axis',(0.,-1.,0.));
#1162=DIRECTION('ref_axis',(-0.707106781186547,0.,-0.707106781186548));
#1163=DIRECTION('',(0.,-1.,0.));
#1164=DIRECTION('',(0.,1.,0.));
#1165=DIRECTION('center_axis',(0.,1.,0.));
#1166=DIRECTION('ref_axis',(-0.707106781186548,0.,0.707106781186547));
#1167=DIRECTION('',(0.,-1.,0.));
#1168=DIRECTION('',(0.,1.,0.));
#1169=DIRECTION('center_axis',(0.,0.,1.));
#1170=DIRECTION('ref_axis',(0.,1.,0.));
#1171=DIRECTION('',(1.,0.,0.));
#1172=DIRECTION('',(0.,-1.,0.));
#1173=DIRECTION('',(-1.,0.,0.));
#1174=DIRECTION('',(1.77635683940068E-15,1.,0.));
#1175=DIRECTION('',(1.,3.24185123190546E-14,0.));
#1176=DIRECTION('',(0.,-1.,0.));
#1177=DIRECTION('',(-1.,-3.19744231092048E-14,0.));
#1178=DIRECTION('',(0.,1.,0.));
#1179=DIRECTION('',(1.,0.,0.));
#1180=DIRECTION('',(-0.707106781186547,-0.707106781186548,0.));
#1181=DIRECTION('',(0.,-1.,0.));
#1182=DIRECTION('',(-1.,0.,0.));
#1183=DIRECTION('',(0.,-1.,0.));
#1184=DIRECTION('',(1.,0.,0.));
#1185=DIRECTION('center_axis',(0.,1.,0.));
#1186=DIRECTION('ref_axis',(-1.,0.,0.));
#1187=DIRECTION('',(1.,0.,0.));
#1188=DIRECTION('',(0.,0.,-1.));
#1189=DIRECTION('',(-1.,0.,0.));
#1190=DIRECTION('',(0.,0.,1.));
#1191=DIRECTION('center_axis',(1.,0.,0.));
#1192=DIRECTION('ref_axis',(0.,0.,-1.));
#1193=DIRECTION('',(0.,-1.,0.));
#1194=DIRECTION('',(0.,0.,1.));
#1195=DIRECTION('',(0.,1.,0.));
#1196=DIRECTION('',(0.,0.,-1.));
#1197=DIRECTION('center_axis',(0.439732612032306,-0.182143211721524,-0.87946522406461));
#1198=DIRECTION('ref_axis',(-0.812519920068746,0.336556770590775,-0.475963149477969));
#1199=DIRECTION('center_axis',(0.,0.,-1.));
#1200=DIRECTION('ref_axis',(-0.707106781186546,0.707106781186549,0.));
#1201=DIRECTION('center_axis',(-0.707106781186548,-0.707106781186547,0.));
#1202=DIRECTION('ref_axis',(0.,0.,-1.));
#1203=DIRECTION('center_axis',(0.,1.,0.));
#1204=DIRECTION('ref_axis',(-1.,0.,0.));
#1205=DIRECTION('center_axis',(-0.941663177664671,-0.290400099340374,0.170112439679098));
#1206=DIRECTION('ref_axis',(-0.336556770590754,0.812519920068753,-0.475963149477971));
#1207=DIRECTION('center_axis',(0.,0.,-1.));
#1208=DIRECTION('ref_axis',(0.,1.,0.));
#1209=DIRECTION('center_axis',(-1.,2.66453525910038E-14,0.));
#1210=DIRECTION('ref_axis',(0.,0.,-1.));
#1211=DIRECTION('center_axis',(0.70710678118655,0.707106781186545,-2.82616642563079E-14));
#1212=DIRECTION('ref_axis',(-0.707106781186545,0.70710678118655,0.));
#1213=DIRECTION('center_axis',(-0.439732612032304,0.182143211721525,-0.87946522406461));
#1214=DIRECTION('ref_axis',(-0.812519920068746,0.336556770590776,0.475963149477968));
#1215=DIRECTION('center_axis',(0.,0.,1.));
#1216=DIRECTION('ref_axis',(-1.,0.,0.));
#1217=DIRECTION('center_axis',(0.,1.,0.));
#1218=DIRECTION('ref_axis',(0.,0.,1.));
#1219=DIRECTION('center_axis',(-0.707106781186549,-0.707106781186546,2.35513868802568E-15));
#1220=DIRECTION('ref_axis',(-0.707106781186546,0.707106781186549,0.));
#1221=DIRECTION('center_axis',(-0.941663177664654,-0.290400099340416,-0.170112439679123));
#1222=DIRECTION('ref_axis',(-0.336556770590793,0.812519920068738,0.47596314947797));
#1223=DIRECTION('center_axis',(-1.,0.,-2.66453525910039E-14));
#1224=DIRECTION('ref_axis',(0.,1.,0.));
#1225=DIRECTION('center_axis',(0.,0.,1.));
#1226=DIRECTION('ref_axis',(-0.707106781186548,0.707106781186548,0.));
#1227=DIRECTION('center_axis',(0.70710678118657,0.707106781186525,0.));
#1228=DIRECTION('ref_axis',(0.,0.,1.));
#1229=DIRECTION('center_axis',(0.,0.,1.));
#1230=DIRECTION('ref_axis',(-0.382683432365094,0.923879532511285,0.));
#1231=DIRECTION('',(0.,0.,-1.));
#1232=DIRECTION('',(0.,0.,1.));
#1233=DIRECTION('center_axis',(-0.707106781186547,-0.707106781186548,0.));
#1234=DIRECTION('ref_axis',(-0.5,0.5,0.707106781186547));
#1235=DIRECTION('',(0.707106781186547,0.707106781186548,0.));
#1236=DIRECTION('',(-0.707106781186547,-0.707106781186548,0.));
#1237=DIRECTION('center_axis',(0.408248290463861,-0.816496580927729,0.408248290463861));
#1238=DIRECTION('ref_axis',(-0.577350269189628,-0.577350269189622,-0.577350269189628));
#1239=DIRECTION('center_axis',(0.,0.,-1.));
#1240=DIRECTION('ref_axis',(-1.,0.,0.));
#1241=DIRECTION('center_axis',(0.,-1.,0.));
#1242=DIRECTION('ref_axis',(0.,0.,-1.));
#1243=DIRECTION('center_axis',(-1.,0.,0.));
#1244=DIRECTION('ref_axis',(0.,-1.,0.));
#1245=DIRECTION('center_axis',(0.,1.,0.));
#1246=DIRECTION('ref_axis',(-0.707106781186548,0.,-0.707106781186548));
#1247=DIRECTION('',(0.,-1.,0.));
#1248=DIRECTION('center_axis',(0.408248290463863,-0.816496580927725,-0.408248290463865));
#1249=DIRECTION('ref_axis',(0.577350269189625,0.577350269189625,-0.577350269189628));
#1250=DIRECTION('center_axis',(1.,0.,0.));
#1251=DIRECTION('ref_axis',(0.,1.,0.));
#1252=DIRECTION('center_axis',(0.,0.,-1.));
#1253=DIRECTION('ref_axis',(1.,0.,0.));
#1254=DIRECTION('center_axis',(0.,1.,0.));
#1255=DIRECTION('ref_axis',(0.,0.,-1.));
#1256=DIRECTION('center_axis',(-0.408248290463864,-0.408248290463862,-0.816496580927726));
#1257=DIRECTION('ref_axis',(-0.577350269189627,-0.577350269189625,0.577350269189625));
#1258=DIRECTION('center_axis',(-1.,0.,0.));
#1259=DIRECTION('ref_axis',(0.,0.,1.));
#1260=DIRECTION('center_axis',(0.,-1.,0.));
#1261=DIRECTION('ref_axis',(-1.,0.,0.));
#1262=DIRECTION('center_axis',(0.,0.,1.));
#1263=DIRECTION('ref_axis',(0.,-1.,0.));
#1264=DIRECTION('center_axis',(0.,-1.,0.));
#1265=DIRECTION('ref_axis',(-0.707106781186549,0.,0.707106781186546));
#1266=DIRECTION('',(0.,1.,0.));
#1267=DIRECTION('center_axis',(0.,0.,-1.));
#1268=DIRECTION('ref_axis',(-0.707106781186549,-0.707106781186546,0.));
#1269=DIRECTION('',(0.,0.,1.));
#1270=DIRECTION('center_axis',(0.408248290463862,-0.816496580927725,0.408248290463866));
#1271=DIRECTION('ref_axis',(0.577350269189626,0.577350269189626,0.577350269189626));
#1272=DIRECTION('center_axis',(0.,0.,1.));
#1273=DIRECTION('ref_axis',(0.,1.,0.));
#1274=DIRECTION('center_axis',(1.,0.,0.));
#1275=DIRECTION('ref_axis',(0.,0.,1.));
#1276=DIRECTION('center_axis',(0.,1.,0.));
#1277=DIRECTION('ref_axis',(1.,0.,0.));
#1278=DIRECTION('center_axis',(-1.,0.,0.));
#1279=DIRECTION('ref_axis',(0.,0.707106781186541,0.707106781186554));
#1280=DIRECTION('',(1.,0.,0.));
#1281=DIRECTION('',(-1.,0.,0.));
#1282=DIRECTION('center_axis',(-0.816496580927727,-0.408248290463863,-0.408248290463861));
#1283=DIRECTION('ref_axis',(0.577350269189623,-0.577350269189629,-0.577350269189626));
#1284=DIRECTION('center_axis',(0.,0.,-1.));
#1285=DIRECTION('ref_axis',(0.,-1.,0.));
#1286=DIRECTION('center_axis',(1.,0.,0.));
#1287=DIRECTION('ref_axis',(0.,0.,-1.));
#1288=DIRECTION('center_axis',(0.,-1.,0.));
#1289=DIRECTION('ref_axis',(1.,0.,0.));
#1290=DIRECTION('center_axis',(-1.,0.,0.));
#1291=DIRECTION('ref_axis',(0.,-0.707106781186548,-0.707106781186548));
#1292=DIRECTION('',(1.,0.,0.));
#1293=DIRECTION('',(-1.,0.,0.));
#1294=DIRECTION('center_axis',(0.,-1.,0.));
#1295=DIRECTION('ref_axis',(0.707106781186546,0.,-0.707106781186549));
#1296=DIRECTION('',(0.,1.,0.));
#1297=DIRECTION('',(0.,-1.,0.));
#1298=DIRECTION('center_axis',(-0.816496580927727,-0.408248290463864,0.40824829046386));
#1299=DIRECTION('ref_axis',(0.577350269189622,-0.577350269189629,0.577350269189626));
#1300=DIRECTION('center_axis',(0.,-1.,0.));
#1301=DIRECTION('ref_axis',(0.,0.,1.));
#1302=DIRECTION('center_axis',(1.,0.,0.));
#1303=DIRECTION('ref_axis',(0.,-1.,0.));
#1304=DIRECTION('center_axis',(0.,0.,1.));
#1305=DIRECTION('ref_axis',(1.,0.,0.));
#1306=DIRECTION('center_axis',(1.,0.,0.));
#1307=DIRECTION('ref_axis',(0.,-0.707106781186549,0.707106781186546));
#1308=DIRECTION('',(-1.,0.,0.));
#1309=DIRECTION('',(1.,0.,0.));
#1310=DIRECTION('center_axis',(0.,0.,-1.));
#1311=DIRECTION('ref_axis',(0.707106781186546,-0.707106781186549,0.));
#1312=DIRECTION('',(0.,0.,1.));
#1313=DIRECTION('',(0.,0.,-1.));
#1314=DIRECTION('center_axis',(0.,1.,0.));
#1315=DIRECTION('ref_axis',(0.707106781186548,0.,0.707106781186548));
#1316=DIRECTION('',(0.,-1.,0.));
#1317=DIRECTION('',(0.,1.,0.));
#1318=DIRECTION('center_axis',(0.,0.,-1.));
#1319=DIRECTION('ref_axis',(0.707106781186554,0.707106781186541,0.));
#1320=DIRECTION('',(0.,0.,1.));
#1321=DIRECTION('',(0.,0.,-1.));
#1322=DIRECTION('center_axis',(1.,0.,0.));
#1323=DIRECTION('ref_axis',(0.,0.70710678118654,-0.707106781186555));
#1324=DIRECTION('',(-1.,0.,0.));
#1325=DIRECTION('',(1.,0.,0.));
#1326=DIRECTION('center_axis',(0.,0.,-1.));
#1327=DIRECTION('ref_axis',(-0.923879532511287,0.38268343236509,0.));
#1328=DIRECTION('',(0.,0.,-1.));
#1329=DIRECTION('center_axis',(0.707106781186547,0.707106781186548,0.));
#1330=DIRECTION('ref_axis',(-0.499999999999999,0.499999999999999,-0.707106781186549));
#1331=DIRECTION('',(-0.707106781186547,-0.707106781186548,0.));
#1332=DIRECTION('',(0.707106781186547,0.707106781186548,0.));
#1333=DIRECTION('center_axis',(0.707106781186548,-0.707106781186547,0.));
#1334=DIRECTION('ref_axis',(-0.707106781186547,-0.707106781186548,0.));
#1335=DIRECTION('center_axis',(0.,-1.,0.));
#1336=DIRECTION('ref_axis',(0.,0.,1.));
#1337=DIRECTION('center_axis',(0.,0.,1.));
#1338=DIRECTION('ref_axis',(0.,1.,0.));
#1339=DIRECTION('',(0.,-1.,0.));
#1340=DIRECTION('',(-1.,0.,0.));
#1341=DIRECTION('',(0.,1.,0.));
#1342=DIRECTION('',(0.707106781186547,0.707106781186548,0.));
#1343=DIRECTION('',(1.,0.,0.));
#1344=DIRECTION('center_axis',(0.,0.,1.));
#1345=DIRECTION('ref_axis',(0.,1.,0.));
#1346=DIRECTION('center_axis',(0.,1.,0.));
#1347=DIRECTION('ref_axis',(0.,0.,-1.));
#1348=DIRECTION('center_axis',(-1.,0.,0.));
#1349=DIRECTION('ref_axis',(0.,0.,1.));
#1350=DIRECTION('center_axis',(0.,0.,1.));
#1351=DIRECTION('ref_axis',(0.,-1.,0.));
#1352=DIRECTION('',(1.,0.,0.));
#1353=DIRECTION('',(0.,1.,0.));
#1354=DIRECTION('center_axis',(0.,1.,0.));
#1355=DIRECTION('ref_axis',(0.,0.,1.));
#1356=DIRECTION('',(0.,0.,-1.));
#1357=DIRECTION('center_axis',(0.,0.,1.));
#1358=DIRECTION('ref_axis',(-1.,0.,0.));
#1359=DIRECTION('center_axis',(0.,0.,1.));
#1360=DIRECTION('ref_axis',(-1.,0.,0.));
#1361=DIRECTION('',(0.,0.,-1.));
#1362=DIRECTION('center_axis',(0.,0.,1.));
#1363=DIRECTION('ref_axis',(-1.,0.,0.));
#1364=DIRECTION('center_axis',(1.,0.,0.));
#1365=DIRECTION('ref_axis',(0.,1.,0.));
#1366=DIRECTION('',(0.,1.,0.));
#1367=DIRECTION('',(0.,0.,1.));
#1368=DIRECTION('center_axis',(0.,0.,1.));
#1369=DIRECTION('ref_axis',(-1.,0.,0.));
#1370=DIRECTION('',(0.,1.,0.));
#1371=DIRECTION('',(-1.,0.,0.));
#1372=DIRECTION('center_axis',(0.,0.,1.));
#1373=DIRECTION('ref_axis',(-1.,0.,0.));
#1374=DIRECTION('center_axis',(0.,0.,1.));
#1375=DIRECTION('ref_axis',(-1.,0.,0.));
#1376=DIRECTION('',(0.,0.,-1.));
#1377=DIRECTION('center_axis',(0.,0.,1.));
#1378=DIRECTION('ref_axis',(-1.,0.,0.));
#1379=DIRECTION('center_axis',(1.,0.,0.));
#1380=DIRECTION('ref_axis',(0.,1.,0.));
#1381=DIRECTION('',(0.,0.,-1.));
#1382=DIRECTION('',(0.,1.,0.));
#1383=DIRECTION('',(0.,0.,1.));
#1384=DIRECTION('center_axis',(0.,-1.,0.));
#1385=DIRECTION('ref_axis',(1.,0.,0.));
#1386=DIRECTION('',(1.,0.,0.));
#1387=DIRECTION('',(0.,0.,1.));
#1388=DIRECTION('center_axis',(0.,0.,1.));
#1389=DIRECTION('ref_axis',(-1.,0.,0.));
#1390=DIRECTION('',(0.,1.,0.));
#1391=DIRECTION('',(0.707106781186547,0.707106781186548,0.));
#1392=DIRECTION('center_axis',(0.707106781186548,-0.707106781186547,0.));
#1393=DIRECTION('ref_axis',(-0.707106781186547,-0.707106781186548,0.));
#1394=DIRECTION('',(0.,0.,-1.));
#1395=DIRECTION('',(0.,0.,1.));
#1396=DIRECTION('center_axis',(0.,0.,1.));
#1397=DIRECTION('ref_axis',(0.,1.,0.));
#1398=DIRECTION('center_axis',(0.,0.,1.));
#1399=DIRECTION('ref_axis',(-1.,0.,0.));
#1400=DIRECTION('center_axis',(0.,0.,1.));
#1401=DIRECTION('ref_axis',(-1.,0.,0.));
#1402=DIRECTION('',(0.,0.,-1.));
#1403=DIRECTION('center_axis',(0.,0.,1.));
#1404=DIRECTION('ref_axis',(-1.,0.,0.));
#1405=DIRECTION('center_axis',(-1.,1.77635683940068E-15,0.));
#1406=DIRECTION('ref_axis',(-1.77635683940068E-15,-1.,0.));
#1407=DIRECTION('',(0.,0.,-1.));
#1408=DIRECTION('',(-1.77635683940068E-15,-1.,0.));
#1409=DIRECTION('',(0.,0.,1.));
#1410=DIRECTION('center_axis',(-3.24185123190546E-14,1.,0.));
#1411=DIRECTION('ref_axis',(-1.,-3.24185123190546E-14,0.));
#1412=DIRECTION('',(-1.,-3.24185123190546E-14,0.));
#1413=DIRECTION('',(0.,0.,1.));
#1414=DIRECTION('center_axis',(0.,0.,1.));
#1415=DIRECTION('ref_axis',(-1.,0.,0.));
#1416=DIRECTION('',(-1.,0.,0.));
#1417=DIRECTION('',(0.,-1.,0.));
#1418=DIRECTION('center_axis',(0.,1.,0.));
#1419=DIRECTION('ref_axis',(0.,0.,-1.));
#1420=DIRECTION('',(0.,0.,1.));
#1421=DIRECTION('',(0.,0.,-1.));
#1422=DIRECTION('center_axis',(0.,0.,1.));
#1423=DIRECTION('ref_axis',(0.,1.,0.));
#1424=DIRECTION('center_axis',(0.,0.,1.));
#1425=DIRECTION('ref_axis',(-1.,0.,0.));
#1426=DIRECTION('center_axis',(0.,0.,1.));
#1427=DIRECTION('ref_axis',(-1.,0.,0.));
#1428=DIRECTION('',(0.,0.,-1.));
#1429=DIRECTION('center_axis',(0.,0.,1.));
#1430=DIRECTION('ref_axis',(-1.,0.,0.));
#1431=DIRECTION('center_axis',(3.19744231092048E-14,-1.,0.));
#1432=DIRECTION('ref_axis',(1.,3.19744231092048E-14,0.));
#1433=DIRECTION('',(0.,0.,-1.));
#1434=DIRECTION('',(1.,3.19744231092048E-14,0.));
#1435=DIRECTION('',(0.,0.,1.));
#1436=DIRECTION('center_axis',(-1.,0.,0.));
#1437=DIRECTION('ref_axis',(0.,-1.,0.));
#1438=DIRECTION('',(0.,-1.,0.));
#1439=DIRECTION('',(0.,0.,1.));
#1440=DIRECTION('center_axis',(0.,0.,1.));
#1441=DIRECTION('ref_axis',(-1.,0.,0.));
#1442=DIRECTION('',(0.,-1.,0.));
#1443=DIRECTION('',(1.,0.,0.));
#1444=DIRECTION('center_axis',(-1.,0.,0.));
#1445=DIRECTION('ref_axis',(0.,0.,1.));
#1446=DIRECTION('',(0.,0.,1.));
#1447=DIRECTION('center_axis',(0.,0.,1.));
#1448=DIRECTION('ref_axis',(0.,1.,0.));
#1449=DIRECTION('center_axis',(1.,0.,0.));
#1450=DIRECTION('ref_axis',(0.,0.,-1.));
#1451=DIRECTION('center_axis',(0.,0.,1.));
#1452=DIRECTION('ref_axis',(0.,1.,0.));
#1453=DIRECTION('center_axis',(0.,-1.,0.));
#1454=DIRECTION('ref_axis',(0.,0.,1.));
#1455=CARTESIAN_POINT('',(0.,0.,0.));
#1456=CARTESIAN_POINT('Origin',(1.,27.,9.305));
#1457=CARTESIAN_POINT('',(0.,27.,16.));
#1458=CARTESIAN_POINT('',(0.,27.,2.));
#1459=CARTESIAN_POINT('',(0.,27.,9.305));
#1460=CARTESIAN_POINT('',(1.,26.,3.));
#1461=CARTESIAN_POINT('Origin',(1.,27.,2.));
#1462=CARTESIAN_POINT('',(1.,26.,15.));
#1463=CARTESIAN_POINT('',(1.,26.,9.305));
#1464=CARTESIAN_POINT('Origin',(1.,27.,16.));
#1465=CARTESIAN_POINT('Origin',(1.,7.,9.305));
#1466=CARTESIAN_POINT('',(0.,7.,2.));
#1467=CARTESIAN_POINT('',(0.,7.,16.));
#1468=CARTESIAN_POINT('',(0.,7.,9.305));
#1469=CARTESIAN_POINT('',(1.,8.,15.));
#1470=CARTESIAN_POINT('Origin',(1.,7.,16.));
#1471=CARTESIAN_POINT('',(1.,8.,3.));
#1472=CARTESIAN_POINT('',(1.,8.,9.305));
#1473=CARTESIAN_POINT('Origin',(1.,7.,2.));
#1474=CARTESIAN_POINT('Origin',(1.,38.,16.));
#1475=CARTESIAN_POINT('',(1.,38.,15.));
#1476=CARTESIAN_POINT('',(0.,38.,16.));
#1477=CARTESIAN_POINT('Origin',(1.,50.,2.));
#1478=CARTESIAN_POINT('',(0.,50.,2.));
#1479=CARTESIAN_POINT('',(1.,50.,3.));
#1480=CARTESIAN_POINT('Origin',(25.,50.,3.));
#1481=CARTESIAN_POINT('',(8.,8.,3.));
#1482=CARTESIAN_POINT('',(16.5,8.,3.));
#1483=CARTESIAN_POINT('',(8.,3.,3.));
#1484=CARTESIAN_POINT('',(8.,26.5,3.));
#1485=CARTESIAN_POINT('',(42.,3.,3.));
#1486=CARTESIAN_POINT('',(25.,3.,3.));
#1487=CARTESIAN_POINT('',(42.,7.99999999999878,3.));
#1488=CARTESIAN_POINT('',(42.,28.9999999999994,3.));
#1489=CARTESIAN_POINT('',(47.,7.99999999999894,3.));
#1490=CARTESIAN_POINT('',(36.0000000000007,7.99999999999859,3.));
#1491=CARTESIAN_POINT('',(47.,91.999999999999,3.));
#1492=CARTESIAN_POINT('',(47.,50.,3.));
#1493=CARTESIAN_POINT('',(42.0000000000001,91.9999999999988,3.));
#1494=CARTESIAN_POINT('',(33.4999999999994,91.9999999999985,3.));
#1495=CARTESIAN_POINT('',(42.0000000000001,97.,3.));
#1496=CARTESIAN_POINT('',(42.0000000000001,73.5,3.));
#1497=CARTESIAN_POINT('',(21.2426406871193,97.,3.));
#1498=CARTESIAN_POINT('',(25.,97.,3.));
#1499=CARTESIAN_POINT('',(8.00000000000004,83.7573593128808,3.));
#1500=CARTESIAN_POINT('',(10.8713203435596,86.6286796564404,3.));
#1501=CARTESIAN_POINT('',(8.00000000000004,74.,3.));
#1502=CARTESIAN_POINT('',(8.00000000000004,62.,3.));
#1503=CARTESIAN_POINT('',(3.,74.,3.));
#1504=CARTESIAN_POINT('',(14.,74.,3.));
#1505=CARTESIAN_POINT('',(3.,26.,3.));
#1506=CARTESIAN_POINT('',(3.,50.,3.));
#1507=CARTESIAN_POINT('',(0.,26.,3.));
#1508=CARTESIAN_POINT('Origin',(8.,8.,3.));
#1509=CARTESIAN_POINT('',(3.,8.,15.));
#1510=CARTESIAN_POINT('',(0.,8.,15.));
#1511=CARTESIAN_POINT('',(3.,8.,25.97));
#1512=CARTESIAN_POINT('',(3.,8.,9.305));
#1513=CARTESIAN_POINT('',(8.,8.,25.97));
#1514=CARTESIAN_POINT('',(8.,8.,25.97));
#1515=CARTESIAN_POINT('',(8.,8.,3.));
#1516=CARTESIAN_POINT('Origin',(0.,50.,15.61));
#1517=CARTESIAN_POINT('',(0.,79.5857864376269,30.22));
#1518=CARTESIAN_POINT('',(0.,0.999999999999996,30.22));
#1519=CARTESIAN_POINT('',(0.,50.,30.22));
#1520=CARTESIAN_POINT('',(0.,79.5857864376269,1.));
#1521=CARTESIAN_POINT('',(0.,79.5857864376269,23.415));
#1522=CARTESIAN_POINT('',(0.,0.999999999999996,1.));
#1523=CARTESIAN_POINT('',(0.,50.,1.));
#1524=CARTESIAN_POINT('',(0.,0.999999999999996,15.61));
#1525=CARTESIAN_POINT('Origin',(1.,79.5857864376269,1.));
#1526=CARTESIAN_POINT('',(0.292893218813456,80.2928932188134,1.));
#1527=CARTESIAN_POINT('Origin',(1.,79.5857864376269,1.));
#1528=CARTESIAN_POINT('',(1.,79.5857864376269,0.));
#1529=CARTESIAN_POINT('Origin',(1.,79.5857864376269,1.));
#1530=CARTESIAN_POINT('Origin',(1.,79.5857864376269,1.));
#1531=CARTESIAN_POINT('Origin',(20.4142135623731,99.,1.));
#1532=CARTESIAN_POINT('',(20.4142135623731,100.,1.));
#1533=CARTESIAN_POINT('',(19.7071067811866,99.7071067811866,1.));
#1534=CARTESIAN_POINT('Origin',(20.4142135623731,99.,1.));
#1535=CARTESIAN_POINT('',(20.4142135623731,99.,0.));
#1536=CARTESIAN_POINT('Origin',(20.4142135623731,99.,1.));
#1537=CARTESIAN_POINT('Origin',(20.4142135623731,99.,1.));
#1538=CARTESIAN_POINT('Origin',(1.,79.5857864376269,30.22));
#1539=CARTESIAN_POINT('',(0.292893218813457,80.2928932188134,30.22));
#1540=CARTESIAN_POINT('Origin',(1.,79.5857864376269,30.22));
#1541=CARTESIAN_POINT('',(1.,79.5857864376269,31.22));
#1542=CARTESIAN_POINT('Origin',(1.,79.5857864376269,30.22));
#1543=CARTESIAN_POINT('Origin',(0.999999999999998,79.5857864376269,30.22));
#1544=CARTESIAN_POINT('Origin',(20.4142135623731,99.,30.22));
#1545=CARTESIAN_POINT('',(20.4142135623731,100.,30.22));
#1546=CARTESIAN_POINT('',(20.4142135623731,99.,31.22));
#1547=CARTESIAN_POINT('Origin',(20.4142135623731,99.,30.22));
#1548=CARTESIAN_POINT('',(19.7071067811866,99.7071067811866,30.22));
#1549=CARTESIAN_POINT('Origin',(20.4142135623731,99.,30.22));
#1550=CARTESIAN_POINT('Origin',(20.4142135623731,99.,30.22));
#1551=CARTESIAN_POINT('Origin',(20.4142135623731,99.,23.415));
#1552=CARTESIAN_POINT('',(20.4142135623731,100.,23.415));
#1553=CARTESIAN_POINT('',(19.7071067811866,99.7071067811866,23.415));
#1554=CARTESIAN_POINT('Origin',(9.45710678118654,88.0428932188134,30.22));
#1555=CARTESIAN_POINT('',(9.45710678118654,88.0428932188134,31.22));
#1556=CARTESIAN_POINT('',(8.75,88.75,30.22));
#1557=CARTESIAN_POINT('Origin',(1.,0.999999999999996,1.));
#1558=CARTESIAN_POINT('',(1.,0.,1.));
#1559=CARTESIAN_POINT('Origin',(1.,0.999999999999996,1.));
#1560=CARTESIAN_POINT('',(1.,1.,0.));
#1561=CARTESIAN_POINT('Origin',(1.,0.999999999999996,1.));
#1562=CARTESIAN_POINT('Origin',(1.,1.,1.));
#1563=CARTESIAN_POINT('Origin',(1.,50.,1.));
#1564=CARTESIAN_POINT('',(1.,50.,0.));
#1565=CARTESIAN_POINT('Origin',(49.,99.,1.));
#1566=CARTESIAN_POINT('',(49.,100.,1.));
#1567=CARTESIAN_POINT('',(49.,99.,0.));
#1568=CARTESIAN_POINT('Origin',(49.,99.,1.));
#1569=CARTESIAN_POINT('',(50.,99.,1.));
#1570=CARTESIAN_POINT('Origin',(49.,99.,1.));
#1571=CARTESIAN_POINT('Origin',(49.,99.,1.));
#1572=CARTESIAN_POINT('Origin',(1.,0.999999999999996,30.22));
#1573=CARTESIAN_POINT('',(1.,0.999999999999996,31.22));
#1574=CARTESIAN_POINT('',(1.,0.,30.22));
#1575=CARTESIAN_POINT('Origin',(1.,1.,30.22));
#1576=CARTESIAN_POINT('Origin',(1.,0.999999999999996,30.22));
#1577=CARTESIAN_POINT('Origin',(1.,0.999999999999996,30.22));
#1578=CARTESIAN_POINT('Origin',(1.,50.,30.22));
#1579=CARTESIAN_POINT('',(1.,50.,31.22));
#1580=CARTESIAN_POINT('Origin',(1.,0.999999999999996,15.61));
#1581=CARTESIAN_POINT('',(1.,0.,15.61));
#1582=CARTESIAN_POINT('Origin',(49.,99.,30.22));
#1583=CARTESIAN_POINT('',(49.,100.,30.22));
#1584=CARTESIAN_POINT('',(50.,99.,30.22));
#1585=CARTESIAN_POINT('Origin',(49.,99.,30.22));
#1586=CARTESIAN_POINT('',(49.,99.,31.22));
#1587=CARTESIAN_POINT('Origin',(49.,99.,30.22));
#1588=CARTESIAN_POINT('Origin',(49.,99.,30.22));
#1589=CARTESIAN_POINT('Origin',(25.,99.,30.22));
#1590=CARTESIAN_POINT('',(25.,99.,31.22));
#1591=CARTESIAN_POINT('',(25.,100.,30.22));
#1592=CARTESIAN_POINT('Origin',(49.,1.,1.));
#1593=CARTESIAN_POINT('',(49.,0.,1.));
#1594=CARTESIAN_POINT('',(50.,1.,1.));
#1595=CARTESIAN_POINT('Origin',(49.,1.,1.));
#1596=CARTESIAN_POINT('',(49.,0.999999999999996,0.));
#1597=CARTESIAN_POINT('Origin',(49.,1.,1.));
#1598=CARTESIAN_POINT('Origin',(49.,0.999999999999996,1.));
#1599=CARTESIAN_POINT('Origin',(25.,1.,1.));
#1600=CARTESIAN_POINT('',(25.,1.,0.));
#1601=CARTESIAN_POINT('',(25.,0.,1.));
#1602=CARTESIAN_POINT('Origin',(49.,50.,1.));
#1603=CARTESIAN_POINT('',(49.,50.,0.));
#1604=CARTESIAN_POINT('',(50.,50.,1.));
#1605=CARTESIAN_POINT('Origin',(49.,1.,30.22));
#1606=CARTESIAN_POINT('',(49.,1.,31.22));
#1607=CARTESIAN_POINT('',(50.,0.999999999999996,30.22));
#1608=CARTESIAN_POINT('Origin',(49.,0.999999999999996,30.22));
#1609=CARTESIAN_POINT('',(49.,0.,30.22));
#1610=CARTESIAN_POINT('Origin',(49.,1.,30.22));
#1611=CARTESIAN_POINT('Origin',(49.,1.,30.22));
#1612=CARTESIAN_POINT('Origin',(25.,1.,30.22));
#1613=CARTESIAN_POINT('',(25.,1.,31.22));
#1614=CARTESIAN_POINT('',(25.,0.,30.22));
#1615=CARTESIAN_POINT('Origin',(49.,1.,15.61));
#1616=CARTESIAN_POINT('',(50.,1.,15.61));
#1617=CARTESIAN_POINT('',(49.,0.,15.61));
#1618=CARTESIAN_POINT('Origin',(49.,50.,30.22));
#1619=CARTESIAN_POINT('',(49.,50.,31.22));
#1620=CARTESIAN_POINT('',(50.,50.,30.22));
#1621=CARTESIAN_POINT('Origin',(49.,99.,15.61));
#1622=CARTESIAN_POINT('',(49.,100.,15.61));
#1623=CARTESIAN_POINT('',(50.,99.,15.61));
#1624=CARTESIAN_POINT('Origin',(25.,99.,1.));
#1625=CARTESIAN_POINT('',(25.,99.,0.));
#1626=CARTESIAN_POINT('',(25.,100.,1.));
#1627=CARTESIAN_POINT('Origin',(1.,79.5857864376269,23.415));
#1628=CARTESIAN_POINT('',(0.292893218813457,80.2928932188134,23.415));
#1629=CARTESIAN_POINT('Origin',(9.45710678118654,88.0428932188134,1.));
#1630=CARTESIAN_POINT('',(9.45710678118654,88.0428932188134,0.));
#1631=CARTESIAN_POINT('',(8.75,88.75,1.));
#1632=CARTESIAN_POINT('Origin',(20.,100.,31.22));
#1633=CARTESIAN_POINT('Origin',(25.,100.,15.61));
#1634=CARTESIAN_POINT('Origin',(25.,50.,31.22));
#1635=CARTESIAN_POINT('',(47.,97.,31.22));
#1636=CARTESIAN_POINT('',(47.,3.,31.22));
#1637=CARTESIAN_POINT('',(47.,50.,31.22));
#1638=CARTESIAN_POINT('',(3.,3.,31.22));
#1639=CARTESIAN_POINT('',(25.,3.,31.22));
#1640=CARTESIAN_POINT('',(3.,78.7573593128807,31.22));
#1641=CARTESIAN_POINT('',(3.,50.,31.22));
#1642=CARTESIAN_POINT('',(21.2426406871193,97.,31.22));
#1643=CARTESIAN_POINT('',(10.8713203435596,86.6286796564404,31.22));
#1644=CARTESIAN_POINT('',(25.,97.,31.22));
#1645=CARTESIAN_POINT('Origin',(25.,50.,0.));
#1646=CARTESIAN_POINT('Origin',(25.,0.,15.61));
#1647=CARTESIAN_POINT('Origin',(50.,50.,15.61));
#1648=CARTESIAN_POINT('Origin',(0.,26.,15.));
#1649=CARTESIAN_POINT('',(3.,26.,15.));
#1650=CARTESIAN_POINT('',(0.,26.,15.));
#1651=CARTESIAN_POINT('',(3.,38.,15.));
#1652=CARTESIAN_POINT('Origin',(0.,26.,3.));
#1653=CARTESIAN_POINT('',(3.,26.,9.305));
#1654=CARTESIAN_POINT('Origin',(6.,6.,3.));
#1655=CARTESIAN_POINT('',(6.8115,6.,25.97));
#1656=CARTESIAN_POINT('Origin',(6.,6.,25.97));
#1657=CARTESIAN_POINT('',(6.8115,6.,3.));
#1658=CARTESIAN_POINT('',(6.8115,6.,3.));
#1659=CARTESIAN_POINT('Origin',(6.,6.,3.));
#1660=CARTESIAN_POINT('Origin',(8.,3.,3.));
#1661=CARTESIAN_POINT('',(8.,3.,25.97));
#1662=CARTESIAN_POINT('',(8.,3.,25.97));
#1663=CARTESIAN_POINT('',(8.,3.,9.305));
#1664=CARTESIAN_POINT('Origin',(5.5,5.5,25.97));
#1665=CARTESIAN_POINT('',(3.,3.,25.97));
#1666=CARTESIAN_POINT('',(3.,27.75,25.97));
#1667=CARTESIAN_POINT('',(15.25,3.,25.97));
#1668=CARTESIAN_POINT('Origin',(6.00000000000003,76.,3.));
#1669=CARTESIAN_POINT('',(6.81150000000003,76.,25.97));
#1670=CARTESIAN_POINT('Origin',(6.00000000000003,76.,25.97));
#1671=CARTESIAN_POINT('',(6.81150000000003,76.,3.));
#1672=CARTESIAN_POINT('',(6.81150000000003,76.,3.));
#1673=CARTESIAN_POINT('Origin',(6.00000000000003,76.,3.));
#1674=CARTESIAN_POINT('Origin',(8.00000000000004,74.,3.));
#1675=CARTESIAN_POINT('',(8.00000000000004,83.7573593128808,25.97));
#1676=CARTESIAN_POINT('',(8.00000000000004,83.7573593128808,17.11));
#1677=CARTESIAN_POINT('',(8.00000000000004,74.,25.97));
#1678=CARTESIAN_POINT('',(8.00000000000004,83.7573593128808,25.97));
#1679=CARTESIAN_POINT('',(8.00000000000004,74.,3.));
#1680=CARTESIAN_POINT('Origin',(3.,74.,3.));
#1681=CARTESIAN_POINT('',(3.,74.,25.97));
#1682=CARTESIAN_POINT('',(8.00000000000004,74.,25.97));
#1683=CARTESIAN_POINT('',(3.,74.,9.305));
#1684=CARTESIAN_POINT('Origin',(5.50000000000002,78.8786796564404,25.97));
#1685=CARTESIAN_POINT('',(3.,78.7573593128807,25.97));
#1686=CARTESIAN_POINT('',(3.,64.4393398282202,25.97));
#1687=CARTESIAN_POINT('',(13.2159902576697,88.9733495705505,25.97));
#1688=CARTESIAN_POINT('Origin',(22.1213203435596,97.8786796564404,31.22));
#1689=CARTESIAN_POINT('',(21.2426406871193,97.,23.415));
#1690=CARTESIAN_POINT('',(3.,78.7573593128807,23.415));
#1691=CARTESIAN_POINT('Origin',(25.,50.,3.));
#1692=CARTESIAN_POINT('Origin',(44.,5.99999999999878,3.));
#1693=CARTESIAN_POINT('',(44.8115,5.99999999999878,25.97));
#1694=CARTESIAN_POINT('Origin',(44.,5.99999999999878,25.97));
#1695=CARTESIAN_POINT('',(44.8115,5.99999999999878,3.));
#1696=CARTESIAN_POINT('',(44.8115,5.99999999999878,3.));
#1697=CARTESIAN_POINT('Origin',(44.,5.99999999999878,3.));
#1698=CARTESIAN_POINT('Origin',(42.,7.99999999999878,3.));
#1699=CARTESIAN_POINT('',(42.,3.,25.97));
#1700=CARTESIAN_POINT('',(42.,3.,9.305));
#1701=CARTESIAN_POINT('',(42.,7.99999999999878,25.97));
#1702=CARTESIAN_POINT('',(42.,3.,25.97));
#1703=CARTESIAN_POINT('',(42.,7.99999999999878,3.));
#1704=CARTESIAN_POINT('Origin',(47.,7.99999999999894,3.));
#1705=CARTESIAN_POINT('',(47.,7.99999999999894,25.97));
#1706=CARTESIAN_POINT('',(42.,7.99999999999878,25.97));
#1707=CARTESIAN_POINT('',(47.,7.99999999999894,9.305));
#1708=CARTESIAN_POINT('Origin',(44.5,5.49999999999947,25.97));
#1709=CARTESIAN_POINT('',(47.,3.,25.97));
#1710=CARTESIAN_POINT('',(34.75,3.,25.97));
#1711=CARTESIAN_POINT('',(47.,27.7499999999997,25.97));
#1712=CARTESIAN_POINT('Origin',(25.,3.,15.61));
#1713=CARTESIAN_POINT('',(3.,3.,15.61));
#1714=CARTESIAN_POINT('',(47.,3.,15.61));
#1715=CARTESIAN_POINT('Origin',(25.,50.,3.));
#1716=CARTESIAN_POINT('Origin',(44.0000000000001,93.9999999999988,3.));
#1717=CARTESIAN_POINT('',(44.8115000000001,93.9999999999988,25.97));
#1718=CARTESIAN_POINT('Origin',(44.0000000000001,93.9999999999988,25.97));
#1719=CARTESIAN_POINT('',(44.8115000000001,93.9999999999988,3.));
#1720=CARTESIAN_POINT('',(44.8115000000001,93.9999999999988,3.));
#1721=CARTESIAN_POINT('Origin',(44.0000000000001,93.9999999999988,3.));
#1722=CARTESIAN_POINT('Origin',(42.0000000000001,91.9999999999988,3.));
#1723=CARTESIAN_POINT('',(47.,91.999999999999,25.97));
#1724=CARTESIAN_POINT('',(47.,91.999999999999,9.305));
#1725=CARTESIAN_POINT('',(42.0000000000001,91.9999999999988,25.97));
#1726=CARTESIAN_POINT('',(42.0000000000001,91.9999999999988,25.97));
#1727=CARTESIAN_POINT('',(42.0000000000001,91.9999999999988,3.));
#1728=CARTESIAN_POINT('Origin',(42.0000000000001,97.,3.));
#1729=CARTESIAN_POINT('',(42.0000000000001,97.,25.97));
#1730=CARTESIAN_POINT('',(42.0000000000001,97.,25.97));
#1731=CARTESIAN_POINT('',(42.0000000000001,97.,9.305));
#1732=CARTESIAN_POINT('Origin',(44.5,94.4999999999994,25.97));
#1733=CARTESIAN_POINT('',(47.,97.,25.97));
#1734=CARTESIAN_POINT('',(47.,72.2499999999997,25.97));
#1735=CARTESIAN_POINT('',(34.75,97.,25.97));
#1736=CARTESIAN_POINT('Origin',(47.,50.,15.61));
#1737=CARTESIAN_POINT('',(47.,97.,15.61));
#1738=CARTESIAN_POINT('Origin',(25.,50.,3.));
#1739=CARTESIAN_POINT('Origin',(3.,50.,15.61));
#1740=CARTESIAN_POINT('Origin',(25.,50.,3.));
#1741=CARTESIAN_POINT('Origin',(25.,97.,15.61));
#1742=UNCERTAINTY_MEASURE_WITH_UNIT(LENGTH_MEASURE(0.01),#1746,
'DISTANCE_ACCURACY_VALUE',
'Maximum model space distance between geometric entities at asserted c
onnectivities');
#1743=UNCERTAINTY_MEASURE_WITH_UNIT(LENGTH_MEASURE(0.01),#1746,
'DISTANCE_ACCURACY_VALUE',
'Maximum model space distance between geometric entities at asserted c
onnectivities');
#1744=(
GEOMETRIC_REPRESENTATION_CONTEXT(3)
GLOBAL_UNCERTAINTY_ASSIGNED_CONTEXT((#1742))
GLOBAL_UNIT_ASSIGNED_CONTEXT((#1746,#1748,#1749))
REPRESENTATION_CONTEXT('','3D')
);
#1745=(
GEOMETRIC_REPRESENTATION_CONTEXT(3)
GLOBAL_UNCERTAINTY_ASSIGNED_CONTEXT((#1743))
GLOBAL_UNIT_ASSIGNED_CONTEXT((#1746,#1748,#1749))
REPRESENTATION_CONTEXT('','3D')
);
#1746=(
LENGTH_UNIT()
NAMED_UNIT(*)
SI_UNIT(.MILLI.,.METRE.)
);
#1747=(
LENGTH_UNIT()
NAMED_UNIT(*)
SI_UNIT($,.METRE.)
);
#1748=(
NAMED_UNIT(*)
PLANE_ANGLE_UNIT()
SI_UNIT($,.RADIAN.)
);
#1749=(
NAMED_UNIT(*)
SI_UNIT($,.STERADIAN.)
SOLID_ANGLE_UNIT()
);
#1750=SHAPE_DEFINITION_REPRESENTATION(#1751,#1752);
#1751=PRODUCT_DEFINITION_SHAPE('',$,#1754);
#1752=SHAPE_REPRESENTATION('',(#1036),#1744);
#1753=PRODUCT_DEFINITION_CONTEXT('part definition',#1758,'design');
#1754=PRODUCT_DEFINITION('case bottom','case bottom v24',#1755,#1753);
#1755=PRODUCT_DEFINITION_FORMATION('',$,#1760);
#1756=PRODUCT_RELATED_PRODUCT_CATEGORY('case bottom v24',
'case bottom v24',(#1760));
#1757=APPLICATION_PROTOCOL_DEFINITION('international standard',
'automotive_design',2009,#1758);
#1758=APPLICATION_CONTEXT(
'Core Data for Automotive Mechanical Design Process');
#1759=PRODUCT_CONTEXT('part definition',#1758,'mechanical');
#1760=PRODUCT('case bottom','case bottom v24',$,(#1759));
#1761=PRESENTATION_STYLE_ASSIGNMENT((#1763));
#1762=PRESENTATION_STYLE_ASSIGNMENT((#1764));
#1763=SURFACE_STYLE_USAGE(.BOTH.,#1765);
#1764=SURFACE_STYLE_USAGE(.BOTH.,#1766);
#1765=SURFACE_SIDE_STYLE('',(#1767));
#1766=SURFACE_SIDE_STYLE('',(#1768));
#1767=SURFACE_STYLE_FILL_AREA(#1769);
#1768=SURFACE_STYLE_FILL_AREA(#1770);
#1769=FILL_AREA_STYLE('Steel - Satin',(#1771));
#1770=FILL_AREA_STYLE('Plastic - Matte (White)',(#1772));
#1771=FILL_AREA_STYLE_COLOUR('Steel - Satin',#1773);
#1772=FILL_AREA_STYLE_COLOUR('Plastic - Matte (White)',#1774);
#1773=COLOUR_RGB('Steel - Satin',0.627450980392157,0.627450980392157,0.627450980392157);
#1774=COLOUR_RGB('Plastic - Matte (White)',0.964705882352941,0.964705882352941,
0.952941176470588);
ENDSEC;
END-ISO-10303-21;
