ISO-10303-21;
HEADER;
/* Generated by software containing ST-Developer
 * from STEP Tools, Inc. (www.steptools.com) 
 */

FILE_DESCRIPTION(
/* description */ (''),
/* implementation_level */ '2;1');

FILE_NAME(
/* name */ 'case top v16.step',
/* time_stamp */ '2026-06-14T21:31:55-04:00',
/* author */ (''),
/* organization */ (''),
/* preprocessor_version */ 'ST-DEVELOPER v20.1',
/* originating_system */ 'Autodesk Translation Framework v15.8.0.0',
/* authorisation */ '');

FILE_SCHEMA (('AUTOMOTIVE_DESIGN { 1 0 10303 214 3 1 1 }'));
ENDSEC;

DATA;
#10=MECHANICAL_DESIGN_GEOMETRIC_PRESENTATION_REPRESENTATION('',(#13),#1144);
#11=SHAPE_REPRESENTATION_RELATIONSHIP('SRR','None',#1151,#12);
#12=ADVANCED_BREP_SHAPE_REPRESENTATION('',(#14),#1143);
#13=STYLED_ITEM('',(#1160),#14);
#14=MANIFOLD_SOLID_BREP('Body1',#672);
#15=FACE_BOUND('',#107,.T.);
#16=FACE_BOUND('',#110,.T.);
#17=FACE_BOUND('',#113,.T.);
#18=FACE_BOUND('',#116,.T.);
#19=FACE_BOUND('',#136,.T.);
#20=FACE_BOUND('',#137,.T.);
#21=FACE_BOUND('',#138,.T.);
#22=FACE_BOUND('',#139,.T.);
#23=FACE_BOUND('',#140,.T.);
#24=FACE_BOUND('',#141,.T.);
#25=FACE_BOUND('',#143,.T.);
#26=FACE_BOUND('',#144,.T.);
#27=FACE_BOUND('',#145,.T.);
#28=FACE_BOUND('',#146,.T.);
#29=FACE_BOUND('',#147,.T.);
#30=FACE_BOUND('',#148,.T.);
#31=FACE_BOUND('',#149,.T.);
#32=FACE_BOUND('',#150,.T.);
#33=FACE_BOUND('',#151,.T.);
#34=FACE_BOUND('',#152,.T.);
#35=PLANE('',#689);
#36=PLANE('',#693);
#37=PLANE('',#697);
#38=PLANE('',#701);
#39=PLANE('',#705);
#40=PLANE('',#710);
#41=PLANE('',#715);
#42=PLANE('',#720);
#43=PLANE('',#725);
#44=PLANE('',#729);
#45=PLANE('',#733);
#46=PLANE('',#737);
#47=PLANE('',#740);
#48=PLANE('',#741);
#49=PLANE('',#742);
#50=PLANE('',#743);
#51=PLANE('',#748);
#52=PLANE('',#751);
#53=PLANE('',#752);
#54=PLANE('',#753);
#55=PLANE('',#754);
#56=PLANE('',#755);
#57=PLANE('',#756);
#58=FACE_OUTER_BOUND('',#97,.T.);
#59=FACE_OUTER_BOUND('',#98,.T.);
#60=FACE_OUTER_BOUND('',#99,.T.);
#61=FACE_OUTER_BOUND('',#100,.T.);
#62=FACE_OUTER_BOUND('',#101,.T.);
#63=FACE_OUTER_BOUND('',#102,.T.);
#64=FACE_OUTER_BOUND('',#103,.T.);
#65=FACE_OUTER_BOUND('',#104,.T.);
#66=FACE_OUTER_BOUND('',#105,.T.);
#67=FACE_OUTER_BOUND('',#106,.T.);
#68=FACE_OUTER_BOUND('',#108,.T.);
#69=FACE_OUTER_BOUND('',#109,.T.);
#70=FACE_OUTER_BOUND('',#111,.T.);
#71=FACE_OUTER_BOUND('',#112,.T.);
#72=FACE_OUTER_BOUND('',#114,.T.);
#73=FACE_OUTER_BOUND('',#115,.T.);
#74=FACE_OUTER_BOUND('',#117,.T.);
#75=FACE_OUTER_BOUND('',#118,.T.);
#76=FACE_OUTER_BOUND('',#119,.T.);
#77=FACE_OUTER_BOUND('',#120,.T.);
#78=FACE_OUTER_BOUND('',#121,.T.);
#79=FACE_OUTER_BOUND('',#122,.T.);
#80=FACE_OUTER_BOUND('',#123,.T.);
#81=FACE_OUTER_BOUND('',#124,.T.);
#82=FACE_OUTER_BOUND('',#125,.T.);
#83=FACE_OUTER_BOUND('',#126,.T.);
#84=FACE_OUTER_BOUND('',#127,.T.);
#85=FACE_OUTER_BOUND('',#128,.T.);
#86=FACE_OUTER_BOUND('',#129,.T.);
#87=FACE_OUTER_BOUND('',#130,.T.);
#88=FACE_OUTER_BOUND('',#131,.T.);
#89=FACE_OUTER_BOUND('',#132,.T.);
#90=FACE_OUTER_BOUND('',#133,.T.);
#91=FACE_OUTER_BOUND('',#134,.T.);
#92=FACE_OUTER_BOUND('',#135,.T.);
#93=FACE_OUTER_BOUND('',#142,.T.);
#94=FACE_OUTER_BOUND('',#153,.T.);
#95=FACE_OUTER_BOUND('',#154,.T.);
#96=FACE_OUTER_BOUND('',#155,.T.);
#97=EDGE_LOOP('',(#443,#444,#445,#446));
#98=EDGE_LOOP('',(#447,#448,#449,#450));
#99=EDGE_LOOP('',(#451,#452,#453,#454));
#100=EDGE_LOOP('',(#455,#456,#457,#458));
#101=EDGE_LOOP('',(#459,#460,#461,#462));
#102=EDGE_LOOP('',(#463,#464,#465,#466));
#103=EDGE_LOOP('',(#467,#468,#469,#470));
#104=EDGE_LOOP('',(#471,#472,#473,#474));
#105=EDGE_LOOP('',(#475,#476,#477,#478));
#106=EDGE_LOOP('',(#479));
#107=EDGE_LOOP('',(#480));
#108=EDGE_LOOP('',(#481,#482,#483,#484));
#109=EDGE_LOOP('',(#485));
#110=EDGE_LOOP('',(#486));
#111=EDGE_LOOP('',(#487,#488,#489,#490));
#112=EDGE_LOOP('',(#491));
#113=EDGE_LOOP('',(#492));
#114=EDGE_LOOP('',(#493,#494,#495,#496));
#115=EDGE_LOOP('',(#497));
#116=EDGE_LOOP('',(#498));
#117=EDGE_LOOP('',(#499,#500,#501,#502));
#118=EDGE_LOOP('',(#503));
#119=EDGE_LOOP('',(#504,#505,#506,#507));
#120=EDGE_LOOP('',(#508));
#121=EDGE_LOOP('',(#509,#510,#511,#512));
#122=EDGE_LOOP('',(#513));
#123=EDGE_LOOP('',(#514,#515,#516,#517));
#124=EDGE_LOOP('',(#518));
#125=EDGE_LOOP('',(#519,#520,#521,#522));
#126=EDGE_LOOP('',(#523,#524,#525,#526));
#127=EDGE_LOOP('',(#527,#528,#529,#530));
#128=EDGE_LOOP('',(#531,#532,#533,#534));
#129=EDGE_LOOP('',(#535,#536,#537,#538));
#130=EDGE_LOOP('',(#539,#540,#541,#542));
#131=EDGE_LOOP('',(#543,#544,#545,#546));
#132=EDGE_LOOP('',(#547,#548,#549,#550));
#133=EDGE_LOOP('',(#551,#552,#553,#554));
#134=EDGE_LOOP('',(#555,#556,#557,#558));
#135=EDGE_LOOP('',(#559,#560,#561,#562,#563));
#136=EDGE_LOOP('',(#564,#565,#566,#567));
#137=EDGE_LOOP('',(#568,#569,#570,#571,#572,#573,#574,#575));
#138=EDGE_LOOP('',(#576));
#139=EDGE_LOOP('',(#577));
#140=EDGE_LOOP('',(#578));
#141=EDGE_LOOP('',(#579));
#142=EDGE_LOOP('',(#580,#581,#582,#583,#584));
#143=EDGE_LOOP('',(#585));
#144=EDGE_LOOP('',(#586,#587,#588,#589));
#145=EDGE_LOOP('',(#590));
#146=EDGE_LOOP('',(#591));
#147=EDGE_LOOP('',(#592,#593,#594,#595,#596,#597,#598,#599));
#148=EDGE_LOOP('',(#600));
#149=EDGE_LOOP('',(#601));
#150=EDGE_LOOP('',(#602));
#151=EDGE_LOOP('',(#603));
#152=EDGE_LOOP('',(#604));
#153=EDGE_LOOP('',(#605,#606,#607,#608));
#154=EDGE_LOOP('',(#609,#610,#611,#612));
#155=EDGE_LOOP('',(#613,#614,#615,#616));
#156=LINE('',#962,#211);
#157=LINE('',#965,#212);
#158=LINE('',#968,#213);
#159=LINE('',#970,#214);
#160=LINE('',#971,#215);
#161=LINE('',#976,#216);
#162=LINE('',#980,#217);
#163=LINE('',#982,#218);
#164=LINE('',#983,#219);
#165=LINE('',#989,#220);
#166=LINE('',#992,#221);
#167=LINE('',#994,#222);
#168=LINE('',#995,#223);
#169=LINE('',#1000,#224);
#170=LINE('',#1003,#225);
#171=LINE('',#1004,#226);
#172=LINE('',#1009,#227);
#173=LINE('',#1018,#228);
#174=LINE('',#1027,#229);
#175=LINE('',#1036,#230);
#176=LINE('',#1045,#231);
#177=LINE('',#1052,#232);
#178=LINE('',#1059,#233);
#179=LINE('',#1066,#234);
#180=LINE('',#1072,#235);
#181=LINE('',#1076,#236);
#182=LINE('',#1078,#237);
#183=LINE('',#1080,#238);
#184=LINE('',#1081,#239);
#185=LINE('',#1084,#240);
#186=LINE('',#1086,#241);
#187=LINE('',#1087,#242);
#188=LINE('',#1090,#243);
#189=LINE('',#1092,#244);
#190=LINE('',#1093,#245);
#191=LINE('',#1095,#246);
#192=LINE('',#1096,#247);
#193=LINE('',#1100,#248);
#194=LINE('',#1104,#249);
#195=LINE('',#1108,#250);
#196=LINE('',#1110,#251);
#197=LINE('',#1112,#252);
#198=LINE('',#1113,#253);
#199=LINE('',#1117,#254);
#200=LINE('',#1120,#255);
#201=LINE('',#1122,#256);
#202=LINE('',#1123,#257);
#203=LINE('',#1126,#258);
#204=LINE('',#1128,#259);
#205=LINE('',#1129,#260);
#206=LINE('',#1132,#261);
#207=LINE('',#1134,#262);
#208=LINE('',#1135,#263);
#209=LINE('',#1137,#264);
#210=LINE('',#1138,#265);
#211=VECTOR('',#763,10.);
#212=VECTOR('',#766,10.);
#213=VECTOR('',#769,10.);
#214=VECTOR('',#770,10.);
#215=VECTOR('',#771,10.);
#216=VECTOR('',#776,10.);
#217=VECTOR('',#781,10.);
#218=VECTOR('',#782,10.);
#219=VECTOR('',#783,10.);
#220=VECTOR('',#788,10.);
#221=VECTOR('',#791,10.);
#222=VECTOR('',#794,10.);
#223=VECTOR('',#795,10.);
#224=VECTOR('',#800,10.);
#225=VECTOR('',#805,10.);
#226=VECTOR('',#806,10.);
#227=VECTOR('',#811,2.);
#228=VECTOR('',#822,2.);
#229=VECTOR('',#833,2.);
#230=VECTOR('',#844,2.);
#231=VECTOR('',#855,0.799999999999996);
#232=VECTOR('',#864,0.799999999999996);
#233=VECTOR('',#873,0.800000000000001);
#234=VECTOR('',#882,0.800000000000001);
#235=VECTOR('',#891,1.2);
#236=VECTOR('',#894,10.);
#237=VECTOR('',#895,10.);
#238=VECTOR('',#896,10.);
#239=VECTOR('',#897,10.);
#240=VECTOR('',#900,10.);
#241=VECTOR('',#901,10.);
#242=VECTOR('',#902,10.);
#243=VECTOR('',#905,10.);
#244=VECTOR('',#906,10.);
#245=VECTOR('',#907,10.);
#246=VECTOR('',#910,10.);
#247=VECTOR('',#911,10.);
#248=VECTOR('',#916,1.2);
#249=VECTOR('',#921,1.2);
#250=VECTOR('',#924,10.);
#251=VECTOR('',#925,10.);
#252=VECTOR('',#926,10.);
#253=VECTOR('',#927,10.);
#254=VECTOR('',#932,1.2);
#255=VECTOR('',#935,10.);
#256=VECTOR('',#936,10.);
#257=VECTOR('',#937,10.);
#258=VECTOR('',#940,10.);
#259=VECTOR('',#941,10.);
#260=VECTOR('',#942,10.);
#261=VECTOR('',#945,10.);
#262=VECTOR('',#946,10.);
#263=VECTOR('',#947,10.);
#264=VECTOR('',#950,10.);
#265=VECTOR('',#951,10.);
#266=CIRCLE('',#687,2.);
#267=CIRCLE('',#688,2.);
#268=CIRCLE('',#691,2.);
#269=CIRCLE('',#692,2.);
#270=CIRCLE('',#695,2.);
#271=CIRCLE('',#696,2.);
#272=CIRCLE('',#699,2.);
#273=CIRCLE('',#700,2.);
#274=CIRCLE('',#703,2.);
#275=CIRCLE('',#704,2.);
#276=CIRCLE('',#706,1.2);
#277=CIRCLE('',#708,2.);
#278=CIRCLE('',#709,2.);
#279=CIRCLE('',#711,1.2);
#280=CIRCLE('',#713,2.);
#281=CIRCLE('',#714,2.);
#282=CIRCLE('',#716,1.2);
#283=CIRCLE('',#718,2.);
#284=CIRCLE('',#719,2.);
#285=CIRCLE('',#721,1.2);
#286=CIRCLE('',#723,0.8115);
#287=CIRCLE('',#724,0.8115);
#288=CIRCLE('',#727,0.8115);
#289=CIRCLE('',#728,0.8115);
#290=CIRCLE('',#731,0.8115);
#291=CIRCLE('',#732,0.8115);
#292=CIRCLE('',#735,0.8115);
#293=CIRCLE('',#736,0.8115);
#294=CIRCLE('',#739,1.2);
#295=CIRCLE('',#745,1.2);
#296=CIRCLE('',#747,1.2);
#297=CIRCLE('',#750,1.2);
#298=VERTEX_POINT('',#958);
#299=VERTEX_POINT('',#959);
#300=VERTEX_POINT('',#961);
#301=VERTEX_POINT('',#963);
#302=VERTEX_POINT('',#967);
#303=VERTEX_POINT('',#969);
#304=VERTEX_POINT('',#973);
#305=VERTEX_POINT('',#975);
#306=VERTEX_POINT('',#979);
#307=VERTEX_POINT('',#981);
#308=VERTEX_POINT('',#985);
#309=VERTEX_POINT('',#986);
#310=VERTEX_POINT('',#988);
#311=VERTEX_POINT('',#990);
#312=VERTEX_POINT('',#997);
#313=VERTEX_POINT('',#999);
#314=VERTEX_POINT('',#1006);
#315=VERTEX_POINT('',#1008);
#316=VERTEX_POINT('',#1012);
#317=VERTEX_POINT('',#1015);
#318=VERTEX_POINT('',#1017);
#319=VERTEX_POINT('',#1021);
#320=VERTEX_POINT('',#1024);
#321=VERTEX_POINT('',#1026);
#322=VERTEX_POINT('',#1030);
#323=VERTEX_POINT('',#1033);
#324=VERTEX_POINT('',#1035);
#325=VERTEX_POINT('',#1039);
#326=VERTEX_POINT('',#1042);
#327=VERTEX_POINT('',#1044);
#328=VERTEX_POINT('',#1049);
#329=VERTEX_POINT('',#1051);
#330=VERTEX_POINT('',#1056);
#331=VERTEX_POINT('',#1058);
#332=VERTEX_POINT('',#1063);
#333=VERTEX_POINT('',#1065);
#334=VERTEX_POINT('',#1070);
#335=VERTEX_POINT('',#1074);
#336=VERTEX_POINT('',#1075);
#337=VERTEX_POINT('',#1077);
#338=VERTEX_POINT('',#1079);
#339=VERTEX_POINT('',#1083);
#340=VERTEX_POINT('',#1085);
#341=VERTEX_POINT('',#1089);
#342=VERTEX_POINT('',#1091);
#343=VERTEX_POINT('',#1098);
#344=VERTEX_POINT('',#1102);
#345=VERTEX_POINT('',#1106);
#346=VERTEX_POINT('',#1107);
#347=VERTEX_POINT('',#1109);
#348=VERTEX_POINT('',#1111);
#349=VERTEX_POINT('',#1115);
#350=VERTEX_POINT('',#1119);
#351=VERTEX_POINT('',#1121);
#352=VERTEX_POINT('',#1125);
#353=VERTEX_POINT('',#1127);
#354=VERTEX_POINT('',#1131);
#355=VERTEX_POINT('',#1133);
#356=EDGE_CURVE('',#298,#299,#266,.T.);
#357=EDGE_CURVE('',#299,#300,#156,.T.);
#358=EDGE_CURVE('',#300,#301,#267,.T.);
#359=EDGE_CURVE('',#301,#298,#157,.T.);
#360=EDGE_CURVE('',#302,#299,#158,.T.);
#361=EDGE_CURVE('',#303,#302,#159,.T.);
#362=EDGE_CURVE('',#300,#303,#160,.T.);
#363=EDGE_CURVE('',#302,#304,#268,.T.);
#364=EDGE_CURVE('',#304,#305,#161,.T.);
#365=EDGE_CURVE('',#305,#303,#269,.T.);
#366=EDGE_CURVE('',#306,#304,#162,.T.);
#367=EDGE_CURVE('',#307,#306,#163,.T.);
#368=EDGE_CURVE('',#305,#307,#164,.T.);
#369=EDGE_CURVE('',#308,#309,#270,.T.);
#370=EDGE_CURVE('',#309,#310,#165,.T.);
#371=EDGE_CURVE('',#310,#311,#271,.T.);
#372=EDGE_CURVE('',#311,#308,#166,.T.);
#373=EDGE_CURVE('',#310,#301,#167,.T.);
#374=EDGE_CURVE('',#298,#309,#168,.T.);
#375=EDGE_CURVE('',#306,#312,#272,.T.);
#376=EDGE_CURVE('',#312,#313,#169,.T.);
#377=EDGE_CURVE('',#313,#307,#273,.T.);
#378=EDGE_CURVE('',#313,#311,#170,.T.);
#379=EDGE_CURVE('',#308,#312,#171,.T.);
#380=EDGE_CURVE('',#314,#314,#274,.T.);
#381=EDGE_CURVE('',#314,#315,#172,.T.);
#382=EDGE_CURVE('',#315,#315,#275,.T.);
#383=EDGE_CURVE('',#316,#316,#276,.T.);
#384=EDGE_CURVE('',#317,#317,#277,.T.);
#385=EDGE_CURVE('',#317,#318,#173,.T.);
#386=EDGE_CURVE('',#318,#318,#278,.T.);
#387=EDGE_CURVE('',#319,#319,#279,.T.);
#388=EDGE_CURVE('',#320,#320,#280,.T.);
#389=EDGE_CURVE('',#320,#321,#174,.T.);
#390=EDGE_CURVE('',#321,#321,#281,.T.);
#391=EDGE_CURVE('',#322,#322,#282,.T.);
#392=EDGE_CURVE('',#323,#323,#283,.T.);
#393=EDGE_CURVE('',#323,#324,#175,.T.);
#394=EDGE_CURVE('',#324,#324,#284,.T.);
#395=EDGE_CURVE('',#325,#325,#285,.T.);
#396=EDGE_CURVE('',#326,#326,#286,.F.);
#397=EDGE_CURVE('',#326,#327,#176,.T.);
#398=EDGE_CURVE('',#327,#327,#287,.T.);
#399=EDGE_CURVE('',#328,#328,#288,.F.);
#400=EDGE_CURVE('',#328,#329,#177,.T.);
#401=EDGE_CURVE('',#329,#329,#289,.T.);
#402=EDGE_CURVE('',#330,#330,#290,.F.);
#403=EDGE_CURVE('',#330,#331,#178,.T.);
#404=EDGE_CURVE('',#331,#331,#291,.T.);
#405=EDGE_CURVE('',#332,#332,#292,.F.);
#406=EDGE_CURVE('',#332,#333,#179,.T.);
#407=EDGE_CURVE('',#333,#333,#293,.T.);
#408=EDGE_CURVE('',#334,#334,#294,.T.);
#409=EDGE_CURVE('',#334,#322,#180,.T.);
#410=EDGE_CURVE('',#335,#336,#181,.T.);
#411=EDGE_CURVE('',#337,#335,#182,.T.);
#412=EDGE_CURVE('',#338,#337,#183,.T.);
#413=EDGE_CURVE('',#338,#336,#184,.T.);
#414=EDGE_CURVE('',#336,#339,#185,.T.);
#415=EDGE_CURVE('',#340,#338,#186,.T.);
#416=EDGE_CURVE('',#340,#339,#187,.T.);
#417=EDGE_CURVE('',#339,#341,#188,.T.);
#418=EDGE_CURVE('',#342,#340,#189,.T.);
#419=EDGE_CURVE('',#342,#341,#190,.T.);
#420=EDGE_CURVE('',#341,#335,#191,.T.);
#421=EDGE_CURVE('',#337,#342,#192,.T.);
#422=EDGE_CURVE('',#343,#343,#295,.T.);
#423=EDGE_CURVE('',#343,#316,#193,.T.);
#424=EDGE_CURVE('',#344,#344,#296,.T.);
#425=EDGE_CURVE('',#344,#319,#194,.T.);
#426=EDGE_CURVE('',#345,#346,#195,.T.);
#427=EDGE_CURVE('',#347,#345,#196,.T.);
#428=EDGE_CURVE('',#348,#347,#197,.T.);
#429=EDGE_CURVE('',#346,#348,#198,.T.);
#430=EDGE_CURVE('',#349,#349,#297,.T.);
#431=EDGE_CURVE('',#349,#325,#199,.T.);
#432=EDGE_CURVE('',#350,#348,#200,.T.);
#433=EDGE_CURVE('',#351,#350,#201,.T.);
#434=EDGE_CURVE('',#346,#351,#202,.T.);
#435=EDGE_CURVE('',#351,#352,#203,.T.);
#436=EDGE_CURVE('',#352,#353,#204,.T.);
#437=EDGE_CURVE('',#353,#345,#205,.T.);
#438=EDGE_CURVE('',#347,#354,#206,.T.);
#439=EDGE_CURVE('',#354,#355,#207,.T.);
#440=EDGE_CURVE('',#355,#350,#208,.T.);
#441=EDGE_CURVE('',#352,#355,#209,.T.);
#442=EDGE_CURVE('',#353,#354,#210,.T.);
#443=ORIENTED_EDGE('',*,*,#356,.T.);
#444=ORIENTED_EDGE('',*,*,#357,.T.);
#445=ORIENTED_EDGE('',*,*,#358,.T.);
#446=ORIENTED_EDGE('',*,*,#359,.T.);
#447=ORIENTED_EDGE('',*,*,#357,.F.);
#448=ORIENTED_EDGE('',*,*,#360,.F.);
#449=ORIENTED_EDGE('',*,*,#361,.F.);
#450=ORIENTED_EDGE('',*,*,#362,.F.);
#451=ORIENTED_EDGE('',*,*,#363,.T.);
#452=ORIENTED_EDGE('',*,*,#364,.T.);
#453=ORIENTED_EDGE('',*,*,#365,.T.);
#454=ORIENTED_EDGE('',*,*,#361,.T.);
#455=ORIENTED_EDGE('',*,*,#364,.F.);
#456=ORIENTED_EDGE('',*,*,#366,.F.);
#457=ORIENTED_EDGE('',*,*,#367,.F.);
#458=ORIENTED_EDGE('',*,*,#368,.F.);
#459=ORIENTED_EDGE('',*,*,#369,.T.);
#460=ORIENTED_EDGE('',*,*,#370,.T.);
#461=ORIENTED_EDGE('',*,*,#371,.T.);
#462=ORIENTED_EDGE('',*,*,#372,.T.);
#463=ORIENTED_EDGE('',*,*,#359,.F.);
#464=ORIENTED_EDGE('',*,*,#373,.F.);
#465=ORIENTED_EDGE('',*,*,#370,.F.);
#466=ORIENTED_EDGE('',*,*,#374,.F.);
#467=ORIENTED_EDGE('',*,*,#375,.T.);
#468=ORIENTED_EDGE('',*,*,#376,.T.);
#469=ORIENTED_EDGE('',*,*,#377,.T.);
#470=ORIENTED_EDGE('',*,*,#367,.T.);
#471=ORIENTED_EDGE('',*,*,#372,.F.);
#472=ORIENTED_EDGE('',*,*,#378,.F.);
#473=ORIENTED_EDGE('',*,*,#376,.F.);
#474=ORIENTED_EDGE('',*,*,#379,.F.);
#475=ORIENTED_EDGE('',*,*,#380,.F.);
#476=ORIENTED_EDGE('',*,*,#381,.T.);
#477=ORIENTED_EDGE('',*,*,#382,.T.);
#478=ORIENTED_EDGE('',*,*,#381,.F.);
#479=ORIENTED_EDGE('',*,*,#382,.F.);
#480=ORIENTED_EDGE('',*,*,#383,.F.);
#481=ORIENTED_EDGE('',*,*,#384,.F.);
#482=ORIENTED_EDGE('',*,*,#385,.T.);
#483=ORIENTED_EDGE('',*,*,#386,.T.);
#484=ORIENTED_EDGE('',*,*,#385,.F.);
#485=ORIENTED_EDGE('',*,*,#386,.F.);
#486=ORIENTED_EDGE('',*,*,#387,.F.);
#487=ORIENTED_EDGE('',*,*,#388,.F.);
#488=ORIENTED_EDGE('',*,*,#389,.T.);
#489=ORIENTED_EDGE('',*,*,#390,.T.);
#490=ORIENTED_EDGE('',*,*,#389,.F.);
#491=ORIENTED_EDGE('',*,*,#390,.F.);
#492=ORIENTED_EDGE('',*,*,#391,.F.);
#493=ORIENTED_EDGE('',*,*,#392,.F.);
#494=ORIENTED_EDGE('',*,*,#393,.T.);
#495=ORIENTED_EDGE('',*,*,#394,.T.);
#496=ORIENTED_EDGE('',*,*,#393,.F.);
#497=ORIENTED_EDGE('',*,*,#394,.F.);
#498=ORIENTED_EDGE('',*,*,#395,.F.);
#499=ORIENTED_EDGE('',*,*,#396,.F.);
#500=ORIENTED_EDGE('',*,*,#397,.T.);
#501=ORIENTED_EDGE('',*,*,#398,.T.);
#502=ORIENTED_EDGE('',*,*,#397,.F.);
#503=ORIENTED_EDGE('',*,*,#398,.F.);
#504=ORIENTED_EDGE('',*,*,#399,.F.);
#505=ORIENTED_EDGE('',*,*,#400,.T.);
#506=ORIENTED_EDGE('',*,*,#401,.T.);
#507=ORIENTED_EDGE('',*,*,#400,.F.);
#508=ORIENTED_EDGE('',*,*,#401,.F.);
#509=ORIENTED_EDGE('',*,*,#402,.F.);
#510=ORIENTED_EDGE('',*,*,#403,.T.);
#511=ORIENTED_EDGE('',*,*,#404,.T.);
#512=ORIENTED_EDGE('',*,*,#403,.F.);
#513=ORIENTED_EDGE('',*,*,#404,.F.);
#514=ORIENTED_EDGE('',*,*,#405,.F.);
#515=ORIENTED_EDGE('',*,*,#406,.T.);
#516=ORIENTED_EDGE('',*,*,#407,.T.);
#517=ORIENTED_EDGE('',*,*,#406,.F.);
#518=ORIENTED_EDGE('',*,*,#407,.F.);
#519=ORIENTED_EDGE('',*,*,#408,.F.);
#520=ORIENTED_EDGE('',*,*,#409,.T.);
#521=ORIENTED_EDGE('',*,*,#391,.T.);
#522=ORIENTED_EDGE('',*,*,#409,.F.);
#523=ORIENTED_EDGE('',*,*,#410,.F.);
#524=ORIENTED_EDGE('',*,*,#411,.F.);
#525=ORIENTED_EDGE('',*,*,#412,.F.);
#526=ORIENTED_EDGE('',*,*,#413,.T.);
#527=ORIENTED_EDGE('',*,*,#414,.F.);
#528=ORIENTED_EDGE('',*,*,#413,.F.);
#529=ORIENTED_EDGE('',*,*,#415,.F.);
#530=ORIENTED_EDGE('',*,*,#416,.T.);
#531=ORIENTED_EDGE('',*,*,#417,.F.);
#532=ORIENTED_EDGE('',*,*,#416,.F.);
#533=ORIENTED_EDGE('',*,*,#418,.F.);
#534=ORIENTED_EDGE('',*,*,#419,.T.);
#535=ORIENTED_EDGE('',*,*,#420,.F.);
#536=ORIENTED_EDGE('',*,*,#419,.F.);
#537=ORIENTED_EDGE('',*,*,#421,.F.);
#538=ORIENTED_EDGE('',*,*,#411,.T.);
#539=ORIENTED_EDGE('',*,*,#422,.F.);
#540=ORIENTED_EDGE('',*,*,#423,.T.);
#541=ORIENTED_EDGE('',*,*,#383,.T.);
#542=ORIENTED_EDGE('',*,*,#423,.F.);
#543=ORIENTED_EDGE('',*,*,#424,.F.);
#544=ORIENTED_EDGE('',*,*,#425,.T.);
#545=ORIENTED_EDGE('',*,*,#387,.T.);
#546=ORIENTED_EDGE('',*,*,#425,.F.);
#547=ORIENTED_EDGE('',*,*,#426,.F.);
#548=ORIENTED_EDGE('',*,*,#427,.F.);
#549=ORIENTED_EDGE('',*,*,#428,.F.);
#550=ORIENTED_EDGE('',*,*,#429,.F.);
#551=ORIENTED_EDGE('',*,*,#430,.F.);
#552=ORIENTED_EDGE('',*,*,#431,.T.);
#553=ORIENTED_EDGE('',*,*,#395,.T.);
#554=ORIENTED_EDGE('',*,*,#431,.F.);
#555=ORIENTED_EDGE('',*,*,#429,.T.);
#556=ORIENTED_EDGE('',*,*,#432,.F.);
#557=ORIENTED_EDGE('',*,*,#433,.F.);
#558=ORIENTED_EDGE('',*,*,#434,.F.);
#559=ORIENTED_EDGE('',*,*,#426,.T.);
#560=ORIENTED_EDGE('',*,*,#434,.T.);
#561=ORIENTED_EDGE('',*,*,#435,.T.);
#562=ORIENTED_EDGE('',*,*,#436,.T.);
#563=ORIENTED_EDGE('',*,*,#437,.T.);
#564=ORIENTED_EDGE('',*,*,#410,.T.);
#565=ORIENTED_EDGE('',*,*,#414,.T.);
#566=ORIENTED_EDGE('',*,*,#417,.T.);
#567=ORIENTED_EDGE('',*,*,#420,.T.);
#568=ORIENTED_EDGE('',*,*,#373,.T.);
#569=ORIENTED_EDGE('',*,*,#358,.F.);
#570=ORIENTED_EDGE('',*,*,#362,.T.);
#571=ORIENTED_EDGE('',*,*,#365,.F.);
#572=ORIENTED_EDGE('',*,*,#368,.T.);
#573=ORIENTED_EDGE('',*,*,#377,.F.);
#574=ORIENTED_EDGE('',*,*,#378,.T.);
#575=ORIENTED_EDGE('',*,*,#371,.F.);
#576=ORIENTED_EDGE('',*,*,#392,.T.);
#577=ORIENTED_EDGE('',*,*,#388,.T.);
#578=ORIENTED_EDGE('',*,*,#384,.T.);
#579=ORIENTED_EDGE('',*,*,#380,.T.);
#580=ORIENTED_EDGE('',*,*,#428,.T.);
#581=ORIENTED_EDGE('',*,*,#438,.T.);
#582=ORIENTED_EDGE('',*,*,#439,.T.);
#583=ORIENTED_EDGE('',*,*,#440,.T.);
#584=ORIENTED_EDGE('',*,*,#432,.T.);
#585=ORIENTED_EDGE('',*,*,#408,.T.);
#586=ORIENTED_EDGE('',*,*,#412,.T.);
#587=ORIENTED_EDGE('',*,*,#421,.T.);
#588=ORIENTED_EDGE('',*,*,#418,.T.);
#589=ORIENTED_EDGE('',*,*,#415,.T.);
#590=ORIENTED_EDGE('',*,*,#422,.T.);
#591=ORIENTED_EDGE('',*,*,#424,.T.);
#592=ORIENTED_EDGE('',*,*,#374,.T.);
#593=ORIENTED_EDGE('',*,*,#369,.F.);
#594=ORIENTED_EDGE('',*,*,#379,.T.);
#595=ORIENTED_EDGE('',*,*,#375,.F.);
#596=ORIENTED_EDGE('',*,*,#366,.T.);
#597=ORIENTED_EDGE('',*,*,#363,.F.);
#598=ORIENTED_EDGE('',*,*,#360,.T.);
#599=ORIENTED_EDGE('',*,*,#356,.F.);
#600=ORIENTED_EDGE('',*,*,#430,.T.);
#601=ORIENTED_EDGE('',*,*,#405,.T.);
#602=ORIENTED_EDGE('',*,*,#402,.T.);
#603=ORIENTED_EDGE('',*,*,#399,.T.);
#604=ORIENTED_EDGE('',*,*,#396,.T.);
#605=ORIENTED_EDGE('',*,*,#441,.T.);
#606=ORIENTED_EDGE('',*,*,#439,.F.);
#607=ORIENTED_EDGE('',*,*,#442,.F.);
#608=ORIENTED_EDGE('',*,*,#436,.F.);
#609=ORIENTED_EDGE('',*,*,#433,.T.);
#610=ORIENTED_EDGE('',*,*,#440,.F.);
#611=ORIENTED_EDGE('',*,*,#441,.F.);
#612=ORIENTED_EDGE('',*,*,#435,.F.);
#613=ORIENTED_EDGE('',*,*,#427,.T.);
#614=ORIENTED_EDGE('',*,*,#437,.F.);
#615=ORIENTED_EDGE('',*,*,#442,.T.);
#616=ORIENTED_EDGE('',*,*,#438,.F.);
#617=CYLINDRICAL_SURFACE('',#686,2.);
#618=CYLINDRICAL_SURFACE('',#690,2.);
#619=CYLINDRICAL_SURFACE('',#694,2.);
#620=CYLINDRICAL_SURFACE('',#698,2.);
#621=CYLINDRICAL_SURFACE('',#702,2.);
#622=CYLINDRICAL_SURFACE('',#707,2.);
#623=CYLINDRICAL_SURFACE('',#712,2.);
#624=CYLINDRICAL_SURFACE('',#717,2.);
#625=CYLINDRICAL_SURFACE('',#722,0.8115);
#626=CYLINDRICAL_SURFACE('',#726,0.8115);
#627=CYLINDRICAL_SURFACE('',#730,0.8115);
#628=CYLINDRICAL_SURFACE('',#734,0.8115);
#629=CYLINDRICAL_SURFACE('',#738,1.2);
#630=CYLINDRICAL_SURFACE('',#744,1.2);
#631=CYLINDRICAL_SURFACE('',#746,1.2);
#632=CYLINDRICAL_SURFACE('',#749,1.2);
#633=ADVANCED_FACE('',(#58),#617,.F.);
#634=ADVANCED_FACE('',(#59),#35,.F.);
#635=ADVANCED_FACE('',(#60),#618,.F.);
#636=ADVANCED_FACE('',(#61),#36,.F.);
#637=ADVANCED_FACE('',(#62),#619,.F.);
#638=ADVANCED_FACE('',(#63),#37,.F.);
#639=ADVANCED_FACE('',(#64),#620,.F.);
#640=ADVANCED_FACE('',(#65),#38,.F.);
#641=ADVANCED_FACE('',(#66),#621,.F.);
#642=ADVANCED_FACE('',(#67,#15),#39,.T.);
#643=ADVANCED_FACE('',(#68),#622,.F.);
#644=ADVANCED_FACE('',(#69,#16),#40,.T.);
#645=ADVANCED_FACE('',(#70),#623,.F.);
#646=ADVANCED_FACE('',(#71,#17),#41,.T.);
#647=ADVANCED_FACE('',(#72),#624,.F.);
#648=ADVANCED_FACE('',(#73,#18),#42,.T.);
#649=ADVANCED_FACE('',(#74),#625,.F.);
#650=ADVANCED_FACE('',(#75),#43,.T.);
#651=ADVANCED_FACE('',(#76),#626,.F.);
#652=ADVANCED_FACE('',(#77),#44,.T.);
#653=ADVANCED_FACE('',(#78),#627,.F.);
#654=ADVANCED_FACE('',(#79),#45,.T.);
#655=ADVANCED_FACE('',(#80),#628,.F.);
#656=ADVANCED_FACE('',(#81),#46,.T.);
#657=ADVANCED_FACE('',(#82),#629,.F.);
#658=ADVANCED_FACE('',(#83),#47,.F.);
#659=ADVANCED_FACE('',(#84),#48,.F.);
#660=ADVANCED_FACE('',(#85),#49,.F.);
#661=ADVANCED_FACE('',(#86),#50,.F.);
#662=ADVANCED_FACE('',(#87),#630,.F.);
#663=ADVANCED_FACE('',(#88),#631,.F.);
#664=ADVANCED_FACE('',(#89),#51,.F.);
#665=ADVANCED_FACE('',(#90),#632,.F.);
#666=ADVANCED_FACE('',(#91),#52,.F.);
#667=ADVANCED_FACE('',(#92,#19,#20,#21,#22,#23,#24),#53,.T.);
#668=ADVANCED_FACE('',(#93,#25,#26,#27,#28,#29,#30,#31,#32,#33,#34),#54,
 .F.);
#669=ADVANCED_FACE('',(#94),#55,.F.);
#670=ADVANCED_FACE('',(#95),#56,.F.);
#671=ADVANCED_FACE('',(#96),#57,.F.);
#672=CLOSED_SHELL('',(#633,#634,#635,#636,#637,#638,#639,#640,#641,#642,
#643,#644,#645,#646,#647,#648,#649,#650,#651,#652,#653,#654,#655,#656,#657,
#658,#659,#660,#661,#662,#663,#664,#665,#666,#667,#668,#669,#670,#671));
#673=DERIVED_UNIT_ELEMENT(#675,1.);
#674=DERIVED_UNIT_ELEMENT(#1146,-3.);
#675=(
MASS_UNIT()
NAMED_UNIT(*)
SI_UNIT(.KILO.,.GRAM.)
);
#676=DERIVED_UNIT((#673,#674));
#677=MEASURE_REPRESENTATION_ITEM('density measure',
POSITIVE_RATIO_MEASURE(7850.),#676);
#678=PROPERTY_DEFINITION_REPRESENTATION(#683,#680);
#679=PROPERTY_DEFINITION_REPRESENTATION(#684,#681);
#680=REPRESENTATION('material name',(#682),#1143);
#681=REPRESENTATION('density',(#677),#1143);
#682=DESCRIPTIVE_REPRESENTATION_ITEM('Steel','Steel');
#683=PROPERTY_DEFINITION('material property','material name',#1153);
#684=PROPERTY_DEFINITION('material property','density of part',#1153);
#685=AXIS2_PLACEMENT_3D('',#956,#757,#758);
#686=AXIS2_PLACEMENT_3D('',#957,#759,#760);
#687=AXIS2_PLACEMENT_3D('',#960,#761,#762);
#688=AXIS2_PLACEMENT_3D('',#964,#764,#765);
#689=AXIS2_PLACEMENT_3D('',#966,#767,#768);
#690=AXIS2_PLACEMENT_3D('',#972,#772,#773);
#691=AXIS2_PLACEMENT_3D('',#974,#774,#775);
#692=AXIS2_PLACEMENT_3D('',#977,#777,#778);
#693=AXIS2_PLACEMENT_3D('',#978,#779,#780);
#694=AXIS2_PLACEMENT_3D('',#984,#784,#785);
#695=AXIS2_PLACEMENT_3D('',#987,#786,#787);
#696=AXIS2_PLACEMENT_3D('',#991,#789,#790);
#697=AXIS2_PLACEMENT_3D('',#993,#792,#793);
#698=AXIS2_PLACEMENT_3D('',#996,#796,#797);
#699=AXIS2_PLACEMENT_3D('',#998,#798,#799);
#700=AXIS2_PLACEMENT_3D('',#1001,#801,#802);
#701=AXIS2_PLACEMENT_3D('',#1002,#803,#804);
#702=AXIS2_PLACEMENT_3D('',#1005,#807,#808);
#703=AXIS2_PLACEMENT_3D('',#1007,#809,#810);
#704=AXIS2_PLACEMENT_3D('',#1010,#812,#813);
#705=AXIS2_PLACEMENT_3D('',#1011,#814,#815);
#706=AXIS2_PLACEMENT_3D('',#1013,#816,#817);
#707=AXIS2_PLACEMENT_3D('',#1014,#818,#819);
#708=AXIS2_PLACEMENT_3D('',#1016,#820,#821);
#709=AXIS2_PLACEMENT_3D('',#1019,#823,#824);
#710=AXIS2_PLACEMENT_3D('',#1020,#825,#826);
#711=AXIS2_PLACEMENT_3D('',#1022,#827,#828);
#712=AXIS2_PLACEMENT_3D('',#1023,#829,#830);
#713=AXIS2_PLACEMENT_3D('',#1025,#831,#832);
#714=AXIS2_PLACEMENT_3D('',#1028,#834,#835);
#715=AXIS2_PLACEMENT_3D('',#1029,#836,#837);
#716=AXIS2_PLACEMENT_3D('',#1031,#838,#839);
#717=AXIS2_PLACEMENT_3D('',#1032,#840,#841);
#718=AXIS2_PLACEMENT_3D('',#1034,#842,#843);
#719=AXIS2_PLACEMENT_3D('',#1037,#845,#846);
#720=AXIS2_PLACEMENT_3D('',#1038,#847,#848);
#721=AXIS2_PLACEMENT_3D('',#1040,#849,#850);
#722=AXIS2_PLACEMENT_3D('',#1041,#851,#852);
#723=AXIS2_PLACEMENT_3D('',#1043,#853,#854);
#724=AXIS2_PLACEMENT_3D('',#1046,#856,#857);
#725=AXIS2_PLACEMENT_3D('',#1047,#858,#859);
#726=AXIS2_PLACEMENT_3D('',#1048,#860,#861);
#727=AXIS2_PLACEMENT_3D('',#1050,#862,#863);
#728=AXIS2_PLACEMENT_3D('',#1053,#865,#866);
#729=AXIS2_PLACEMENT_3D('',#1054,#867,#868);
#730=AXIS2_PLACEMENT_3D('',#1055,#869,#870);
#731=AXIS2_PLACEMENT_3D('',#1057,#871,#872);
#732=AXIS2_PLACEMENT_3D('',#1060,#874,#875);
#733=AXIS2_PLACEMENT_3D('',#1061,#876,#877);
#734=AXIS2_PLACEMENT_3D('',#1062,#878,#879);
#735=AXIS2_PLACEMENT_3D('',#1064,#880,#881);
#736=AXIS2_PLACEMENT_3D('',#1067,#883,#884);
#737=AXIS2_PLACEMENT_3D('',#1068,#885,#886);
#738=AXIS2_PLACEMENT_3D('',#1069,#887,#888);
#739=AXIS2_PLACEMENT_3D('',#1071,#889,#890);
#740=AXIS2_PLACEMENT_3D('',#1073,#892,#893);
#741=AXIS2_PLACEMENT_3D('',#1082,#898,#899);
#742=AXIS2_PLACEMENT_3D('',#1088,#903,#904);
#743=AXIS2_PLACEMENT_3D('',#1094,#908,#909);
#744=AXIS2_PLACEMENT_3D('',#1097,#912,#913);
#745=AXIS2_PLACEMENT_3D('',#1099,#914,#915);
#746=AXIS2_PLACEMENT_3D('',#1101,#917,#918);
#747=AXIS2_PLACEMENT_3D('',#1103,#919,#920);
#748=AXIS2_PLACEMENT_3D('',#1105,#922,#923);
#749=AXIS2_PLACEMENT_3D('',#1114,#928,#929);
#750=AXIS2_PLACEMENT_3D('',#1116,#930,#931);
#751=AXIS2_PLACEMENT_3D('',#1118,#933,#934);
#752=AXIS2_PLACEMENT_3D('',#1124,#938,#939);
#753=AXIS2_PLACEMENT_3D('',#1130,#943,#944);
#754=AXIS2_PLACEMENT_3D('',#1136,#948,#949);
#755=AXIS2_PLACEMENT_3D('',#1139,#952,#953);
#756=AXIS2_PLACEMENT_3D('',#1140,#954,#955);
#757=DIRECTION('axis',(0.,0.,1.));
#758=DIRECTION('refdir',(1.,0.,0.));
#759=DIRECTION('center_axis',(0.,0.,1.));
#760=DIRECTION('ref_axis',(-0.707106781186549,0.707106781186546,0.));
#761=DIRECTION('center_axis',(0.,0.,-1.));
#762=DIRECTION('ref_axis',(-0.707106781186549,0.707106781186546,0.));
#763=DIRECTION('',(0.,0.,1.));
#764=DIRECTION('center_axis',(0.,0.,1.));
#765=DIRECTION('ref_axis',(-0.707106781186549,0.707106781186546,0.));
#766=DIRECTION('',(0.,0.,-1.));
#767=DIRECTION('center_axis',(0.,1.,0.));
#768=DIRECTION('ref_axis',(-1.,0.,0.));
#769=DIRECTION('',(-1.,0.,0.));
#770=DIRECTION('',(0.,0.,-1.));
#771=DIRECTION('',(1.,0.,0.));
#772=DIRECTION('center_axis',(0.,0.,1.));
#773=DIRECTION('ref_axis',(0.707106781186549,0.707106781186546,0.));
#774=DIRECTION('center_axis',(0.,0.,-1.));
#775=DIRECTION('ref_axis',(0.707106781186549,0.707106781186546,0.));
#776=DIRECTION('',(0.,0.,1.));
#777=DIRECTION('center_axis',(0.,0.,1.));
#778=DIRECTION('ref_axis',(0.707106781186549,0.707106781186546,0.));
#779=DIRECTION('center_axis',(1.,0.,0.));
#780=DIRECTION('ref_axis',(0.,1.,0.));
#781=DIRECTION('',(0.,1.,0.));
#782=DIRECTION('',(0.,0.,-1.));
#783=DIRECTION('',(0.,-1.,0.));
#784=DIRECTION('center_axis',(0.,0.,1.));
#785=DIRECTION('ref_axis',(-0.707106781186549,-0.707106781186546,0.));
#786=DIRECTION('center_axis',(0.,0.,-1.));
#787=DIRECTION('ref_axis',(-0.707106781186549,-0.707106781186546,0.));
#788=DIRECTION('',(0.,0.,1.));
#789=DIRECTION('center_axis',(0.,0.,1.));
#790=DIRECTION('ref_axis',(-0.707106781186549,-0.707106781186546,0.));
#791=DIRECTION('',(0.,0.,-1.));
#792=DIRECTION('center_axis',(-1.,0.,0.));
#793=DIRECTION('ref_axis',(0.,-1.,0.));
#794=DIRECTION('',(0.,1.,0.));
#795=DIRECTION('',(0.,-1.,0.));
#796=DIRECTION('center_axis',(0.,0.,1.));
#797=DIRECTION('ref_axis',(0.707106781186549,-0.707106781186546,0.));
#798=DIRECTION('center_axis',(0.,0.,-1.));
#799=DIRECTION('ref_axis',(0.707106781186549,-0.707106781186546,0.));
#800=DIRECTION('',(0.,0.,1.));
#801=DIRECTION('center_axis',(0.,0.,1.));
#802=DIRECTION('ref_axis',(0.707106781186549,-0.707106781186546,0.));
#803=DIRECTION('center_axis',(0.,-1.,0.));
#804=DIRECTION('ref_axis',(1.,0.,0.));
#805=DIRECTION('',(-1.,0.,0.));
#806=DIRECTION('',(1.,0.,0.));
#807=DIRECTION('center_axis',(0.,0.,-1.));
#808=DIRECTION('ref_axis',(-1.,0.,0.));
#809=DIRECTION('center_axis',(0.,0.,-1.));
#810=DIRECTION('ref_axis',(-1.,0.,0.));
#811=DIRECTION('',(0.,0.,-1.));
#812=DIRECTION('center_axis',(0.,0.,-1.));
#813=DIRECTION('ref_axis',(-1.,0.,0.));
#814=DIRECTION('center_axis',(0.,0.,1.));
#815=DIRECTION('ref_axis',(-1.,0.,0.));
#816=DIRECTION('center_axis',(0.,0.,1.));
#817=DIRECTION('ref_axis',(1.,0.,0.));
#818=DIRECTION('center_axis',(0.,0.,-1.));
#819=DIRECTION('ref_axis',(-1.,0.,0.));
#820=DIRECTION('center_axis',(0.,0.,-1.));
#821=DIRECTION('ref_axis',(-1.,0.,0.));
#822=DIRECTION('',(0.,0.,-1.));
#823=DIRECTION('center_axis',(0.,0.,-1.));
#824=DIRECTION('ref_axis',(-1.,0.,0.));
#825=DIRECTION('center_axis',(0.,0.,1.));
#826=DIRECTION('ref_axis',(-1.,0.,0.));
#827=DIRECTION('center_axis',(0.,0.,1.));
#828=DIRECTION('ref_axis',(1.,0.,0.));
#829=DIRECTION('center_axis',(0.,0.,-1.));
#830=DIRECTION('ref_axis',(-1.,0.,0.));
#831=DIRECTION('center_axis',(0.,0.,-1.));
#832=DIRECTION('ref_axis',(-1.,0.,0.));
#833=DIRECTION('',(0.,0.,-1.));
#834=DIRECTION('center_axis',(0.,0.,-1.));
#835=DIRECTION('ref_axis',(-1.,0.,0.));
#836=DIRECTION('center_axis',(0.,0.,1.));
#837=DIRECTION('ref_axis',(-1.,0.,0.));
#838=DIRECTION('center_axis',(0.,0.,1.));
#839=DIRECTION('ref_axis',(1.,0.,0.));
#840=DIRECTION('center_axis',(0.,0.,-1.));
#841=DIRECTION('ref_axis',(-1.,0.,0.));
#842=DIRECTION('center_axis',(0.,0.,-1.));
#843=DIRECTION('ref_axis',(-1.,0.,0.));
#844=DIRECTION('',(0.,0.,-1.));
#845=DIRECTION('center_axis',(0.,0.,-1.));
#846=DIRECTION('ref_axis',(-1.,0.,0.));
#847=DIRECTION('center_axis',(0.,0.,1.));
#848=DIRECTION('ref_axis',(-1.,0.,0.));
#849=DIRECTION('center_axis',(0.,0.,1.));
#850=DIRECTION('ref_axis',(1.,0.,0.));
#851=DIRECTION('center_axis',(0.,0.,1.));
#852=DIRECTION('ref_axis',(1.,0.,0.));
#853=DIRECTION('center_axis',(0.,0.,-1.));
#854=DIRECTION('ref_axis',(1.,0.,0.));
#855=DIRECTION('',(0.,0.,1.));
#856=DIRECTION('center_axis',(0.,0.,1.));
#857=DIRECTION('ref_axis',(1.,0.,0.));
#858=DIRECTION('center_axis',(0.,0.,-1.));
#859=DIRECTION('ref_axis',(1.,0.,0.));
#860=DIRECTION('center_axis',(0.,0.,1.));
#861=DIRECTION('ref_axis',(1.,0.,0.));
#862=DIRECTION('center_axis',(0.,0.,-1.));
#863=DIRECTION('ref_axis',(1.,0.,0.));
#864=DIRECTION('',(0.,0.,1.));
#865=DIRECTION('center_axis',(0.,0.,1.));
#866=DIRECTION('ref_axis',(1.,0.,0.));
#867=DIRECTION('center_axis',(0.,0.,-1.));
#868=DIRECTION('ref_axis',(1.,0.,0.));
#869=DIRECTION('center_axis',(0.,0.,1.));
#870=DIRECTION('ref_axis',(1.,0.,0.));
#871=DIRECTION('center_axis',(0.,0.,-1.));
#872=DIRECTION('ref_axis',(1.,0.,0.));
#873=DIRECTION('',(0.,0.,1.));
#874=DIRECTION('center_axis',(0.,0.,1.));
#875=DIRECTION('ref_axis',(1.,0.,0.));
#876=DIRECTION('center_axis',(0.,0.,-1.));
#877=DIRECTION('ref_axis',(1.,0.,0.));
#878=DIRECTION('center_axis',(0.,0.,1.));
#879=DIRECTION('ref_axis',(1.,0.,0.));
#880=DIRECTION('center_axis',(0.,0.,-1.));
#881=DIRECTION('ref_axis',(1.,0.,0.));
#882=DIRECTION('',(0.,0.,1.));
#883=DIRECTION('center_axis',(0.,0.,1.));
#884=DIRECTION('ref_axis',(1.,0.,0.));
#885=DIRECTION('center_axis',(0.,0.,-1.));
#886=DIRECTION('ref_axis',(1.,0.,0.));
#887=DIRECTION('center_axis',(0.,0.,1.));
#888=DIRECTION('ref_axis',(1.,0.,0.));
#889=DIRECTION('center_axis',(0.,0.,1.));
#890=DIRECTION('ref_axis',(1.,0.,0.));
#891=DIRECTION('',(0.,0.,1.));
#892=DIRECTION('center_axis',(1.,-3.44255201434157E-16,0.));
#893=DIRECTION('ref_axis',(3.44255201434157E-16,1.,0.));
#894=DIRECTION('',(-3.44255201434157E-16,-1.,0.));
#895=DIRECTION('',(0.,0.,1.));
#896=DIRECTION('',(3.44255201434157E-16,1.,0.));
#897=DIRECTION('',(0.,0.,1.));
#898=DIRECTION('center_axis',(0.,-1.,0.));
#899=DIRECTION('ref_axis',(1.,0.,0.));
#900=DIRECTION('',(-1.,0.,0.));
#901=DIRECTION('',(1.,0.,0.));
#902=DIRECTION('',(0.,0.,1.));
#903=DIRECTION('center_axis',(-1.,9.81127324087348E-16,0.));
#904=DIRECTION('ref_axis',(-9.81127324087348E-16,-1.,0.));
#905=DIRECTION('',(9.81127324087348E-16,1.,0.));
#906=DIRECTION('',(-9.81127324087348E-16,-1.,0.));
#907=DIRECTION('',(0.,0.,1.));
#908=DIRECTION('center_axis',(0.,1.,0.));
#909=DIRECTION('ref_axis',(-1.,0.,0.));
#910=DIRECTION('',(1.,0.,0.));
#911=DIRECTION('',(-1.,0.,0.));
#912=DIRECTION('center_axis',(0.,0.,1.));
#913=DIRECTION('ref_axis',(1.,0.,0.));
#914=DIRECTION('center_axis',(0.,0.,1.));
#915=DIRECTION('ref_axis',(1.,0.,0.));
#916=DIRECTION('',(0.,0.,1.));
#917=DIRECTION('center_axis',(0.,0.,1.));
#918=DIRECTION('ref_axis',(1.,0.,0.));
#919=DIRECTION('center_axis',(0.,0.,1.));
#920=DIRECTION('ref_axis',(1.,0.,0.));
#921=DIRECTION('',(0.,0.,1.));
#922=DIRECTION('center_axis',(0.707106781186546,-0.707106781186549,0.));
#923=DIRECTION('ref_axis',(0.707106781186549,0.707106781186546,0.));
#924=DIRECTION('',(-0.707106781186549,-0.707106781186546,0.));
#925=DIRECTION('',(0.,0.,1.));
#926=DIRECTION('',(0.707106781186549,0.707106781186546,0.));
#927=DIRECTION('',(0.,0.,-1.));
#928=DIRECTION('center_axis',(0.,0.,1.));
#929=DIRECTION('ref_axis',(1.,0.,0.));
#930=DIRECTION('center_axis',(0.,0.,1.));
#931=DIRECTION('ref_axis',(1.,0.,0.));
#932=DIRECTION('',(0.,0.,1.));
#933=DIRECTION('center_axis',(1.,0.,0.));
#934=DIRECTION('ref_axis',(0.,0.,-1.));
#935=DIRECTION('',(0.,1.,0.));
#936=DIRECTION('',(0.,0.,-1.));
#937=DIRECTION('',(0.,-1.,0.));
#938=DIRECTION('center_axis',(0.,0.,1.));
#939=DIRECTION('ref_axis',(0.,1.,0.));
#940=DIRECTION('',(1.,0.,0.));
#941=DIRECTION('',(0.,1.,0.));
#942=DIRECTION('',(-1.,0.,0.));
#943=DIRECTION('center_axis',(0.,0.,1.));
#944=DIRECTION('ref_axis',(0.,1.,0.));
#945=DIRECTION('',(1.,0.,0.));
#946=DIRECTION('',(0.,-1.,0.));
#947=DIRECTION('',(-1.,0.,0.));
#948=DIRECTION('center_axis',(-1.,0.,0.));
#949=DIRECTION('ref_axis',(0.,0.,1.));
#950=DIRECTION('',(0.,0.,-1.));
#951=DIRECTION('',(0.,0.,-1.));
#952=DIRECTION('center_axis',(0.,1.,0.));
#953=DIRECTION('ref_axis',(0.,0.,-1.));
#954=DIRECTION('center_axis',(0.,-1.,0.));
#955=DIRECTION('ref_axis',(0.,0.,1.));
#956=CARTESIAN_POINT('',(0.,0.,0.));
#957=CARTESIAN_POINT('Origin',(20.2502575916307,83.,0.));
#958=CARTESIAN_POINT('',(18.2502575916307,83.,0.));
#959=CARTESIAN_POINT('',(20.2502575916307,85.,0.));
#960=CARTESIAN_POINT('Origin',(20.2502575916307,83.,0.));
#961=CARTESIAN_POINT('',(20.2502575916307,85.,5.));
#962=CARTESIAN_POINT('',(20.2502575916307,85.,0.));
#963=CARTESIAN_POINT('',(18.2502575916307,83.,5.));
#964=CARTESIAN_POINT('Origin',(20.2502575916307,83.,5.));
#965=CARTESIAN_POINT('',(18.2502575916307,83.,0.));
#966=CARTESIAN_POINT('Origin',(38.2502575916307,85.,0.));
#967=CARTESIAN_POINT('',(36.2502575916307,85.,0.));
#968=CARTESIAN_POINT('',(29.8752575916307,85.,0.));
#969=CARTESIAN_POINT('',(36.2502575916307,85.,5.));
#970=CARTESIAN_POINT('',(36.2502575916307,85.,0.));
#971=CARTESIAN_POINT('',(29.8752575916307,85.,5.));
#972=CARTESIAN_POINT('Origin',(36.2502575916307,83.,0.));
#973=CARTESIAN_POINT('',(38.2502575916307,83.,0.));
#974=CARTESIAN_POINT('Origin',(36.2502575916307,83.,0.));
#975=CARTESIAN_POINT('',(38.2502575916307,83.,5.));
#976=CARTESIAN_POINT('',(38.2502575916307,83.,0.));
#977=CARTESIAN_POINT('Origin',(36.2502575916307,83.,5.));
#978=CARTESIAN_POINT('Origin',(38.2502575916307,73.,0.));
#979=CARTESIAN_POINT('',(38.2502575916307,75.,0.));
#980=CARTESIAN_POINT('',(38.2502575916307,59.75,0.));
#981=CARTESIAN_POINT('',(38.2502575916307,75.,5.));
#982=CARTESIAN_POINT('',(38.2502575916307,75.,0.));
#983=CARTESIAN_POINT('',(38.2502575916307,59.75,5.));
#984=CARTESIAN_POINT('Origin',(20.2502575916307,75.,0.));
#985=CARTESIAN_POINT('',(20.2502575916307,73.,0.));
#986=CARTESIAN_POINT('',(18.2502575916307,75.,0.));
#987=CARTESIAN_POINT('Origin',(20.2502575916307,75.,0.));
#988=CARTESIAN_POINT('',(18.2502575916307,75.,5.));
#989=CARTESIAN_POINT('',(18.2502575916307,75.,0.));
#990=CARTESIAN_POINT('',(20.2502575916307,73.,5.));
#991=CARTESIAN_POINT('Origin',(20.2502575916307,75.,5.));
#992=CARTESIAN_POINT('',(20.2502575916307,73.,0.));
#993=CARTESIAN_POINT('Origin',(18.2502575916307,85.,0.));
#994=CARTESIAN_POINT('',(18.2502575916307,65.75,5.));
#995=CARTESIAN_POINT('',(18.2502575916307,65.75,0.));
#996=CARTESIAN_POINT('Origin',(36.2502575916307,75.,0.));
#997=CARTESIAN_POINT('',(36.2502575916307,73.,0.));
#998=CARTESIAN_POINT('Origin',(36.2502575916307,75.,0.));
#999=CARTESIAN_POINT('',(36.2502575916307,73.,5.));
#1000=CARTESIAN_POINT('',(36.2502575916307,73.,0.));
#1001=CARTESIAN_POINT('Origin',(36.2502575916307,75.,5.));
#1002=CARTESIAN_POINT('Origin',(18.2502575916307,73.,0.));
#1003=CARTESIAN_POINT('',(19.8752575916307,73.,5.));
#1004=CARTESIAN_POINT('',(19.8752575916307,73.,0.));
#1005=CARTESIAN_POINT('Origin',(40.5002575916307,2.49999999999999,5.));
#1006=CARTESIAN_POINT('',(42.5002575916307,2.49999999999999,5.));
#1007=CARTESIAN_POINT('Origin',(40.5002575916307,2.49999999999999,5.));
#1008=CARTESIAN_POINT('',(42.5002575916307,2.49999999999999,2.5));
#1009=CARTESIAN_POINT('',(42.5002575916307,2.49999999999999,5.));
#1010=CARTESIAN_POINT('Origin',(40.5002575916307,2.49999999999999,2.5));
#1011=CARTESIAN_POINT('Origin',(40.5002575916307,2.49999999999999,2.5));
#1012=CARTESIAN_POINT('',(39.3002575916307,2.49999999999999,2.5));
#1013=CARTESIAN_POINT('Origin',(40.5002575916307,2.49999999999999,2.5));
#1014=CARTESIAN_POINT('Origin',(2.50025759163075,72.5,5.));
#1015=CARTESIAN_POINT('',(4.50025759163075,72.5,5.));
#1016=CARTESIAN_POINT('Origin',(2.50025759163075,72.5,5.));
#1017=CARTESIAN_POINT('',(4.50025759163075,72.5,2.5));
#1018=CARTESIAN_POINT('',(4.50025759163075,72.5,5.));
#1019=CARTESIAN_POINT('Origin',(2.50025759163075,72.5,2.5));
#1020=CARTESIAN_POINT('Origin',(2.50025759163075,72.5,2.5));
#1021=CARTESIAN_POINT('',(1.30025759163075,72.5,2.5));
#1022=CARTESIAN_POINT('Origin',(2.50025759163075,72.5,2.5));
#1023=CARTESIAN_POINT('Origin',(2.50025759163075,2.5,5.));
#1024=CARTESIAN_POINT('',(4.50025759163075,2.5,5.));
#1025=CARTESIAN_POINT('Origin',(2.50025759163075,2.5,5.));
#1026=CARTESIAN_POINT('',(4.50025759163075,2.5,2.5));
#1027=CARTESIAN_POINT('',(4.50025759163075,2.5,5.));
#1028=CARTESIAN_POINT('Origin',(2.50025759163075,2.5,2.5));
#1029=CARTESIAN_POINT('Origin',(2.50025759163075,2.5,2.5));
#1030=CARTESIAN_POINT('',(1.30025759163075,2.5,2.5));
#1031=CARTESIAN_POINT('Origin',(2.50025759163075,2.5,2.5));
#1032=CARTESIAN_POINT('Origin',(40.5002575916307,90.5,5.));
#1033=CARTESIAN_POINT('',(42.5002575916307,90.5,5.));
#1034=CARTESIAN_POINT('Origin',(40.5002575916307,90.5,5.));
#1035=CARTESIAN_POINT('',(42.5002575916307,90.5,2.5));
#1036=CARTESIAN_POINT('',(42.5002575916307,90.5,5.));
#1037=CARTESIAN_POINT('Origin',(40.5002575916307,90.5,2.5));
#1038=CARTESIAN_POINT('Origin',(40.5002575916307,90.5,2.5));
#1039=CARTESIAN_POINT('',(39.3002575916307,90.5,2.5));
#1040=CARTESIAN_POINT('Origin',(40.5002575916307,90.5,2.5));
#1041=CARTESIAN_POINT('Origin',(39.8002575916307,69.05,0.));
#1042=CARTESIAN_POINT('',(38.9887575916307,69.05,0.));
#1043=CARTESIAN_POINT('Origin',(39.8002575916307,69.05,0.));
#1044=CARTESIAN_POINT('',(38.9887575916307,69.05,4.));
#1045=CARTESIAN_POINT('',(38.9887575916307,69.05,0.));
#1046=CARTESIAN_POINT('Origin',(39.8002575916307,69.05,4.));
#1047=CARTESIAN_POINT('Origin',(39.8002575916307,69.05,4.));
#1048=CARTESIAN_POINT('Origin',(39.8002575916307,5.95000000000001,0.));
#1049=CARTESIAN_POINT('',(38.9887575916307,5.95000000000001,0.));
#1050=CARTESIAN_POINT('Origin',(39.8002575916307,5.95000000000001,0.));
#1051=CARTESIAN_POINT('',(38.9887575916307,5.95000000000001,4.));
#1052=CARTESIAN_POINT('',(38.9887575916307,5.95000000000001,0.));
#1053=CARTESIAN_POINT('Origin',(39.8002575916307,5.95000000000001,4.));
#1054=CARTESIAN_POINT('Origin',(39.8002575916307,5.95000000000001,4.));
#1055=CARTESIAN_POINT('Origin',(8.20025759163073,69.05,0.));
#1056=CARTESIAN_POINT('',(7.38875759163073,69.05,0.));
#1057=CARTESIAN_POINT('Origin',(8.20025759163073,69.05,0.));
#1058=CARTESIAN_POINT('',(7.38875759163073,69.05,4.));
#1059=CARTESIAN_POINT('',(7.38875759163073,69.05,0.));
#1060=CARTESIAN_POINT('Origin',(8.20025759163073,69.05,4.));
#1061=CARTESIAN_POINT('Origin',(8.20025759163073,69.05,4.));
#1062=CARTESIAN_POINT('Origin',(8.20025759163073,5.95,0.));
#1063=CARTESIAN_POINT('',(7.38875759163073,5.95,0.));
#1064=CARTESIAN_POINT('Origin',(8.20025759163073,5.95,0.));
#1065=CARTESIAN_POINT('',(7.38875759163073,5.95,4.));
#1066=CARTESIAN_POINT('',(7.38875759163073,5.95,0.));
#1067=CARTESIAN_POINT('Origin',(8.20025759163073,5.95,4.));
#1068=CARTESIAN_POINT('Origin',(8.20025759163073,5.95,4.));
#1069=CARTESIAN_POINT('Origin',(2.50025759163075,2.5,0.));
#1070=CARTESIAN_POINT('',(1.30025759163075,2.5,0.));
#1071=CARTESIAN_POINT('Origin',(2.50025759163075,2.5,0.));
#1072=CARTESIAN_POINT('',(1.30025759163075,2.5,0.));
#1073=CARTESIAN_POINT('Origin',(38.2502575916307,5.24999999999998,0.));
#1074=CARTESIAN_POINT('',(38.2502575916308,69.75,5.));
#1075=CARTESIAN_POINT('',(38.2502575916307,5.24999999999998,5.));
#1076=CARTESIAN_POINT('',(38.2502575916307,25.875,5.));
#1077=CARTESIAN_POINT('',(38.2502575916308,69.75,0.));
#1078=CARTESIAN_POINT('',(38.2502575916308,69.75,0.));
#1079=CARTESIAN_POINT('',(38.2502575916307,5.24999999999998,0.));
#1080=CARTESIAN_POINT('',(38.2502575916307,25.875,0.));
#1081=CARTESIAN_POINT('',(38.2502575916307,5.24999999999998,0.));
#1082=CARTESIAN_POINT('Origin',(9.7502575916307,5.24999999999998,0.));
#1083=CARTESIAN_POINT('',(9.7502575916307,5.24999999999998,5.));
#1084=CARTESIAN_POINT('',(15.6252575916307,5.24999999999999,5.));
#1085=CARTESIAN_POINT('',(9.7502575916307,5.24999999999998,0.));
#1086=CARTESIAN_POINT('',(15.6252575916307,5.24999999999999,0.));
#1087=CARTESIAN_POINT('',(9.7502575916307,5.24999999999998,0.));
#1088=CARTESIAN_POINT('Origin',(9.75025759163076,69.75,0.));
#1089=CARTESIAN_POINT('',(9.75025759163076,69.75,5.));
#1090=CARTESIAN_POINT('',(9.75025759163075,58.125,5.));
#1091=CARTESIAN_POINT('',(9.75025759163076,69.75,0.));
#1092=CARTESIAN_POINT('',(9.75025759163075,58.125,0.));
#1093=CARTESIAN_POINT('',(9.75025759163076,69.75,0.));
#1094=CARTESIAN_POINT('Origin',(38.2502575916308,69.75,0.));
#1095=CARTESIAN_POINT('',(29.8752575916308,69.75,5.));
#1096=CARTESIAN_POINT('',(29.8752575916308,69.75,0.));
#1097=CARTESIAN_POINT('Origin',(40.5002575916307,2.49999999999999,0.));
#1098=CARTESIAN_POINT('',(39.3002575916307,2.49999999999999,0.));
#1099=CARTESIAN_POINT('Origin',(40.5002575916307,2.49999999999999,0.));
#1100=CARTESIAN_POINT('',(39.3002575916307,2.49999999999999,0.));
#1101=CARTESIAN_POINT('Origin',(2.50025759163075,72.5,0.));
#1102=CARTESIAN_POINT('',(1.30025759163075,72.5,0.));
#1103=CARTESIAN_POINT('Origin',(2.50025759163075,72.5,0.));
#1104=CARTESIAN_POINT('',(1.30025759163075,72.5,0.));
#1105=CARTESIAN_POINT('Origin',(0.000257591630745679,75.,0.));
#1106=CARTESIAN_POINT('',(18.0002575916308,93.,5.));
#1107=CARTESIAN_POINT('',(0.000257591630745679,75.,5.));
#1108=CARTESIAN_POINT('',(-1.74974240836924,73.25,5.));
#1109=CARTESIAN_POINT('',(18.0002575916308,93.,0.));
#1110=CARTESIAN_POINT('',(18.0002575916308,93.,1.25));
#1111=CARTESIAN_POINT('',(0.000257591630745679,75.,0.));
#1112=CARTESIAN_POINT('',(-1.74974240836924,73.25,0.));
#1113=CARTESIAN_POINT('',(0.000257591630745679,75.,1.25));
#1114=CARTESIAN_POINT('Origin',(40.5002575916307,90.5,0.));
#1115=CARTESIAN_POINT('',(39.3002575916307,90.5,0.));
#1116=CARTESIAN_POINT('Origin',(40.5002575916307,90.5,0.));
#1117=CARTESIAN_POINT('',(39.3002575916307,90.5,0.));
#1118=CARTESIAN_POINT('Origin',(0.000257591630745679,46.5,2.5));
#1119=CARTESIAN_POINT('',(0.000257591630745679,0.,0.));
#1120=CARTESIAN_POINT('',(0.000257591630745679,46.5,0.));
#1121=CARTESIAN_POINT('',(0.000257591630745679,0.,5.));
#1122=CARTESIAN_POINT('',(0.000257591630745679,0.,2.5));
#1123=CARTESIAN_POINT('',(0.000257591630745679,46.5,5.));
#1124=CARTESIAN_POINT('Origin',(21.5002575916307,46.5,5.));
#1125=CARTESIAN_POINT('',(43.0002575916307,0.,5.));
#1126=CARTESIAN_POINT('',(21.5002575916307,0.,5.));
#1127=CARTESIAN_POINT('',(43.0002575916307,93.,5.));
#1128=CARTESIAN_POINT('',(43.0002575916307,46.5,5.));
#1129=CARTESIAN_POINT('',(21.5002575916307,93.,5.));
#1130=CARTESIAN_POINT('Origin',(21.5002575916307,46.5,0.));
#1131=CARTESIAN_POINT('',(43.0002575916307,93.,0.));
#1132=CARTESIAN_POINT('',(21.5002575916307,93.,0.));
#1133=CARTESIAN_POINT('',(43.0002575916307,0.,0.));
#1134=CARTESIAN_POINT('',(43.0002575916307,46.5,0.));
#1135=CARTESIAN_POINT('',(21.5002575916307,0.,0.));
#1136=CARTESIAN_POINT('Origin',(43.0002575916307,46.5,2.5));
#1137=CARTESIAN_POINT('',(43.0002575916307,0.,2.5));
#1138=CARTESIAN_POINT('',(43.0002575916307,93.,2.5));
#1139=CARTESIAN_POINT('Origin',(21.5002575916307,0.,2.5));
#1140=CARTESIAN_POINT('Origin',(21.5002575916307,93.,2.5));
#1141=UNCERTAINTY_MEASURE_WITH_UNIT(LENGTH_MEASURE(0.01),#1145,
'DISTANCE_ACCURACY_VALUE',
'Maximum model space distance between geometric entities at asserted c
onnectivities');
#1142=UNCERTAINTY_MEASURE_WITH_UNIT(LENGTH_MEASURE(0.01),#1145,
'DISTANCE_ACCURACY_VALUE',
'Maximum model space distance between geometric entities at asserted c
onnectivities');
#1143=(
GEOMETRIC_REPRESENTATION_CONTEXT(3)
GLOBAL_UNCERTAINTY_ASSIGNED_CONTEXT((#1141))
GLOBAL_UNIT_ASSIGNED_CONTEXT((#1145,#1147,#1148))
REPRESENTATION_CONTEXT('','3D')
);
#1144=(
GEOMETRIC_REPRESENTATION_CONTEXT(3)
GLOBAL_UNCERTAINTY_ASSIGNED_CONTEXT((#1142))
GLOBAL_UNIT_ASSIGNED_CONTEXT((#1145,#1147,#1148))
REPRESENTATION_CONTEXT('','3D')
);
#1145=(
LENGTH_UNIT()
NAMED_UNIT(*)
SI_UNIT(.MILLI.,.METRE.)
);
#1146=(
LENGTH_UNIT()
NAMED_UNIT(*)
SI_UNIT($,.METRE.)
);
#1147=(
NAMED_UNIT(*)
PLANE_ANGLE_UNIT()
SI_UNIT($,.RADIAN.)
);
#1148=(
NAMED_UNIT(*)
SI_UNIT($,.STERADIAN.)
SOLID_ANGLE_UNIT()
);
#1149=SHAPE_DEFINITION_REPRESENTATION(#1150,#1151);
#1150=PRODUCT_DEFINITION_SHAPE('',$,#1153);
#1151=SHAPE_REPRESENTATION('',(#685),#1143);
#1152=PRODUCT_DEFINITION_CONTEXT('part definition',#1157,'design');
#1153=PRODUCT_DEFINITION('case top','case top v16',#1154,#1152);
#1154=PRODUCT_DEFINITION_FORMATION('',$,#1159);
#1155=PRODUCT_RELATED_PRODUCT_CATEGORY('case top v16','case top v16',(#1159));
#1156=APPLICATION_PROTOCOL_DEFINITION('international standard',
'automotive_design',2009,#1157);
#1157=APPLICATION_CONTEXT(
'Core Data for Automotive Mechanical Design Process');
#1158=PRODUCT_CONTEXT('part definition',#1157,'mechanical');
#1159=PRODUCT('case top','case top v16',$,(#1158));
#1160=PRESENTATION_STYLE_ASSIGNMENT((#1161));
#1161=SURFACE_STYLE_USAGE(.BOTH.,#1162);
#1162=SURFACE_SIDE_STYLE('',(#1163));
#1163=SURFACE_STYLE_FILL_AREA(#1164);
#1164=FILL_AREA_STYLE('Plastic - Matte (White)',(#1165));
#1165=FILL_AREA_STYLE_COLOUR('Plastic - Matte (White)',#1166);
#1166=COLOUR_RGB('Plastic - Matte (White)',0.964705882352941,0.964705882352941,
0.952941176470588);
ENDSEC;
END-ISO-10303-21;
