ISO-10303-21;
HEADER;
/* Generated by software containing ST-Developer
 * from STEP Tools, Inc. (www.steptools.com) 
 */

FILE_DESCRIPTION(
/* description */ (''),
/* implementation_level */ '2;1');

FILE_NAME(
/* name */ 'case bottom v29.step',
/* time_stamp */ '2026-06-18T20:19:09-04:00',
/* author */ (''),
/* organization */ (''),
/* preprocessor_version */ 'ST-DEVELOPER v20.1',
/* originating_system */ 'Autodesk Translation Framework v15.8.0.0',
/* authorisation */ '');

FILE_SCHEMA (('AUTOMOTIVE_DESIGN { 1 0 10303 214 3 1 1 }'));
ENDSEC;

DATA;
#10=MECHANICAL_DESIGN_GEOMETRIC_PRESENTATION_REPRESENTATION('',(#13),#1907);
#11=SHAPE_REPRESENTATION_RELATIONSHIP('SRR','None',#1914,#12);
#12=ADVANCED_BREP_SHAPE_REPRESENTATION('',(#14),#1906);
#13=STYLED_ITEM('',(#1924),#14);
#14=MANIFOLD_SOLID_BREP('Body2',#1109);
#15=SPHERICAL_SURFACE('',#1148,1.);
#16=SPHERICAL_SURFACE('',#1152,1.);
#17=SPHERICAL_SURFACE('',#1156,0.999999999999996);
#18=SPHERICAL_SURFACE('',#1160,0.999999999999998);
#19=SPHERICAL_SURFACE('',#1166,1.);
#20=SPHERICAL_SURFACE('',#1171,0.999999999999996);
#21=SPHERICAL_SURFACE('',#1175,1.);
#22=SPHERICAL_SURFACE('',#1181,0.999999999999996);
#23=SPHERICAL_SURFACE('',#1186,1.);
#24=SPHERICAL_SURFACE('',#1192,1.);
#25=TOROIDAL_SURFACE('',#1136,1.8115,1.);
#26=TOROIDAL_SURFACE('',#1142,1.8115,1.);
#27=FACE_BOUND('',#193,.T.);
#28=FACE_BOUND('',#194,.T.);
#29=FACE_BOUND('',#195,.T.);
#30=FACE_BOUND('',#228,.T.);
#31=FACE_BOUND('',#239,.T.);
#32=FACE_BOUND('',#244,.T.);
#33=FACE_BOUND('',#251,.T.);
#34=FACE_BOUND('',#258,.T.);
#35=CIRCLE('',#1134,1.8115);
#36=CIRCLE('',#1135,1.8115);
#37=CIRCLE('',#1137,1.);
#38=CIRCLE('',#1138,0.8115);
#39=CIRCLE('',#1139,0.8115);
#40=CIRCLE('',#1141,0.8115);
#41=CIRCLE('',#1143,1.);
#42=CIRCLE('',#1144,0.8115);
#43=CIRCLE('',#1145,0.8115);
#44=CIRCLE('',#1147,0.8115);
#45=CIRCLE('',#1149,0.999999999999999);
#46=CIRCLE('',#1150,1.);
#47=CIRCLE('',#1151,1.);
#48=CIRCLE('',#1153,0.999999999999979);
#49=CIRCLE('',#1154,1.);
#50=CIRCLE('',#1155,1.);
#51=CIRCLE('',#1157,1.);
#52=CIRCLE('',#1158,0.999999999999996);
#53=CIRCLE('',#1159,1.);
#54=CIRCLE('',#1161,0.999999999999996);
#55=CIRCLE('',#1162,0.999999999999998);
#56=CIRCLE('',#1163,0.999999999999996);
#57=CIRCLE('',#1167,1.);
#58=CIRCLE('',#1168,1.);
#59=CIRCLE('',#1169,1.);
#60=CIRCLE('',#1172,0.999999999999996);
#61=CIRCLE('',#1173,0.999999999999996);
#62=CIRCLE('',#1174,1.);
#63=CIRCLE('',#1176,0.999999999999996);
#64=CIRCLE('',#1177,1.);
#65=CIRCLE('',#1178,0.999999999999996);
#66=CIRCLE('',#1182,0.999999999999996);
#67=CIRCLE('',#1183,0.999999999999996);
#68=CIRCLE('',#1184,0.999999999999996);
#69=CIRCLE('',#1187,1.);
#70=CIRCLE('',#1188,1.);
#71=CIRCLE('',#1189,0.999999999999996);
#72=CIRCLE('',#1193,0.999999999999996);
#73=CIRCLE('',#1194,1.);
#74=CIRCLE('',#1195,0.999999999999996);
#75=CIRCLE('',#1214,0.8115);
#76=CIRCLE('',#1215,0.8115);
#77=CIRCLE('',#1219,0.8115);
#78=CIRCLE('',#1220,0.8115);
#79=CIRCLE('',#1227,0.8115);
#80=CIRCLE('',#1228,0.8115);
#81=CIRCLE('',#1235,0.8115);
#82=CIRCLE('',#1236,0.8115);
#83=PLANE('',#1131);
#84=PLANE('',#1132);
#85=PLANE('',#1133);
#86=PLANE('',#1203);
#87=PLANE('',#1204);
#88=PLANE('',#1205);
#89=PLANE('',#1206);
#90=PLANE('',#1207);
#91=PLANE('',#1208);
#92=PLANE('',#1209);
#93=PLANE('',#1210);
#94=PLANE('',#1211);
#95=PLANE('',#1212);
#96=PLANE('',#1216);
#97=PLANE('',#1217);
#98=PLANE('',#1221);
#99=PLANE('',#1222);
#100=PLANE('',#1223);
#101=PLANE('',#1224);
#102=PLANE('',#1225);
#103=PLANE('',#1229);
#104=PLANE('',#1230);
#105=PLANE('',#1231);
#106=PLANE('',#1232);
#107=PLANE('',#1233);
#108=PLANE('',#1237);
#109=PLANE('',#1238);
#110=PLANE('',#1239);
#111=PLANE('',#1240);
#112=PLANE('',#1241);
#113=PLANE('',#1242);
#114=PLANE('',#1243);
#115=PLANE('',#1244);
#116=FACE_OUTER_BOUND('',#186,.T.);
#117=FACE_OUTER_BOUND('',#187,.T.);
#118=FACE_OUTER_BOUND('',#188,.T.);
#119=FACE_OUTER_BOUND('',#189,.T.);
#120=FACE_OUTER_BOUND('',#190,.T.);
#121=FACE_OUTER_BOUND('',#191,.T.);
#122=FACE_OUTER_BOUND('',#192,.T.);
#123=FACE_OUTER_BOUND('',#196,.T.);
#124=FACE_OUTER_BOUND('',#197,.T.);
#125=FACE_OUTER_BOUND('',#198,.T.);
#126=FACE_OUTER_BOUND('',#199,.T.);
#127=FACE_OUTER_BOUND('',#200,.T.);
#128=FACE_OUTER_BOUND('',#201,.T.);
#129=FACE_OUTER_BOUND('',#202,.T.);
#130=FACE_OUTER_BOUND('',#203,.T.);
#131=FACE_OUTER_BOUND('',#204,.T.);
#132=FACE_OUTER_BOUND('',#205,.T.);
#133=FACE_OUTER_BOUND('',#206,.T.);
#134=FACE_OUTER_BOUND('',#207,.T.);
#135=FACE_OUTER_BOUND('',#208,.T.);
#136=FACE_OUTER_BOUND('',#209,.T.);
#137=FACE_OUTER_BOUND('',#210,.T.);
#138=FACE_OUTER_BOUND('',#211,.T.);
#139=FACE_OUTER_BOUND('',#212,.T.);
#140=FACE_OUTER_BOUND('',#213,.T.);
#141=FACE_OUTER_BOUND('',#214,.T.);
#142=FACE_OUTER_BOUND('',#215,.T.);
#143=FACE_OUTER_BOUND('',#216,.T.);
#144=FACE_OUTER_BOUND('',#217,.T.);
#145=FACE_OUTER_BOUND('',#218,.T.);
#146=FACE_OUTER_BOUND('',#219,.T.);
#147=FACE_OUTER_BOUND('',#220,.T.);
#148=FACE_OUTER_BOUND('',#221,.T.);
#149=FACE_OUTER_BOUND('',#222,.T.);
#150=FACE_OUTER_BOUND('',#223,.T.);
#151=FACE_OUTER_BOUND('',#224,.T.);
#152=FACE_OUTER_BOUND('',#225,.T.);
#153=FACE_OUTER_BOUND('',#226,.T.);
#154=FACE_OUTER_BOUND('',#227,.T.);
#155=FACE_OUTER_BOUND('',#229,.T.);
#156=FACE_OUTER_BOUND('',#230,.T.);
#157=FACE_OUTER_BOUND('',#231,.T.);
#158=FACE_OUTER_BOUND('',#232,.T.);
#159=FACE_OUTER_BOUND('',#233,.T.);
#160=FACE_OUTER_BOUND('',#234,.T.);
#161=FACE_OUTER_BOUND('',#235,.T.);
#162=FACE_OUTER_BOUND('',#236,.T.);
#163=FACE_OUTER_BOUND('',#237,.T.);
#164=FACE_OUTER_BOUND('',#238,.T.);
#165=FACE_OUTER_BOUND('',#240,.T.);
#166=FACE_OUTER_BOUND('',#241,.T.);
#167=FACE_OUTER_BOUND('',#242,.T.);
#168=FACE_OUTER_BOUND('',#243,.T.);
#169=FACE_OUTER_BOUND('',#245,.T.);
#170=FACE_OUTER_BOUND('',#246,.T.);
#171=FACE_OUTER_BOUND('',#247,.T.);
#172=FACE_OUTER_BOUND('',#248,.T.);
#173=FACE_OUTER_BOUND('',#249,.T.);
#174=FACE_OUTER_BOUND('',#250,.T.);
#175=FACE_OUTER_BOUND('',#252,.T.);
#176=FACE_OUTER_BOUND('',#253,.T.);
#177=FACE_OUTER_BOUND('',#254,.T.);
#178=FACE_OUTER_BOUND('',#255,.T.);
#179=FACE_OUTER_BOUND('',#256,.T.);
#180=FACE_OUTER_BOUND('',#257,.T.);
#181=FACE_OUTER_BOUND('',#259,.T.);
#182=FACE_OUTER_BOUND('',#260,.T.);
#183=FACE_OUTER_BOUND('',#261,.T.);
#184=FACE_OUTER_BOUND('',#262,.T.);
#185=FACE_OUTER_BOUND('',#263,.T.);
#186=EDGE_LOOP('',(#710,#711,#712,#713));
#187=EDGE_LOOP('',(#714,#715,#716,#717));
#188=EDGE_LOOP('',(#718,#719,#720,#721));
#189=EDGE_LOOP('',(#722,#723,#724,#725));
#190=EDGE_LOOP('',(#726,#727,#728,#729,#730,#731,#732,#733,#734,#735,#736,
#737,#738,#739,#740));
#191=EDGE_LOOP('',(#741,#742,#743,#744,#745,#746));
#192=EDGE_LOOP('',(#747,#748,#749,#750));
#193=EDGE_LOOP('',(#751));
#194=EDGE_LOOP('',(#752));
#195=EDGE_LOOP('',(#753,#754,#755,#756));
#196=EDGE_LOOP('',(#757,#758,#759,#760,#761));
#197=EDGE_LOOP('',(#762,#763,#764,#765,#766));
#198=EDGE_LOOP('',(#767,#768,#769,#770,#771));
#199=EDGE_LOOP('',(#772,#773,#774,#775,#776));
#200=EDGE_LOOP('',(#777,#778,#779));
#201=EDGE_LOOP('',(#780,#781,#782));
#202=EDGE_LOOP('',(#783,#784,#785));
#203=EDGE_LOOP('',(#786,#787,#788));
#204=EDGE_LOOP('',(#789,#790,#791,#792));
#205=EDGE_LOOP('',(#793,#794,#795,#796));
#206=EDGE_LOOP('',(#797,#798,#799));
#207=EDGE_LOOP('',(#800,#801,#802,#803));
#208=EDGE_LOOP('',(#804,#805,#806));
#209=EDGE_LOOP('',(#807,#808,#809));
#210=EDGE_LOOP('',(#810,#811,#812,#813));
#211=EDGE_LOOP('',(#814,#815,#816,#817));
#212=EDGE_LOOP('',(#818,#819,#820));
#213=EDGE_LOOP('',(#821,#822,#823,#824));
#214=EDGE_LOOP('',(#825,#826,#827));
#215=EDGE_LOOP('',(#828,#829,#830,#831));
#216=EDGE_LOOP('',(#832,#833,#834,#835));
#217=EDGE_LOOP('',(#836,#837,#838));
#218=EDGE_LOOP('',(#839,#840,#841,#842));
#219=EDGE_LOOP('',(#843,#844,#845,#846));
#220=EDGE_LOOP('',(#847,#848,#849,#850));
#221=EDGE_LOOP('',(#851,#852,#853,#854));
#222=EDGE_LOOP('',(#855,#856,#857,#858));
#223=EDGE_LOOP('',(#859,#860,#861,#862));
#224=EDGE_LOOP('',(#863,#864,#865,#866));
#225=EDGE_LOOP('',(#867,#868,#869,#870));
#226=EDGE_LOOP('',(#871,#872,#873,#874));
#227=EDGE_LOOP('',(#875,#876,#877,#878,#879));
#228=EDGE_LOOP('',(#880,#881,#882,#883,#884));
#229=EDGE_LOOP('',(#885,#886,#887,#888,#889));
#230=EDGE_LOOP('',(#890,#891,#892,#893));
#231=EDGE_LOOP('',(#894,#895,#896,#897));
#232=EDGE_LOOP('',(#898));
#233=EDGE_LOOP('',(#899));
#234=EDGE_LOOP('',(#900,#901,#902,#903));
#235=EDGE_LOOP('',(#904,#905,#906,#907));
#236=EDGE_LOOP('',(#908,#909,#910,#911));
#237=EDGE_LOOP('',(#912,#913,#914,#915));
#238=EDGE_LOOP('',(#916,#917,#918,#919));
#239=EDGE_LOOP('',(#920));
#240=EDGE_LOOP('',(#921,#922,#923,#924));
#241=EDGE_LOOP('',(#925,#926,#927,#928));
#242=EDGE_LOOP('',(#929,#930,#931,#932));
#243=EDGE_LOOP('',(#933,#934,#935,#936));
#244=EDGE_LOOP('',(#937));
#245=EDGE_LOOP('',(#938,#939,#940,#941,#942,#943));
#246=EDGE_LOOP('',(#944));
#247=EDGE_LOOP('',(#945,#946,#947,#948));
#248=EDGE_LOOP('',(#949,#950,#951,#952));
#249=EDGE_LOOP('',(#953,#954,#955,#956));
#250=EDGE_LOOP('',(#957,#958,#959,#960));
#251=EDGE_LOOP('',(#961));
#252=EDGE_LOOP('',(#962,#963,#964,#965,#966,#967,#968,#969));
#253=EDGE_LOOP('',(#970));
#254=EDGE_LOOP('',(#971,#972,#973,#974));
#255=EDGE_LOOP('',(#975,#976,#977,#978));
#256=EDGE_LOOP('',(#979,#980,#981,#982));
#257=EDGE_LOOP('',(#983,#984,#985,#986));
#258=EDGE_LOOP('',(#987));
#259=EDGE_LOOP('',(#988,#989,#990,#991,#992,#993,#994,#995));
#260=EDGE_LOOP('',(#996));
#261=EDGE_LOOP('',(#997,#998,#999,#1000,#1001,#1002,#1003,#1004,#1005,#1006));
#262=EDGE_LOOP('',(#1007));
#263=EDGE_LOOP('',(#1008,#1009,#1010,#1011,#1012,#1013));
#264=ELLIPSE('',#1124,1.41421356237309,1.);
#265=ELLIPSE('',#1125,1.4142135623731,1.);
#266=ELLIPSE('',#1127,1.41421356237309,1.);
#267=ELLIPSE('',#1128,1.41421356237309,1.);
#268=LINE('',#1595,#368);
#269=LINE('',#1599,#369);
#270=LINE('',#1604,#370);
#271=LINE('',#1608,#371);
#272=LINE('',#1611,#372);
#273=LINE('',#1612,#373);
#274=LINE('',#1614,#374);
#275=LINE('',#1615,#375);
#276=LINE('',#1618,#376);
#277=LINE('',#1620,#377);
#278=LINE('',#1622,#378);
#279=LINE('',#1624,#379);
#280=LINE('',#1626,#380);
#281=LINE('',#1628,#381);
#282=LINE('',#1630,#382);
#283=LINE('',#1632,#383);
#284=LINE('',#1634,#384);
#285=LINE('',#1636,#385);
#286=LINE('',#1638,#386);
#287=LINE('',#1640,#387);
#288=LINE('',#1642,#388);
#289=LINE('',#1643,#389);
#290=LINE('',#1646,#390);
#291=LINE('',#1648,#391);
#292=LINE('',#1650,#392);
#293=LINE('',#1651,#393);
#294=LINE('',#1655,#394);
#295=LINE('',#1657,#395);
#296=LINE('',#1659,#396);
#297=LINE('',#1660,#397);
#298=LINE('',#1673,#398);
#299=LINE('',#1683,#399);
#300=LINE('',#1712,#400);
#301=LINE('',#1713,#401);
#302=LINE('',#1715,#402);
#303=LINE('',#1716,#403);
#304=LINE('',#1724,#404);
#305=LINE('',#1739,#405);
#306=LINE('',#1741,#406);
#307=LINE('',#1750,#407);
#308=LINE('',#1751,#408);
#309=LINE('',#1760,#409);
#310=LINE('',#1761,#410);
#311=LINE('',#1763,#411);
#312=LINE('',#1764,#412);
#313=LINE('',#1773,#413);
#314=LINE('',#1774,#414);
#315=LINE('',#1776,#415);
#316=LINE('',#1777,#416);
#317=LINE('',#1779,#417);
#318=LINE('',#1780,#418);
#319=LINE('',#1782,#419);
#320=LINE('',#1783,#420);
#321=LINE('',#1785,#421);
#322=LINE('',#1786,#422);
#323=LINE('',#1788,#423);
#324=LINE('',#1790,#424);
#325=LINE('',#1791,#425);
#326=LINE('',#1797,#426);
#327=LINE('',#1799,#427);
#328=LINE('',#1801,#428);
#329=LINE('',#1803,#429);
#330=LINE('',#1804,#430);
#331=LINE('',#1812,#431);
#332=LINE('',#1813,#432);
#333=LINE('',#1815,#433);
#334=LINE('',#1820,#434);
#335=LINE('',#1824,#435);
#336=LINE('',#1825,#436);
#337=LINE('',#1828,#437);
#338=LINE('',#1829,#438);
#339=LINE('',#1834,#439);
#340=LINE('',#1838,#440);
#341=LINE('',#1840,#441);
#342=LINE('',#1841,#442);
#343=LINE('',#1844,#443);
#344=LINE('',#1845,#444);
#345=LINE('',#1848,#445);
#346=LINE('',#1849,#446);
#347=LINE('',#1851,#447);
#348=LINE('',#1852,#448);
#349=LINE('',#1858,#449);
#350=LINE('',#1862,#450);
#351=LINE('',#1864,#451);
#352=LINE('',#1865,#452);
#353=LINE('',#1868,#453);
#354=LINE('',#1869,#454);
#355=LINE('',#1872,#455);
#356=LINE('',#1873,#456);
#357=LINE('',#1875,#457);
#358=LINE('',#1876,#458);
#359=LINE('',#1882,#459);
#360=LINE('',#1886,#460);
#361=LINE('',#1888,#461);
#362=LINE('',#1889,#462);
#363=LINE('',#1892,#463);
#364=LINE('',#1893,#464);
#365=LINE('',#1896,#465);
#366=LINE('',#1897,#466);
#367=LINE('',#1899,#467);
#368=VECTOR('',#1249,10.);
#369=VECTOR('',#1252,10.);
#370=VECTOR('',#1257,10.);
#371=VECTOR('',#1260,10.);
#372=VECTOR('',#1265,10.);
#373=VECTOR('',#1266,10.);
#374=VECTOR('',#1269,10.);
#375=VECTOR('',#1270,10.);
#376=VECTOR('',#1273,10.);
#377=VECTOR('',#1274,10.);
#378=VECTOR('',#1275,10.);
#379=VECTOR('',#1276,10.);
#380=VECTOR('',#1277,10.);
#381=VECTOR('',#1278,10.);
#382=VECTOR('',#1279,10.);
#383=VECTOR('',#1280,10.);
#384=VECTOR('',#1281,10.);
#385=VECTOR('',#1282,10.);
#386=VECTOR('',#1283,10.);
#387=VECTOR('',#1284,10.);
#388=VECTOR('',#1285,10.);
#389=VECTOR('',#1286,10.);
#390=VECTOR('',#1289,10.);
#391=VECTOR('',#1290,10.);
#392=VECTOR('',#1291,10.);
#393=VECTOR('',#1292,10.);
#394=VECTOR('',#1295,10.);
#395=VECTOR('',#1296,10.);
#396=VECTOR('',#1297,10.);
#397=VECTOR('',#1298,10.);
#398=VECTOR('',#1313,0.800000000000001);
#399=VECTOR('',#1326,0.8);
#400=VECTOR('',#1363,10.);
#401=VECTOR('',#1364,10.);
#402=VECTOR('',#1367,10.);
#403=VECTOR('',#1368,10.);
#404=VECTOR('',#1379,10.);
#405=VECTOR('',#1398,10.);
#406=VECTOR('',#1401,10.);
#407=VECTOR('',#1412,10.);
#408=VECTOR('',#1413,10.);
#409=VECTOR('',#1424,10.);
#410=VECTOR('',#1425,10.);
#411=VECTOR('',#1428,10.);
#412=VECTOR('',#1429,10.);
#413=VECTOR('',#1440,10.);
#414=VECTOR('',#1441,10.);
#415=VECTOR('',#1444,10.);
#416=VECTOR('',#1445,10.);
#417=VECTOR('',#1448,10.);
#418=VECTOR('',#1449,10.);
#419=VECTOR('',#1452,10.);
#420=VECTOR('',#1453,10.);
#421=VECTOR('',#1456,10.);
#422=VECTOR('',#1457,10.);
#423=VECTOR('',#1460,10.);
#424=VECTOR('',#1463,10.);
#425=VECTOR('',#1464,10.);
#426=VECTOR('',#1471,10.);
#427=VECTOR('',#1472,10.);
#428=VECTOR('',#1473,10.);
#429=VECTOR('',#1474,10.);
#430=VECTOR('',#1475,10.);
#431=VECTOR('',#1488,10.);
#432=VECTOR('',#1489,10.);
#433=VECTOR('',#1492,10.);
#434=VECTOR('',#1497,0.800000000000001);
#435=VECTOR('',#1502,10.);
#436=VECTOR('',#1503,10.);
#437=VECTOR('',#1506,10.);
#438=VECTOR('',#1507,10.);
#439=VECTOR('',#1512,0.800000000000001);
#440=VECTOR('',#1517,10.);
#441=VECTOR('',#1518,10.);
#442=VECTOR('',#1519,10.);
#443=VECTOR('',#1522,10.);
#444=VECTOR('',#1523,10.);
#445=VECTOR('',#1526,10.);
#446=VECTOR('',#1527,10.);
#447=VECTOR('',#1530,10.);
#448=VECTOR('',#1531,10.);
#449=VECTOR('',#1538,0.800000000000001);
#450=VECTOR('',#1543,10.);
#451=VECTOR('',#1544,10.);
#452=VECTOR('',#1545,10.);
#453=VECTOR('',#1548,10.);
#454=VECTOR('',#1549,10.);
#455=VECTOR('',#1552,10.);
#456=VECTOR('',#1553,10.);
#457=VECTOR('',#1556,10.);
#458=VECTOR('',#1557,10.);
#459=VECTOR('',#1564,0.800000000000001);
#460=VECTOR('',#1569,10.);
#461=VECTOR('',#1570,10.);
#462=VECTOR('',#1571,10.);
#463=VECTOR('',#1574,10.);
#464=VECTOR('',#1575,10.);
#465=VECTOR('',#1578,10.);
#466=VECTOR('',#1579,10.);
#467=VECTOR('',#1582,10.);
#468=VERTEX_POINT('',#1593);
#469=VERTEX_POINT('',#1594);
#470=VERTEX_POINT('',#1596);
#471=VERTEX_POINT('',#1598);
#472=VERTEX_POINT('',#1602);
#473=VERTEX_POINT('',#1603);
#474=VERTEX_POINT('',#1605);
#475=VERTEX_POINT('',#1607);
#476=VERTEX_POINT('',#1617);
#477=VERTEX_POINT('',#1619);
#478=VERTEX_POINT('',#1621);
#479=VERTEX_POINT('',#1623);
#480=VERTEX_POINT('',#1625);
#481=VERTEX_POINT('',#1627);
#482=VERTEX_POINT('',#1629);
#483=VERTEX_POINT('',#1631);
#484=VERTEX_POINT('',#1633);
#485=VERTEX_POINT('',#1635);
#486=VERTEX_POINT('',#1637);
#487=VERTEX_POINT('',#1639);
#488=VERTEX_POINT('',#1641);
#489=VERTEX_POINT('',#1645);
#490=VERTEX_POINT('',#1647);
#491=VERTEX_POINT('',#1649);
#492=VERTEX_POINT('',#1653);
#493=VERTEX_POINT('',#1654);
#494=VERTEX_POINT('',#1656);
#495=VERTEX_POINT('',#1658);
#496=VERTEX_POINT('',#1661);
#497=VERTEX_POINT('',#1663);
#498=VERTEX_POINT('',#1666);
#499=VERTEX_POINT('',#1668);
#500=VERTEX_POINT('',#1672);
#501=VERTEX_POINT('',#1676);
#502=VERTEX_POINT('',#1678);
#503=VERTEX_POINT('',#1682);
#504=VERTEX_POINT('',#1686);
#505=VERTEX_POINT('',#1688);
#506=VERTEX_POINT('',#1692);
#507=VERTEX_POINT('',#1693);
#508=VERTEX_POINT('',#1695);
#509=VERTEX_POINT('',#1699);
#510=VERTEX_POINT('',#1701);
#511=VERTEX_POINT('',#1705);
#512=VERTEX_POINT('',#1706);
#513=VERTEX_POINT('',#1708);
#514=VERTEX_POINT('',#1718);
#515=VERTEX_POINT('',#1720);
#516=VERTEX_POINT('',#1726);
#517=VERTEX_POINT('',#1727);
#518=VERTEX_POINT('',#1729);
#519=VERTEX_POINT('',#1733);
#520=VERTEX_POINT('',#1734);
#521=VERTEX_POINT('',#1743);
#522=VERTEX_POINT('',#1744);
#523=VERTEX_POINT('',#1746);
#524=VERTEX_POINT('',#1753);
#525=VERTEX_POINT('',#1754);
#526=VERTEX_POINT('',#1756);
#527=VERTEX_POINT('',#1766);
#528=VERTEX_POINT('',#1767);
#529=VERTEX_POINT('',#1769);
#530=VERTEX_POINT('',#1795);
#531=VERTEX_POINT('',#1796);
#532=VERTEX_POINT('',#1798);
#533=VERTEX_POINT('',#1800);
#534=VERTEX_POINT('',#1802);
#535=VERTEX_POINT('',#1811);
#536=VERTEX_POINT('',#1817);
#537=VERTEX_POINT('',#1819);
#538=VERTEX_POINT('',#1823);
#539=VERTEX_POINT('',#1827);
#540=VERTEX_POINT('',#1831);
#541=VERTEX_POINT('',#1833);
#542=VERTEX_POINT('',#1837);
#543=VERTEX_POINT('',#1839);
#544=VERTEX_POINT('',#1843);
#545=VERTEX_POINT('',#1847);
#546=VERTEX_POINT('',#1855);
#547=VERTEX_POINT('',#1857);
#548=VERTEX_POINT('',#1861);
#549=VERTEX_POINT('',#1863);
#550=VERTEX_POINT('',#1867);
#551=VERTEX_POINT('',#1871);
#552=VERTEX_POINT('',#1879);
#553=VERTEX_POINT('',#1881);
#554=VERTEX_POINT('',#1885);
#555=VERTEX_POINT('',#1887);
#556=VERTEX_POINT('',#1891);
#557=VERTEX_POINT('',#1895);
#558=EDGE_CURVE('',#468,#469,#268,.T.);
#559=EDGE_CURVE('',#469,#470,#264,.T.);
#560=EDGE_CURVE('',#470,#471,#269,.T.);
#561=EDGE_CURVE('',#468,#471,#265,.T.);
#562=EDGE_CURVE('',#472,#473,#270,.T.);
#563=EDGE_CURVE('',#473,#474,#266,.T.);
#564=EDGE_CURVE('',#474,#475,#271,.T.);
#565=EDGE_CURVE('',#475,#472,#267,.T.);
#566=EDGE_CURVE('',#471,#474,#272,.T.);
#567=EDGE_CURVE('',#473,#468,#273,.T.);
#568=EDGE_CURVE('',#469,#472,#274,.T.);
#569=EDGE_CURVE('',#475,#470,#275,.T.);
#570=EDGE_CURVE('',#475,#476,#276,.T.);
#571=EDGE_CURVE('',#476,#477,#277,.T.);
#572=EDGE_CURVE('',#478,#477,#278,.T.);
#573=EDGE_CURVE('',#478,#479,#279,.T.);
#574=EDGE_CURVE('',#479,#480,#280,.T.);
#575=EDGE_CURVE('',#481,#480,#281,.T.);
#576=EDGE_CURVE('',#481,#482,#282,.T.);
#577=EDGE_CURVE('',#482,#483,#283,.T.);
#578=EDGE_CURVE('',#484,#483,#284,.T.);
#579=EDGE_CURVE('',#485,#484,#285,.F.);
#580=EDGE_CURVE('',#485,#486,#286,.T.);
#581=EDGE_CURVE('',#486,#487,#287,.T.);
#582=EDGE_CURVE('',#488,#487,#288,.F.);
#583=EDGE_CURVE('',#470,#488,#289,.T.);
#584=EDGE_CURVE('',#474,#489,#290,.T.);
#585=EDGE_CURVE('',#490,#489,#291,.T.);
#586=EDGE_CURVE('',#491,#490,#292,.T.);
#587=EDGE_CURVE('',#476,#491,#293,.T.);
#588=EDGE_CURVE('',#492,#493,#294,.T.);
#589=EDGE_CURVE('',#494,#492,#295,.T.);
#590=EDGE_CURVE('',#495,#494,#296,.T.);
#591=EDGE_CURVE('',#493,#495,#297,.T.);
#592=EDGE_CURVE('',#496,#496,#35,.T.);
#593=EDGE_CURVE('',#497,#497,#36,.T.);
#594=EDGE_CURVE('',#496,#498,#37,.T.);
#595=EDGE_CURVE('',#498,#499,#38,.T.);
#596=EDGE_CURVE('',#499,#498,#39,.T.);
#597=EDGE_CURVE('',#499,#500,#298,.T.);
#598=EDGE_CURVE('',#500,#500,#40,.T.);
#599=EDGE_CURVE('',#497,#501,#41,.T.);
#600=EDGE_CURVE('',#501,#502,#42,.T.);
#601=EDGE_CURVE('',#502,#501,#43,.T.);
#602=EDGE_CURVE('',#502,#503,#299,.T.);
#603=EDGE_CURVE('',#503,#503,#44,.T.);
#604=EDGE_CURVE('',#504,#494,#45,.F.);
#605=EDGE_CURVE('',#505,#504,#46,.F.);
#606=EDGE_CURVE('',#494,#505,#47,.F.);
#607=EDGE_CURVE('',#506,#507,#48,.F.);
#608=EDGE_CURVE('',#508,#506,#49,.F.);
#609=EDGE_CURVE('',#507,#508,#50,.F.);
#610=EDGE_CURVE('',#492,#509,#51,.F.);
#611=EDGE_CURVE('',#510,#492,#52,.F.);
#612=EDGE_CURVE('',#509,#510,#53,.F.);
#613=EDGE_CURVE('',#511,#512,#54,.F.);
#614=EDGE_CURVE('',#513,#511,#55,.F.);
#615=EDGE_CURVE('',#512,#513,#56,.F.);
#616=EDGE_CURVE('',#511,#506,#300,.T.);
#617=EDGE_CURVE('',#507,#513,#301,.T.);
#618=EDGE_CURVE('',#510,#512,#302,.T.);
#619=EDGE_CURVE('',#513,#509,#303,.T.);
#620=EDGE_CURVE('',#495,#514,#57,.F.);
#621=EDGE_CURVE('',#515,#495,#58,.F.);
#622=EDGE_CURVE('',#514,#515,#59,.F.);
#623=EDGE_CURVE('',#505,#515,#304,.T.);
#624=EDGE_CURVE('',#516,#517,#60,.F.);
#625=EDGE_CURVE('',#518,#516,#61,.F.);
#626=EDGE_CURVE('',#517,#518,#62,.F.);
#627=EDGE_CURVE('',#519,#520,#63,.F.);
#628=EDGE_CURVE('',#493,#519,#64,.F.);
#629=EDGE_CURVE('',#520,#493,#65,.F.);
#630=EDGE_CURVE('',#519,#510,#305,.T.);
#631=EDGE_CURVE('',#514,#520,#306,.T.);
#632=EDGE_CURVE('',#521,#522,#66,.F.);
#633=EDGE_CURVE('',#523,#521,#67,.F.);
#634=EDGE_CURVE('',#522,#523,#68,.F.);
#635=EDGE_CURVE('',#512,#523,#307,.T.);
#636=EDGE_CURVE('',#521,#511,#308,.T.);
#637=EDGE_CURVE('',#524,#525,#69,.F.);
#638=EDGE_CURVE('',#526,#524,#70,.F.);
#639=EDGE_CURVE('',#525,#526,#71,.F.);
#640=EDGE_CURVE('',#515,#526,#309,.T.);
#641=EDGE_CURVE('',#524,#514,#310,.T.);
#642=EDGE_CURVE('',#526,#517,#311,.T.);
#643=EDGE_CURVE('',#518,#525,#312,.T.);
#644=EDGE_CURVE('',#527,#528,#72,.F.);
#645=EDGE_CURVE('',#529,#527,#73,.F.);
#646=EDGE_CURVE('',#528,#529,#74,.F.);
#647=EDGE_CURVE('',#527,#519,#313,.T.);
#648=EDGE_CURVE('',#520,#529,#314,.T.);
#649=EDGE_CURVE('',#525,#528,#315,.T.);
#650=EDGE_CURVE('',#529,#524,#316,.T.);
#651=EDGE_CURVE('',#523,#527,#317,.T.);
#652=EDGE_CURVE('',#528,#522,#318,.T.);
#653=EDGE_CURVE('',#516,#521,#319,.T.);
#654=EDGE_CURVE('',#522,#518,#320,.T.);
#655=EDGE_CURVE('',#517,#508,#321,.T.);
#656=EDGE_CURVE('',#506,#516,#322,.T.);
#657=EDGE_CURVE('',#509,#504,#323,.T.);
#658=EDGE_CURVE('',#508,#505,#324,.T.);
#659=EDGE_CURVE('',#504,#507,#325,.T.);
#660=EDGE_CURVE('',#530,#531,#326,.T.);
#661=EDGE_CURVE('',#531,#532,#327,.T.);
#662=EDGE_CURVE('',#532,#533,#328,.T.);
#663=EDGE_CURVE('',#533,#534,#329,.T.);
#664=EDGE_CURVE('',#534,#530,#330,.T.);
#665=EDGE_CURVE('',#471,#535,#331,.T.);
#666=EDGE_CURVE('',#489,#535,#332,.T.);
#667=EDGE_CURVE('',#535,#488,#333,.T.);
#668=EDGE_CURVE('',#536,#536,#75,.F.);
#669=EDGE_CURVE('',#536,#537,#334,.T.);
#670=EDGE_CURVE('',#537,#537,#76,.T.);
#671=EDGE_CURVE('',#538,#491,#335,.T.);
#672=EDGE_CURVE('',#477,#538,#336,.T.);
#673=EDGE_CURVE('',#539,#490,#337,.T.);
#674=EDGE_CURVE('',#538,#539,#338,.T.);
#675=EDGE_CURVE('',#540,#540,#77,.F.);
#676=EDGE_CURVE('',#540,#541,#339,.T.);
#677=EDGE_CURVE('',#541,#541,#78,.T.);
#678=EDGE_CURVE('',#542,#485,#340,.T.);
#679=EDGE_CURVE('',#543,#542,#341,.T.);
#680=EDGE_CURVE('',#486,#543,#342,.T.);
#681=EDGE_CURVE('',#544,#543,#343,.T.);
#682=EDGE_CURVE('',#487,#544,#344,.T.);
#683=EDGE_CURVE('',#544,#545,#345,.T.);
#684=EDGE_CURVE('',#545,#542,#346,.T.);
#685=EDGE_CURVE('',#484,#534,#347,.F.);
#686=EDGE_CURVE('',#533,#545,#348,.F.);
#687=EDGE_CURVE('',#546,#546,#79,.F.);
#688=EDGE_CURVE('',#546,#547,#349,.T.);
#689=EDGE_CURVE('',#547,#547,#80,.T.);
#690=EDGE_CURVE('',#548,#478,#350,.T.);
#691=EDGE_CURVE('',#549,#548,#351,.T.);
#692=EDGE_CURVE('',#479,#549,#352,.T.);
#693=EDGE_CURVE('',#550,#549,#353,.T.);
#694=EDGE_CURVE('',#480,#550,#354,.T.);
#695=EDGE_CURVE('',#551,#548,#355,.T.);
#696=EDGE_CURVE('',#550,#551,#356,.T.);
#697=EDGE_CURVE('',#532,#539,#357,.F.);
#698=EDGE_CURVE('',#531,#551,#358,.T.);
#699=EDGE_CURVE('',#552,#552,#81,.F.);
#700=EDGE_CURVE('',#552,#553,#359,.T.);
#701=EDGE_CURVE('',#553,#553,#82,.T.);
#702=EDGE_CURVE('',#554,#481,#360,.T.);
#703=EDGE_CURVE('',#555,#554,#361,.T.);
#704=EDGE_CURVE('',#482,#555,#362,.T.);
#705=EDGE_CURVE('',#556,#555,#363,.T.);
#706=EDGE_CURVE('',#483,#556,#364,.T.);
#707=EDGE_CURVE('',#557,#554,#365,.T.);
#708=EDGE_CURVE('',#556,#557,#366,.T.);
#709=EDGE_CURVE('',#530,#557,#367,.F.);
#710=ORIENTED_EDGE('',*,*,#558,.T.);
#711=ORIENTED_EDGE('',*,*,#559,.T.);
#712=ORIENTED_EDGE('',*,*,#560,.T.);
#713=ORIENTED_EDGE('',*,*,#561,.F.);
#714=ORIENTED_EDGE('',*,*,#562,.T.);
#715=ORIENTED_EDGE('',*,*,#563,.T.);
#716=ORIENTED_EDGE('',*,*,#564,.T.);
#717=ORIENTED_EDGE('',*,*,#565,.T.);
#718=ORIENTED_EDGE('',*,*,#566,.T.);
#719=ORIENTED_EDGE('',*,*,#563,.F.);
#720=ORIENTED_EDGE('',*,*,#567,.T.);
#721=ORIENTED_EDGE('',*,*,#561,.T.);
#722=ORIENTED_EDGE('',*,*,#568,.T.);
#723=ORIENTED_EDGE('',*,*,#565,.F.);
#724=ORIENTED_EDGE('',*,*,#569,.T.);
#725=ORIENTED_EDGE('',*,*,#559,.F.);
#726=ORIENTED_EDGE('',*,*,#569,.F.);
#727=ORIENTED_EDGE('',*,*,#570,.T.);
#728=ORIENTED_EDGE('',*,*,#571,.T.);
#729=ORIENTED_EDGE('',*,*,#572,.F.);
#730=ORIENTED_EDGE('',*,*,#573,.T.);
#731=ORIENTED_EDGE('',*,*,#574,.T.);
#732=ORIENTED_EDGE('',*,*,#575,.F.);
#733=ORIENTED_EDGE('',*,*,#576,.T.);
#734=ORIENTED_EDGE('',*,*,#577,.T.);
#735=ORIENTED_EDGE('',*,*,#578,.F.);
#736=ORIENTED_EDGE('',*,*,#579,.F.);
#737=ORIENTED_EDGE('',*,*,#580,.T.);
#738=ORIENTED_EDGE('',*,*,#581,.T.);
#739=ORIENTED_EDGE('',*,*,#582,.F.);
#740=ORIENTED_EDGE('',*,*,#583,.F.);
#741=ORIENTED_EDGE('',*,*,#564,.F.);
#742=ORIENTED_EDGE('',*,*,#584,.T.);
#743=ORIENTED_EDGE('',*,*,#585,.F.);
#744=ORIENTED_EDGE('',*,*,#586,.F.);
#745=ORIENTED_EDGE('',*,*,#587,.F.);
#746=ORIENTED_EDGE('',*,*,#570,.F.);
#747=ORIENTED_EDGE('',*,*,#588,.F.);
#748=ORIENTED_EDGE('',*,*,#589,.F.);
#749=ORIENTED_EDGE('',*,*,#590,.F.);
#750=ORIENTED_EDGE('',*,*,#591,.F.);
#751=ORIENTED_EDGE('',*,*,#592,.F.);
#752=ORIENTED_EDGE('',*,*,#593,.F.);
#753=ORIENTED_EDGE('',*,*,#562,.F.);
#754=ORIENTED_EDGE('',*,*,#568,.F.);
#755=ORIENTED_EDGE('',*,*,#558,.F.);
#756=ORIENTED_EDGE('',*,*,#567,.F.);
#757=ORIENTED_EDGE('',*,*,#592,.T.);
#758=ORIENTED_EDGE('',*,*,#594,.T.);
#759=ORIENTED_EDGE('',*,*,#595,.T.);
#760=ORIENTED_EDGE('',*,*,#596,.T.);
#761=ORIENTED_EDGE('',*,*,#594,.F.);
#762=ORIENTED_EDGE('',*,*,#596,.F.);
#763=ORIENTED_EDGE('',*,*,#597,.T.);
#764=ORIENTED_EDGE('',*,*,#598,.T.);
#765=ORIENTED_EDGE('',*,*,#597,.F.);
#766=ORIENTED_EDGE('',*,*,#595,.F.);
#767=ORIENTED_EDGE('',*,*,#593,.T.);
#768=ORIENTED_EDGE('',*,*,#599,.T.);
#769=ORIENTED_EDGE('',*,*,#600,.T.);
#770=ORIENTED_EDGE('',*,*,#601,.T.);
#771=ORIENTED_EDGE('',*,*,#599,.F.);
#772=ORIENTED_EDGE('',*,*,#601,.F.);
#773=ORIENTED_EDGE('',*,*,#602,.T.);
#774=ORIENTED_EDGE('',*,*,#603,.T.);
#775=ORIENTED_EDGE('',*,*,#602,.F.);
#776=ORIENTED_EDGE('',*,*,#600,.F.);
#777=ORIENTED_EDGE('',*,*,#604,.F.);
#778=ORIENTED_EDGE('',*,*,#605,.F.);
#779=ORIENTED_EDGE('',*,*,#606,.F.);
#780=ORIENTED_EDGE('',*,*,#607,.F.);
#781=ORIENTED_EDGE('',*,*,#608,.F.);
#782=ORIENTED_EDGE('',*,*,#609,.F.);
#783=ORIENTED_EDGE('',*,*,#610,.F.);
#784=ORIENTED_EDGE('',*,*,#611,.F.);
#785=ORIENTED_EDGE('',*,*,#612,.F.);
#786=ORIENTED_EDGE('',*,*,#613,.F.);
#787=ORIENTED_EDGE('',*,*,#614,.F.);
#788=ORIENTED_EDGE('',*,*,#615,.F.);
#789=ORIENTED_EDGE('',*,*,#614,.T.);
#790=ORIENTED_EDGE('',*,*,#616,.T.);
#791=ORIENTED_EDGE('',*,*,#607,.T.);
#792=ORIENTED_EDGE('',*,*,#617,.T.);
#793=ORIENTED_EDGE('',*,*,#612,.T.);
#794=ORIENTED_EDGE('',*,*,#618,.T.);
#795=ORIENTED_EDGE('',*,*,#615,.T.);
#796=ORIENTED_EDGE('',*,*,#619,.T.);
#797=ORIENTED_EDGE('',*,*,#620,.F.);
#798=ORIENTED_EDGE('',*,*,#621,.F.);
#799=ORIENTED_EDGE('',*,*,#622,.F.);
#800=ORIENTED_EDGE('',*,*,#606,.T.);
#801=ORIENTED_EDGE('',*,*,#623,.T.);
#802=ORIENTED_EDGE('',*,*,#621,.T.);
#803=ORIENTED_EDGE('',*,*,#590,.T.);
#804=ORIENTED_EDGE('',*,*,#624,.F.);
#805=ORIENTED_EDGE('',*,*,#625,.F.);
#806=ORIENTED_EDGE('',*,*,#626,.F.);
#807=ORIENTED_EDGE('',*,*,#627,.F.);
#808=ORIENTED_EDGE('',*,*,#628,.F.);
#809=ORIENTED_EDGE('',*,*,#629,.F.);
#810=ORIENTED_EDGE('',*,*,#628,.T.);
#811=ORIENTED_EDGE('',*,*,#630,.T.);
#812=ORIENTED_EDGE('',*,*,#611,.T.);
#813=ORIENTED_EDGE('',*,*,#588,.T.);
#814=ORIENTED_EDGE('',*,*,#620,.T.);
#815=ORIENTED_EDGE('',*,*,#631,.T.);
#816=ORIENTED_EDGE('',*,*,#629,.T.);
#817=ORIENTED_EDGE('',*,*,#591,.T.);
#818=ORIENTED_EDGE('',*,*,#632,.F.);
#819=ORIENTED_EDGE('',*,*,#633,.F.);
#820=ORIENTED_EDGE('',*,*,#634,.F.);
#821=ORIENTED_EDGE('',*,*,#613,.T.);
#822=ORIENTED_EDGE('',*,*,#635,.T.);
#823=ORIENTED_EDGE('',*,*,#633,.T.);
#824=ORIENTED_EDGE('',*,*,#636,.T.);
#825=ORIENTED_EDGE('',*,*,#637,.F.);
#826=ORIENTED_EDGE('',*,*,#638,.F.);
#827=ORIENTED_EDGE('',*,*,#639,.F.);
#828=ORIENTED_EDGE('',*,*,#622,.T.);
#829=ORIENTED_EDGE('',*,*,#640,.T.);
#830=ORIENTED_EDGE('',*,*,#638,.T.);
#831=ORIENTED_EDGE('',*,*,#641,.T.);
#832=ORIENTED_EDGE('',*,*,#639,.T.);
#833=ORIENTED_EDGE('',*,*,#642,.T.);
#834=ORIENTED_EDGE('',*,*,#626,.T.);
#835=ORIENTED_EDGE('',*,*,#643,.T.);
#836=ORIENTED_EDGE('',*,*,#644,.F.);
#837=ORIENTED_EDGE('',*,*,#645,.F.);
#838=ORIENTED_EDGE('',*,*,#646,.F.);
#839=ORIENTED_EDGE('',*,*,#645,.T.);
#840=ORIENTED_EDGE('',*,*,#647,.T.);
#841=ORIENTED_EDGE('',*,*,#627,.T.);
#842=ORIENTED_EDGE('',*,*,#648,.T.);
#843=ORIENTED_EDGE('',*,*,#637,.T.);
#844=ORIENTED_EDGE('',*,*,#649,.T.);
#845=ORIENTED_EDGE('',*,*,#646,.T.);
#846=ORIENTED_EDGE('',*,*,#650,.T.);
#847=ORIENTED_EDGE('',*,*,#634,.T.);
#848=ORIENTED_EDGE('',*,*,#651,.T.);
#849=ORIENTED_EDGE('',*,*,#644,.T.);
#850=ORIENTED_EDGE('',*,*,#652,.T.);
#851=ORIENTED_EDGE('',*,*,#625,.T.);
#852=ORIENTED_EDGE('',*,*,#653,.T.);
#853=ORIENTED_EDGE('',*,*,#632,.T.);
#854=ORIENTED_EDGE('',*,*,#654,.T.);
#855=ORIENTED_EDGE('',*,*,#624,.T.);
#856=ORIENTED_EDGE('',*,*,#655,.T.);
#857=ORIENTED_EDGE('',*,*,#608,.T.);
#858=ORIENTED_EDGE('',*,*,#656,.T.);
#859=ORIENTED_EDGE('',*,*,#604,.T.);
#860=ORIENTED_EDGE('',*,*,#589,.T.);
#861=ORIENTED_EDGE('',*,*,#610,.T.);
#862=ORIENTED_EDGE('',*,*,#657,.T.);
#863=ORIENTED_EDGE('',*,*,#609,.T.);
#864=ORIENTED_EDGE('',*,*,#658,.T.);
#865=ORIENTED_EDGE('',*,*,#605,.T.);
#866=ORIENTED_EDGE('',*,*,#659,.T.);
#867=ORIENTED_EDGE('',*,*,#617,.F.);
#868=ORIENTED_EDGE('',*,*,#659,.F.);
#869=ORIENTED_EDGE('',*,*,#657,.F.);
#870=ORIENTED_EDGE('',*,*,#619,.F.);
#871=ORIENTED_EDGE('',*,*,#616,.F.);
#872=ORIENTED_EDGE('',*,*,#636,.F.);
#873=ORIENTED_EDGE('',*,*,#653,.F.);
#874=ORIENTED_EDGE('',*,*,#656,.F.);
#875=ORIENTED_EDGE('',*,*,#618,.F.);
#876=ORIENTED_EDGE('',*,*,#630,.F.);
#877=ORIENTED_EDGE('',*,*,#647,.F.);
#878=ORIENTED_EDGE('',*,*,#651,.F.);
#879=ORIENTED_EDGE('',*,*,#635,.F.);
#880=ORIENTED_EDGE('',*,*,#660,.T.);
#881=ORIENTED_EDGE('',*,*,#661,.T.);
#882=ORIENTED_EDGE('',*,*,#662,.T.);
#883=ORIENTED_EDGE('',*,*,#663,.T.);
#884=ORIENTED_EDGE('',*,*,#664,.T.);
#885=ORIENTED_EDGE('',*,*,#623,.F.);
#886=ORIENTED_EDGE('',*,*,#658,.F.);
#887=ORIENTED_EDGE('',*,*,#655,.F.);
#888=ORIENTED_EDGE('',*,*,#642,.F.);
#889=ORIENTED_EDGE('',*,*,#640,.F.);
#890=ORIENTED_EDGE('',*,*,#631,.F.);
#891=ORIENTED_EDGE('',*,*,#641,.F.);
#892=ORIENTED_EDGE('',*,*,#650,.F.);
#893=ORIENTED_EDGE('',*,*,#648,.F.);
#894=ORIENTED_EDGE('',*,*,#643,.F.);
#895=ORIENTED_EDGE('',*,*,#654,.F.);
#896=ORIENTED_EDGE('',*,*,#652,.F.);
#897=ORIENTED_EDGE('',*,*,#649,.F.);
#898=ORIENTED_EDGE('',*,*,#603,.F.);
#899=ORIENTED_EDGE('',*,*,#598,.F.);
#900=ORIENTED_EDGE('',*,*,#566,.F.);
#901=ORIENTED_EDGE('',*,*,#665,.T.);
#902=ORIENTED_EDGE('',*,*,#666,.F.);
#903=ORIENTED_EDGE('',*,*,#584,.F.);
#904=ORIENTED_EDGE('',*,*,#560,.F.);
#905=ORIENTED_EDGE('',*,*,#583,.T.);
#906=ORIENTED_EDGE('',*,*,#667,.F.);
#907=ORIENTED_EDGE('',*,*,#665,.F.);
#908=ORIENTED_EDGE('',*,*,#668,.F.);
#909=ORIENTED_EDGE('',*,*,#669,.T.);
#910=ORIENTED_EDGE('',*,*,#670,.F.);
#911=ORIENTED_EDGE('',*,*,#669,.F.);
#912=ORIENTED_EDGE('',*,*,#571,.F.);
#913=ORIENTED_EDGE('',*,*,#587,.T.);
#914=ORIENTED_EDGE('',*,*,#671,.F.);
#915=ORIENTED_EDGE('',*,*,#672,.F.);
#916=ORIENTED_EDGE('',*,*,#673,.F.);
#917=ORIENTED_EDGE('',*,*,#674,.F.);
#918=ORIENTED_EDGE('',*,*,#671,.T.);
#919=ORIENTED_EDGE('',*,*,#586,.T.);
#920=ORIENTED_EDGE('',*,*,#668,.T.);
#921=ORIENTED_EDGE('',*,*,#675,.F.);
#922=ORIENTED_EDGE('',*,*,#676,.T.);
#923=ORIENTED_EDGE('',*,*,#677,.F.);
#924=ORIENTED_EDGE('',*,*,#676,.F.);
#925=ORIENTED_EDGE('',*,*,#580,.F.);
#926=ORIENTED_EDGE('',*,*,#678,.F.);
#927=ORIENTED_EDGE('',*,*,#679,.F.);
#928=ORIENTED_EDGE('',*,*,#680,.F.);
#929=ORIENTED_EDGE('',*,*,#581,.F.);
#930=ORIENTED_EDGE('',*,*,#680,.T.);
#931=ORIENTED_EDGE('',*,*,#681,.F.);
#932=ORIENTED_EDGE('',*,*,#682,.F.);
#933=ORIENTED_EDGE('',*,*,#683,.F.);
#934=ORIENTED_EDGE('',*,*,#681,.T.);
#935=ORIENTED_EDGE('',*,*,#679,.T.);
#936=ORIENTED_EDGE('',*,*,#684,.F.);
#937=ORIENTED_EDGE('',*,*,#675,.T.);
#938=ORIENTED_EDGE('',*,*,#684,.T.);
#939=ORIENTED_EDGE('',*,*,#678,.T.);
#940=ORIENTED_EDGE('',*,*,#579,.T.);
#941=ORIENTED_EDGE('',*,*,#685,.T.);
#942=ORIENTED_EDGE('',*,*,#663,.F.);
#943=ORIENTED_EDGE('',*,*,#686,.T.);
#944=ORIENTED_EDGE('',*,*,#677,.T.);
#945=ORIENTED_EDGE('',*,*,#687,.F.);
#946=ORIENTED_EDGE('',*,*,#688,.T.);
#947=ORIENTED_EDGE('',*,*,#689,.F.);
#948=ORIENTED_EDGE('',*,*,#688,.F.);
#949=ORIENTED_EDGE('',*,*,#573,.F.);
#950=ORIENTED_EDGE('',*,*,#690,.F.);
#951=ORIENTED_EDGE('',*,*,#691,.F.);
#952=ORIENTED_EDGE('',*,*,#692,.F.);
#953=ORIENTED_EDGE('',*,*,#574,.F.);
#954=ORIENTED_EDGE('',*,*,#692,.T.);
#955=ORIENTED_EDGE('',*,*,#693,.F.);
#956=ORIENTED_EDGE('',*,*,#694,.F.);
#957=ORIENTED_EDGE('',*,*,#693,.T.);
#958=ORIENTED_EDGE('',*,*,#691,.T.);
#959=ORIENTED_EDGE('',*,*,#695,.F.);
#960=ORIENTED_EDGE('',*,*,#696,.F.);
#961=ORIENTED_EDGE('',*,*,#687,.T.);
#962=ORIENTED_EDGE('',*,*,#674,.T.);
#963=ORIENTED_EDGE('',*,*,#697,.F.);
#964=ORIENTED_EDGE('',*,*,#661,.F.);
#965=ORIENTED_EDGE('',*,*,#698,.T.);
#966=ORIENTED_EDGE('',*,*,#695,.T.);
#967=ORIENTED_EDGE('',*,*,#690,.T.);
#968=ORIENTED_EDGE('',*,*,#572,.T.);
#969=ORIENTED_EDGE('',*,*,#672,.T.);
#970=ORIENTED_EDGE('',*,*,#670,.T.);
#971=ORIENTED_EDGE('',*,*,#699,.F.);
#972=ORIENTED_EDGE('',*,*,#700,.T.);
#973=ORIENTED_EDGE('',*,*,#701,.F.);
#974=ORIENTED_EDGE('',*,*,#700,.F.);
#975=ORIENTED_EDGE('',*,*,#576,.F.);
#976=ORIENTED_EDGE('',*,*,#702,.F.);
#977=ORIENTED_EDGE('',*,*,#703,.F.);
#978=ORIENTED_EDGE('',*,*,#704,.F.);
#979=ORIENTED_EDGE('',*,*,#577,.F.);
#980=ORIENTED_EDGE('',*,*,#704,.T.);
#981=ORIENTED_EDGE('',*,*,#705,.F.);
#982=ORIENTED_EDGE('',*,*,#706,.F.);
#983=ORIENTED_EDGE('',*,*,#707,.F.);
#984=ORIENTED_EDGE('',*,*,#708,.F.);
#985=ORIENTED_EDGE('',*,*,#705,.T.);
#986=ORIENTED_EDGE('',*,*,#703,.T.);
#987=ORIENTED_EDGE('',*,*,#699,.T.);
#988=ORIENTED_EDGE('',*,*,#696,.T.);
#989=ORIENTED_EDGE('',*,*,#698,.F.);
#990=ORIENTED_EDGE('',*,*,#660,.F.);
#991=ORIENTED_EDGE('',*,*,#709,.T.);
#992=ORIENTED_EDGE('',*,*,#707,.T.);
#993=ORIENTED_EDGE('',*,*,#702,.T.);
#994=ORIENTED_EDGE('',*,*,#575,.T.);
#995=ORIENTED_EDGE('',*,*,#694,.T.);
#996=ORIENTED_EDGE('',*,*,#701,.T.);
#997=ORIENTED_EDGE('',*,*,#667,.T.);
#998=ORIENTED_EDGE('',*,*,#582,.T.);
#999=ORIENTED_EDGE('',*,*,#682,.T.);
#1000=ORIENTED_EDGE('',*,*,#683,.T.);
#1001=ORIENTED_EDGE('',*,*,#686,.F.);
#1002=ORIENTED_EDGE('',*,*,#662,.F.);
#1003=ORIENTED_EDGE('',*,*,#697,.T.);
#1004=ORIENTED_EDGE('',*,*,#673,.T.);
#1005=ORIENTED_EDGE('',*,*,#585,.T.);
#1006=ORIENTED_EDGE('',*,*,#666,.T.);
#1007=ORIENTED_EDGE('',*,*,#689,.T.);
#1008=ORIENTED_EDGE('',*,*,#708,.T.);
#1009=ORIENTED_EDGE('',*,*,#709,.F.);
#1010=ORIENTED_EDGE('',*,*,#664,.F.);
#1011=ORIENTED_EDGE('',*,*,#685,.F.);
#1012=ORIENTED_EDGE('',*,*,#578,.T.);
#1013=ORIENTED_EDGE('',*,*,#706,.T.);
#1014=CYLINDRICAL_SURFACE('',#1123,1.);
#1015=CYLINDRICAL_SURFACE('',#1126,1.);
#1016=CYLINDRICAL_SURFACE('',#1129,1.);
#1017=CYLINDRICAL_SURFACE('',#1130,1.);
#1018=CYLINDRICAL_SURFACE('',#1140,0.8115);
#1019=CYLINDRICAL_SURFACE('',#1146,0.8115);
#1020=CYLINDRICAL_SURFACE('',#1164,1.);
#1021=CYLINDRICAL_SURFACE('',#1165,1.);
#1022=CYLINDRICAL_SURFACE('',#1170,1.);
#1023=CYLINDRICAL_SURFACE('',#1179,1.);
#1024=CYLINDRICAL_SURFACE('',#1180,1.);
#1025=CYLINDRICAL_SURFACE('',#1185,1.);
#1026=CYLINDRICAL_SURFACE('',#1190,1.);
#1027=CYLINDRICAL_SURFACE('',#1191,1.);
#1028=CYLINDRICAL_SURFACE('',#1196,1.);
#1029=CYLINDRICAL_SURFACE('',#1197,1.);
#1030=CYLINDRICAL_SURFACE('',#1198,1.);
#1031=CYLINDRICAL_SURFACE('',#1199,1.);
#1032=CYLINDRICAL_SURFACE('',#1200,1.);
#1033=CYLINDRICAL_SURFACE('',#1201,1.);
#1034=CYLINDRICAL_SURFACE('',#1202,1.);
#1035=CYLINDRICAL_SURFACE('',#1213,0.8115);
#1036=CYLINDRICAL_SURFACE('',#1218,0.8115);
#1037=CYLINDRICAL_SURFACE('',#1226,0.8115);
#1038=CYLINDRICAL_SURFACE('',#1234,0.8115);
#1039=ADVANCED_FACE('',(#116),#1014,.T.);
#1040=ADVANCED_FACE('',(#117),#1015,.T.);
#1041=ADVANCED_FACE('',(#118),#1016,.T.);
#1042=ADVANCED_FACE('',(#119),#1017,.T.);
#1043=ADVANCED_FACE('',(#120),#83,.T.);
#1044=ADVANCED_FACE('',(#121),#84,.T.);
#1045=ADVANCED_FACE('',(#122,#27,#28,#29),#85,.F.);
#1046=ADVANCED_FACE('',(#123),#25,.T.);
#1047=ADVANCED_FACE('',(#124),#1018,.F.);
#1048=ADVANCED_FACE('',(#125),#26,.T.);
#1049=ADVANCED_FACE('',(#126),#1019,.F.);
#1050=ADVANCED_FACE('',(#127),#15,.T.);
#1051=ADVANCED_FACE('',(#128),#16,.T.);
#1052=ADVANCED_FACE('',(#129),#17,.T.);
#1053=ADVANCED_FACE('',(#130),#18,.T.);
#1054=ADVANCED_FACE('',(#131),#1020,.T.);
#1055=ADVANCED_FACE('',(#132),#1021,.T.);
#1056=ADVANCED_FACE('',(#133),#19,.T.);
#1057=ADVANCED_FACE('',(#134),#1022,.T.);
#1058=ADVANCED_FACE('',(#135),#20,.T.);
#1059=ADVANCED_FACE('',(#136),#21,.T.);
#1060=ADVANCED_FACE('',(#137),#1023,.T.);
#1061=ADVANCED_FACE('',(#138),#1024,.T.);
#1062=ADVANCED_FACE('',(#139),#22,.T.);
#1063=ADVANCED_FACE('',(#140),#1025,.T.);
#1064=ADVANCED_FACE('',(#141),#23,.T.);
#1065=ADVANCED_FACE('',(#142),#1026,.T.);
#1066=ADVANCED_FACE('',(#143),#1027,.T.);
#1067=ADVANCED_FACE('',(#144),#24,.T.);
#1068=ADVANCED_FACE('',(#145),#1028,.T.);
#1069=ADVANCED_FACE('',(#146),#1029,.T.);
#1070=ADVANCED_FACE('',(#147),#1030,.T.);
#1071=ADVANCED_FACE('',(#148),#1031,.T.);
#1072=ADVANCED_FACE('',(#149),#1032,.T.);
#1073=ADVANCED_FACE('',(#150),#1033,.T.);
#1074=ADVANCED_FACE('',(#151),#1034,.T.);
#1075=ADVANCED_FACE('',(#152),#86,.F.);
#1076=ADVANCED_FACE('',(#153),#87,.F.);
#1077=ADVANCED_FACE('',(#154,#30),#88,.T.);
#1078=ADVANCED_FACE('',(#155),#89,.F.);
#1079=ADVANCED_FACE('',(#156),#90,.F.);
#1080=ADVANCED_FACE('',(#157),#91,.F.);
#1081=ADVANCED_FACE('',(#158),#92,.T.);
#1082=ADVANCED_FACE('',(#159),#93,.T.);
#1083=ADVANCED_FACE('',(#160),#94,.F.);
#1084=ADVANCED_FACE('',(#161),#95,.F.);
#1085=ADVANCED_FACE('',(#162),#1035,.F.);
#1086=ADVANCED_FACE('',(#163),#96,.T.);
#1087=ADVANCED_FACE('',(#164,#31),#97,.T.);
#1088=ADVANCED_FACE('',(#165),#1036,.F.);
#1089=ADVANCED_FACE('',(#166),#98,.T.);
#1090=ADVANCED_FACE('',(#167),#99,.T.);
#1091=ADVANCED_FACE('',(#168,#32),#100,.T.);
#1092=ADVANCED_FACE('',(#169),#101,.T.);
#1093=ADVANCED_FACE('',(#170),#102,.T.);
#1094=ADVANCED_FACE('',(#171),#1037,.F.);
#1095=ADVANCED_FACE('',(#172),#103,.T.);
#1096=ADVANCED_FACE('',(#173),#104,.T.);
#1097=ADVANCED_FACE('',(#174,#33),#105,.T.);
#1098=ADVANCED_FACE('',(#175),#106,.T.);
#1099=ADVANCED_FACE('',(#176),#107,.T.);
#1100=ADVANCED_FACE('',(#177),#1038,.F.);
#1101=ADVANCED_FACE('',(#178),#108,.T.);
#1102=ADVANCED_FACE('',(#179),#109,.T.);
#1103=ADVANCED_FACE('',(#180,#34),#110,.T.);
#1104=ADVANCED_FACE('',(#181),#111,.T.);
#1105=ADVANCED_FACE('',(#182),#112,.T.);
#1106=ADVANCED_FACE('',(#183),#113,.T.);
#1107=ADVANCED_FACE('',(#184),#114,.T.);
#1108=ADVANCED_FACE('',(#185),#115,.T.);
#1109=CLOSED_SHELL('',(#1039,#1040,#1041,#1042,#1043,#1044,#1045,#1046,
#1047,#1048,#1049,#1050,#1051,#1052,#1053,#1054,#1055,#1056,#1057,#1058,
#1059,#1060,#1061,#1062,#1063,#1064,#1065,#1066,#1067,#1068,#1069,#1070,
#1071,#1072,#1073,#1074,#1075,#1076,#1077,#1078,#1079,#1080,#1081,#1082,
#1083,#1084,#1085,#1086,#1087,#1088,#1089,#1090,#1091,#1092,#1093,#1094,
#1095,#1096,#1097,#1098,#1099,#1100,#1101,#1102,#1103,#1104,#1105,#1106,
#1107,#1108));
#1110=DERIVED_UNIT_ELEMENT(#1112,1.);
#1111=DERIVED_UNIT_ELEMENT(#1909,-3.);
#1112=(
MASS_UNIT()
NAMED_UNIT(*)
SI_UNIT(.KILO.,.GRAM.)
);
#1113=DERIVED_UNIT((#1110,#1111));
#1114=MEASURE_REPRESENTATION_ITEM('density measure',
POSITIVE_RATIO_MEASURE(7850.),#1113);
#1115=PROPERTY_DEFINITION_REPRESENTATION(#1120,#1117);
#1116=PROPERTY_DEFINITION_REPRESENTATION(#1121,#1118);
#1117=REPRESENTATION('material name',(#1119),#1906);
#1118=REPRESENTATION('density',(#1114),#1906);
#1119=DESCRIPTIVE_REPRESENTATION_ITEM('Steel','Steel');
#1120=PROPERTY_DEFINITION('material property','material name',#1916);
#1121=PROPERTY_DEFINITION('material property','density of part',#1916);
#1122=AXIS2_PLACEMENT_3D('',#1591,#1245,#1246);
#1123=AXIS2_PLACEMENT_3D('',#1592,#1247,#1248);
#1124=AXIS2_PLACEMENT_3D('',#1597,#1250,#1251);
#1125=AXIS2_PLACEMENT_3D('',#1600,#1253,#1254);
#1126=AXIS2_PLACEMENT_3D('',#1601,#1255,#1256);
#1127=AXIS2_PLACEMENT_3D('',#1606,#1258,#1259);
#1128=AXIS2_PLACEMENT_3D('',#1609,#1261,#1262);
#1129=AXIS2_PLACEMENT_3D('',#1610,#1263,#1264);
#1130=AXIS2_PLACEMENT_3D('',#1613,#1267,#1268);
#1131=AXIS2_PLACEMENT_3D('',#1616,#1271,#1272);
#1132=AXIS2_PLACEMENT_3D('',#1644,#1287,#1288);
#1133=AXIS2_PLACEMENT_3D('',#1652,#1293,#1294);
#1134=AXIS2_PLACEMENT_3D('',#1662,#1299,#1300);
#1135=AXIS2_PLACEMENT_3D('',#1664,#1301,#1302);
#1136=AXIS2_PLACEMENT_3D('',#1665,#1303,#1304);
#1137=AXIS2_PLACEMENT_3D('',#1667,#1305,#1306);
#1138=AXIS2_PLACEMENT_3D('',#1669,#1307,#1308);
#1139=AXIS2_PLACEMENT_3D('',#1670,#1309,#1310);
#1140=AXIS2_PLACEMENT_3D('',#1671,#1311,#1312);
#1141=AXIS2_PLACEMENT_3D('',#1674,#1314,#1315);
#1142=AXIS2_PLACEMENT_3D('',#1675,#1316,#1317);
#1143=AXIS2_PLACEMENT_3D('',#1677,#1318,#1319);
#1144=AXIS2_PLACEMENT_3D('',#1679,#1320,#1321);
#1145=AXIS2_PLACEMENT_3D('',#1680,#1322,#1323);
#1146=AXIS2_PLACEMENT_3D('',#1681,#1324,#1325);
#1147=AXIS2_PLACEMENT_3D('',#1684,#1327,#1328);
#1148=AXIS2_PLACEMENT_3D('',#1685,#1329,#1330);
#1149=AXIS2_PLACEMENT_3D('',#1687,#1331,#1332);
#1150=AXIS2_PLACEMENT_3D('',#1689,#1333,#1334);
#1151=AXIS2_PLACEMENT_3D('',#1690,#1335,#1336);
#1152=AXIS2_PLACEMENT_3D('',#1691,#1337,#1338);
#1153=AXIS2_PLACEMENT_3D('',#1694,#1339,#1340);
#1154=AXIS2_PLACEMENT_3D('',#1696,#1341,#1342);
#1155=AXIS2_PLACEMENT_3D('',#1697,#1343,#1344);
#1156=AXIS2_PLACEMENT_3D('',#1698,#1345,#1346);
#1157=AXIS2_PLACEMENT_3D('',#1700,#1347,#1348);
#1158=AXIS2_PLACEMENT_3D('',#1702,#1349,#1350);
#1159=AXIS2_PLACEMENT_3D('',#1703,#1351,#1352);
#1160=AXIS2_PLACEMENT_3D('',#1704,#1353,#1354);
#1161=AXIS2_PLACEMENT_3D('',#1707,#1355,#1356);
#1162=AXIS2_PLACEMENT_3D('',#1709,#1357,#1358);
#1163=AXIS2_PLACEMENT_3D('',#1710,#1359,#1360);
#1164=AXIS2_PLACEMENT_3D('',#1711,#1361,#1362);
#1165=AXIS2_PLACEMENT_3D('',#1714,#1365,#1366);
#1166=AXIS2_PLACEMENT_3D('',#1717,#1369,#1370);
#1167=AXIS2_PLACEMENT_3D('',#1719,#1371,#1372);
#1168=AXIS2_PLACEMENT_3D('',#1721,#1373,#1374);
#1169=AXIS2_PLACEMENT_3D('',#1722,#1375,#1376);
#1170=AXIS2_PLACEMENT_3D('',#1723,#1377,#1378);
#1171=AXIS2_PLACEMENT_3D('',#1725,#1380,#1381);
#1172=AXIS2_PLACEMENT_3D('',#1728,#1382,#1383);
#1173=AXIS2_PLACEMENT_3D('',#1730,#1384,#1385);
#1174=AXIS2_PLACEMENT_3D('',#1731,#1386,#1387);
#1175=AXIS2_PLACEMENT_3D('',#1732,#1388,#1389);
#1176=AXIS2_PLACEMENT_3D('',#1735,#1390,#1391);
#1177=AXIS2_PLACEMENT_3D('',#1736,#1392,#1393);
#1178=AXIS2_PLACEMENT_3D('',#1737,#1394,#1395);
#1179=AXIS2_PLACEMENT_3D('',#1738,#1396,#1397);
#1180=AXIS2_PLACEMENT_3D('',#1740,#1399,#1400);
#1181=AXIS2_PLACEMENT_3D('',#1742,#1402,#1403);
#1182=AXIS2_PLACEMENT_3D('',#1745,#1404,#1405);
#1183=AXIS2_PLACEMENT_3D('',#1747,#1406,#1407);
#1184=AXIS2_PLACEMENT_3D('',#1748,#1408,#1409);
#1185=AXIS2_PLACEMENT_3D('',#1749,#1410,#1411);
#1186=AXIS2_PLACEMENT_3D('',#1752,#1414,#1415);
#1187=AXIS2_PLACEMENT_3D('',#1755,#1416,#1417);
#1188=AXIS2_PLACEMENT_3D('',#1757,#1418,#1419);
#1189=AXIS2_PLACEMENT_3D('',#1758,#1420,#1421);
#1190=AXIS2_PLACEMENT_3D('',#1759,#1422,#1423);
#1191=AXIS2_PLACEMENT_3D('',#1762,#1426,#1427);
#1192=AXIS2_PLACEMENT_3D('',#1765,#1430,#1431);
#1193=AXIS2_PLACEMENT_3D('',#1768,#1432,#1433);
#1194=AXIS2_PLACEMENT_3D('',#1770,#1434,#1435);
#1195=AXIS2_PLACEMENT_3D('',#1771,#1436,#1437);
#1196=AXIS2_PLACEMENT_3D('',#1772,#1438,#1439);
#1197=AXIS2_PLACEMENT_3D('',#1775,#1442,#1443);
#1198=AXIS2_PLACEMENT_3D('',#1778,#1446,#1447);
#1199=AXIS2_PLACEMENT_3D('',#1781,#1450,#1451);
#1200=AXIS2_PLACEMENT_3D('',#1784,#1454,#1455);
#1201=AXIS2_PLACEMENT_3D('',#1787,#1458,#1459);
#1202=AXIS2_PLACEMENT_3D('',#1789,#1461,#1462);
#1203=AXIS2_PLACEMENT_3D('',#1792,#1465,#1466);
#1204=AXIS2_PLACEMENT_3D('',#1793,#1467,#1468);
#1205=AXIS2_PLACEMENT_3D('',#1794,#1469,#1470);
#1206=AXIS2_PLACEMENT_3D('',#1805,#1476,#1477);
#1207=AXIS2_PLACEMENT_3D('',#1806,#1478,#1479);
#1208=AXIS2_PLACEMENT_3D('',#1807,#1480,#1481);
#1209=AXIS2_PLACEMENT_3D('',#1808,#1482,#1483);
#1210=AXIS2_PLACEMENT_3D('',#1809,#1484,#1485);
#1211=AXIS2_PLACEMENT_3D('',#1810,#1486,#1487);
#1212=AXIS2_PLACEMENT_3D('',#1814,#1490,#1491);
#1213=AXIS2_PLACEMENT_3D('',#1816,#1493,#1494);
#1214=AXIS2_PLACEMENT_3D('',#1818,#1495,#1496);
#1215=AXIS2_PLACEMENT_3D('',#1821,#1498,#1499);
#1216=AXIS2_PLACEMENT_3D('',#1822,#1500,#1501);
#1217=AXIS2_PLACEMENT_3D('',#1826,#1504,#1505);
#1218=AXIS2_PLACEMENT_3D('',#1830,#1508,#1509);
#1219=AXIS2_PLACEMENT_3D('',#1832,#1510,#1511);
#1220=AXIS2_PLACEMENT_3D('',#1835,#1513,#1514);
#1221=AXIS2_PLACEMENT_3D('',#1836,#1515,#1516);
#1222=AXIS2_PLACEMENT_3D('',#1842,#1520,#1521);
#1223=AXIS2_PLACEMENT_3D('',#1846,#1524,#1525);
#1224=AXIS2_PLACEMENT_3D('',#1850,#1528,#1529);
#1225=AXIS2_PLACEMENT_3D('',#1853,#1532,#1533);
#1226=AXIS2_PLACEMENT_3D('',#1854,#1534,#1535);
#1227=AXIS2_PLACEMENT_3D('',#1856,#1536,#1537);
#1228=AXIS2_PLACEMENT_3D('',#1859,#1539,#1540);
#1229=AXIS2_PLACEMENT_3D('',#1860,#1541,#1542);
#1230=AXIS2_PLACEMENT_3D('',#1866,#1546,#1547);
#1231=AXIS2_PLACEMENT_3D('',#1870,#1550,#1551);
#1232=AXIS2_PLACEMENT_3D('',#1874,#1554,#1555);
#1233=AXIS2_PLACEMENT_3D('',#1877,#1558,#1559);
#1234=AXIS2_PLACEMENT_3D('',#1878,#1560,#1561);
#1235=AXIS2_PLACEMENT_3D('',#1880,#1562,#1563);
#1236=AXIS2_PLACEMENT_3D('',#1883,#1565,#1566);
#1237=AXIS2_PLACEMENT_3D('',#1884,#1567,#1568);
#1238=AXIS2_PLACEMENT_3D('',#1890,#1572,#1573);
#1239=AXIS2_PLACEMENT_3D('',#1894,#1576,#1577);
#1240=AXIS2_PLACEMENT_3D('',#1898,#1580,#1581);
#1241=AXIS2_PLACEMENT_3D('',#1900,#1583,#1584);
#1242=AXIS2_PLACEMENT_3D('',#1901,#1585,#1586);
#1243=AXIS2_PLACEMENT_3D('',#1902,#1587,#1588);
#1244=AXIS2_PLACEMENT_3D('',#1903,#1589,#1590);
#1245=DIRECTION('axis',(0.,0.,1.));
#1246=DIRECTION('refdir',(1.,0.,0.));
#1247=DIRECTION('center_axis',(0.,0.,1.));
#1248=DIRECTION('ref_axis',(-0.707106781186549,-0.707106781186546,0.));
#1249=DIRECTION('',(0.,0.,-1.));
#1250=DIRECTION('center_axis',(0.,0.707106781186547,0.707106781186548));
#1251=DIRECTION('ref_axis',(0.,0.707106781186548,-0.707106781186547));
#1252=DIRECTION('',(0.,0.,1.));
#1253=DIRECTION('center_axis',(0.,-0.707106781186548,0.707106781186548));
#1254=DIRECTION('ref_axis',(0.,0.707106781186548,0.707106781186548));
#1255=DIRECTION('center_axis',(0.,0.,-1.));
#1256=DIRECTION('ref_axis',(-0.707106781186547,0.707106781186548,0.));
#1257=DIRECTION('',(0.,0.,1.));
#1258=DIRECTION('center_axis',(0.,-0.707106781186547,-0.707106781186548));
#1259=DIRECTION('ref_axis',(0.,-0.707106781186548,0.707106781186547));
#1260=DIRECTION('',(0.,0.,-1.));
#1261=DIRECTION('center_axis',(3.14018491736755E-15,-0.707106781186547,
0.707106781186548));
#1262=DIRECTION('ref_axis',(-3.14018491736755E-15,0.707106781186548,0.707106781186547));
#1263=DIRECTION('center_axis',(0.,-1.,0.));
#1264=DIRECTION('ref_axis',(-0.707106781186547,0.,-0.707106781186548));
#1265=DIRECTION('',(0.,-1.,0.));
#1266=DIRECTION('',(0.,1.,0.));
#1267=DIRECTION('center_axis',(0.,1.,0.));
#1268=DIRECTION('ref_axis',(-0.707106781186548,0.,0.707106781186547));
#1269=DIRECTION('',(0.,-1.,0.));
#1270=DIRECTION('',(0.,1.,0.));
#1271=DIRECTION('center_axis',(0.,0.,1.));
#1272=DIRECTION('ref_axis',(0.,1.,0.));
#1273=DIRECTION('',(1.,0.,0.));
#1274=DIRECTION('',(0.,-1.,0.));
#1275=DIRECTION('',(-1.,0.,0.));
#1276=DIRECTION('',(1.77635683940068E-15,1.,0.));
#1277=DIRECTION('',(1.,3.24185123190546E-14,0.));
#1278=DIRECTION('',(0.,-1.,0.));
#1279=DIRECTION('',(-1.,-3.1974423109205E-14,0.));
#1280=DIRECTION('',(-5.92118946466514E-15,1.,0.));
#1281=DIRECTION('',(1.,0.,0.));
#1282=DIRECTION('',(-0.707106781186547,-0.707106781186548,0.));
#1283=DIRECTION('',(9.10265155991165E-16,-1.,0.));
#1284=DIRECTION('',(-1.,0.,0.));
#1285=DIRECTION('',(0.,-1.,0.));
#1286=DIRECTION('',(1.,0.,0.));
#1287=DIRECTION('center_axis',(0.,1.,0.));
#1288=DIRECTION('ref_axis',(-1.,0.,0.));
#1289=DIRECTION('',(1.,0.,0.));
#1290=DIRECTION('',(0.,0.,-1.));
#1291=DIRECTION('',(-1.,0.,0.));
#1292=DIRECTION('',(0.,0.,1.));
#1293=DIRECTION('center_axis',(1.,0.,0.));
#1294=DIRECTION('ref_axis',(0.,0.,-1.));
#1295=DIRECTION('',(0.,-1.,0.));
#1296=DIRECTION('',(0.,0.,1.));
#1297=DIRECTION('',(0.,1.,0.));
#1298=DIRECTION('',(0.,0.,-1.));
#1299=DIRECTION('center_axis',(-1.,0.,0.));
#1300=DIRECTION('ref_axis',(0.,-1.,0.));
#1301=DIRECTION('center_axis',(-1.,0.,0.));
#1302=DIRECTION('ref_axis',(0.,-1.,0.));
#1303=DIRECTION('center_axis',(1.,0.,0.));
#1304=DIRECTION('ref_axis',(0.,0.,-1.));
#1305=DIRECTION('center_axis',(0.,-1.,0.));
#1306=DIRECTION('ref_axis',(0.,0.,1.));
#1307=DIRECTION('center_axis',(1.,0.,0.));
#1308=DIRECTION('ref_axis',(0.,-1.,0.));
#1309=DIRECTION('center_axis',(1.,0.,0.));
#1310=DIRECTION('ref_axis',(0.,-1.,0.));
#1311=DIRECTION('center_axis',(1.,0.,0.));
#1312=DIRECTION('ref_axis',(0.,-1.,0.));
#1313=DIRECTION('',(1.,0.,0.));
#1314=DIRECTION('center_axis',(1.,0.,0.));
#1315=DIRECTION('ref_axis',(0.,-1.,0.));
#1316=DIRECTION('center_axis',(1.,0.,0.));
#1317=DIRECTION('ref_axis',(0.,0.,-1.));
#1318=DIRECTION('center_axis',(0.,-1.,-1.97443184176624E-16));
#1319=DIRECTION('ref_axis',(0.,-1.97443184176624E-16,1.));
#1320=DIRECTION('center_axis',(1.,0.,0.));
#1321=DIRECTION('ref_axis',(0.,-1.,0.));
#1322=DIRECTION('center_axis',(1.,0.,0.));
#1323=DIRECTION('ref_axis',(0.,-1.,0.));
#1324=DIRECTION('center_axis',(1.,0.,0.));
#1325=DIRECTION('ref_axis',(0.,-1.,0.));
#1326=DIRECTION('',(1.,0.,0.));
#1327=DIRECTION('center_axis',(1.,0.,0.));
#1328=DIRECTION('ref_axis',(0.,-1.,0.));
#1329=DIRECTION('center_axis',(0.439732612032304,-0.182143211721524,-0.87946522406461));
#1330=DIRECTION('ref_axis',(-0.812519920068747,0.336556770590775,-0.475963149477966));
#1331=DIRECTION('center_axis',(0.,0.,-1.));
#1332=DIRECTION('ref_axis',(-0.707106781186549,0.707106781186547,0.));
#1333=DIRECTION('center_axis',(-0.707106781186545,-0.70710678118655,0.));
#1334=DIRECTION('ref_axis',(0.,0.,-1.));
#1335=DIRECTION('center_axis',(0.,1.,0.));
#1336=DIRECTION('ref_axis',(-1.,0.,0.));
#1337=DIRECTION('center_axis',(-0.941663177664665,-0.290400099340388,0.170112439679108));
#1338=DIRECTION('ref_axis',(-0.33655677059077,0.81251992006875,-0.475963149477966));
#1339=DIRECTION('center_axis',(0.,0.,-1.));
#1340=DIRECTION('ref_axis',(0.,1.,0.));
#1341=DIRECTION('center_axis',(-1.,4.44089209850064E-15,0.));
#1342=DIRECTION('ref_axis',(0.,0.,-1.));
#1343=DIRECTION('center_axis',(0.707106781186545,0.70710678118655,-1.88411095042053E-14));
#1344=DIRECTION('ref_axis',(-0.70710678118655,0.707106781186545,0.));
#1345=DIRECTION('center_axis',(-0.439732612032304,0.182143211721525,-0.87946522406461));
#1346=DIRECTION('ref_axis',(-0.812519920068746,0.336556770590776,0.475963149477968));
#1347=DIRECTION('center_axis',(0.,0.,1.));
#1348=DIRECTION('ref_axis',(-1.,0.,0.));
#1349=DIRECTION('center_axis',(0.,1.,0.));
#1350=DIRECTION('ref_axis',(0.,0.,1.));
#1351=DIRECTION('center_axis',(-0.707106781186545,-0.70710678118655,-7.85046229341887E-16));
#1352=DIRECTION('ref_axis',(-0.70710678118655,0.707106781186545,0.));
#1353=DIRECTION('center_axis',(-0.941663177664659,-0.290400099340403,-0.170112439679116));
#1354=DIRECTION('ref_axis',(-0.336556770590783,0.812519920068739,0.475963149477974));
#1355=DIRECTION('center_axis',(-1.,0.,-4.44089209850064E-15));
#1356=DIRECTION('ref_axis',(0.,1.,0.));
#1357=DIRECTION('center_axis',(0.,0.,1.));
#1358=DIRECTION('ref_axis',(-0.707106781186548,0.707106781186548,0.));
#1359=DIRECTION('center_axis',(0.707106781186559,0.707106781186536,0.));
#1360=DIRECTION('ref_axis',(0.,0.,1.));
#1361=DIRECTION('center_axis',(0.,0.,1.));
#1362=DIRECTION('ref_axis',(-0.382683432365094,0.923879532511285,0.));
#1363=DIRECTION('',(0.,0.,-1.));
#1364=DIRECTION('',(0.,0.,1.));
#1365=DIRECTION('center_axis',(-0.707106781186547,-0.707106781186548,0.));
#1366=DIRECTION('ref_axis',(-0.500000000000003,0.5,0.707106781186546));
#1367=DIRECTION('',(0.707106781186547,0.707106781186548,0.));
#1368=DIRECTION('',(-0.707106781186547,-0.707106781186548,0.));
#1369=DIRECTION('center_axis',(0.408248290463861,-0.816496580927729,0.408248290463861));
#1370=DIRECTION('ref_axis',(-0.577350269189628,-0.577350269189622,-0.577350269189628));
#1371=DIRECTION('center_axis',(0.,0.,-1.));
#1372=DIRECTION('ref_axis',(-1.,0.,0.));
#1373=DIRECTION('center_axis',(0.,-1.,0.));
#1374=DIRECTION('ref_axis',(0.,0.,-1.));
#1375=DIRECTION('center_axis',(-1.,0.,0.));
#1376=DIRECTION('ref_axis',(0.,-1.,0.));
#1377=DIRECTION('center_axis',(0.,1.,0.));
#1378=DIRECTION('ref_axis',(-0.707106781186548,0.,-0.707106781186548));
#1379=DIRECTION('',(0.,-1.,0.));
#1380=DIRECTION('center_axis',(0.408248290463863,-0.816496580927725,-0.408248290463865));
#1381=DIRECTION('ref_axis',(0.577350269189625,0.577350269189625,-0.577350269189628));
#1382=DIRECTION('center_axis',(1.,0.,0.));
#1383=DIRECTION('ref_axis',(0.,1.,0.));
#1384=DIRECTION('center_axis',(0.,0.,-1.));
#1385=DIRECTION('ref_axis',(1.,0.,0.));
#1386=DIRECTION('center_axis',(0.,1.,0.));
#1387=DIRECTION('ref_axis',(0.,0.,-1.));
#1388=DIRECTION('center_axis',(-0.408248290463864,-0.408248290463862,-0.816496580927726));
#1389=DIRECTION('ref_axis',(-0.577350269189627,-0.577350269189625,0.577350269189625));
#1390=DIRECTION('center_axis',(-1.,0.,0.));
#1391=DIRECTION('ref_axis',(0.,0.,1.));
#1392=DIRECTION('center_axis',(0.,-1.,0.));
#1393=DIRECTION('ref_axis',(-1.,0.,0.));
#1394=DIRECTION('center_axis',(0.,0.,1.));
#1395=DIRECTION('ref_axis',(0.,-1.,0.));
#1396=DIRECTION('center_axis',(0.,-1.,0.));
#1397=DIRECTION('ref_axis',(-0.707106781186549,0.,0.707106781186546));
#1398=DIRECTION('',(0.,1.,0.));
#1399=DIRECTION('center_axis',(0.,0.,-1.));
#1400=DIRECTION('ref_axis',(-0.707106781186549,-0.707106781186546,0.));
#1401=DIRECTION('',(0.,0.,1.));
#1402=DIRECTION('center_axis',(0.408248290463862,-0.816496580927725,0.408248290463866));
#1403=DIRECTION('ref_axis',(0.577350269189626,0.577350269189626,0.577350269189626));
#1404=DIRECTION('center_axis',(0.,0.,1.));
#1405=DIRECTION('ref_axis',(0.,1.,0.));
#1406=DIRECTION('center_axis',(1.,0.,0.));
#1407=DIRECTION('ref_axis',(0.,0.,1.));
#1408=DIRECTION('center_axis',(0.,1.,0.));
#1409=DIRECTION('ref_axis',(1.,0.,0.));
#1410=DIRECTION('center_axis',(-1.,0.,0.));
#1411=DIRECTION('ref_axis',(0.,0.707106781186541,0.707106781186554));
#1412=DIRECTION('',(1.,0.,0.));
#1413=DIRECTION('',(-1.,0.,0.));
#1414=DIRECTION('center_axis',(-0.816496580927727,-0.408248290463863,-0.408248290463861));
#1415=DIRECTION('ref_axis',(0.577350269189623,-0.577350269189629,-0.577350269189626));
#1416=DIRECTION('center_axis',(0.,0.,-1.));
#1417=DIRECTION('ref_axis',(0.,-1.,0.));
#1418=DIRECTION('center_axis',(1.,0.,0.));
#1419=DIRECTION('ref_axis',(0.,0.,-1.));
#1420=DIRECTION('center_axis',(0.,-1.,0.));
#1421=DIRECTION('ref_axis',(1.,0.,0.));
#1422=DIRECTION('center_axis',(-1.,0.,0.));
#1423=DIRECTION('ref_axis',(0.,-0.707106781186548,-0.707106781186548));
#1424=DIRECTION('',(1.,0.,0.));
#1425=DIRECTION('',(-1.,0.,0.));
#1426=DIRECTION('center_axis',(0.,-1.,0.));
#1427=DIRECTION('ref_axis',(0.707106781186546,0.,-0.707106781186549));
#1428=DIRECTION('',(0.,1.,0.));
#1429=DIRECTION('',(0.,-1.,0.));
#1430=DIRECTION('center_axis',(-0.816496580927727,-0.408248290463864,0.40824829046386));
#1431=DIRECTION('ref_axis',(0.577350269189622,-0.577350269189629,0.577350269189626));
#1432=DIRECTION('center_axis',(0.,-1.,0.));
#1433=DIRECTION('ref_axis',(0.,0.,1.));
#1434=DIRECTION('center_axis',(1.,0.,0.));
#1435=DIRECTION('ref_axis',(0.,-1.,0.));
#1436=DIRECTION('center_axis',(0.,0.,1.));
#1437=DIRECTION('ref_axis',(1.,0.,0.));
#1438=DIRECTION('center_axis',(1.,0.,0.));
#1439=DIRECTION('ref_axis',(0.,-0.707106781186549,0.707106781186546));
#1440=DIRECTION('',(-1.,0.,0.));
#1441=DIRECTION('',(1.,0.,0.));
#1442=DIRECTION('center_axis',(0.,0.,-1.));
#1443=DIRECTION('ref_axis',(0.707106781186546,-0.707106781186549,0.));
#1444=DIRECTION('',(0.,0.,1.));
#1445=DIRECTION('',(0.,0.,-1.));
#1446=DIRECTION('center_axis',(0.,1.,0.));
#1447=DIRECTION('ref_axis',(0.707106781186548,0.,0.707106781186548));
#1448=DIRECTION('',(0.,-1.,0.));
#1449=DIRECTION('',(0.,1.,0.));
#1450=DIRECTION('center_axis',(0.,0.,-1.));
#1451=DIRECTION('ref_axis',(0.707106781186554,0.707106781186541,0.));
#1452=DIRECTION('',(0.,0.,1.));
#1453=DIRECTION('',(0.,0.,-1.));
#1454=DIRECTION('center_axis',(1.,0.,0.));
#1455=DIRECTION('ref_axis',(0.,0.70710678118654,-0.707106781186555));
#1456=DIRECTION('',(-1.,0.,0.));
#1457=DIRECTION('',(1.,0.,0.));
#1458=DIRECTION('center_axis',(0.,0.,-1.));
#1459=DIRECTION('ref_axis',(-0.923879532511287,0.382683432365089,0.));
#1460=DIRECTION('',(0.,0.,-1.));
#1461=DIRECTION('center_axis',(0.707106781186547,0.707106781186548,0.));
#1462=DIRECTION('ref_axis',(-0.500000000000002,0.499999999999999,-0.707106781186547));
#1463=DIRECTION('',(-0.707106781186547,-0.707106781186548,0.));
#1464=DIRECTION('',(0.707106781186547,0.707106781186548,0.));
#1465=DIRECTION('center_axis',(0.707106781186548,-0.707106781186547,0.));
#1466=DIRECTION('ref_axis',(-0.707106781186547,-0.707106781186548,0.));
#1467=DIRECTION('center_axis',(0.,-1.,0.));
#1468=DIRECTION('ref_axis',(0.,0.,1.));
#1469=DIRECTION('center_axis',(0.,0.,1.));
#1470=DIRECTION('ref_axis',(0.,1.,0.));
#1471=DIRECTION('',(0.,-1.,0.));
#1472=DIRECTION('',(-1.,0.,0.));
#1473=DIRECTION('',(0.,1.,0.));
#1474=DIRECTION('',(0.707106781186547,0.707106781186548,0.));
#1475=DIRECTION('',(1.,0.,0.));
#1476=DIRECTION('center_axis',(0.,0.,1.));
#1477=DIRECTION('ref_axis',(0.,1.,0.));
#1478=DIRECTION('center_axis',(0.,1.,0.));
#1479=DIRECTION('ref_axis',(0.,0.,-1.));
#1480=DIRECTION('center_axis',(-1.,0.,0.));
#1481=DIRECTION('ref_axis',(0.,0.,1.));
#1482=DIRECTION('center_axis',(-1.,0.,0.));
#1483=DIRECTION('ref_axis',(0.,-1.,0.));
#1484=DIRECTION('center_axis',(-1.,0.,0.));
#1485=DIRECTION('ref_axis',(0.,-1.,0.));
#1486=DIRECTION('center_axis',(0.,0.,1.));
#1487=DIRECTION('ref_axis',(0.,-1.,0.));
#1488=DIRECTION('',(1.,0.,0.));
#1489=DIRECTION('',(0.,1.,0.));
#1490=DIRECTION('center_axis',(0.,1.,0.));
#1491=DIRECTION('ref_axis',(0.,0.,1.));
#1492=DIRECTION('',(0.,0.,-1.));
#1493=DIRECTION('center_axis',(0.,0.,1.));
#1494=DIRECTION('ref_axis',(-1.,0.,0.));
#1495=DIRECTION('center_axis',(0.,0.,1.));
#1496=DIRECTION('ref_axis',(-1.,0.,0.));
#1497=DIRECTION('',(0.,0.,-1.));
#1498=DIRECTION('center_axis',(0.,0.,1.));
#1499=DIRECTION('ref_axis',(-1.,0.,0.));
#1500=DIRECTION('center_axis',(1.,0.,0.));
#1501=DIRECTION('ref_axis',(0.,1.,0.));
#1502=DIRECTION('',(0.,1.,0.));
#1503=DIRECTION('',(0.,0.,1.));
#1504=DIRECTION('center_axis',(0.,0.,1.));
#1505=DIRECTION('ref_axis',(-1.,0.,0.));
#1506=DIRECTION('',(0.,1.,0.));
#1507=DIRECTION('',(-1.,0.,0.));
#1508=DIRECTION('center_axis',(0.,0.,1.));
#1509=DIRECTION('ref_axis',(-1.,0.,0.));
#1510=DIRECTION('center_axis',(0.,0.,1.));
#1511=DIRECTION('ref_axis',(-1.,0.,0.));
#1512=DIRECTION('',(0.,0.,-1.));
#1513=DIRECTION('center_axis',(0.,0.,1.));
#1514=DIRECTION('ref_axis',(-1.,0.,0.));
#1515=DIRECTION('center_axis',(1.,9.10265155991165E-16,0.));
#1516=DIRECTION('ref_axis',(-9.10265155991165E-16,1.,0.));
#1517=DIRECTION('',(0.,0.,-1.));
#1518=DIRECTION('',(-9.10265155991165E-16,1.,0.));
#1519=DIRECTION('',(0.,0.,1.));
#1520=DIRECTION('center_axis',(0.,-1.,0.));
#1521=DIRECTION('ref_axis',(1.,0.,0.));
#1522=DIRECTION('',(1.,0.,0.));
#1523=DIRECTION('',(0.,0.,1.));
#1524=DIRECTION('center_axis',(0.,0.,1.));
#1525=DIRECTION('ref_axis',(-1.,0.,0.));
#1526=DIRECTION('',(0.,1.,0.));
#1527=DIRECTION('',(0.707106781186547,0.707106781186548,0.));
#1528=DIRECTION('center_axis',(0.707106781186548,-0.707106781186547,0.));
#1529=DIRECTION('ref_axis',(-0.707106781186547,-0.707106781186548,0.));
#1530=DIRECTION('',(0.,0.,-1.));
#1531=DIRECTION('',(0.,0.,1.));
#1532=DIRECTION('center_axis',(0.,0.,1.));
#1533=DIRECTION('ref_axis',(0.,1.,0.));
#1534=DIRECTION('center_axis',(0.,0.,1.));
#1535=DIRECTION('ref_axis',(-1.,0.,0.));
#1536=DIRECTION('center_axis',(0.,0.,1.));
#1537=DIRECTION('ref_axis',(-1.,0.,0.));
#1538=DIRECTION('',(0.,0.,-1.));
#1539=DIRECTION('center_axis',(0.,0.,1.));
#1540=DIRECTION('ref_axis',(-1.,0.,0.));
#1541=DIRECTION('center_axis',(-1.,1.77635683940068E-15,0.));
#1542=DIRECTION('ref_axis',(-1.77635683940068E-15,-1.,0.));
#1543=DIRECTION('',(0.,0.,-1.));
#1544=DIRECTION('',(-1.77635683940068E-15,-1.,0.));
#1545=DIRECTION('',(0.,0.,1.));
#1546=DIRECTION('center_axis',(-3.24185123190546E-14,1.,0.));
#1547=DIRECTION('ref_axis',(-1.,-3.24185123190546E-14,0.));
#1548=DIRECTION('',(-1.,-3.24185123190546E-14,0.));
#1549=DIRECTION('',(0.,0.,1.));
#1550=DIRECTION('center_axis',(0.,0.,1.));
#1551=DIRECTION('ref_axis',(-1.,0.,0.));
#1552=DIRECTION('',(-1.,0.,0.));
#1553=DIRECTION('',(0.,-1.,0.));
#1554=DIRECTION('center_axis',(0.,1.,0.));
#1555=DIRECTION('ref_axis',(0.,0.,-1.));
#1556=DIRECTION('',(0.,0.,1.));
#1557=DIRECTION('',(0.,0.,-1.));
#1558=DIRECTION('center_axis',(0.,0.,1.));
#1559=DIRECTION('ref_axis',(0.,1.,0.));
#1560=DIRECTION('center_axis',(0.,0.,1.));
#1561=DIRECTION('ref_axis',(-1.,0.,0.));
#1562=DIRECTION('center_axis',(0.,0.,1.));
#1563=DIRECTION('ref_axis',(-1.,0.,0.));
#1564=DIRECTION('',(0.,0.,-1.));
#1565=DIRECTION('center_axis',(0.,0.,1.));
#1566=DIRECTION('ref_axis',(-1.,0.,0.));
#1567=DIRECTION('center_axis',(3.1974423109205E-14,-1.,0.));
#1568=DIRECTION('ref_axis',(1.,3.1974423109205E-14,0.));
#1569=DIRECTION('',(0.,0.,-1.));
#1570=DIRECTION('',(1.,3.1974423109205E-14,0.));
#1571=DIRECTION('',(0.,0.,1.));
#1572=DIRECTION('center_axis',(-1.,-5.92118946466514E-15,0.));
#1573=DIRECTION('ref_axis',(5.92118946466514E-15,-1.,0.));
#1574=DIRECTION('',(5.92118946466514E-15,-1.,0.));
#1575=DIRECTION('',(0.,0.,1.));
#1576=DIRECTION('center_axis',(0.,0.,1.));
#1577=DIRECTION('ref_axis',(-1.,0.,0.));
#1578=DIRECTION('',(0.,-1.,0.));
#1579=DIRECTION('',(1.,0.,0.));
#1580=DIRECTION('center_axis',(-1.,0.,0.));
#1581=DIRECTION('ref_axis',(0.,0.,1.));
#1582=DIRECTION('',(0.,0.,1.));
#1583=DIRECTION('center_axis',(0.,0.,1.));
#1584=DIRECTION('ref_axis',(0.,1.,0.));
#1585=DIRECTION('center_axis',(1.,0.,0.));
#1586=DIRECTION('ref_axis',(0.,0.,-1.));
#1587=DIRECTION('center_axis',(0.,0.,1.));
#1588=DIRECTION('ref_axis',(0.,1.,0.));
#1589=DIRECTION('center_axis',(0.,-1.,0.));
#1590=DIRECTION('ref_axis',(0.,0.,1.));
#1591=CARTESIAN_POINT('',(0.,0.,0.));
#1592=CARTESIAN_POINT('Origin',(1.,27.,9.305));
#1593=CARTESIAN_POINT('',(0.,27.,16.));
#1594=CARTESIAN_POINT('',(0.,27.,2.));
#1595=CARTESIAN_POINT('',(0.,27.,9.305));
#1596=CARTESIAN_POINT('',(1.,26.,3.));
#1597=CARTESIAN_POINT('Origin',(1.,27.,2.));
#1598=CARTESIAN_POINT('',(1.,26.,15.));
#1599=CARTESIAN_POINT('',(1.,26.,9.305));
#1600=CARTESIAN_POINT('Origin',(1.,27.,16.));
#1601=CARTESIAN_POINT('Origin',(1.,7.,9.305));
#1602=CARTESIAN_POINT('',(0.,7.,2.));
#1603=CARTESIAN_POINT('',(0.,7.,16.));
#1604=CARTESIAN_POINT('',(0.,7.,9.305));
#1605=CARTESIAN_POINT('',(1.,8.,15.));
#1606=CARTESIAN_POINT('Origin',(1.,7.,16.));
#1607=CARTESIAN_POINT('',(1.,8.,3.));
#1608=CARTESIAN_POINT('',(1.,8.,9.305));
#1609=CARTESIAN_POINT('Origin',(1.,7.,2.));
#1610=CARTESIAN_POINT('Origin',(1.,42.5,16.));
#1611=CARTESIAN_POINT('',(1.,42.5,15.));
#1612=CARTESIAN_POINT('',(0.,42.5,16.));
#1613=CARTESIAN_POINT('Origin',(1.,59.,2.));
#1614=CARTESIAN_POINT('',(0.,59.,2.));
#1615=CARTESIAN_POINT('',(1.,59.,3.));
#1616=CARTESIAN_POINT('Origin',(25.,59.,3.));
#1617=CARTESIAN_POINT('',(8.,8.,3.));
#1618=CARTESIAN_POINT('',(16.5,8.,3.));
#1619=CARTESIAN_POINT('',(8.,3.,3.));
#1620=CARTESIAN_POINT('',(8.,31.,3.));
#1621=CARTESIAN_POINT('',(42.,3.,3.));
#1622=CARTESIAN_POINT('',(25.,3.,3.));
#1623=CARTESIAN_POINT('',(42.,7.99999999999878,3.));
#1624=CARTESIAN_POINT('',(42.,33.4999999999994,3.));
#1625=CARTESIAN_POINT('',(47.,7.99999999999894,3.));
#1626=CARTESIAN_POINT('',(36.0000000000008,7.99999999999859,3.));
#1627=CARTESIAN_POINT('',(47.,111.999999999999,3.));
#1628=CARTESIAN_POINT('',(47.,59.,3.));
#1629=CARTESIAN_POINT('',(42.0000000000001,111.999999999999,3.));
#1630=CARTESIAN_POINT('',(33.4999999999992,111.999999999999,3.));
#1631=CARTESIAN_POINT('',(42.0000000000001,115.,3.));
#1632=CARTESIAN_POINT('',(42.0000000000002,87.,3.));
#1633=CARTESIAN_POINT('',(21.2426406871193,115.,3.));
#1634=CARTESIAN_POINT('',(25.,115.,3.));
#1635=CARTESIAN_POINT('',(8.00000000000004,101.757359312881,3.));
#1636=CARTESIAN_POINT('',(8.62132034355963,102.37867965644,3.));
#1637=CARTESIAN_POINT('',(8.00000000000005,92.,3.));
#1638=CARTESIAN_POINT('',(8.00000000000007,75.5,3.));
#1639=CARTESIAN_POINT('',(3.,92.,3.));
#1640=CARTESIAN_POINT('',(14.,92.,3.));
#1641=CARTESIAN_POINT('',(3.,26.,3.));
#1642=CARTESIAN_POINT('',(3.,59.,3.));
#1643=CARTESIAN_POINT('',(0.,26.,3.));
#1644=CARTESIAN_POINT('Origin',(8.,8.,3.));
#1645=CARTESIAN_POINT('',(3.,8.,15.));
#1646=CARTESIAN_POINT('',(0.,8.,15.));
#1647=CARTESIAN_POINT('',(3.,8.,25.97));
#1648=CARTESIAN_POINT('',(3.,8.,9.305));
#1649=CARTESIAN_POINT('',(8.,8.,25.97));
#1650=CARTESIAN_POINT('',(8.,8.,25.97));
#1651=CARTESIAN_POINT('',(8.,8.,3.));
#1652=CARTESIAN_POINT('Origin',(0.,59.,15.61));
#1653=CARTESIAN_POINT('',(0.,97.5857864376269,30.22));
#1654=CARTESIAN_POINT('',(0.,0.999999999999996,30.22));
#1655=CARTESIAN_POINT('',(0.,59.,30.22));
#1656=CARTESIAN_POINT('',(0.,97.5857864376269,1.));
#1657=CARTESIAN_POINT('',(0.,97.5857864376269,23.415));
#1658=CARTESIAN_POINT('',(0.,0.999999999999996,1.));
#1659=CARTESIAN_POINT('',(0.,59.,1.));
#1660=CARTESIAN_POINT('',(0.,0.999999999999996,15.61));
#1661=CARTESIAN_POINT('',(0.,93.,6.8115));
#1662=CARTESIAN_POINT('Origin',(0.,93.,5.));
#1663=CARTESIAN_POINT('',(0.,5.,28.0315));
#1664=CARTESIAN_POINT('Origin',(0.,5.,26.22));
#1665=CARTESIAN_POINT('Origin',(1.,93.,5.));
#1666=CARTESIAN_POINT('',(1.,93.,5.8115));
#1667=CARTESIAN_POINT('Origin',(1.,93.,6.8115));
#1668=CARTESIAN_POINT('',(1.,93.8115,5.));
#1669=CARTESIAN_POINT('Origin',(1.,93.,5.));
#1670=CARTESIAN_POINT('Origin',(1.,93.,5.));
#1671=CARTESIAN_POINT('Origin',(0.,93.,5.));
#1672=CARTESIAN_POINT('',(2.5,93.8115,5.));
#1673=CARTESIAN_POINT('',(0.,93.8115,5.));
#1674=CARTESIAN_POINT('Origin',(2.5,93.,5.));
#1675=CARTESIAN_POINT('Origin',(1.,5.,26.22));
#1676=CARTESIAN_POINT('',(1.,5.,27.0315));
#1677=CARTESIAN_POINT('Origin',(1.,5.,28.0315));
#1678=CARTESIAN_POINT('',(1.,5.8115,26.22));
#1679=CARTESIAN_POINT('Origin',(1.,5.,26.22));
#1680=CARTESIAN_POINT('Origin',(1.,5.,26.22));
#1681=CARTESIAN_POINT('Origin',(0.,5.,26.22));
#1682=CARTESIAN_POINT('',(2.5,5.8115,26.22));
#1683=CARTESIAN_POINT('',(0.,5.8115,26.22));
#1684=CARTESIAN_POINT('Origin',(2.5,5.,26.22));
#1685=CARTESIAN_POINT('Origin',(1.,97.5857864376269,1.));
#1686=CARTESIAN_POINT('',(0.292893218813454,98.2928932188135,1.));
#1687=CARTESIAN_POINT('Origin',(1.,97.5857864376269,1.));
#1688=CARTESIAN_POINT('',(1.,97.5857864376269,0.));
#1689=CARTESIAN_POINT('Origin',(1.,97.5857864376269,1.));
#1690=CARTESIAN_POINT('Origin',(1.,97.5857864376269,1.));
#1691=CARTESIAN_POINT('Origin',(20.4142135623731,117.,1.));
#1692=CARTESIAN_POINT('',(20.4142135623731,118.,1.));
#1693=CARTESIAN_POINT('',(19.7071067811866,117.707106781187,1.));
#1694=CARTESIAN_POINT('Origin',(20.4142135623731,117.,1.));
#1695=CARTESIAN_POINT('',(20.4142135623731,117.,0.));
#1696=CARTESIAN_POINT('Origin',(20.4142135623731,117.,1.));
#1697=CARTESIAN_POINT('Origin',(20.4142135623731,117.,1.));
#1698=CARTESIAN_POINT('Origin',(1.,97.5857864376269,30.22));
#1699=CARTESIAN_POINT('',(0.292893218813453,98.2928932188135,30.22));
#1700=CARTESIAN_POINT('Origin',(1.,97.5857864376269,30.22));
#1701=CARTESIAN_POINT('',(1.,97.5857864376269,31.22));
#1702=CARTESIAN_POINT('Origin',(1.,97.5857864376269,30.22));
#1703=CARTESIAN_POINT('Origin',(1.00000000000001,97.5857864376269,30.22));
#1704=CARTESIAN_POINT('Origin',(20.4142135623731,117.,30.22));
#1705=CARTESIAN_POINT('',(20.4142135623731,118.,30.22));
#1706=CARTESIAN_POINT('',(20.4142135623731,117.,31.22));
#1707=CARTESIAN_POINT('Origin',(20.4142135623731,117.,30.22));
#1708=CARTESIAN_POINT('',(19.7071067811866,117.707106781187,30.22));
#1709=CARTESIAN_POINT('Origin',(20.4142135623731,117.,30.22));
#1710=CARTESIAN_POINT('Origin',(20.4142135623731,117.,30.22));
#1711=CARTESIAN_POINT('Origin',(20.4142135623731,117.,23.415));
#1712=CARTESIAN_POINT('',(20.4142135623731,118.,23.415));
#1713=CARTESIAN_POINT('',(19.7071067811866,117.707106781187,23.415));
#1714=CARTESIAN_POINT('Origin',(7.20710678118654,103.792893218813,30.22));
#1715=CARTESIAN_POINT('',(7.20710678118654,103.792893218813,31.22));
#1716=CARTESIAN_POINT('',(6.49999999999999,104.5,30.22));
#1717=CARTESIAN_POINT('Origin',(1.,0.999999999999996,1.));
#1718=CARTESIAN_POINT('',(1.,0.,1.));
#1719=CARTESIAN_POINT('Origin',(1.,0.999999999999996,1.));
#1720=CARTESIAN_POINT('',(1.,1.,0.));
#1721=CARTESIAN_POINT('Origin',(1.,0.999999999999996,1.));
#1722=CARTESIAN_POINT('Origin',(1.,1.,1.));
#1723=CARTESIAN_POINT('Origin',(1.,59.,1.));
#1724=CARTESIAN_POINT('',(1.,59.,0.));
#1725=CARTESIAN_POINT('Origin',(49.,117.,1.));
#1726=CARTESIAN_POINT('',(49.,118.,1.));
#1727=CARTESIAN_POINT('',(49.,117.,0.));
#1728=CARTESIAN_POINT('Origin',(49.,117.,1.));
#1729=CARTESIAN_POINT('',(50.,117.,1.));
#1730=CARTESIAN_POINT('Origin',(49.,117.,1.));
#1731=CARTESIAN_POINT('Origin',(49.,117.,1.));
#1732=CARTESIAN_POINT('Origin',(1.,0.999999999999996,30.22));
#1733=CARTESIAN_POINT('',(1.,0.999999999999996,31.22));
#1734=CARTESIAN_POINT('',(1.,0.,30.22));
#1735=CARTESIAN_POINT('Origin',(1.,1.,30.22));
#1736=CARTESIAN_POINT('Origin',(1.,0.999999999999996,30.22));
#1737=CARTESIAN_POINT('Origin',(1.,0.999999999999996,30.22));
#1738=CARTESIAN_POINT('Origin',(1.,59.,30.22));
#1739=CARTESIAN_POINT('',(1.,59.,31.22));
#1740=CARTESIAN_POINT('Origin',(1.,0.999999999999996,15.61));
#1741=CARTESIAN_POINT('',(1.,0.,15.61));
#1742=CARTESIAN_POINT('Origin',(49.,117.,30.22));
#1743=CARTESIAN_POINT('',(49.,118.,30.22));
#1744=CARTESIAN_POINT('',(50.,117.,30.22));
#1745=CARTESIAN_POINT('Origin',(49.,117.,30.22));
#1746=CARTESIAN_POINT('',(49.,117.,31.22));
#1747=CARTESIAN_POINT('Origin',(49.,117.,30.22));
#1748=CARTESIAN_POINT('Origin',(49.,117.,30.22));
#1749=CARTESIAN_POINT('Origin',(25.,117.,30.22));
#1750=CARTESIAN_POINT('',(25.,117.,31.22));
#1751=CARTESIAN_POINT('',(25.,118.,30.22));
#1752=CARTESIAN_POINT('Origin',(49.,1.,1.));
#1753=CARTESIAN_POINT('',(49.,0.,1.));
#1754=CARTESIAN_POINT('',(50.,1.,1.));
#1755=CARTESIAN_POINT('Origin',(49.,1.,1.));
#1756=CARTESIAN_POINT('',(49.,0.999999999999996,0.));
#1757=CARTESIAN_POINT('Origin',(49.,1.,1.));
#1758=CARTESIAN_POINT('Origin',(49.,0.999999999999996,1.));
#1759=CARTESIAN_POINT('Origin',(25.,1.,1.));
#1760=CARTESIAN_POINT('',(25.,1.,0.));
#1761=CARTESIAN_POINT('',(25.,0.,1.));
#1762=CARTESIAN_POINT('Origin',(49.,59.,1.));
#1763=CARTESIAN_POINT('',(49.,59.,0.));
#1764=CARTESIAN_POINT('',(50.,59.,1.));
#1765=CARTESIAN_POINT('Origin',(49.,1.,30.22));
#1766=CARTESIAN_POINT('',(49.,1.,31.22));
#1767=CARTESIAN_POINT('',(50.,0.999999999999996,30.22));
#1768=CARTESIAN_POINT('Origin',(49.,0.999999999999996,30.22));
#1769=CARTESIAN_POINT('',(49.,0.,30.22));
#1770=CARTESIAN_POINT('Origin',(49.,1.,30.22));
#1771=CARTESIAN_POINT('Origin',(49.,1.,30.22));
#1772=CARTESIAN_POINT('Origin',(25.,1.,30.22));
#1773=CARTESIAN_POINT('',(25.,1.,31.22));
#1774=CARTESIAN_POINT('',(25.,0.,30.22));
#1775=CARTESIAN_POINT('Origin',(49.,1.,15.61));
#1776=CARTESIAN_POINT('',(50.,1.,15.61));
#1777=CARTESIAN_POINT('',(49.,0.,15.61));
#1778=CARTESIAN_POINT('Origin',(49.,59.,30.22));
#1779=CARTESIAN_POINT('',(49.,59.,31.22));
#1780=CARTESIAN_POINT('',(50.,59.,30.22));
#1781=CARTESIAN_POINT('Origin',(49.,117.,15.61));
#1782=CARTESIAN_POINT('',(49.,118.,15.61));
#1783=CARTESIAN_POINT('',(50.,117.,15.61));
#1784=CARTESIAN_POINT('Origin',(25.,117.,1.));
#1785=CARTESIAN_POINT('',(25.,117.,0.));
#1786=CARTESIAN_POINT('',(25.,118.,1.));
#1787=CARTESIAN_POINT('Origin',(1.,97.5857864376269,23.415));
#1788=CARTESIAN_POINT('',(0.292893218813453,98.2928932188135,23.415));
#1789=CARTESIAN_POINT('Origin',(7.20710678118654,103.792893218813,1.));
#1790=CARTESIAN_POINT('',(7.20710678118654,103.792893218813,0.));
#1791=CARTESIAN_POINT('',(6.49999999999999,104.5,1.));
#1792=CARTESIAN_POINT('Origin',(20.,118.,31.22));
#1793=CARTESIAN_POINT('Origin',(25.,118.,15.61));
#1794=CARTESIAN_POINT('Origin',(25.,59.,31.22));
#1795=CARTESIAN_POINT('',(47.,115.,31.22));
#1796=CARTESIAN_POINT('',(47.,3.,31.22));
#1797=CARTESIAN_POINT('',(47.,59.,31.22));
#1798=CARTESIAN_POINT('',(3.,3.,31.22));
#1799=CARTESIAN_POINT('',(25.,3.,31.22));
#1800=CARTESIAN_POINT('',(3.,96.7573593128807,31.22));
#1801=CARTESIAN_POINT('',(3.,59.,31.22));
#1802=CARTESIAN_POINT('',(21.2426406871193,115.,31.22));
#1803=CARTESIAN_POINT('',(8.62132034355963,102.37867965644,31.22));
#1804=CARTESIAN_POINT('',(25.,115.,31.22));
#1805=CARTESIAN_POINT('Origin',(25.,59.,0.));
#1806=CARTESIAN_POINT('Origin',(25.,0.,15.61));
#1807=CARTESIAN_POINT('Origin',(50.,59.,15.61));
#1808=CARTESIAN_POINT('Origin',(2.5,5.,26.22));
#1809=CARTESIAN_POINT('Origin',(2.5,93.,5.));
#1810=CARTESIAN_POINT('Origin',(0.,26.,15.));
#1811=CARTESIAN_POINT('',(3.,26.,15.));
#1812=CARTESIAN_POINT('',(0.,26.,15.));
#1813=CARTESIAN_POINT('',(3.,42.5,15.));
#1814=CARTESIAN_POINT('Origin',(0.,26.,3.));
#1815=CARTESIAN_POINT('',(3.,26.,9.305));
#1816=CARTESIAN_POINT('Origin',(6.,6.,3.));
#1817=CARTESIAN_POINT('',(6.8115,6.,25.97));
#1818=CARTESIAN_POINT('Origin',(6.,6.,25.97));
#1819=CARTESIAN_POINT('',(6.8115,6.,3.));
#1820=CARTESIAN_POINT('',(6.8115,6.,3.));
#1821=CARTESIAN_POINT('Origin',(6.,6.,3.));
#1822=CARTESIAN_POINT('Origin',(8.,3.,3.));
#1823=CARTESIAN_POINT('',(8.,3.,25.97));
#1824=CARTESIAN_POINT('',(8.,3.,25.97));
#1825=CARTESIAN_POINT('',(8.,3.,9.305));
#1826=CARTESIAN_POINT('Origin',(5.5,5.5,25.97));
#1827=CARTESIAN_POINT('',(3.,3.,25.97));
#1828=CARTESIAN_POINT('',(3.,32.25,25.97));
#1829=CARTESIAN_POINT('',(15.25,3.,25.97));
#1830=CARTESIAN_POINT('Origin',(6.00000000000005,94.,3.));
#1831=CARTESIAN_POINT('',(6.81150000000005,94.,25.97));
#1832=CARTESIAN_POINT('Origin',(6.00000000000005,94.,25.97));
#1833=CARTESIAN_POINT('',(6.81150000000005,94.,3.));
#1834=CARTESIAN_POINT('',(6.81150000000005,94.,3.));
#1835=CARTESIAN_POINT('Origin',(6.00000000000005,94.,3.));
#1836=CARTESIAN_POINT('Origin',(8.00000000000005,92.,3.));
#1837=CARTESIAN_POINT('',(8.00000000000004,101.757359312881,25.97));
#1838=CARTESIAN_POINT('',(8.00000000000004,101.757359312881,17.11));
#1839=CARTESIAN_POINT('',(8.00000000000005,92.,25.97));
#1840=CARTESIAN_POINT('',(8.00000000000004,101.757359312881,25.97));
#1841=CARTESIAN_POINT('',(8.00000000000005,92.,3.));
#1842=CARTESIAN_POINT('Origin',(3.,92.,3.));
#1843=CARTESIAN_POINT('',(3.,92.,25.97));
#1844=CARTESIAN_POINT('',(8.00000000000005,92.,25.97));
#1845=CARTESIAN_POINT('',(3.,92.,9.305));
#1846=CARTESIAN_POINT('Origin',(5.50000000000002,96.8786796564404,25.97));
#1847=CARTESIAN_POINT('',(3.,96.7573593128807,25.97));
#1848=CARTESIAN_POINT('',(3.,77.9393398282202,25.97));
#1849=CARTESIAN_POINT('',(13.2159902576697,106.97334957055,25.97));
#1850=CARTESIAN_POINT('Origin',(22.1213203435596,115.87867965644,31.22));
#1851=CARTESIAN_POINT('',(21.2426406871193,115.,23.415));
#1852=CARTESIAN_POINT('',(3.,96.7573593128807,23.415));
#1853=CARTESIAN_POINT('Origin',(25.,59.,3.));
#1854=CARTESIAN_POINT('Origin',(44.,5.99999999999878,3.));
#1855=CARTESIAN_POINT('',(44.8115,5.99999999999878,25.97));
#1856=CARTESIAN_POINT('Origin',(44.,5.99999999999878,25.97));
#1857=CARTESIAN_POINT('',(44.8115,5.99999999999878,3.));
#1858=CARTESIAN_POINT('',(44.8115,5.99999999999878,3.));
#1859=CARTESIAN_POINT('Origin',(44.,5.99999999999878,3.));
#1860=CARTESIAN_POINT('Origin',(42.,7.99999999999878,3.));
#1861=CARTESIAN_POINT('',(42.,3.,25.97));
#1862=CARTESIAN_POINT('',(42.,3.,9.305));
#1863=CARTESIAN_POINT('',(42.,7.99999999999878,25.97));
#1864=CARTESIAN_POINT('',(42.,3.,25.97));
#1865=CARTESIAN_POINT('',(42.,7.99999999999878,3.));
#1866=CARTESIAN_POINT('Origin',(47.,7.99999999999894,3.));
#1867=CARTESIAN_POINT('',(47.,7.99999999999894,25.97));
#1868=CARTESIAN_POINT('',(42.,7.99999999999878,25.97));
#1869=CARTESIAN_POINT('',(47.,7.99999999999894,9.305));
#1870=CARTESIAN_POINT('Origin',(44.5,5.49999999999947,25.97));
#1871=CARTESIAN_POINT('',(47.,3.,25.97));
#1872=CARTESIAN_POINT('',(34.75,3.,25.97));
#1873=CARTESIAN_POINT('',(47.,32.2499999999997,25.97));
#1874=CARTESIAN_POINT('Origin',(25.,3.,15.61));
#1875=CARTESIAN_POINT('',(3.,3.,15.61));
#1876=CARTESIAN_POINT('',(47.,3.,15.61));
#1877=CARTESIAN_POINT('Origin',(25.,59.,3.));
#1878=CARTESIAN_POINT('Origin',(44.0000000000001,113.999999999999,3.));
#1879=CARTESIAN_POINT('',(44.8115000000001,113.999999999999,25.97));
#1880=CARTESIAN_POINT('Origin',(44.0000000000001,113.999999999999,25.97));
#1881=CARTESIAN_POINT('',(44.8115000000001,113.999999999999,3.));
#1882=CARTESIAN_POINT('',(44.8115000000001,113.999999999999,3.));
#1883=CARTESIAN_POINT('Origin',(44.0000000000001,113.999999999999,3.));
#1884=CARTESIAN_POINT('Origin',(42.0000000000001,111.999999999999,3.));
#1885=CARTESIAN_POINT('',(47.,111.999999999999,25.97));
#1886=CARTESIAN_POINT('',(47.,111.999999999999,9.305));
#1887=CARTESIAN_POINT('',(42.0000000000001,111.999999999999,25.97));
#1888=CARTESIAN_POINT('',(42.0000000000001,111.999999999999,25.97));
#1889=CARTESIAN_POINT('',(42.0000000000001,111.999999999999,3.));
#1890=CARTESIAN_POINT('Origin',(42.0000000000001,115.,3.));
#1891=CARTESIAN_POINT('',(42.0000000000001,115.,25.97));
#1892=CARTESIAN_POINT('',(42.0000000000001,115.,25.97));
#1893=CARTESIAN_POINT('',(42.0000000000001,115.,9.305));
#1894=CARTESIAN_POINT('Origin',(44.5,113.499999999999,25.97));
#1895=CARTESIAN_POINT('',(47.,115.,25.97));
#1896=CARTESIAN_POINT('',(47.,86.2499999999997,25.97));
#1897=CARTESIAN_POINT('',(34.75,115.,25.97));
#1898=CARTESIAN_POINT('Origin',(47.,59.,15.61));
#1899=CARTESIAN_POINT('',(47.,115.,15.61));
#1900=CARTESIAN_POINT('Origin',(25.,59.,3.));
#1901=CARTESIAN_POINT('Origin',(3.,59.,15.61));
#1902=CARTESIAN_POINT('Origin',(25.,59.,3.));
#1903=CARTESIAN_POINT('Origin',(25.,115.,15.61));
#1904=UNCERTAINTY_MEASURE_WITH_UNIT(LENGTH_MEASURE(0.01),#1908,
'DISTANCE_ACCURACY_VALUE',
'Maximum model space distance between geometric entities at asserted c
onnectivities');
#1905=UNCERTAINTY_MEASURE_WITH_UNIT(LENGTH_MEASURE(0.01),#1908,
'DISTANCE_ACCURACY_VALUE',
'Maximum model space distance between geometric entities at asserted c
onnectivities');
#1906=(
GEOMETRIC_REPRESENTATION_CONTEXT(3)
GLOBAL_UNCERTAINTY_ASSIGNED_CONTEXT((#1904))
GLOBAL_UNIT_ASSIGNED_CONTEXT((#1908,#1910,#1911))
REPRESENTATION_CONTEXT('','3D')
);
#1907=(
GEOMETRIC_REPRESENTATION_CONTEXT(3)
GLOBAL_UNCERTAINTY_ASSIGNED_CONTEXT((#1905))
GLOBAL_UNIT_ASSIGNED_CONTEXT((#1908,#1910,#1911))
REPRESENTATION_CONTEXT('','3D')
);
#1908=(
LENGTH_UNIT()
NAMED_UNIT(*)
SI_UNIT(.MILLI.,.METRE.)
);
#1909=(
LENGTH_UNIT()
NAMED_UNIT(*)
SI_UNIT($,.METRE.)
);
#1910=(
NAMED_UNIT(*)
PLANE_ANGLE_UNIT()
SI_UNIT($,.RADIAN.)
);
#1911=(
NAMED_UNIT(*)
SI_UNIT($,.STERADIAN.)
SOLID_ANGLE_UNIT()
);
#1912=SHAPE_DEFINITION_REPRESENTATION(#1913,#1914);
#1913=PRODUCT_DEFINITION_SHAPE('',$,#1916);
#1914=SHAPE_REPRESENTATION('',(#1122),#1906);
#1915=PRODUCT_DEFINITION_CONTEXT('part definition',#1920,'design');
#1916=PRODUCT_DEFINITION('case bottom','case bottom v29',#1917,#1915);
#1917=PRODUCT_DEFINITION_FORMATION('',$,#1922);
#1918=PRODUCT_RELATED_PRODUCT_CATEGORY('case bottom v29',
'case bottom v29',(#1922));
#1919=APPLICATION_PROTOCOL_DEFINITION('international standard',
'automotive_design',2009,#1920);
#1920=APPLICATION_CONTEXT(
'Core Data for Automotive Mechanical Design Process');
#1921=PRODUCT_CONTEXT('part definition',#1920,'mechanical');
#1922=PRODUCT('case bottom','case bottom v29',$,(#1921));
#1923=PRESENTATION_STYLE_ASSIGNMENT((#1925));
#1924=PRESENTATION_STYLE_ASSIGNMENT((#1926));
#1925=SURFACE_STYLE_USAGE(.BOTH.,#1927);
#1926=SURFACE_STYLE_USAGE(.BOTH.,#1928);
#1927=SURFACE_SIDE_STYLE('',(#1929));
#1928=SURFACE_SIDE_STYLE('',(#1930));
#1929=SURFACE_STYLE_FILL_AREA(#1931);
#1930=SURFACE_STYLE_FILL_AREA(#1932);
#1931=FILL_AREA_STYLE('Steel - Satin',(#1933));
#1932=FILL_AREA_STYLE('Plastic - Matte (White)',(#1934));
#1933=FILL_AREA_STYLE_COLOUR('Steel - Satin',#1935);
#1934=FILL_AREA_STYLE_COLOUR('Plastic - Matte (White)',#1936);
#1935=COLOUR_RGB('Steel - Satin',0.627450980392157,0.627450980392157,0.627450980392157);
#1936=COLOUR_RGB('Plastic - Matte (White)',0.964705882352941,0.964705882352941,
0.952941176470588);
ENDSEC;
END-ISO-10303-21;
