ISO-10303-21;
HEADER;
/* Generated by software containing ST-Developer
 * from STEP Tools, Inc. (www.steptools.com) 
 */

FILE_DESCRIPTION(
/* description */ (''),
/* implementation_level */ '2;1');

FILE_NAME(
/* name */ 'case left v15.step',
/* time_stamp */ '2026-06-18T20:19:18-04:00',
/* author */ (''),
/* organization */ (''),
/* preprocessor_version */ 'ST-DEVELOPER v20.1',
/* originating_system */ 'Autodesk Translation Framework v15.8.0.0',
/* authorisation */ '');

FILE_SCHEMA (('AUTOMOTIVE_DESIGN { 1 0 10303 214 3 1 1 }'));
ENDSEC;

DATA;
#10=MECHANICAL_DESIGN_GEOMETRIC_PRESENTATION_REPRESENTATION('',(#13),#1081);
#11=SHAPE_REPRESENTATION_RELATIONSHIP('SRR','None',#1088,#12);
#12=ADVANCED_BREP_SHAPE_REPRESENTATION('',(#14),#1080);
#13=STYLED_ITEM('',(#1098),#14);
#14=MANIFOLD_SOLID_BREP('Body1',#637);
#15=FACE_BOUND('',#240,.T.);
#16=FACE_BOUND('',#241,.T.);
#17=FACE_BOUND('',#244,.T.);
#18=FACE_BOUND('',#247,.T.);
#19=FACE_BOUND('',#251,.T.);
#20=FACE_BOUND('',#252,.T.);
#21=PLANE('',#681);
#22=PLANE('',#682);
#23=PLANE('',#683);
#24=PLANE('',#684);
#25=PLANE('',#685);
#26=PLANE('',#690);
#27=PLANE('',#694);
#28=PLANE('',#700);
#29=PLANE('',#701);
#30=PLANE('',#702);
#31=PLANE('',#703);
#32=PLANE('',#704);
#33=PLANE('',#705);
#34=PLANE('',#706);
#35=PLANE('',#707);
#36=PLANE('',#708);
#37=PLANE('',#709);
#38=PLANE('',#710);
#39=PLANE('',#711);
#40=PLANE('',#712);
#41=ELLIPSE('',#660,2.12132034355965,1.5);
#42=ELLIPSE('',#671,2.12132034355963,1.5);
#43=ELLIPSE('',#673,2.12132034355964,1.5);
#44=ELLIPSE('',#679,2.12132034355964,1.5);
#45=LINE('',#918,#107);
#46=LINE('',#920,#108);
#47=LINE('',#937,#109);
#48=LINE('',#938,#110);
#49=LINE('',#941,#111);
#50=LINE('',#943,#112);
#51=LINE('',#947,#113);
#52=LINE('',#949,#114);
#53=LINE('',#952,#115);
#54=LINE('',#953,#116);
#55=LINE('',#955,#117);
#56=LINE('',#956,#118);
#57=LINE('',#958,#119);
#58=LINE('',#959,#120);
#59=LINE('',#961,#121);
#60=LINE('',#962,#122);
#61=LINE('',#965,#123);
#62=LINE('',#967,#124);
#63=LINE('',#970,#125);
#64=LINE('',#971,#126);
#65=LINE('',#974,#127);
#66=LINE('',#976,#128);
#67=LINE('',#977,#129);
#68=LINE('',#980,#130);
#69=LINE('',#982,#131);
#70=LINE('',#984,#132);
#71=LINE('',#985,#133);
#72=LINE('',#995,#134);
#73=LINE('',#1002,#135);
#74=LINE('',#1009,#136);
#75=LINE('',#1013,#137);
#76=LINE('',#1018,#138);
#77=LINE('',#1020,#139);
#78=LINE('',#1022,#140);
#79=LINE('',#1023,#141);
#80=LINE('',#1026,#142);
#81=LINE('',#1028,#143);
#82=LINE('',#1029,#144);
#83=LINE('',#1032,#145);
#84=LINE('',#1034,#146);
#85=LINE('',#1035,#147);
#86=LINE('',#1038,#148);
#87=LINE('',#1040,#149);
#88=LINE('',#1041,#150);
#89=LINE('',#1044,#151);
#90=LINE('',#1046,#152);
#91=LINE('',#1048,#153);
#92=LINE('',#1049,#154);
#93=LINE('',#1052,#155);
#94=LINE('',#1054,#156);
#95=LINE('',#1056,#157);
#96=LINE('',#1057,#158);
#97=LINE('',#1060,#159);
#98=LINE('',#1061,#160);
#99=LINE('',#1062,#161);
#100=LINE('',#1064,#162);
#101=LINE('',#1066,#163);
#102=LINE('',#1069,#164);
#103=LINE('',#1070,#165);
#104=LINE('',#1073,#166);
#105=LINE('',#1074,#167);
#106=LINE('',#1076,#168);
#107=VECTOR('',#733,10.);
#108=VECTOR('',#734,10.);
#109=VECTOR('',#755,10.);
#110=VECTOR('',#756,10.);
#111=VECTOR('',#759,10.);
#112=VECTOR('',#760,10.);
#113=VECTOR('',#765,10.);
#114=VECTOR('',#766,10.);
#115=VECTOR('',#771,10.);
#116=VECTOR('',#772,10.);
#117=VECTOR('',#775,10.);
#118=VECTOR('',#776,10.);
#119=VECTOR('',#779,10.);
#120=VECTOR('',#780,10.);
#121=VECTOR('',#783,10.);
#122=VECTOR('',#784,10.);
#123=VECTOR('',#787,10.);
#124=VECTOR('',#788,10.);
#125=VECTOR('',#793,10.);
#126=VECTOR('',#794,10.);
#127=VECTOR('',#797,10.);
#128=VECTOR('',#798,10.);
#129=VECTOR('',#799,10.);
#130=VECTOR('',#802,10.);
#131=VECTOR('',#803,10.);
#132=VECTOR('',#804,10.);
#133=VECTOR('',#805,10.);
#134=VECTOR('',#818,2.);
#135=VECTOR('',#827,1.99999999999999);
#136=VECTOR('',#836,1.3);
#137=VECTOR('',#841,1.30000000000001);
#138=VECTOR('',#846,10.);
#139=VECTOR('',#847,10.);
#140=VECTOR('',#848,10.);
#141=VECTOR('',#849,10.);
#142=VECTOR('',#852,10.);
#143=VECTOR('',#853,10.);
#144=VECTOR('',#854,10.);
#145=VECTOR('',#857,10.);
#146=VECTOR('',#858,10.);
#147=VECTOR('',#859,10.);
#148=VECTOR('',#862,10.);
#149=VECTOR('',#863,10.);
#150=VECTOR('',#864,10.);
#151=VECTOR('',#867,10.);
#152=VECTOR('',#868,10.);
#153=VECTOR('',#869,10.);
#154=VECTOR('',#870,10.);
#155=VECTOR('',#873,10.);
#156=VECTOR('',#874,10.);
#157=VECTOR('',#875,10.);
#158=VECTOR('',#876,10.);
#159=VECTOR('',#879,10.);
#160=VECTOR('',#880,10.);
#161=VECTOR('',#881,10.);
#162=VECTOR('',#884,10.);
#163=VECTOR('',#887,10.);
#164=VECTOR('',#890,10.);
#165=VECTOR('',#891,10.);
#166=VECTOR('',#894,10.);
#167=VECTOR('',#895,10.);
#168=VECTOR('',#898,10.);
#169=CYLINDRICAL_SURFACE('',#659,1.5);
#170=CYLINDRICAL_SURFACE('',#669,1.5);
#171=CYLINDRICAL_SURFACE('',#670,1.5);
#172=CYLINDRICAL_SURFACE('',#672,1.5);
#173=CYLINDRICAL_SURFACE('',#674,1.5);
#174=CYLINDRICAL_SURFACE('',#675,1.5);
#175=CYLINDRICAL_SURFACE('',#676,1.5);
#176=CYLINDRICAL_SURFACE('',#677,1.5);
#177=CYLINDRICAL_SURFACE('',#678,1.5);
#178=CYLINDRICAL_SURFACE('',#680,1.5);
#179=CYLINDRICAL_SURFACE('',#688,2.);
#180=CYLINDRICAL_SURFACE('',#692,1.99999999999999);
#181=CYLINDRICAL_SURFACE('',#696,1.3);
#182=CYLINDRICAL_SURFACE('',#698,1.30000000000001);
#183=FACE_OUTER_BOUND('',#221,.T.);
#184=FACE_OUTER_BOUND('',#222,.T.);
#185=FACE_OUTER_BOUND('',#223,.T.);
#186=FACE_OUTER_BOUND('',#224,.T.);
#187=FACE_OUTER_BOUND('',#225,.T.);
#188=FACE_OUTER_BOUND('',#226,.T.);
#189=FACE_OUTER_BOUND('',#227,.T.);
#190=FACE_OUTER_BOUND('',#228,.T.);
#191=FACE_OUTER_BOUND('',#229,.T.);
#192=FACE_OUTER_BOUND('',#230,.T.);
#193=FACE_OUTER_BOUND('',#231,.T.);
#194=FACE_OUTER_BOUND('',#232,.T.);
#195=FACE_OUTER_BOUND('',#233,.T.);
#196=FACE_OUTER_BOUND('',#234,.T.);
#197=FACE_OUTER_BOUND('',#235,.T.);
#198=FACE_OUTER_BOUND('',#236,.T.);
#199=FACE_OUTER_BOUND('',#237,.T.);
#200=FACE_OUTER_BOUND('',#238,.T.);
#201=FACE_OUTER_BOUND('',#239,.T.);
#202=FACE_OUTER_BOUND('',#242,.T.);
#203=FACE_OUTER_BOUND('',#243,.T.);
#204=FACE_OUTER_BOUND('',#245,.T.);
#205=FACE_OUTER_BOUND('',#246,.T.);
#206=FACE_OUTER_BOUND('',#248,.T.);
#207=FACE_OUTER_BOUND('',#249,.T.);
#208=FACE_OUTER_BOUND('',#250,.T.);
#209=FACE_OUTER_BOUND('',#253,.T.);
#210=FACE_OUTER_BOUND('',#254,.T.);
#211=FACE_OUTER_BOUND('',#255,.T.);
#212=FACE_OUTER_BOUND('',#256,.T.);
#213=FACE_OUTER_BOUND('',#257,.T.);
#214=FACE_OUTER_BOUND('',#258,.T.);
#215=FACE_OUTER_BOUND('',#259,.T.);
#216=FACE_OUTER_BOUND('',#260,.T.);
#217=FACE_OUTER_BOUND('',#261,.T.);
#218=FACE_OUTER_BOUND('',#262,.T.);
#219=FACE_OUTER_BOUND('',#263,.T.);
#220=FACE_OUTER_BOUND('',#264,.T.);
#221=EDGE_LOOP('',(#423,#424,#425));
#222=EDGE_LOOP('',(#426,#427,#428));
#223=EDGE_LOOP('',(#429,#430,#431,#432));
#224=EDGE_LOOP('',(#433,#434,#435));
#225=EDGE_LOOP('',(#436,#437,#438));
#226=EDGE_LOOP('',(#439,#440,#441,#442));
#227=EDGE_LOOP('',(#443,#444,#445,#446));
#228=EDGE_LOOP('',(#447,#448,#449,#450));
#229=EDGE_LOOP('',(#451,#452,#453,#454));
#230=EDGE_LOOP('',(#455,#456,#457,#458));
#231=EDGE_LOOP('',(#459,#460,#461,#462));
#232=EDGE_LOOP('',(#463,#464,#465,#466));
#233=EDGE_LOOP('',(#467,#468,#469,#470));
#234=EDGE_LOOP('',(#471,#472,#473,#474));
#235=EDGE_LOOP('',(#475,#476,#477,#478));
#236=EDGE_LOOP('',(#479,#480,#481,#482,#483,#484,#485,#486));
#237=EDGE_LOOP('',(#487,#488,#489,#490));
#238=EDGE_LOOP('',(#491,#492,#493,#494));
#239=EDGE_LOOP('',(#495,#496,#497,#498));
#240=EDGE_LOOP('',(#499));
#241=EDGE_LOOP('',(#500));
#242=EDGE_LOOP('',(#501,#502,#503,#504));
#243=EDGE_LOOP('',(#505));
#244=EDGE_LOOP('',(#506));
#245=EDGE_LOOP('',(#507,#508,#509,#510));
#246=EDGE_LOOP('',(#511));
#247=EDGE_LOOP('',(#512));
#248=EDGE_LOOP('',(#513,#514,#515,#516));
#249=EDGE_LOOP('',(#517,#518,#519,#520));
#250=EDGE_LOOP('',(#521,#522,#523,#524));
#251=EDGE_LOOP('',(#525));
#252=EDGE_LOOP('',(#526));
#253=EDGE_LOOP('',(#527,#528,#529,#530));
#254=EDGE_LOOP('',(#531,#532,#533,#534));
#255=EDGE_LOOP('',(#535,#536,#537,#538));
#256=EDGE_LOOP('',(#539,#540,#541,#542,#543,#544,#545,#546));
#257=EDGE_LOOP('',(#547,#548,#549,#550,#551,#552,#553,#554));
#258=EDGE_LOOP('',(#555,#556,#557,#558,#559,#560,#561,#562));
#259=EDGE_LOOP('',(#563,#564,#565,#566));
#260=EDGE_LOOP('',(#567,#568,#569,#570));
#261=EDGE_LOOP('',(#571,#572,#573,#574));
#262=EDGE_LOOP('',(#575,#576,#577,#578));
#263=EDGE_LOOP('',(#579,#580,#581,#582,#583,#584,#585,#586));
#264=EDGE_LOOP('',(#587,#588,#589,#590,#591,#592,#593,#594));
#265=CIRCLE('',#652,1.5);
#266=CIRCLE('',#653,1.5);
#267=CIRCLE('',#654,1.5);
#268=CIRCLE('',#656,1.5);
#269=CIRCLE('',#657,1.5);
#270=CIRCLE('',#658,1.5);
#271=CIRCLE('',#662,1.5);
#272=CIRCLE('',#663,1.5);
#273=CIRCLE('',#664,1.5);
#274=CIRCLE('',#666,1.49999999999998);
#275=CIRCLE('',#667,1.5);
#276=CIRCLE('',#668,1.5);
#277=CIRCLE('',#686,1.99999999999999);
#278=CIRCLE('',#687,2.);
#279=CIRCLE('',#689,2.);
#280=CIRCLE('',#691,1.3);
#281=CIRCLE('',#693,1.99999999999999);
#282=CIRCLE('',#695,1.30000000000001);
#283=CIRCLE('',#697,1.3);
#284=CIRCLE('',#699,1.30000000000001);
#285=VERTEX_POINT('',#903);
#286=VERTEX_POINT('',#904);
#287=VERTEX_POINT('',#906);
#288=VERTEX_POINT('',#910);
#289=VERTEX_POINT('',#911);
#290=VERTEX_POINT('',#913);
#291=VERTEX_POINT('',#917);
#292=VERTEX_POINT('',#919);
#293=VERTEX_POINT('',#923);
#294=VERTEX_POINT('',#924);
#295=VERTEX_POINT('',#926);
#296=VERTEX_POINT('',#930);
#297=VERTEX_POINT('',#931);
#298=VERTEX_POINT('',#933);
#299=VERTEX_POINT('',#940);
#300=VERTEX_POINT('',#942);
#301=VERTEX_POINT('',#946);
#302=VERTEX_POINT('',#948);
#303=VERTEX_POINT('',#964);
#304=VERTEX_POINT('',#966);
#305=VERTEX_POINT('',#973);
#306=VERTEX_POINT('',#975);
#307=VERTEX_POINT('',#979);
#308=VERTEX_POINT('',#981);
#309=VERTEX_POINT('',#983);
#310=VERTEX_POINT('',#989);
#311=VERTEX_POINT('',#991);
#312=VERTEX_POINT('',#994);
#313=VERTEX_POINT('',#998);
#314=VERTEX_POINT('',#1001);
#315=VERTEX_POINT('',#1005);
#316=VERTEX_POINT('',#1008);
#317=VERTEX_POINT('',#1012);
#318=VERTEX_POINT('',#1016);
#319=VERTEX_POINT('',#1017);
#320=VERTEX_POINT('',#1019);
#321=VERTEX_POINT('',#1021);
#322=VERTEX_POINT('',#1025);
#323=VERTEX_POINT('',#1027);
#324=VERTEX_POINT('',#1031);
#325=VERTEX_POINT('',#1033);
#326=VERTEX_POINT('',#1037);
#327=VERTEX_POINT('',#1039);
#328=VERTEX_POINT('',#1043);
#329=VERTEX_POINT('',#1045);
#330=VERTEX_POINT('',#1047);
#331=VERTEX_POINT('',#1051);
#332=VERTEX_POINT('',#1053);
#333=VERTEX_POINT('',#1055);
#334=VERTEX_POINT('',#1059);
#335=VERTEX_POINT('',#1068);
#336=VERTEX_POINT('',#1072);
#337=EDGE_CURVE('',#285,#286,#265,.F.);
#338=EDGE_CURVE('',#287,#285,#266,.F.);
#339=EDGE_CURVE('',#286,#287,#267,.F.);
#340=EDGE_CURVE('',#288,#289,#268,.F.);
#341=EDGE_CURVE('',#290,#288,#269,.F.);
#342=EDGE_CURVE('',#289,#290,#270,.F.);
#343=EDGE_CURVE('',#291,#290,#45,.T.);
#344=EDGE_CURVE('',#288,#292,#46,.T.);
#345=EDGE_CURVE('',#292,#291,#41,.T.);
#346=EDGE_CURVE('',#293,#294,#271,.F.);
#347=EDGE_CURVE('',#295,#293,#272,.F.);
#348=EDGE_CURVE('',#294,#295,#273,.F.);
#349=EDGE_CURVE('',#296,#297,#274,.F.);
#350=EDGE_CURVE('',#298,#296,#275,.F.);
#351=EDGE_CURVE('',#297,#298,#276,.F.);
#352=EDGE_CURVE('',#290,#298,#47,.T.);
#353=EDGE_CURVE('',#296,#289,#48,.T.);
#354=EDGE_CURVE('',#299,#297,#49,.T.);
#355=EDGE_CURVE('',#298,#300,#50,.T.);
#356=EDGE_CURVE('',#300,#299,#42,.T.);
#357=EDGE_CURVE('',#301,#299,#51,.T.);
#358=EDGE_CURVE('',#300,#302,#52,.T.);
#359=EDGE_CURVE('',#302,#301,#43,.T.);
#360=EDGE_CURVE('',#302,#294,#53,.T.);
#361=EDGE_CURVE('',#295,#301,#54,.T.);
#362=EDGE_CURVE('',#293,#296,#55,.T.);
#363=EDGE_CURVE('',#297,#295,#56,.T.);
#364=EDGE_CURVE('',#294,#286,#57,.T.);
#365=EDGE_CURVE('',#287,#293,#58,.T.);
#366=EDGE_CURVE('',#285,#288,#59,.T.);
#367=EDGE_CURVE('',#289,#287,#60,.T.);
#368=EDGE_CURVE('',#303,#285,#61,.T.);
#369=EDGE_CURVE('',#286,#304,#62,.T.);
#370=EDGE_CURVE('',#303,#304,#44,.T.);
#371=EDGE_CURVE('',#304,#291,#63,.T.);
#372=EDGE_CURVE('',#292,#303,#64,.T.);
#373=EDGE_CURVE('',#300,#305,#65,.T.);
#374=EDGE_CURVE('',#305,#306,#66,.T.);
#375=EDGE_CURVE('',#302,#306,#67,.T.);
#376=EDGE_CURVE('',#291,#307,#68,.T.);
#377=EDGE_CURVE('',#308,#307,#69,.T.);
#378=EDGE_CURVE('',#309,#308,#70,.T.);
#379=EDGE_CURVE('',#305,#309,#71,.T.);
#380=EDGE_CURVE('',#310,#310,#277,.T.);
#381=EDGE_CURVE('',#311,#311,#278,.T.);
#382=EDGE_CURVE('',#311,#312,#72,.T.);
#383=EDGE_CURVE('',#312,#312,#279,.T.);
#384=EDGE_CURVE('',#313,#313,#280,.T.);
#385=EDGE_CURVE('',#310,#314,#73,.T.);
#386=EDGE_CURVE('',#314,#314,#281,.T.);
#387=EDGE_CURVE('',#315,#315,#282,.T.);
#388=EDGE_CURVE('',#313,#316,#74,.T.);
#389=EDGE_CURVE('',#316,#316,#283,.T.);
#390=EDGE_CURVE('',#315,#317,#75,.T.);
#391=EDGE_CURVE('',#317,#317,#284,.T.);
#392=EDGE_CURVE('',#318,#319,#76,.T.);
#393=EDGE_CURVE('',#319,#320,#77,.F.);
#394=EDGE_CURVE('',#320,#321,#78,.F.);
#395=EDGE_CURVE('',#318,#321,#79,.T.);
#396=EDGE_CURVE('',#319,#322,#80,.T.);
#397=EDGE_CURVE('',#322,#323,#81,.F.);
#398=EDGE_CURVE('',#323,#320,#82,.F.);
#399=EDGE_CURVE('',#322,#324,#83,.T.);
#400=EDGE_CURVE('',#325,#324,#84,.T.);
#401=EDGE_CURVE('',#325,#323,#85,.F.);
#402=EDGE_CURVE('',#318,#326,#86,.F.);
#403=EDGE_CURVE('',#321,#327,#87,.F.);
#404=EDGE_CURVE('',#326,#327,#88,.T.);
#405=EDGE_CURVE('',#328,#325,#89,.T.);
#406=EDGE_CURVE('',#329,#328,#90,.T.);
#407=EDGE_CURVE('',#330,#329,#91,.T.);
#408=EDGE_CURVE('',#327,#330,#92,.T.);
#409=EDGE_CURVE('',#331,#326,#93,.T.);
#410=EDGE_CURVE('',#332,#331,#94,.T.);
#411=EDGE_CURVE('',#333,#332,#95,.T.);
#412=EDGE_CURVE('',#324,#333,#96,.T.);
#413=EDGE_CURVE('',#334,#304,#97,.T.);
#414=EDGE_CURVE('',#328,#334,#98,.T.);
#415=EDGE_CURVE('',#307,#333,#99,.T.);
#416=EDGE_CURVE('',#308,#332,#100,.T.);
#417=EDGE_CURVE('',#309,#331,#101,.T.);
#418=EDGE_CURVE('',#335,#334,#102,.T.);
#419=EDGE_CURVE('',#329,#335,#103,.T.);
#420=EDGE_CURVE('',#336,#335,#104,.T.);
#421=EDGE_CURVE('',#330,#336,#105,.T.);
#422=EDGE_CURVE('',#306,#336,#106,.T.);
#423=ORIENTED_EDGE('',*,*,#337,.F.);
#424=ORIENTED_EDGE('',*,*,#338,.F.);
#425=ORIENTED_EDGE('',*,*,#339,.F.);
#426=ORIENTED_EDGE('',*,*,#340,.F.);
#427=ORIENTED_EDGE('',*,*,#341,.F.);
#428=ORIENTED_EDGE('',*,*,#342,.F.);
#429=ORIENTED_EDGE('',*,*,#343,.T.);
#430=ORIENTED_EDGE('',*,*,#341,.T.);
#431=ORIENTED_EDGE('',*,*,#344,.T.);
#432=ORIENTED_EDGE('',*,*,#345,.T.);
#433=ORIENTED_EDGE('',*,*,#346,.F.);
#434=ORIENTED_EDGE('',*,*,#347,.F.);
#435=ORIENTED_EDGE('',*,*,#348,.F.);
#436=ORIENTED_EDGE('',*,*,#349,.F.);
#437=ORIENTED_EDGE('',*,*,#350,.F.);
#438=ORIENTED_EDGE('',*,*,#351,.F.);
#439=ORIENTED_EDGE('',*,*,#342,.T.);
#440=ORIENTED_EDGE('',*,*,#352,.T.);
#441=ORIENTED_EDGE('',*,*,#350,.T.);
#442=ORIENTED_EDGE('',*,*,#353,.T.);
#443=ORIENTED_EDGE('',*,*,#354,.T.);
#444=ORIENTED_EDGE('',*,*,#351,.T.);
#445=ORIENTED_EDGE('',*,*,#355,.T.);
#446=ORIENTED_EDGE('',*,*,#356,.T.);
#447=ORIENTED_EDGE('',*,*,#357,.T.);
#448=ORIENTED_EDGE('',*,*,#356,.F.);
#449=ORIENTED_EDGE('',*,*,#358,.T.);
#450=ORIENTED_EDGE('',*,*,#359,.T.);
#451=ORIENTED_EDGE('',*,*,#360,.T.);
#452=ORIENTED_EDGE('',*,*,#348,.T.);
#453=ORIENTED_EDGE('',*,*,#361,.T.);
#454=ORIENTED_EDGE('',*,*,#359,.F.);
#455=ORIENTED_EDGE('',*,*,#347,.T.);
#456=ORIENTED_EDGE('',*,*,#362,.T.);
#457=ORIENTED_EDGE('',*,*,#349,.T.);
#458=ORIENTED_EDGE('',*,*,#363,.T.);
#459=ORIENTED_EDGE('',*,*,#346,.T.);
#460=ORIENTED_EDGE('',*,*,#364,.T.);
#461=ORIENTED_EDGE('',*,*,#339,.T.);
#462=ORIENTED_EDGE('',*,*,#365,.T.);
#463=ORIENTED_EDGE('',*,*,#338,.T.);
#464=ORIENTED_EDGE('',*,*,#366,.T.);
#465=ORIENTED_EDGE('',*,*,#340,.T.);
#466=ORIENTED_EDGE('',*,*,#367,.T.);
#467=ORIENTED_EDGE('',*,*,#368,.T.);
#468=ORIENTED_EDGE('',*,*,#337,.T.);
#469=ORIENTED_EDGE('',*,*,#369,.T.);
#470=ORIENTED_EDGE('',*,*,#370,.F.);
#471=ORIENTED_EDGE('',*,*,#371,.T.);
#472=ORIENTED_EDGE('',*,*,#345,.F.);
#473=ORIENTED_EDGE('',*,*,#372,.T.);
#474=ORIENTED_EDGE('',*,*,#370,.T.);
#475=ORIENTED_EDGE('',*,*,#358,.F.);
#476=ORIENTED_EDGE('',*,*,#373,.T.);
#477=ORIENTED_EDGE('',*,*,#374,.T.);
#478=ORIENTED_EDGE('',*,*,#375,.F.);
#479=ORIENTED_EDGE('',*,*,#355,.F.);
#480=ORIENTED_EDGE('',*,*,#352,.F.);
#481=ORIENTED_EDGE('',*,*,#343,.F.);
#482=ORIENTED_EDGE('',*,*,#376,.T.);
#483=ORIENTED_EDGE('',*,*,#377,.F.);
#484=ORIENTED_EDGE('',*,*,#378,.F.);
#485=ORIENTED_EDGE('',*,*,#379,.F.);
#486=ORIENTED_EDGE('',*,*,#373,.F.);
#487=ORIENTED_EDGE('',*,*,#344,.F.);
#488=ORIENTED_EDGE('',*,*,#366,.F.);
#489=ORIENTED_EDGE('',*,*,#368,.F.);
#490=ORIENTED_EDGE('',*,*,#372,.F.);
#491=ORIENTED_EDGE('',*,*,#353,.F.);
#492=ORIENTED_EDGE('',*,*,#362,.F.);
#493=ORIENTED_EDGE('',*,*,#365,.F.);
#494=ORIENTED_EDGE('',*,*,#367,.F.);
#495=ORIENTED_EDGE('',*,*,#354,.F.);
#496=ORIENTED_EDGE('',*,*,#357,.F.);
#497=ORIENTED_EDGE('',*,*,#361,.F.);
#498=ORIENTED_EDGE('',*,*,#363,.F.);
#499=ORIENTED_EDGE('',*,*,#380,.T.);
#500=ORIENTED_EDGE('',*,*,#381,.T.);
#501=ORIENTED_EDGE('',*,*,#381,.F.);
#502=ORIENTED_EDGE('',*,*,#382,.T.);
#503=ORIENTED_EDGE('',*,*,#383,.T.);
#504=ORIENTED_EDGE('',*,*,#382,.F.);
#505=ORIENTED_EDGE('',*,*,#383,.F.);
#506=ORIENTED_EDGE('',*,*,#384,.F.);
#507=ORIENTED_EDGE('',*,*,#380,.F.);
#508=ORIENTED_EDGE('',*,*,#385,.T.);
#509=ORIENTED_EDGE('',*,*,#386,.T.);
#510=ORIENTED_EDGE('',*,*,#385,.F.);
#511=ORIENTED_EDGE('',*,*,#386,.F.);
#512=ORIENTED_EDGE('',*,*,#387,.F.);
#513=ORIENTED_EDGE('',*,*,#384,.T.);
#514=ORIENTED_EDGE('',*,*,#388,.T.);
#515=ORIENTED_EDGE('',*,*,#389,.F.);
#516=ORIENTED_EDGE('',*,*,#388,.F.);
#517=ORIENTED_EDGE('',*,*,#387,.T.);
#518=ORIENTED_EDGE('',*,*,#390,.T.);
#519=ORIENTED_EDGE('',*,*,#391,.F.);
#520=ORIENTED_EDGE('',*,*,#390,.F.);
#521=ORIENTED_EDGE('',*,*,#392,.T.);
#522=ORIENTED_EDGE('',*,*,#393,.T.);
#523=ORIENTED_EDGE('',*,*,#394,.T.);
#524=ORIENTED_EDGE('',*,*,#395,.F.);
#525=ORIENTED_EDGE('',*,*,#389,.T.);
#526=ORIENTED_EDGE('',*,*,#391,.T.);
#527=ORIENTED_EDGE('',*,*,#396,.T.);
#528=ORIENTED_EDGE('',*,*,#397,.T.);
#529=ORIENTED_EDGE('',*,*,#398,.T.);
#530=ORIENTED_EDGE('',*,*,#393,.F.);
#531=ORIENTED_EDGE('',*,*,#399,.T.);
#532=ORIENTED_EDGE('',*,*,#400,.F.);
#533=ORIENTED_EDGE('',*,*,#401,.T.);
#534=ORIENTED_EDGE('',*,*,#397,.F.);
#535=ORIENTED_EDGE('',*,*,#402,.F.);
#536=ORIENTED_EDGE('',*,*,#395,.T.);
#537=ORIENTED_EDGE('',*,*,#403,.T.);
#538=ORIENTED_EDGE('',*,*,#404,.F.);
#539=ORIENTED_EDGE('',*,*,#403,.F.);
#540=ORIENTED_EDGE('',*,*,#394,.F.);
#541=ORIENTED_EDGE('',*,*,#398,.F.);
#542=ORIENTED_EDGE('',*,*,#401,.F.);
#543=ORIENTED_EDGE('',*,*,#405,.F.);
#544=ORIENTED_EDGE('',*,*,#406,.F.);
#545=ORIENTED_EDGE('',*,*,#407,.F.);
#546=ORIENTED_EDGE('',*,*,#408,.F.);
#547=ORIENTED_EDGE('',*,*,#402,.T.);
#548=ORIENTED_EDGE('',*,*,#409,.F.);
#549=ORIENTED_EDGE('',*,*,#410,.F.);
#550=ORIENTED_EDGE('',*,*,#411,.F.);
#551=ORIENTED_EDGE('',*,*,#412,.F.);
#552=ORIENTED_EDGE('',*,*,#399,.F.);
#553=ORIENTED_EDGE('',*,*,#396,.F.);
#554=ORIENTED_EDGE('',*,*,#392,.F.);
#555=ORIENTED_EDGE('',*,*,#371,.F.);
#556=ORIENTED_EDGE('',*,*,#413,.F.);
#557=ORIENTED_EDGE('',*,*,#414,.F.);
#558=ORIENTED_EDGE('',*,*,#405,.T.);
#559=ORIENTED_EDGE('',*,*,#400,.T.);
#560=ORIENTED_EDGE('',*,*,#412,.T.);
#561=ORIENTED_EDGE('',*,*,#415,.F.);
#562=ORIENTED_EDGE('',*,*,#376,.F.);
#563=ORIENTED_EDGE('',*,*,#411,.T.);
#564=ORIENTED_EDGE('',*,*,#416,.F.);
#565=ORIENTED_EDGE('',*,*,#377,.T.);
#566=ORIENTED_EDGE('',*,*,#415,.T.);
#567=ORIENTED_EDGE('',*,*,#410,.T.);
#568=ORIENTED_EDGE('',*,*,#417,.F.);
#569=ORIENTED_EDGE('',*,*,#378,.T.);
#570=ORIENTED_EDGE('',*,*,#416,.T.);
#571=ORIENTED_EDGE('',*,*,#406,.T.);
#572=ORIENTED_EDGE('',*,*,#414,.T.);
#573=ORIENTED_EDGE('',*,*,#418,.F.);
#574=ORIENTED_EDGE('',*,*,#419,.F.);
#575=ORIENTED_EDGE('',*,*,#407,.T.);
#576=ORIENTED_EDGE('',*,*,#419,.T.);
#577=ORIENTED_EDGE('',*,*,#420,.F.);
#578=ORIENTED_EDGE('',*,*,#421,.F.);
#579=ORIENTED_EDGE('',*,*,#408,.T.);
#580=ORIENTED_EDGE('',*,*,#421,.T.);
#581=ORIENTED_EDGE('',*,*,#422,.F.);
#582=ORIENTED_EDGE('',*,*,#374,.F.);
#583=ORIENTED_EDGE('',*,*,#379,.T.);
#584=ORIENTED_EDGE('',*,*,#417,.T.);
#585=ORIENTED_EDGE('',*,*,#409,.T.);
#586=ORIENTED_EDGE('',*,*,#404,.T.);
#587=ORIENTED_EDGE('',*,*,#360,.F.);
#588=ORIENTED_EDGE('',*,*,#375,.T.);
#589=ORIENTED_EDGE('',*,*,#422,.T.);
#590=ORIENTED_EDGE('',*,*,#420,.T.);
#591=ORIENTED_EDGE('',*,*,#418,.T.);
#592=ORIENTED_EDGE('',*,*,#413,.T.);
#593=ORIENTED_EDGE('',*,*,#369,.F.);
#594=ORIENTED_EDGE('',*,*,#364,.F.);
#595=SPHERICAL_SURFACE('',#651,1.5);
#596=SPHERICAL_SURFACE('',#655,1.5);
#597=SPHERICAL_SURFACE('',#661,1.5);
#598=SPHERICAL_SURFACE('',#665,1.5);
#599=ADVANCED_FACE('',(#183),#595,.T.);
#600=ADVANCED_FACE('',(#184),#596,.T.);
#601=ADVANCED_FACE('',(#185),#169,.T.);
#602=ADVANCED_FACE('',(#186),#597,.T.);
#603=ADVANCED_FACE('',(#187),#598,.T.);
#604=ADVANCED_FACE('',(#188),#170,.T.);
#605=ADVANCED_FACE('',(#189),#171,.T.);
#606=ADVANCED_FACE('',(#190),#172,.T.);
#607=ADVANCED_FACE('',(#191),#173,.T.);
#608=ADVANCED_FACE('',(#192),#174,.T.);
#609=ADVANCED_FACE('',(#193),#175,.T.);
#610=ADVANCED_FACE('',(#194),#176,.T.);
#611=ADVANCED_FACE('',(#195),#177,.T.);
#612=ADVANCED_FACE('',(#196),#178,.T.);
#613=ADVANCED_FACE('',(#197),#21,.T.);
#614=ADVANCED_FACE('',(#198),#22,.F.);
#615=ADVANCED_FACE('',(#199),#23,.T.);
#616=ADVANCED_FACE('',(#200),#24,.T.);
#617=ADVANCED_FACE('',(#201,#15,#16),#25,.T.);
#618=ADVANCED_FACE('',(#202),#179,.F.);
#619=ADVANCED_FACE('',(#203,#17),#26,.T.);
#620=ADVANCED_FACE('',(#204),#180,.F.);
#621=ADVANCED_FACE('',(#205,#18),#27,.T.);
#622=ADVANCED_FACE('',(#206),#181,.F.);
#623=ADVANCED_FACE('',(#207),#182,.F.);
#624=ADVANCED_FACE('',(#208,#19,#20),#28,.F.);
#625=ADVANCED_FACE('',(#209),#29,.F.);
#626=ADVANCED_FACE('',(#210),#30,.F.);
#627=ADVANCED_FACE('',(#211),#31,.F.);
#628=ADVANCED_FACE('',(#212),#32,.F.);
#629=ADVANCED_FACE('',(#213),#33,.T.);
#630=ADVANCED_FACE('',(#214),#34,.T.);
#631=ADVANCED_FACE('',(#215),#35,.T.);
#632=ADVANCED_FACE('',(#216),#36,.T.);
#633=ADVANCED_FACE('',(#217),#37,.T.);
#634=ADVANCED_FACE('',(#218),#38,.T.);
#635=ADVANCED_FACE('',(#219),#39,.T.);
#636=ADVANCED_FACE('',(#220),#40,.T.);
#637=CLOSED_SHELL('',(#599,#600,#601,#602,#603,#604,#605,#606,#607,#608,
#609,#610,#611,#612,#613,#614,#615,#616,#617,#618,#619,#620,#621,#622,#623,
#624,#625,#626,#627,#628,#629,#630,#631,#632,#633,#634,#635,#636));
#638=DERIVED_UNIT_ELEMENT(#640,1.);
#639=DERIVED_UNIT_ELEMENT(#1083,-3.);
#640=(
MASS_UNIT()
NAMED_UNIT(*)
SI_UNIT(.KILO.,.GRAM.)
);
#641=DERIVED_UNIT((#638,#639));
#642=MEASURE_REPRESENTATION_ITEM('density measure',
POSITIVE_RATIO_MEASURE(7850.),#641);
#643=PROPERTY_DEFINITION_REPRESENTATION(#648,#645);
#644=PROPERTY_DEFINITION_REPRESENTATION(#649,#646);
#645=REPRESENTATION('material name',(#647),#1080);
#646=REPRESENTATION('density',(#642),#1080);
#647=DESCRIPTIVE_REPRESENTATION_ITEM('Steel','Steel');
#648=PROPERTY_DEFINITION('material property','material name',#1090);
#649=PROPERTY_DEFINITION('material property','density of part',#1090);
#650=AXIS2_PLACEMENT_3D('',#901,#713,#714);
#651=AXIS2_PLACEMENT_3D('',#902,#715,#716);
#652=AXIS2_PLACEMENT_3D('',#905,#717,#718);
#653=AXIS2_PLACEMENT_3D('',#907,#719,#720);
#654=AXIS2_PLACEMENT_3D('',#908,#721,#722);
#655=AXIS2_PLACEMENT_3D('',#909,#723,#724);
#656=AXIS2_PLACEMENT_3D('',#912,#725,#726);
#657=AXIS2_PLACEMENT_3D('',#914,#727,#728);
#658=AXIS2_PLACEMENT_3D('',#915,#729,#730);
#659=AXIS2_PLACEMENT_3D('',#916,#731,#732);
#660=AXIS2_PLACEMENT_3D('',#921,#735,#736);
#661=AXIS2_PLACEMENT_3D('',#922,#737,#738);
#662=AXIS2_PLACEMENT_3D('',#925,#739,#740);
#663=AXIS2_PLACEMENT_3D('',#927,#741,#742);
#664=AXIS2_PLACEMENT_3D('',#928,#743,#744);
#665=AXIS2_PLACEMENT_3D('',#929,#745,#746);
#666=AXIS2_PLACEMENT_3D('',#932,#747,#748);
#667=AXIS2_PLACEMENT_3D('',#934,#749,#750);
#668=AXIS2_PLACEMENT_3D('',#935,#751,#752);
#669=AXIS2_PLACEMENT_3D('',#936,#753,#754);
#670=AXIS2_PLACEMENT_3D('',#939,#757,#758);
#671=AXIS2_PLACEMENT_3D('',#944,#761,#762);
#672=AXIS2_PLACEMENT_3D('',#945,#763,#764);
#673=AXIS2_PLACEMENT_3D('',#950,#767,#768);
#674=AXIS2_PLACEMENT_3D('',#951,#769,#770);
#675=AXIS2_PLACEMENT_3D('',#954,#773,#774);
#676=AXIS2_PLACEMENT_3D('',#957,#777,#778);
#677=AXIS2_PLACEMENT_3D('',#960,#781,#782);
#678=AXIS2_PLACEMENT_3D('',#963,#785,#786);
#679=AXIS2_PLACEMENT_3D('',#968,#789,#790);
#680=AXIS2_PLACEMENT_3D('',#969,#791,#792);
#681=AXIS2_PLACEMENT_3D('',#972,#795,#796);
#682=AXIS2_PLACEMENT_3D('',#978,#800,#801);
#683=AXIS2_PLACEMENT_3D('',#986,#806,#807);
#684=AXIS2_PLACEMENT_3D('',#987,#808,#809);
#685=AXIS2_PLACEMENT_3D('',#988,#810,#811);
#686=AXIS2_PLACEMENT_3D('',#990,#812,#813);
#687=AXIS2_PLACEMENT_3D('',#992,#814,#815);
#688=AXIS2_PLACEMENT_3D('',#993,#816,#817);
#689=AXIS2_PLACEMENT_3D('',#996,#819,#820);
#690=AXIS2_PLACEMENT_3D('',#997,#821,#822);
#691=AXIS2_PLACEMENT_3D('',#999,#823,#824);
#692=AXIS2_PLACEMENT_3D('',#1000,#825,#826);
#693=AXIS2_PLACEMENT_3D('',#1003,#828,#829);
#694=AXIS2_PLACEMENT_3D('',#1004,#830,#831);
#695=AXIS2_PLACEMENT_3D('',#1006,#832,#833);
#696=AXIS2_PLACEMENT_3D('',#1007,#834,#835);
#697=AXIS2_PLACEMENT_3D('',#1010,#837,#838);
#698=AXIS2_PLACEMENT_3D('',#1011,#839,#840);
#699=AXIS2_PLACEMENT_3D('',#1014,#842,#843);
#700=AXIS2_PLACEMENT_3D('',#1015,#844,#845);
#701=AXIS2_PLACEMENT_3D('',#1024,#850,#851);
#702=AXIS2_PLACEMENT_3D('',#1030,#855,#856);
#703=AXIS2_PLACEMENT_3D('',#1036,#860,#861);
#704=AXIS2_PLACEMENT_3D('',#1042,#865,#866);
#705=AXIS2_PLACEMENT_3D('',#1050,#871,#872);
#706=AXIS2_PLACEMENT_3D('',#1058,#877,#878);
#707=AXIS2_PLACEMENT_3D('',#1063,#882,#883);
#708=AXIS2_PLACEMENT_3D('',#1065,#885,#886);
#709=AXIS2_PLACEMENT_3D('',#1067,#888,#889);
#710=AXIS2_PLACEMENT_3D('',#1071,#892,#893);
#711=AXIS2_PLACEMENT_3D('',#1075,#896,#897);
#712=AXIS2_PLACEMENT_3D('',#1077,#899,#900);
#713=DIRECTION('axis',(0.,0.,1.));
#714=DIRECTION('refdir',(1.,0.,0.));
#715=DIRECTION('center_axis',(-0.941663177664661,-0.290400099340399,-0.170112439679112));
#716=DIRECTION('ref_axis',(-0.33655677059078,0.812519920068744,0.475963149477968));
#717=DIRECTION('center_axis',(-1.,0.,-2.96059473233375E-15));
#718=DIRECTION('ref_axis',(0.,1.,0.));
#719=DIRECTION('center_axis',(0.,0.,1.));
#720=DIRECTION('ref_axis',(-0.707106781186548,0.707106781186547,0.));
#721=DIRECTION('center_axis',(0.707106781186548,0.707106781186547,0.));
#722=DIRECTION('ref_axis',(0.,0.,1.));
#723=DIRECTION('center_axis',(-0.941663177664662,-0.290400099340397,0.17011243967911));
#724=DIRECTION('ref_axis',(-0.336556770590776,0.812519920068745,-0.47596314947797));
#725=DIRECTION('center_axis',(0.,0.,-1.));
#726=DIRECTION('ref_axis',(0.,1.,0.));
#727=DIRECTION('center_axis',(-1.,4.44089209850062E-15,0.));
#728=DIRECTION('ref_axis',(0.,0.,-1.));
#729=DIRECTION('center_axis',(0.707106781186548,0.707106781186548,-1.04672830578918E-15));
#730=DIRECTION('ref_axis',(-0.707106781186547,0.707106781186547,0.));
#731=DIRECTION('center_axis',(1.,0.,0.));
#732=DIRECTION('ref_axis',(0.,0.707106781186553,-0.707106781186543));
#733=DIRECTION('',(-1.,0.,0.));
#734=DIRECTION('',(1.,0.,0.));
#735=DIRECTION('center_axis',(-0.707106781186547,0.,-0.707106781186548));
#736=DIRECTION('ref_axis',(-0.707106781186548,0.,0.707106781186547));
#737=DIRECTION('center_axis',(-0.43973261203231,0.182143211721524,-0.879465224064608));
#738=DIRECTION('ref_axis',(-0.812519920068746,0.33655677059077,0.475963149477972));
#739=DIRECTION('center_axis',(-0.707106781186547,-0.707106781186548,-1.83177453513107E-15));
#740=DIRECTION('ref_axis',(-0.707106781186548,0.707106781186547,0.));
#741=DIRECTION('center_axis',(0.,0.,1.));
#742=DIRECTION('ref_axis',(-1.,0.,0.));
#743=DIRECTION('center_axis',(1.1842378929335E-14,1.,0.));
#744=DIRECTION('ref_axis',(0.,0.,1.));
#745=DIRECTION('center_axis',(0.439732612032303,-0.182143211721533,-0.879465224064609));
#746=DIRECTION('ref_axis',(-0.812519920068744,0.33655677059078,-0.475963149477968));
#747=DIRECTION('center_axis',(0.,0.,-1.));
#748=DIRECTION('ref_axis',(-0.70710678118655,0.707106781186545,0.));
#749=DIRECTION('center_axis',(-0.707106781186549,-0.707106781186546,0.));
#750=DIRECTION('ref_axis',(0.,0.,-1.));
#751=DIRECTION('center_axis',(0.,1.,-1.1842378929335E-14));
#752=DIRECTION('ref_axis',(-1.,0.,0.));
#753=DIRECTION('center_axis',(0.707106781186547,0.707106781186548,0.));
#754=DIRECTION('ref_axis',(-0.500000000000002,0.499999999999993,-0.707106781186551));
#755=DIRECTION('',(-0.707106781186547,-0.707106781186548,0.));
#756=DIRECTION('',(0.707106781186547,0.707106781186548,0.));
#757=DIRECTION('center_axis',(-2.79673892426276E-17,1.,0.));
#758=DIRECTION('ref_axis',(-0.707106781186548,0.,-0.707106781186547));
#759=DIRECTION('',(-2.79673892426276E-17,1.,0.));
#760=DIRECTION('',(2.79673892426276E-17,-1.,0.));
#761=DIRECTION('center_axis',(4.18691322315675E-15,0.70710678118655,-0.707106781186545));
#762=DIRECTION('ref_axis',(4.22646508432787E-15,-0.707106781186545,-0.70710678118655));
#763=DIRECTION('center_axis',(0.,0.,1.));
#764=DIRECTION('ref_axis',(-0.707106781186548,-0.707106781186547,0.));
#765=DIRECTION('',(0.,0.,-1.));
#766=DIRECTION('',(0.,0.,1.));
#767=DIRECTION('center_axis',(4.18691322315674E-15,-0.707106781186548,-0.707106781186547));
#768=DIRECTION('ref_axis',(-4.18691322315673E-15,0.707106781186547,-0.707106781186548));
#769=DIRECTION('center_axis',(2.79673892426276E-17,-1.,0.));
#770=DIRECTION('ref_axis',(-0.707106781186547,0.,0.707106781186548));
#771=DIRECTION('',(-2.79673892426276E-17,1.,0.));
#772=DIRECTION('',(2.79673892426276E-17,-1.,0.));
#773=DIRECTION('center_axis',(0.,0.,1.));
#774=DIRECTION('ref_axis',(-0.923879532511289,0.382683432365085,0.));
#775=DIRECTION('',(0.,0.,-1.));
#776=DIRECTION('',(0.,0.,1.));
#777=DIRECTION('center_axis',(-0.707106781186547,-0.707106781186548,0.));
#778=DIRECTION('ref_axis',(-0.500000000000001,0.499999999999992,0.707106781186552));
#779=DIRECTION('',(0.707106781186547,0.707106781186548,0.));
#780=DIRECTION('',(-0.707106781186547,-0.707106781186548,0.));
#781=DIRECTION('center_axis',(0.,0.,1.));
#782=DIRECTION('ref_axis',(-0.382683432365089,0.923879532511287,0.));
#783=DIRECTION('',(0.,0.,-1.));
#784=DIRECTION('',(0.,0.,1.));
#785=DIRECTION('center_axis',(-1.,0.,0.));
#786=DIRECTION('ref_axis',(0.,0.707106781186552,0.707106781186543));
#787=DIRECTION('',(-1.,0.,0.));
#788=DIRECTION('',(1.,0.,0.));
#789=DIRECTION('center_axis',(0.707106781186546,0.,-0.707106781186549));
#790=DIRECTION('ref_axis',(-0.707106781186549,0.,-0.707106781186546));
#791=DIRECTION('center_axis',(0.,0.,1.));
#792=DIRECTION('ref_axis',(0.707106781186543,0.707106781186552,0.));
#793=DIRECTION('',(0.,0.,-1.));
#794=DIRECTION('',(0.,0.,1.));
#795=DIRECTION('center_axis',(0.,-1.,0.));
#796=DIRECTION('ref_axis',(1.,0.,0.));
#797=DIRECTION('',(1.,0.,0.));
#798=DIRECTION('',(0.,0.,1.));
#799=DIRECTION('',(1.,0.,0.));
#800=DIRECTION('center_axis',(0.,0.,1.));
#801=DIRECTION('ref_axis',(1.,0.,0.));
#802=DIRECTION('',(0.,-1.,0.));
#803=DIRECTION('',(1.,0.,0.));
#804=DIRECTION('',(0.707106781186547,0.707106781186548,0.));
#805=DIRECTION('',(0.,1.,0.));
#806=DIRECTION('center_axis',(0.,1.,0.));
#807=DIRECTION('ref_axis',(-1.,0.,0.));
#808=DIRECTION('center_axis',(-0.707106781186548,0.707106781186547,0.));
#809=DIRECTION('ref_axis',(-0.707106781186547,-0.707106781186548,0.));
#810=DIRECTION('center_axis',(-1.,-2.79673892426276E-17,0.));
#811=DIRECTION('ref_axis',(2.79673892426276E-17,-1.,0.));
#812=DIRECTION('center_axis',(1.,2.79673892426276E-17,0.));
#813=DIRECTION('ref_axis',(0.,-1.,0.));
#814=DIRECTION('center_axis',(1.,2.79673892426276E-17,0.));
#815=DIRECTION('ref_axis',(0.,-1.,0.));
#816=DIRECTION('center_axis',(1.,0.,0.));
#817=DIRECTION('ref_axis',(0.,-1.,0.));
#818=DIRECTION('',(1.,0.,0.));
#819=DIRECTION('center_axis',(1.,0.,0.));
#820=DIRECTION('ref_axis',(0.,-1.,0.));
#821=DIRECTION('center_axis',(-1.,0.,0.));
#822=DIRECTION('ref_axis',(0.,-1.,0.));
#823=DIRECTION('center_axis',(-1.,0.,0.));
#824=DIRECTION('ref_axis',(0.,-1.,0.));
#825=DIRECTION('center_axis',(1.,0.,0.));
#826=DIRECTION('ref_axis',(0.,-1.,0.));
#827=DIRECTION('',(1.,0.,0.));
#828=DIRECTION('center_axis',(1.,0.,0.));
#829=DIRECTION('ref_axis',(0.,-1.,0.));
#830=DIRECTION('center_axis',(-1.,0.,0.));
#831=DIRECTION('ref_axis',(0.,-1.,0.));
#832=DIRECTION('center_axis',(-1.,0.,0.));
#833=DIRECTION('ref_axis',(0.,-1.,0.));
#834=DIRECTION('center_axis',(1.,0.,0.));
#835=DIRECTION('ref_axis',(0.,-1.,0.));
#836=DIRECTION('',(1.,0.,0.));
#837=DIRECTION('center_axis',(-1.,-2.79673892426276E-17,0.));
#838=DIRECTION('ref_axis',(0.,-1.,0.));
#839=DIRECTION('center_axis',(1.,0.,0.));
#840=DIRECTION('ref_axis',(0.,-1.,0.));
#841=DIRECTION('',(1.,0.,0.));
#842=DIRECTION('center_axis',(-1.,-2.79673892426276E-17,0.));
#843=DIRECTION('ref_axis',(0.,-1.,0.));
#844=DIRECTION('center_axis',(-1.,-2.79673892426276E-17,0.));
#845=DIRECTION('ref_axis',(2.79673892426276E-17,-1.,0.));
#846=DIRECTION('',(-2.79673892426276E-17,1.,0.));
#847=DIRECTION('',(0.,0.,-1.));
#848=DIRECTION('',(-2.79673892426276E-17,1.,0.));
#849=DIRECTION('',(0.,0.,1.));
#850=DIRECTION('center_axis',(-0.707106781186548,0.707106781186547,0.));
#851=DIRECTION('ref_axis',(-0.707106781186547,-0.707106781186548,0.));
#852=DIRECTION('',(0.707106781186547,0.707106781186548,0.));
#853=DIRECTION('',(0.,0.,-1.));
#854=DIRECTION('',(0.707106781186547,0.707106781186548,0.));
#855=DIRECTION('center_axis',(0.,1.,0.));
#856=DIRECTION('ref_axis',(-1.,0.,0.));
#857=DIRECTION('',(1.,0.,0.));
#858=DIRECTION('',(0.,0.,-1.));
#859=DIRECTION('',(1.,0.,0.));
#860=DIRECTION('center_axis',(0.,-1.,0.));
#861=DIRECTION('ref_axis',(1.,0.,0.));
#862=DIRECTION('',(-1.,0.,0.));
#863=DIRECTION('',(-1.,0.,0.));
#864=DIRECTION('',(0.,0.,1.));
#865=DIRECTION('center_axis',(0.,0.,1.));
#866=DIRECTION('ref_axis',(1.,0.,0.));
#867=DIRECTION('',(0.,1.,0.));
#868=DIRECTION('',(1.,0.,0.));
#869=DIRECTION('',(0.707106781186547,0.707106781186548,0.));
#870=DIRECTION('',(0.,1.,0.));
#871=DIRECTION('center_axis',(0.,0.,1.));
#872=DIRECTION('ref_axis',(1.,0.,0.));
#873=DIRECTION('',(0.,-1.,0.));
#874=DIRECTION('',(-0.707106781186547,-0.707106781186548,0.));
#875=DIRECTION('',(-1.,0.,0.));
#876=DIRECTION('',(0.,-1.,0.));
#877=DIRECTION('center_axis',(1.,0.,0.));
#878=DIRECTION('ref_axis',(0.,1.,0.));
#879=DIRECTION('',(0.,1.,0.));
#880=DIRECTION('',(0.,0.,1.));
#881=DIRECTION('',(0.,0.,1.));
#882=DIRECTION('center_axis',(0.,-1.,0.));
#883=DIRECTION('ref_axis',(1.,0.,0.));
#884=DIRECTION('',(0.,0.,1.));
#885=DIRECTION('center_axis',(0.707106781186548,-0.707106781186547,0.));
#886=DIRECTION('ref_axis',(0.707106781186547,0.707106781186548,0.));
#887=DIRECTION('',(0.,0.,1.));
#888=DIRECTION('center_axis',(0.,-1.,0.));
#889=DIRECTION('ref_axis',(1.,0.,0.));
#890=DIRECTION('',(1.,0.,0.));
#891=DIRECTION('',(0.,0.,1.));
#892=DIRECTION('center_axis',(0.707106781186548,-0.707106781186547,0.));
#893=DIRECTION('ref_axis',(0.707106781186547,0.707106781186548,0.));
#894=DIRECTION('',(0.707106781186547,0.707106781186548,0.));
#895=DIRECTION('',(0.,0.,1.));
#896=DIRECTION('center_axis',(1.,0.,0.));
#897=DIRECTION('ref_axis',(0.,1.,0.));
#898=DIRECTION('',(0.,1.,0.));
#899=DIRECTION('center_axis',(0.,0.,1.));
#900=DIRECTION('ref_axis',(1.,0.,0.));
#901=CARTESIAN_POINT('',(0.,0.,0.));
#902=CARTESIAN_POINT('Origin',(19.3786796564404,119.5,35.72));
#903=CARTESIAN_POINT('',(19.3786796564404,121.,35.72));
#904=CARTESIAN_POINT('',(19.3786796564403,119.5,37.22));
#905=CARTESIAN_POINT('Origin',(19.3786796564404,119.5,35.72));
#906=CARTESIAN_POINT('',(18.3180194846605,120.56066017178,35.72));
#907=CARTESIAN_POINT('Origin',(19.3786796564404,119.5,35.72));
#908=CARTESIAN_POINT('Origin',(19.3786796564403,119.5,35.72));
#909=CARTESIAN_POINT('Origin',(19.3786796564403,119.5,1.5));
#910=CARTESIAN_POINT('',(19.3786796564404,121.,1.5));
#911=CARTESIAN_POINT('',(18.3180194846605,120.56066017178,1.5));
#912=CARTESIAN_POINT('Origin',(19.3786796564404,119.5,1.5));
#913=CARTESIAN_POINT('',(19.3786796564403,119.5,0.));
#914=CARTESIAN_POINT('Origin',(19.3786796564403,119.5,1.5));
#915=CARTESIAN_POINT('Origin',(19.3786796564403,119.5,1.5));
#916=CARTESIAN_POINT('Origin',(21.75,119.5,1.5));
#917=CARTESIAN_POINT('',(30.,119.5,0.));
#918=CARTESIAN_POINT('',(21.75,119.5,0.));
#919=CARTESIAN_POINT('',(28.5,121.,1.5));
#920=CARTESIAN_POINT('',(21.75,121.,1.5));
#921=CARTESIAN_POINT('Origin',(28.5,119.5,1.5));
#922=CARTESIAN_POINT('Origin',(-1.5,98.6213203435597,35.72));
#923=CARTESIAN_POINT('',(-2.56066017177981,99.6819805153395,35.72));
#924=CARTESIAN_POINT('',(-1.5,98.6213203435596,37.22));
#925=CARTESIAN_POINT('Origin',(-1.5,98.6213203435596,35.72));
#926=CARTESIAN_POINT('',(-3.,98.6213203435597,35.72));
#927=CARTESIAN_POINT('Origin',(-1.5,98.6213203435597,35.72));
#928=CARTESIAN_POINT('Origin',(-1.5,98.6213203435596,35.72));
#929=CARTESIAN_POINT('Origin',(-1.5,98.6213203435596,1.5));
#930=CARTESIAN_POINT('',(-2.56066017177982,99.6819805153395,1.5));
#931=CARTESIAN_POINT('',(-3.,98.6213203435597,1.5));
#932=CARTESIAN_POINT('Origin',(-1.5,98.6213203435597,1.5));
#933=CARTESIAN_POINT('',(-1.5,98.6213203435596,0.));
#934=CARTESIAN_POINT('Origin',(-1.5,98.6213203435596,1.5));
#935=CARTESIAN_POINT('Origin',(-1.5,98.6213203435597,1.5));
#936=CARTESIAN_POINT('Origin',(3.00367965644035,103.125,1.5));
#937=CARTESIAN_POINT('',(3.00367965644035,103.125,0.));
#938=CARTESIAN_POINT('',(1.94301948466053,104.18566017178,1.5));
#939=CARTESIAN_POINT('Origin',(-1.5,79.1213203435596,1.5));
#940=CARTESIAN_POINT('',(-3.,-1.50000000000001,1.5));
#941=CARTESIAN_POINT('',(-3.,79.1213203435596,1.5));
#942=CARTESIAN_POINT('',(-1.5,-3.,0.));
#943=CARTESIAN_POINT('',(-1.5,79.1213203435596,0.));
#944=CARTESIAN_POINT('Origin',(-1.5,-1.50000000000001,1.5));
#945=CARTESIAN_POINT('Origin',(-1.5,-1.5,0.));
#946=CARTESIAN_POINT('',(-3.,-1.5,35.72));
#947=CARTESIAN_POINT('',(-3.,-1.5,0.));
#948=CARTESIAN_POINT('',(-1.5,-3.,37.22));
#949=CARTESIAN_POINT('',(-1.5,-3.,0.));
#950=CARTESIAN_POINT('Origin',(-1.5,-1.5,35.72));
#951=CARTESIAN_POINT('Origin',(-1.5,79.1213203435596,35.72));
#952=CARTESIAN_POINT('',(-1.5,79.1213203435596,37.22));
#953=CARTESIAN_POINT('',(-3.,79.1213203435596,35.72));
#954=CARTESIAN_POINT('Origin',(-1.5,98.6213203435597,0.));
#955=CARTESIAN_POINT('',(-2.56066017177981,99.6819805153395,0.));
#956=CARTESIAN_POINT('',(-3.,98.6213203435597,0.));
#957=CARTESIAN_POINT('Origin',(3.00367965644035,103.125,35.72));
#958=CARTESIAN_POINT('',(3.00367965644035,103.125,37.22));
#959=CARTESIAN_POINT('',(1.94301948466053,104.18566017178,35.72));
#960=CARTESIAN_POINT('Origin',(19.3786796564404,119.5,0.));
#961=CARTESIAN_POINT('',(19.3786796564404,121.,0.));
#962=CARTESIAN_POINT('',(18.3180194846605,120.56066017178,0.));
#963=CARTESIAN_POINT('Origin',(21.75,119.5,35.72));
#964=CARTESIAN_POINT('',(28.5,121.,35.72));
#965=CARTESIAN_POINT('',(21.75,121.,35.72));
#966=CARTESIAN_POINT('',(30.,119.5,37.22));
#967=CARTESIAN_POINT('',(21.75,119.5,37.22));
#968=CARTESIAN_POINT('Origin',(28.5,119.5,35.72));
#969=CARTESIAN_POINT('Origin',(28.5,119.5,0.));
#970=CARTESIAN_POINT('',(30.,119.5,0.));
#971=CARTESIAN_POINT('',(28.5,121.,0.));
#972=CARTESIAN_POINT('Origin',(-3.,-3.,0.));
#973=CARTESIAN_POINT('',(9.,-3.,0.));
#974=CARTESIAN_POINT('',(0.,-3.,0.));
#975=CARTESIAN_POINT('',(9.,-3.,37.22));
#976=CARTESIAN_POINT('',(9.,-3.,0.));
#977=CARTESIAN_POINT('',(0.,-3.,37.22));
#978=CARTESIAN_POINT('Origin',(13.5,59.,0.));
#979=CARTESIAN_POINT('',(30.,109.,0.));
#980=CARTESIAN_POINT('',(30.,118.,0.));
#981=CARTESIAN_POINT('',(23.7279220613579,109.,0.));
#982=CARTESIAN_POINT('',(23.7279220613579,109.,0.));
#983=CARTESIAN_POINT('',(9.,94.2720779386421,0.));
#984=CARTESIAN_POINT('',(9.,94.2720779386421,0.));
#985=CARTESIAN_POINT('',(9.,-3.,0.));
#986=CARTESIAN_POINT('Origin',(30.,121.,0.));
#987=CARTESIAN_POINT('Origin',(18.7573593128807,121.,0.));
#988=CARTESIAN_POINT('Origin',(-3.,99.2426406871193,0.));
#989=CARTESIAN_POINT('',(-3.,95.,8.));
#990=CARTESIAN_POINT('Origin',(-3.,93.,8.));
#991=CARTESIAN_POINT('',(-3.,7.,29.22));
#992=CARTESIAN_POINT('Origin',(-3.,5.,29.22));
#993=CARTESIAN_POINT('Origin',(-3.,5.,29.22));
#994=CARTESIAN_POINT('',(-1.,7.,29.22));
#995=CARTESIAN_POINT('',(-3.,7.,29.22));
#996=CARTESIAN_POINT('Origin',(-1.,5.,29.22));
#997=CARTESIAN_POINT('Origin',(-1.,5.,29.22));
#998=CARTESIAN_POINT('',(-1.,6.3,29.22));
#999=CARTESIAN_POINT('Origin',(-1.,5.,29.22));
#1000=CARTESIAN_POINT('Origin',(-3.,93.,8.));
#1001=CARTESIAN_POINT('',(-1.,95.,8.));
#1002=CARTESIAN_POINT('',(-3.,95.,8.));
#1003=CARTESIAN_POINT('Origin',(-1.,93.,8.));
#1004=CARTESIAN_POINT('Origin',(-1.,93.,8.));
#1005=CARTESIAN_POINT('',(-1.,94.3,8.));
#1006=CARTESIAN_POINT('Origin',(-1.,93.,8.));
#1007=CARTESIAN_POINT('Origin',(-3.,5.,29.22));
#1008=CARTESIAN_POINT('',(-1.66533453693773E-15,6.3,29.22));
#1009=CARTESIAN_POINT('',(-3.,6.3,29.22));
#1010=CARTESIAN_POINT('Origin',(-1.66533453693773E-15,5.,29.22));
#1011=CARTESIAN_POINT('Origin',(-3.,93.,8.));
#1012=CARTESIAN_POINT('',(-1.66533453693773E-15,94.3,8.));
#1013=CARTESIAN_POINT('',(-3.,94.3,8.));
#1014=CARTESIAN_POINT('Origin',(-1.66533453693773E-15,93.,8.));
#1015=CARTESIAN_POINT('Origin',(-1.66533453693773E-15,99.2426406871193,
0.));
#1016=CARTESIAN_POINT('',(1.48029736616688E-15,0.,3.));
#1017=CARTESIAN_POINT('',(-1.28367572346755E-15,98.,3.));
#1018=CARTESIAN_POINT('',(-1.11022302462516E-15,79.1213203435596,3.));
#1019=CARTESIAN_POINT('',(-1.28367572346755E-15,98.,34.22));
#1020=CARTESIAN_POINT('',(3.09337788304594E-16,98.,0.));
#1021=CARTESIAN_POINT('',(7.40148683083438E-16,0.,34.22));
#1022=CARTESIAN_POINT('',(-1.11022302462516E-15,79.1213203435596,34.22));
#1023=CARTESIAN_POINT('',(1.11022302462516E-15,0.,0.));
#1024=CARTESIAN_POINT('Origin',(20.8786796564404,118.87867965644,0.));
#1025=CARTESIAN_POINT('',(20.,118.,3.));
#1026=CARTESIAN_POINT('',(4.06433982822017,102.06433982822,3.));
#1027=CARTESIAN_POINT('',(20.,118.,34.22));
#1028=CARTESIAN_POINT('',(20.,118.,0.));
#1029=CARTESIAN_POINT('',(4.06433982822017,102.06433982822,34.22));
#1030=CARTESIAN_POINT('Origin',(30.,118.,0.));
#1031=CARTESIAN_POINT('',(30.,118.,3.));
#1032=CARTESIAN_POINT('',(21.75,118.,3.));
#1033=CARTESIAN_POINT('',(30.,118.,34.22));
#1034=CARTESIAN_POINT('',(30.,118.,0.));
#1035=CARTESIAN_POINT('',(21.75,118.,34.22));
#1036=CARTESIAN_POINT('Origin',(-3.,0.,0.));
#1037=CARTESIAN_POINT('',(9.,0.,3.));
#1038=CARTESIAN_POINT('',(5.24999999999999,0.,3.));
#1039=CARTESIAN_POINT('',(9.,0.,34.22));
#1040=CARTESIAN_POINT('',(5.25,0.,34.22));
#1041=CARTESIAN_POINT('',(9.,0.,0.));
#1042=CARTESIAN_POINT('Origin',(13.5,59.,34.22));
#1043=CARTESIAN_POINT('',(30.,109.,34.22));
#1044=CARTESIAN_POINT('',(30.,84.,34.22));
#1045=CARTESIAN_POINT('',(23.7279220613579,109.,34.22));
#1046=CARTESIAN_POINT('',(18.6139610306789,109.,34.22));
#1047=CARTESIAN_POINT('',(9.,94.2720779386421,34.22));
#1048=CARTESIAN_POINT('',(1.30698051533947,86.5790584539816,34.22));
#1049=CARTESIAN_POINT('',(9.,28.,34.22));
#1050=CARTESIAN_POINT('Origin',(13.5,59.,3.));
#1051=CARTESIAN_POINT('',(9.,94.2720779386421,3.));
#1052=CARTESIAN_POINT('',(9.,28.,3.));
#1053=CARTESIAN_POINT('',(23.7279220613579,109.,3.));
#1054=CARTESIAN_POINT('',(1.30698051533947,86.5790584539816,3.));
#1055=CARTESIAN_POINT('',(30.,109.,3.));
#1056=CARTESIAN_POINT('',(18.6139610306789,109.,3.));
#1057=CARTESIAN_POINT('',(30.,84.,3.));
#1058=CARTESIAN_POINT('Origin',(30.,109.,0.));
#1059=CARTESIAN_POINT('',(30.,109.,37.22));
#1060=CARTESIAN_POINT('',(30.,118.,37.22));
#1061=CARTESIAN_POINT('',(30.,109.,0.));
#1062=CARTESIAN_POINT('',(30.,109.,0.));
#1063=CARTESIAN_POINT('Origin',(23.7279220613579,109.,0.));
#1064=CARTESIAN_POINT('',(23.7279220613579,109.,0.));
#1065=CARTESIAN_POINT('Origin',(9.,94.2720779386421,0.));
#1066=CARTESIAN_POINT('',(9.,94.2720779386421,0.));
#1067=CARTESIAN_POINT('Origin',(23.7279220613579,109.,0.));
#1068=CARTESIAN_POINT('',(23.7279220613579,109.,37.22));
#1069=CARTESIAN_POINT('',(23.7279220613579,109.,37.22));
#1070=CARTESIAN_POINT('',(23.7279220613579,109.,0.));
#1071=CARTESIAN_POINT('Origin',(9.,94.2720779386421,0.));
#1072=CARTESIAN_POINT('',(9.,94.2720779386421,37.22));
#1073=CARTESIAN_POINT('',(9.,94.2720779386421,37.22));
#1074=CARTESIAN_POINT('',(9.,94.2720779386421,0.));
#1075=CARTESIAN_POINT('Origin',(9.,-3.,0.));
#1076=CARTESIAN_POINT('',(9.,-3.,37.22));
#1077=CARTESIAN_POINT('Origin',(13.5,59.,37.22));
#1078=UNCERTAINTY_MEASURE_WITH_UNIT(LENGTH_MEASURE(0.01),#1082,
'DISTANCE_ACCURACY_VALUE',
'Maximum model space distance between geometric entities at asserted c
onnectivities');
#1079=UNCERTAINTY_MEASURE_WITH_UNIT(LENGTH_MEASURE(0.01),#1082,
'DISTANCE_ACCURACY_VALUE',
'Maximum model space distance between geometric entities at asserted c
onnectivities');
#1080=(
GEOMETRIC_REPRESENTATION_CONTEXT(3)
GLOBAL_UNCERTAINTY_ASSIGNED_CONTEXT((#1078))
GLOBAL_UNIT_ASSIGNED_CONTEXT((#1082,#1084,#1085))
REPRESENTATION_CONTEXT('','3D')
);
#1081=(
GEOMETRIC_REPRESENTATION_CONTEXT(3)
GLOBAL_UNCERTAINTY_ASSIGNED_CONTEXT((#1079))
GLOBAL_UNIT_ASSIGNED_CONTEXT((#1082,#1084,#1085))
REPRESENTATION_CONTEXT('','3D')
);
#1082=(
LENGTH_UNIT()
NAMED_UNIT(*)
SI_UNIT(.MILLI.,.METRE.)
);
#1083=(
LENGTH_UNIT()
NAMED_UNIT(*)
SI_UNIT($,.METRE.)
);
#1084=(
NAMED_UNIT(*)
PLANE_ANGLE_UNIT()
SI_UNIT($,.RADIAN.)
);
#1085=(
NAMED_UNIT(*)
SI_UNIT($,.STERADIAN.)
SOLID_ANGLE_UNIT()
);
#1086=SHAPE_DEFINITION_REPRESENTATION(#1087,#1088);
#1087=PRODUCT_DEFINITION_SHAPE('',$,#1090);
#1088=SHAPE_REPRESENTATION('',(#650),#1080);
#1089=PRODUCT_DEFINITION_CONTEXT('part definition',#1094,'design');
#1090=PRODUCT_DEFINITION('case left','case left v15',#1091,#1089);
#1091=PRODUCT_DEFINITION_FORMATION('',$,#1096);
#1092=PRODUCT_RELATED_PRODUCT_CATEGORY('case left v15','case left v15',
(#1096));
#1093=APPLICATION_PROTOCOL_DEFINITION('international standard',
'automotive_design',2009,#1094);
#1094=APPLICATION_CONTEXT(
'Core Data for Automotive Mechanical Design Process');
#1095=PRODUCT_CONTEXT('part definition',#1094,'mechanical');
#1096=PRODUCT('case left','case left v15',$,(#1095));
#1097=PRESENTATION_STYLE_ASSIGNMENT((#1099));
#1098=PRESENTATION_STYLE_ASSIGNMENT((#1100));
#1099=SURFACE_STYLE_USAGE(.BOTH.,#1101);
#1100=SURFACE_STYLE_USAGE(.BOTH.,#1102);
#1101=SURFACE_SIDE_STYLE('',(#1103));
#1102=SURFACE_SIDE_STYLE('',(#1104));
#1103=SURFACE_STYLE_FILL_AREA(#1105);
#1104=SURFACE_STYLE_FILL_AREA(#1106);
#1105=FILL_AREA_STYLE('Steel - Satin',(#1107));
#1106=FILL_AREA_STYLE('Plastic - Matte (Gray)',(#1108));
#1107=FILL_AREA_STYLE_COLOUR('Steel - Satin',#1109);
#1108=FILL_AREA_STYLE_COLOUR('Plastic - Matte (Gray)',#1110);
#1109=COLOUR_RGB('Steel - Satin',0.627450980392157,0.627450980392157,0.627450980392157);
#1110=COLOUR_RGB('Plastic - Matte (Gray)',0.701960784313725,0.701960784313725,
0.701960784313725);
ENDSEC;
END-ISO-10303-21;
