ISO-10303-21;
HEADER;
/* Generated by software containing ST-Developer
 * from STEP Tools, Inc. (www.steptools.com) 
 */

FILE_DESCRIPTION(
/* description */ (''),
/* implementation_level */ '2;1');

FILE_NAME(
/* name */ 'Screen approximate v5.step',
/* time_stamp */ '2026-06-14T21:36:49-04:00',
/* author */ (''),
/* organization */ (''),
/* preprocessor_version */ 'ST-DEVELOPER v20.1',
/* originating_system */ 'Autodesk Translation Framework v15.8.0.0',
/* authorisation */ '');

FILE_SCHEMA (('AUTOMOTIVE_DESIGN { 1 0 10303 214 3 1 1 }'));
ENDSEC;

DATA;
#10=MECHANICAL_DESIGN_GEOMETRIC_PRESENTATION_REPRESENTATION('',(#13,#14),
#490);
#11=SHAPE_REPRESENTATION_RELATIONSHIP('SRR','None',#497,#12);
#12=ADVANCED_BREP_SHAPE_REPRESENTATION('',(#15,#16),#489);
#13=STYLED_ITEM('',(#507),#15);
#14=STYLED_ITEM('',(#508),#16);
#15=MANIFOLD_SOLID_BREP('Body1',#293);
#16=MANIFOLD_SOLID_BREP('Body2',#294);
#17=FACE_BOUND('',#58,.T.);
#18=FACE_BOUND('',#59,.T.);
#19=FACE_BOUND('',#60,.T.);
#20=FACE_BOUND('',#61,.T.);
#21=FACE_BOUND('',#63,.T.);
#22=FACE_BOUND('',#64,.T.);
#23=FACE_BOUND('',#65,.T.);
#24=FACE_BOUND('',#66,.T.);
#25=PLANE('',#320);
#26=PLANE('',#321);
#27=PLANE('',#322);
#28=PLANE('',#323);
#29=PLANE('',#324);
#30=PLANE('',#325);
#31=PLANE('',#326);
#32=PLANE('',#327);
#33=PLANE('',#328);
#34=PLANE('',#329);
#35=PLANE('',#330);
#36=PLANE('',#331);
#37=FACE_OUTER_BOUND('',#53,.T.);
#38=FACE_OUTER_BOUND('',#54,.T.);
#39=FACE_OUTER_BOUND('',#55,.T.);
#40=FACE_OUTER_BOUND('',#56,.T.);
#41=FACE_OUTER_BOUND('',#57,.T.);
#42=FACE_OUTER_BOUND('',#62,.T.);
#43=FACE_OUTER_BOUND('',#67,.T.);
#44=FACE_OUTER_BOUND('',#68,.T.);
#45=FACE_OUTER_BOUND('',#69,.T.);
#46=FACE_OUTER_BOUND('',#70,.T.);
#47=FACE_OUTER_BOUND('',#71,.T.);
#48=FACE_OUTER_BOUND('',#72,.T.);
#49=FACE_OUTER_BOUND('',#73,.T.);
#50=FACE_OUTER_BOUND('',#74,.T.);
#51=FACE_OUTER_BOUND('',#75,.T.);
#52=FACE_OUTER_BOUND('',#76,.T.);
#53=EDGE_LOOP('',(#201,#202,#203,#204));
#54=EDGE_LOOP('',(#205,#206,#207,#208));
#55=EDGE_LOOP('',(#209,#210,#211,#212));
#56=EDGE_LOOP('',(#213,#214,#215,#216));
#57=EDGE_LOOP('',(#217,#218,#219,#220));
#58=EDGE_LOOP('',(#221));
#59=EDGE_LOOP('',(#222));
#60=EDGE_LOOP('',(#223));
#61=EDGE_LOOP('',(#224));
#62=EDGE_LOOP('',(#225,#226,#227,#228));
#63=EDGE_LOOP('',(#229));
#64=EDGE_LOOP('',(#230));
#65=EDGE_LOOP('',(#231));
#66=EDGE_LOOP('',(#232));
#67=EDGE_LOOP('',(#233,#234,#235,#236));
#68=EDGE_LOOP('',(#237,#238,#239,#240));
#69=EDGE_LOOP('',(#241,#242,#243,#244));
#70=EDGE_LOOP('',(#245,#246,#247,#248));
#71=EDGE_LOOP('',(#249,#250,#251,#252));
#72=EDGE_LOOP('',(#253,#254,#255,#256));
#73=EDGE_LOOP('',(#257,#258,#259,#260));
#74=EDGE_LOOP('',(#261,#262,#263,#264));
#75=EDGE_LOOP('',(#265,#266,#267,#268));
#76=EDGE_LOOP('',(#269,#270,#271,#272));
#77=LINE('',#415,#105);
#78=LINE('',#421,#106);
#79=LINE('',#427,#107);
#80=LINE('',#433,#108);
#81=LINE('',#438,#109);
#82=LINE('',#440,#110);
#83=LINE('',#442,#111);
#84=LINE('',#443,#112);
#85=LINE('',#447,#113);
#86=LINE('',#449,#114);
#87=LINE('',#451,#115);
#88=LINE('',#452,#116);
#89=LINE('',#454,#117);
#90=LINE('',#455,#118);
#91=LINE('',#457,#119);
#92=LINE('',#459,#120);
#93=LINE('',#464,#121);
#94=LINE('',#466,#122);
#95=LINE('',#468,#123);
#96=LINE('',#469,#124);
#97=LINE('',#472,#125);
#98=LINE('',#474,#126);
#99=LINE('',#475,#127);
#100=LINE('',#478,#128);
#101=LINE('',#480,#129);
#102=LINE('',#481,#130);
#103=LINE('',#483,#131);
#104=LINE('',#484,#132);
#105=VECTOR('',#338,1.2);
#106=VECTOR('',#345,1.2);
#107=VECTOR('',#352,1.2);
#108=VECTOR('',#359,1.2);
#109=VECTOR('',#364,10.);
#110=VECTOR('',#365,10.);
#111=VECTOR('',#366,10.);
#112=VECTOR('',#367,10.);
#113=VECTOR('',#370,10.);
#114=VECTOR('',#371,10.);
#115=VECTOR('',#372,10.);
#116=VECTOR('',#373,10.);
#117=VECTOR('',#376,10.);
#118=VECTOR('',#377,10.);
#119=VECTOR('',#380,10.);
#120=VECTOR('',#383,10.);
#121=VECTOR('',#388,10.);
#122=VECTOR('',#389,10.);
#123=VECTOR('',#390,10.);
#124=VECTOR('',#391,10.);
#125=VECTOR('',#394,10.);
#126=VECTOR('',#395,10.);
#127=VECTOR('',#396,10.);
#128=VECTOR('',#399,10.);
#129=VECTOR('',#400,10.);
#130=VECTOR('',#401,10.);
#131=VECTOR('',#404,10.);
#132=VECTOR('',#405,10.);
#133=CIRCLE('',#309,1.2);
#134=CIRCLE('',#310,1.2);
#135=CIRCLE('',#312,1.2);
#136=CIRCLE('',#313,1.2);
#137=CIRCLE('',#315,1.2);
#138=CIRCLE('',#316,1.2);
#139=CIRCLE('',#318,1.2);
#140=CIRCLE('',#319,1.2);
#141=VERTEX_POINT('',#412);
#142=VERTEX_POINT('',#414);
#143=VERTEX_POINT('',#418);
#144=VERTEX_POINT('',#420);
#145=VERTEX_POINT('',#424);
#146=VERTEX_POINT('',#426);
#147=VERTEX_POINT('',#430);
#148=VERTEX_POINT('',#432);
#149=VERTEX_POINT('',#436);
#150=VERTEX_POINT('',#437);
#151=VERTEX_POINT('',#439);
#152=VERTEX_POINT('',#441);
#153=VERTEX_POINT('',#445);
#154=VERTEX_POINT('',#446);
#155=VERTEX_POINT('',#448);
#156=VERTEX_POINT('',#450);
#157=VERTEX_POINT('',#462);
#158=VERTEX_POINT('',#463);
#159=VERTEX_POINT('',#465);
#160=VERTEX_POINT('',#467);
#161=VERTEX_POINT('',#471);
#162=VERTEX_POINT('',#473);
#163=VERTEX_POINT('',#477);
#164=VERTEX_POINT('',#479);
#165=EDGE_CURVE('',#141,#141,#133,.T.);
#166=EDGE_CURVE('',#141,#142,#77,.T.);
#167=EDGE_CURVE('',#142,#142,#134,.T.);
#168=EDGE_CURVE('',#143,#143,#135,.T.);
#169=EDGE_CURVE('',#143,#144,#78,.T.);
#170=EDGE_CURVE('',#144,#144,#136,.T.);
#171=EDGE_CURVE('',#145,#145,#137,.T.);
#172=EDGE_CURVE('',#145,#146,#79,.T.);
#173=EDGE_CURVE('',#146,#146,#138,.T.);
#174=EDGE_CURVE('',#147,#147,#139,.T.);
#175=EDGE_CURVE('',#147,#148,#80,.T.);
#176=EDGE_CURVE('',#148,#148,#140,.T.);
#177=EDGE_CURVE('',#149,#150,#81,.T.);
#178=EDGE_CURVE('',#150,#151,#82,.T.);
#179=EDGE_CURVE('',#151,#152,#83,.T.);
#180=EDGE_CURVE('',#152,#149,#84,.T.);
#181=EDGE_CURVE('',#153,#154,#85,.T.);
#182=EDGE_CURVE('',#154,#155,#86,.T.);
#183=EDGE_CURVE('',#155,#156,#87,.T.);
#184=EDGE_CURVE('',#156,#153,#88,.T.);
#185=EDGE_CURVE('',#152,#155,#89,.T.);
#186=EDGE_CURVE('',#149,#154,#90,.T.);
#187=EDGE_CURVE('',#151,#156,#91,.T.);
#188=EDGE_CURVE('',#150,#153,#92,.T.);
#189=EDGE_CURVE('',#157,#158,#93,.T.);
#190=EDGE_CURVE('',#157,#159,#94,.T.);
#191=EDGE_CURVE('',#160,#159,#95,.T.);
#192=EDGE_CURVE('',#158,#160,#96,.T.);
#193=EDGE_CURVE('',#158,#161,#97,.T.);
#194=EDGE_CURVE('',#162,#160,#98,.T.);
#195=EDGE_CURVE('',#161,#162,#99,.T.);
#196=EDGE_CURVE('',#161,#163,#100,.T.);
#197=EDGE_CURVE('',#164,#162,#101,.T.);
#198=EDGE_CURVE('',#163,#164,#102,.T.);
#199=EDGE_CURVE('',#163,#157,#103,.T.);
#200=EDGE_CURVE('',#159,#164,#104,.T.);
#201=ORIENTED_EDGE('',*,*,#165,.F.);
#202=ORIENTED_EDGE('',*,*,#166,.T.);
#203=ORIENTED_EDGE('',*,*,#167,.F.);
#204=ORIENTED_EDGE('',*,*,#166,.F.);
#205=ORIENTED_EDGE('',*,*,#168,.F.);
#206=ORIENTED_EDGE('',*,*,#169,.T.);
#207=ORIENTED_EDGE('',*,*,#170,.F.);
#208=ORIENTED_EDGE('',*,*,#169,.F.);
#209=ORIENTED_EDGE('',*,*,#171,.F.);
#210=ORIENTED_EDGE('',*,*,#172,.T.);
#211=ORIENTED_EDGE('',*,*,#173,.F.);
#212=ORIENTED_EDGE('',*,*,#172,.F.);
#213=ORIENTED_EDGE('',*,*,#174,.F.);
#214=ORIENTED_EDGE('',*,*,#175,.T.);
#215=ORIENTED_EDGE('',*,*,#176,.F.);
#216=ORIENTED_EDGE('',*,*,#175,.F.);
#217=ORIENTED_EDGE('',*,*,#177,.T.);
#218=ORIENTED_EDGE('',*,*,#178,.T.);
#219=ORIENTED_EDGE('',*,*,#179,.T.);
#220=ORIENTED_EDGE('',*,*,#180,.T.);
#221=ORIENTED_EDGE('',*,*,#165,.T.);
#222=ORIENTED_EDGE('',*,*,#168,.T.);
#223=ORIENTED_EDGE('',*,*,#171,.T.);
#224=ORIENTED_EDGE('',*,*,#174,.T.);
#225=ORIENTED_EDGE('',*,*,#181,.T.);
#226=ORIENTED_EDGE('',*,*,#182,.T.);
#227=ORIENTED_EDGE('',*,*,#183,.T.);
#228=ORIENTED_EDGE('',*,*,#184,.T.);
#229=ORIENTED_EDGE('',*,*,#167,.T.);
#230=ORIENTED_EDGE('',*,*,#170,.T.);
#231=ORIENTED_EDGE('',*,*,#173,.T.);
#232=ORIENTED_EDGE('',*,*,#176,.T.);
#233=ORIENTED_EDGE('',*,*,#185,.T.);
#234=ORIENTED_EDGE('',*,*,#182,.F.);
#235=ORIENTED_EDGE('',*,*,#186,.F.);
#236=ORIENTED_EDGE('',*,*,#180,.F.);
#237=ORIENTED_EDGE('',*,*,#187,.T.);
#238=ORIENTED_EDGE('',*,*,#183,.F.);
#239=ORIENTED_EDGE('',*,*,#185,.F.);
#240=ORIENTED_EDGE('',*,*,#179,.F.);
#241=ORIENTED_EDGE('',*,*,#188,.T.);
#242=ORIENTED_EDGE('',*,*,#184,.F.);
#243=ORIENTED_EDGE('',*,*,#187,.F.);
#244=ORIENTED_EDGE('',*,*,#178,.F.);
#245=ORIENTED_EDGE('',*,*,#186,.T.);
#246=ORIENTED_EDGE('',*,*,#181,.F.);
#247=ORIENTED_EDGE('',*,*,#188,.F.);
#248=ORIENTED_EDGE('',*,*,#177,.F.);
#249=ORIENTED_EDGE('',*,*,#189,.F.);
#250=ORIENTED_EDGE('',*,*,#190,.T.);
#251=ORIENTED_EDGE('',*,*,#191,.F.);
#252=ORIENTED_EDGE('',*,*,#192,.F.);
#253=ORIENTED_EDGE('',*,*,#193,.F.);
#254=ORIENTED_EDGE('',*,*,#192,.T.);
#255=ORIENTED_EDGE('',*,*,#194,.F.);
#256=ORIENTED_EDGE('',*,*,#195,.F.);
#257=ORIENTED_EDGE('',*,*,#196,.F.);
#258=ORIENTED_EDGE('',*,*,#195,.T.);
#259=ORIENTED_EDGE('',*,*,#197,.F.);
#260=ORIENTED_EDGE('',*,*,#198,.F.);
#261=ORIENTED_EDGE('',*,*,#199,.F.);
#262=ORIENTED_EDGE('',*,*,#198,.T.);
#263=ORIENTED_EDGE('',*,*,#200,.F.);
#264=ORIENTED_EDGE('',*,*,#190,.F.);
#265=ORIENTED_EDGE('',*,*,#200,.T.);
#266=ORIENTED_EDGE('',*,*,#197,.T.);
#267=ORIENTED_EDGE('',*,*,#194,.T.);
#268=ORIENTED_EDGE('',*,*,#191,.T.);
#269=ORIENTED_EDGE('',*,*,#199,.T.);
#270=ORIENTED_EDGE('',*,*,#189,.T.);
#271=ORIENTED_EDGE('',*,*,#193,.T.);
#272=ORIENTED_EDGE('',*,*,#196,.T.);
#273=CYLINDRICAL_SURFACE('',#308,1.2);
#274=CYLINDRICAL_SURFACE('',#311,1.2);
#275=CYLINDRICAL_SURFACE('',#314,1.2);
#276=CYLINDRICAL_SURFACE('',#317,1.2);
#277=ADVANCED_FACE('',(#37),#273,.F.);
#278=ADVANCED_FACE('',(#38),#274,.F.);
#279=ADVANCED_FACE('',(#39),#275,.F.);
#280=ADVANCED_FACE('',(#40),#276,.F.);
#281=ADVANCED_FACE('',(#41,#17,#18,#19,#20),#25,.T.);
#282=ADVANCED_FACE('',(#42,#21,#22,#23,#24),#26,.F.);
#283=ADVANCED_FACE('',(#43),#27,.F.);
#284=ADVANCED_FACE('',(#44),#28,.F.);
#285=ADVANCED_FACE('',(#45),#29,.F.);
#286=ADVANCED_FACE('',(#46),#30,.F.);
#287=ADVANCED_FACE('',(#47),#31,.T.);
#288=ADVANCED_FACE('',(#48),#32,.T.);
#289=ADVANCED_FACE('',(#49),#33,.T.);
#290=ADVANCED_FACE('',(#50),#34,.T.);
#291=ADVANCED_FACE('',(#51),#35,.T.);
#292=ADVANCED_FACE('',(#52),#36,.F.);
#293=CLOSED_SHELL('',(#277,#278,#279,#280,#281,#282,#283,#284,#285,#286));
#294=CLOSED_SHELL('',(#287,#288,#289,#290,#291,#292));
#295=DERIVED_UNIT_ELEMENT(#297,1.);
#296=DERIVED_UNIT_ELEMENT(#492,-3.);
#297=(
MASS_UNIT()
NAMED_UNIT(*)
SI_UNIT(.KILO.,.GRAM.)
);
#298=DERIVED_UNIT((#295,#296));
#299=MEASURE_REPRESENTATION_ITEM('density measure',
POSITIVE_RATIO_MEASURE(7850.),#298);
#300=PROPERTY_DEFINITION_REPRESENTATION(#305,#302);
#301=PROPERTY_DEFINITION_REPRESENTATION(#306,#303);
#302=REPRESENTATION('material name',(#304),#489);
#303=REPRESENTATION('density',(#299),#489);
#304=DESCRIPTIVE_REPRESENTATION_ITEM('Steel','Steel');
#305=PROPERTY_DEFINITION('material property','material name',#499);
#306=PROPERTY_DEFINITION('material property','density of part',#499);
#307=AXIS2_PLACEMENT_3D('',#410,#332,#333);
#308=AXIS2_PLACEMENT_3D('',#411,#334,#335);
#309=AXIS2_PLACEMENT_3D('',#413,#336,#337);
#310=AXIS2_PLACEMENT_3D('',#416,#339,#340);
#311=AXIS2_PLACEMENT_3D('',#417,#341,#342);
#312=AXIS2_PLACEMENT_3D('',#419,#343,#344);
#313=AXIS2_PLACEMENT_3D('',#422,#346,#347);
#314=AXIS2_PLACEMENT_3D('',#423,#348,#349);
#315=AXIS2_PLACEMENT_3D('',#425,#350,#351);
#316=AXIS2_PLACEMENT_3D('',#428,#353,#354);
#317=AXIS2_PLACEMENT_3D('',#429,#355,#356);
#318=AXIS2_PLACEMENT_3D('',#431,#357,#358);
#319=AXIS2_PLACEMENT_3D('',#434,#360,#361);
#320=AXIS2_PLACEMENT_3D('',#435,#362,#363);
#321=AXIS2_PLACEMENT_3D('',#444,#368,#369);
#322=AXIS2_PLACEMENT_3D('',#453,#374,#375);
#323=AXIS2_PLACEMENT_3D('',#456,#378,#379);
#324=AXIS2_PLACEMENT_3D('',#458,#381,#382);
#325=AXIS2_PLACEMENT_3D('',#460,#384,#385);
#326=AXIS2_PLACEMENT_3D('',#461,#386,#387);
#327=AXIS2_PLACEMENT_3D('',#470,#392,#393);
#328=AXIS2_PLACEMENT_3D('',#476,#397,#398);
#329=AXIS2_PLACEMENT_3D('',#482,#402,#403);
#330=AXIS2_PLACEMENT_3D('',#485,#406,#407);
#331=AXIS2_PLACEMENT_3D('',#486,#408,#409);
#332=DIRECTION('axis',(0.,0.,1.));
#333=DIRECTION('refdir',(1.,0.,0.));
#334=DIRECTION('center_axis',(0.,0.,-1.));
#335=DIRECTION('ref_axis',(-1.,0.,0.));
#336=DIRECTION('center_axis',(0.,0.,-1.));
#337=DIRECTION('ref_axis',(-1.,0.,0.));
#338=DIRECTION('',(0.,0.,-1.));
#339=DIRECTION('center_axis',(0.,0.,1.));
#340=DIRECTION('ref_axis',(-1.,0.,0.));
#341=DIRECTION('center_axis',(0.,0.,-1.));
#342=DIRECTION('ref_axis',(-1.,0.,0.));
#343=DIRECTION('center_axis',(0.,0.,-1.));
#344=DIRECTION('ref_axis',(-1.,0.,0.));
#345=DIRECTION('',(0.,0.,-1.));
#346=DIRECTION('center_axis',(0.,0.,1.));
#347=DIRECTION('ref_axis',(-1.,0.,0.));
#348=DIRECTION('center_axis',(0.,0.,-1.));
#349=DIRECTION('ref_axis',(-1.,0.,0.));
#350=DIRECTION('center_axis',(0.,0.,-1.));
#351=DIRECTION('ref_axis',(-1.,0.,0.));
#352=DIRECTION('',(0.,0.,-1.));
#353=DIRECTION('center_axis',(0.,0.,1.));
#354=DIRECTION('ref_axis',(-1.,0.,0.));
#355=DIRECTION('center_axis',(0.,0.,-1.));
#356=DIRECTION('ref_axis',(-1.,0.,0.));
#357=DIRECTION('center_axis',(0.,0.,-1.));
#358=DIRECTION('ref_axis',(-1.,0.,0.));
#359=DIRECTION('',(0.,0.,-1.));
#360=DIRECTION('center_axis',(0.,0.,1.));
#361=DIRECTION('ref_axis',(-1.,0.,0.));
#362=DIRECTION('center_axis',(0.,0.,1.));
#363=DIRECTION('ref_axis',(0.,1.,0.));
#364=DIRECTION('',(-1.,0.,0.));
#365=DIRECTION('',(0.,-1.,0.));
#366=DIRECTION('',(1.,0.,0.));
#367=DIRECTION('',(0.,1.,0.));
#368=DIRECTION('center_axis',(0.,0.,1.));
#369=DIRECTION('ref_axis',(0.,1.,0.));
#370=DIRECTION('',(1.,0.,0.));
#371=DIRECTION('',(0.,-1.,0.));
#372=DIRECTION('',(-1.,0.,0.));
#373=DIRECTION('',(0.,1.,0.));
#374=DIRECTION('center_axis',(-1.,0.,0.));
#375=DIRECTION('ref_axis',(0.,0.,1.));
#376=DIRECTION('',(0.,0.,-1.));
#377=DIRECTION('',(0.,0.,-1.));
#378=DIRECTION('center_axis',(0.,1.,0.));
#379=DIRECTION('ref_axis',(0.,0.,-1.));
#380=DIRECTION('',(0.,0.,-1.));
#381=DIRECTION('center_axis',(1.,0.,0.));
#382=DIRECTION('ref_axis',(0.,0.,-1.));
#383=DIRECTION('',(0.,0.,-1.));
#384=DIRECTION('center_axis',(0.,-1.,0.));
#385=DIRECTION('ref_axis',(0.,0.,1.));
#386=DIRECTION('center_axis',(1.,-3.1720657846433E-16,0.));
#387=DIRECTION('ref_axis',(3.1720657846433E-16,1.,0.));
#388=DIRECTION('',(-3.1720657846433E-16,-1.,0.));
#389=DIRECTION('',(0.,0.,1.));
#390=DIRECTION('',(3.1720657846433E-16,1.,0.));
#391=DIRECTION('',(0.,0.,1.));
#392=DIRECTION('center_axis',(0.,-1.,0.));
#393=DIRECTION('ref_axis',(1.,0.,0.));
#394=DIRECTION('',(-1.,0.,0.));
#395=DIRECTION('',(1.,0.,0.));
#396=DIRECTION('',(0.,0.,1.));
#397=DIRECTION('center_axis',(-1.,-1.78428700386186E-16,0.));
#398=DIRECTION('ref_axis',(1.78428700386186E-16,-1.,0.));
#399=DIRECTION('',(-1.78428700386186E-16,1.,0.));
#400=DIRECTION('',(1.78428700386186E-16,-1.,0.));
#401=DIRECTION('',(0.,0.,1.));
#402=DIRECTION('center_axis',(0.,1.,0.));
#403=DIRECTION('ref_axis',(-1.,0.,0.));
#404=DIRECTION('',(1.,0.,0.));
#405=DIRECTION('',(-1.,0.,0.));
#406=DIRECTION('center_axis',(0.,0.,1.));
#407=DIRECTION('ref_axis',(1.,0.,0.));
#408=DIRECTION('center_axis',(0.,0.,1.));
#409=DIRECTION('ref_axis',(-1.,0.,0.));
#410=CARTESIAN_POINT('',(0.,0.,0.));
#411=CARTESIAN_POINT('Origin',(1.69524484463858,1.7,3.));
#412=CARTESIAN_POINT('',(2.89524484463858,1.7,3.));
#413=CARTESIAN_POINT('Origin',(1.69524484463858,1.7,3.));
#414=CARTESIAN_POINT('',(2.89524484463858,1.7,0.));
#415=CARTESIAN_POINT('',(2.89524484463858,1.7,3.));
#416=CARTESIAN_POINT('Origin',(1.69524484463858,1.7,0.));
#417=CARTESIAN_POINT('Origin',(64.7952448446386,1.7,3.));
#418=CARTESIAN_POINT('',(65.9952448446386,1.7,3.));
#419=CARTESIAN_POINT('Origin',(64.7952448446386,1.7,3.));
#420=CARTESIAN_POINT('',(65.9952448446386,1.7,0.));
#421=CARTESIAN_POINT('',(65.9952448446386,1.7,3.));
#422=CARTESIAN_POINT('Origin',(64.7952448446386,1.7,0.));
#423=CARTESIAN_POINT('Origin',(1.69524484463858,33.3,3.));
#424=CARTESIAN_POINT('',(2.89524484463858,33.3,3.));
#425=CARTESIAN_POINT('Origin',(1.69524484463858,33.3,3.));
#426=CARTESIAN_POINT('',(2.89524484463858,33.3,0.));
#427=CARTESIAN_POINT('',(2.89524484463858,33.3,3.));
#428=CARTESIAN_POINT('Origin',(1.69524484463858,33.3,0.));
#429=CARTESIAN_POINT('Origin',(64.7952448446386,33.3,3.));
#430=CARTESIAN_POINT('',(65.9952448446386,33.3,3.));
#431=CARTESIAN_POINT('Origin',(64.7952448446386,33.3,3.));
#432=CARTESIAN_POINT('',(65.9952448446386,33.3,0.));
#433=CARTESIAN_POINT('',(65.9952448446386,33.3,3.));
#434=CARTESIAN_POINT('Origin',(64.7952448446386,33.3,0.));
#435=CARTESIAN_POINT('Origin',(33.2452448446386,17.5,3.));
#436=CARTESIAN_POINT('',(66.4952448446386,35.,3.));
#437=CARTESIAN_POINT('',(-0.00475515536141558,35.,3.));
#438=CARTESIAN_POINT('',(33.2452448446386,35.,3.));
#439=CARTESIAN_POINT('',(-0.00475515536141558,0.,3.));
#440=CARTESIAN_POINT('',(-0.00475515536141558,17.5,3.));
#441=CARTESIAN_POINT('',(66.4952448446386,0.,3.));
#442=CARTESIAN_POINT('',(33.2452448446386,0.,3.));
#443=CARTESIAN_POINT('',(66.4952448446386,17.5,3.));
#444=CARTESIAN_POINT('Origin',(33.2452448446386,17.5,0.));
#445=CARTESIAN_POINT('',(-0.00475515536141558,35.,0.));
#446=CARTESIAN_POINT('',(66.4952448446386,35.,0.));
#447=CARTESIAN_POINT('',(33.2452448446386,35.,0.));
#448=CARTESIAN_POINT('',(66.4952448446386,0.,0.));
#449=CARTESIAN_POINT('',(66.4952448446386,17.5,0.));
#450=CARTESIAN_POINT('',(-0.00475515536141558,0.,0.));
#451=CARTESIAN_POINT('',(33.2452448446386,0.,0.));
#452=CARTESIAN_POINT('',(-0.00475515536141558,17.5,0.));
#453=CARTESIAN_POINT('Origin',(66.4952448446386,17.5,1.5));
#454=CARTESIAN_POINT('',(66.4952448446386,0.,1.5));
#455=CARTESIAN_POINT('',(66.4952448446386,35.,1.5));
#456=CARTESIAN_POINT('Origin',(33.2452448446386,0.,1.5));
#457=CARTESIAN_POINT('',(-0.00475515536141558,0.,1.5));
#458=CARTESIAN_POINT('Origin',(-0.00475515536141558,17.5,1.5));
#459=CARTESIAN_POINT('',(-0.00475515536141558,35.,1.5));
#460=CARTESIAN_POINT('Origin',(33.2452448446386,35.,1.5));
#461=CARTESIAN_POINT('Origin',(65.2452448446386,3.5,3.));
#462=CARTESIAN_POINT('',(65.2452448446386,31.5,3.));
#463=CARTESIAN_POINT('',(65.2452448446386,3.5,3.));
#464=CARTESIAN_POINT('',(65.2452448446386,31.5,3.));
#465=CARTESIAN_POINT('',(65.2452448446386,31.5,8.));
#466=CARTESIAN_POINT('',(65.2452448446386,31.5,3.));
#467=CARTESIAN_POINT('',(65.2452448446386,3.5,8.));
#468=CARTESIAN_POINT('',(65.2452448446386,31.5,8.));
#469=CARTESIAN_POINT('',(65.2452448446386,3.5,3.));
#470=CARTESIAN_POINT('Origin',(1.24524484463858,3.5,3.));
#471=CARTESIAN_POINT('',(1.24524484463858,3.5,3.));
#472=CARTESIAN_POINT('',(65.2452448446386,3.5,3.));
#473=CARTESIAN_POINT('',(1.24524484463858,3.5,8.));
#474=CARTESIAN_POINT('',(65.2452448446386,3.5,8.));
#475=CARTESIAN_POINT('',(1.24524484463858,3.5,3.));
#476=CARTESIAN_POINT('Origin',(1.24524484463858,31.5,3.));
#477=CARTESIAN_POINT('',(1.24524484463858,31.5,3.));
#478=CARTESIAN_POINT('',(1.24524484463858,3.5,3.));
#479=CARTESIAN_POINT('',(1.24524484463858,31.5,8.));
#480=CARTESIAN_POINT('',(1.24524484463858,3.5,8.));
#481=CARTESIAN_POINT('',(1.24524484463858,31.5,3.));
#482=CARTESIAN_POINT('Origin',(65.2452448446386,31.5,3.));
#483=CARTESIAN_POINT('',(1.24524484463858,31.5,3.));
#484=CARTESIAN_POINT('',(1.24524484463858,31.5,8.));
#485=CARTESIAN_POINT('Origin',(33.2452448446386,17.5,8.));
#486=CARTESIAN_POINT('Origin',(33.2452448446386,17.5,3.));
#487=UNCERTAINTY_MEASURE_WITH_UNIT(LENGTH_MEASURE(0.01),#491,
'DISTANCE_ACCURACY_VALUE',
'Maximum model space distance between geometric entities at asserted c
onnectivities');
#488=UNCERTAINTY_MEASURE_WITH_UNIT(LENGTH_MEASURE(0.01),#491,
'DISTANCE_ACCURACY_VALUE',
'Maximum model space distance between geometric entities at asserted c
onnectivities');
#489=(
GEOMETRIC_REPRESENTATION_CONTEXT(3)
GLOBAL_UNCERTAINTY_ASSIGNED_CONTEXT((#487))
GLOBAL_UNIT_ASSIGNED_CONTEXT((#491,#493,#494))
REPRESENTATION_CONTEXT('','3D')
);
#490=(
GEOMETRIC_REPRESENTATION_CONTEXT(3)
GLOBAL_UNCERTAINTY_ASSIGNED_CONTEXT((#488))
GLOBAL_UNIT_ASSIGNED_CONTEXT((#491,#493,#494))
REPRESENTATION_CONTEXT('','3D')
);
#491=(
LENGTH_UNIT()
NAMED_UNIT(*)
SI_UNIT(.MILLI.,.METRE.)
);
#492=(
LENGTH_UNIT()
NAMED_UNIT(*)
SI_UNIT($,.METRE.)
);
#493=(
NAMED_UNIT(*)
PLANE_ANGLE_UNIT()
SI_UNIT($,.RADIAN.)
);
#494=(
NAMED_UNIT(*)
SI_UNIT($,.STERADIAN.)
SOLID_ANGLE_UNIT()
);
#495=SHAPE_DEFINITION_REPRESENTATION(#496,#497);
#496=PRODUCT_DEFINITION_SHAPE('',$,#499);
#497=SHAPE_REPRESENTATION('',(#307),#489);
#498=PRODUCT_DEFINITION_CONTEXT('part definition',#503,'design');
#499=PRODUCT_DEFINITION('Screen approximate','Screen approximate v5',#500,
#498);
#500=PRODUCT_DEFINITION_FORMATION('',$,#505);
#501=PRODUCT_RELATED_PRODUCT_CATEGORY('Screen approximate v5',
'Screen approximate v5',(#505));
#502=APPLICATION_PROTOCOL_DEFINITION('international standard',
'automotive_design',2009,#503);
#503=APPLICATION_CONTEXT(
'Core Data for Automotive Mechanical Design Process');
#504=PRODUCT_CONTEXT('part definition',#503,'mechanical');
#505=PRODUCT('Screen approximate','Screen approximate v5',$,(#504));
#506=PRESENTATION_STYLE_ASSIGNMENT((#509));
#507=PRESENTATION_STYLE_ASSIGNMENT((#510));
#508=PRESENTATION_STYLE_ASSIGNMENT((#511));
#509=SURFACE_STYLE_USAGE(.BOTH.,#512);
#510=SURFACE_STYLE_USAGE(.BOTH.,#513);
#511=SURFACE_STYLE_USAGE(.BOTH.,#514);
#512=SURFACE_SIDE_STYLE('',(#515));
#513=SURFACE_SIDE_STYLE('',(#516));
#514=SURFACE_SIDE_STYLE('',(#517));
#515=SURFACE_STYLE_FILL_AREA(#518);
#516=SURFACE_STYLE_FILL_AREA(#519);
#517=SURFACE_STYLE_FILL_AREA(#520);
#518=FILL_AREA_STYLE('Steel - Satin',(#521));
#519=FILL_AREA_STYLE('Paint - Metallic (Green)',(#522));
#520=FILL_AREA_STYLE('Glass - Heavy Color',(#523));
#521=FILL_AREA_STYLE_COLOUR('Steel - Satin',#524);
#522=FILL_AREA_STYLE_COLOUR('Paint - Metallic (Green)',#525);
#523=FILL_AREA_STYLE_COLOUR('Glass - Heavy Color',#526);
#524=COLOUR_RGB('Steel - Satin',0.627450980392157,0.627450980392157,0.627450980392157);
#525=COLOUR_RGB('Paint - Metallic (Green)',0.266666666666667,0.588235294117647,
0.282352941176471);
#526=COLOUR_RGB('Glass - Heavy Color',0.0980392156862745,0.0980392156862745,
0.0980392156862745);
ENDSEC;
END-ISO-10303-21;
